G04 Layer_Physical_Order=4*
G04 Layer_Color=16711680*
%FSLAX43Y43*%
%MOMM*%
G71*
G01*
G75*
%ADD10C,0.200*%
%ADD11C,0.500*%
%ADD13C,0.300*%
G04:AMPARAMS|DCode=16|XSize=1.53mm|YSize=1.02mm|CornerRadius=0.128mm|HoleSize=0mm|Usage=FLASHONLY|Rotation=270.000|XOffset=0mm|YOffset=0mm|HoleType=Round|Shape=RoundedRectangle|*
%AMROUNDEDRECTD16*
21,1,1.530,0.765,0,0,270.0*
21,1,1.275,1.020,0,0,270.0*
1,1,0.255,-0.383,-0.637*
1,1,0.255,-0.383,0.637*
1,1,0.255,0.383,0.637*
1,1,0.255,0.383,-0.637*
%
%ADD16ROUNDEDRECTD16*%
G04:AMPARAMS|DCode=17|XSize=1.53mm|YSize=1.02mm|CornerRadius=0.128mm|HoleSize=0mm|Usage=FLASHONLY|Rotation=180.000|XOffset=0mm|YOffset=0mm|HoleType=Round|Shape=RoundedRectangle|*
%AMROUNDEDRECTD17*
21,1,1.530,0.765,0,0,180.0*
21,1,1.275,1.020,0,0,180.0*
1,1,0.255,-0.637,0.383*
1,1,0.255,0.637,0.383*
1,1,0.255,0.637,-0.383*
1,1,0.255,-0.637,-0.383*
%
%ADD17ROUNDEDRECTD17*%
G04:AMPARAMS|DCode=20|XSize=1.21mm|YSize=1.46mm|CornerRadius=0.151mm|HoleSize=0mm|Usage=FLASHONLY|Rotation=0.000|XOffset=0mm|YOffset=0mm|HoleType=Round|Shape=RoundedRectangle|*
%AMROUNDEDRECTD20*
21,1,1.210,1.157,0,0,0.0*
21,1,0.907,1.460,0,0,0.0*
1,1,0.302,0.454,-0.579*
1,1,0.302,-0.454,-0.579*
1,1,0.302,-0.454,0.579*
1,1,0.302,0.454,0.579*
%
%ADD20ROUNDEDRECTD20*%
G04:AMPARAMS|DCode=23|XSize=1.21mm|YSize=1.46mm|CornerRadius=0.151mm|HoleSize=0mm|Usage=FLASHONLY|Rotation=270.000|XOffset=0mm|YOffset=0mm|HoleType=Round|Shape=RoundedRectangle|*
%AMROUNDEDRECTD23*
21,1,1.210,1.157,0,0,270.0*
21,1,0.907,1.460,0,0,270.0*
1,1,0.302,-0.579,-0.454*
1,1,0.302,-0.579,0.454*
1,1,0.302,0.579,0.454*
1,1,0.302,0.579,-0.454*
%
%ADD23ROUNDEDRECTD23*%
%ADD34C,1.900*%
%ADD35C,1.700*%
%ADD36R,1.700X1.700*%
%ADD37R,1.700X1.700*%
%ADD38C,1.400*%
%ADD39R,1.400X1.400*%
%ADD40R,1.900X1.900*%
%ADD41C,2.700*%
%ADD42R,2.200X2.200*%
%ADD43C,1.200*%
%ADD44R,1.200X1.200*%
%ADD45C,0.700*%
%ADD46C,1.000*%
G04:AMPARAMS|DCode=47|XSize=1.05mm|YSize=1.07mm|CornerRadius=0.131mm|HoleSize=0mm|Usage=FLASHONLY|Rotation=270.000|XOffset=0mm|YOffset=0mm|HoleType=Round|Shape=RoundedRectangle|*
%AMROUNDEDRECTD47*
21,1,1.050,0.808,0,0,270.0*
21,1,0.787,1.070,0,0,270.0*
1,1,0.263,-0.404,-0.394*
1,1,0.263,-0.404,0.394*
1,1,0.263,0.404,0.394*
1,1,0.263,0.404,-0.394*
%
%ADD47ROUNDEDRECTD47*%
G04:AMPARAMS|DCode=48|XSize=1.6mm|YSize=1.25mm|CornerRadius=0.156mm|HoleSize=0mm|Usage=FLASHONLY|Rotation=0.000|XOffset=0mm|YOffset=0mm|HoleType=Round|Shape=RoundedRectangle|*
%AMROUNDEDRECTD48*
21,1,1.600,0.938,0,0,0.0*
21,1,1.288,1.250,0,0,0.0*
1,1,0.313,0.644,-0.469*
1,1,0.313,-0.644,-0.469*
1,1,0.313,-0.644,0.469*
1,1,0.313,0.644,0.469*
%
%ADD48ROUNDEDRECTD48*%
%ADD49O,0.550X1.650*%
%ADD50O,1.650X0.550*%
G36*
X38500Y41900D02*
X38500Y41900D01*
X38500D01*
X38680Y41860D01*
X38737Y41836D01*
X38854Y41719D01*
X38918Y41565D01*
X38918Y41482D01*
X38918Y38772D01*
X38918Y38772D01*
X38918Y38678D01*
X38846Y38504D01*
X38713Y38372D01*
X38540Y38300D01*
X38446Y38300D01*
X37745Y38300D01*
X37571Y38451D01*
Y38534D01*
X36600D01*
Y38834D01*
X36300D01*
Y39550D01*
X35963D01*
X35800Y39722D01*
X35800Y41500D01*
X35800Y41500D01*
X35800Y41500D01*
X35845Y41688D01*
X35861Y41727D01*
X35973Y41839D01*
X36120Y41900D01*
X36200Y41900D01*
X38500Y41900D01*
X38500Y41900D01*
D02*
G37*
G36*
X46700Y21300D02*
Y21300D01*
X46700D01*
X46886Y21288D01*
X47079Y21250D01*
X47316Y21152D01*
X47529Y21010D01*
X47710Y20829D01*
X47852Y20616D01*
X47950Y20379D01*
X48000Y20128D01*
Y20000D01*
X48000Y9624D01*
X48008Y9465D01*
X48070Y9153D01*
X48192Y8858D01*
X48369Y8594D01*
X48594Y8369D01*
X48859Y8192D01*
X49153Y8070D01*
X49465Y8008D01*
X49624Y8000D01*
X58265Y8000D01*
X58265Y8000D01*
X58265Y8000D01*
X58265D01*
X58448Y7974D01*
X58608Y7908D01*
X58778Y7738D01*
X58870Y7515D01*
X58870Y7395D01*
X58870Y5763D01*
X58870Y5763D01*
Y5651D01*
X58784Y5444D01*
X58626Y5286D01*
X58419Y5200D01*
X58307Y5200D01*
X46614Y5200D01*
X46613Y5200D01*
X46501Y5200D01*
X46281Y5244D01*
X46074Y5330D01*
X45888Y5454D01*
X45781Y5561D01*
Y19000D01*
X45778Y19016D01*
X45779Y19032D01*
X45757Y19240D01*
X45748Y19271D01*
X45744Y19302D01*
X45679Y19501D01*
X45664Y19529D01*
X45653Y19560D01*
X45549Y19741D01*
X45528Y19765D01*
X45511Y19792D01*
X45371Y19948D01*
X45346Y19967D01*
X45324Y19991D01*
X45155Y20114D01*
X45126Y20127D01*
X45099Y20145D01*
X44908Y20231D01*
X44877Y20238D01*
X44848Y20250D01*
X44643Y20294D01*
X44611Y20294D01*
X44580Y20300D01*
X44370D01*
X44339Y20294D01*
X44307Y20294D01*
X44102Y20250D01*
X44073Y20238D01*
X44042Y20231D01*
X43851Y20145D01*
X43824Y20127D01*
X43795Y20114D01*
X43626Y19991D01*
X43604Y19967D01*
X43579Y19948D01*
X43439Y19792D01*
X43422Y19765D01*
X43401Y19741D01*
X43313Y19588D01*
X43300D01*
Y19566D01*
X43297Y19560D01*
X43286Y19529D01*
X43271Y19501D01*
X43206Y19302D01*
X43202Y19271D01*
X43193Y19240D01*
X43171Y19032D01*
X43172Y19016D01*
X43169Y19000D01*
Y17521D01*
X43040Y17391D01*
X42819Y17300D01*
X42700Y17300D01*
X38207Y17300D01*
X38096Y17300D01*
X37892Y17385D01*
X37735Y17542D01*
X37650Y17746D01*
X37650Y17857D01*
X37650Y20353D01*
X37650Y20747D01*
X37650Y20747D01*
X37650Y20747D01*
X37680Y20930D01*
X37734Y21060D01*
X37890Y21216D01*
X38093Y21300D01*
X38203D01*
X46700Y21300D01*
X46700Y21300D01*
D02*
G37*
%LPC*%
G36*
X37237Y39550D02*
X36900D01*
Y39134D01*
X37571D01*
Y39216D01*
X37546Y39344D01*
X37474Y39452D01*
X37365Y39525D01*
X37237Y39550D01*
D02*
G37*
%LPD*%
D10*
X46781Y31881D02*
G03*
X47525Y33677I-1796J1796D01*
G01*
X46763Y31863D02*
G03*
X46281Y30700I1163J-1163D01*
G01*
X46626Y29312D02*
G03*
X47300Y30940I-1628J1628D01*
G01*
X45165Y28700D02*
G03*
X46614Y29300I0J2049D01*
G01*
X47650Y32141D02*
G03*
X47300Y31297I844J-844D01*
G01*
X47650Y32141D02*
G03*
X48000Y32987I-846J846D01*
G01*
X45157Y28200D02*
G03*
X46953Y28944I0J2540D01*
G01*
X48446Y32457D02*
G03*
X48000Y31380I1078J-1078D01*
G01*
X47453Y29444D02*
G03*
X48000Y30765I-1321J1321D01*
G01*
X48446Y32457D02*
G03*
X48925Y33613I-1155J1155D01*
G01*
X47745Y28880D02*
G03*
X47150Y27445I1435J-1435D01*
G01*
X47764Y28900D02*
G03*
X48500Y30677I-1777J1777D01*
G01*
X48893Y32141D02*
G03*
X48500Y31191I950J-950D01*
G01*
X49153Y32400D02*
G03*
X49725Y33782I-1382J1382D01*
G01*
X36556Y29444D02*
G03*
X38352Y28700I1796J1796D01*
G01*
X40301Y27572D02*
G03*
X40300Y27571I1517J-1519D01*
G01*
X41818Y28200D02*
G03*
X40301Y27572I0J-2146D01*
G01*
X59438Y19247D02*
G03*
X60057Y19866I0J619D01*
G01*
Y21166D02*
G03*
X59313Y22962I-2540J0D01*
G01*
X57589Y24686D02*
G03*
X55793Y25430I-1796J-1796D01*
G01*
X51830Y24300D02*
G03*
X52509Y23621I679J0D01*
G01*
X57650Y22877D02*
G03*
X55854Y23621I-1796J-1796D01*
G01*
X59168Y20307D02*
G03*
X58425Y22103I-2540J0D01*
G01*
X49490Y24966D02*
G03*
X49967Y23814I1629J0D01*
G01*
D02*
G03*
X51763Y23070I1796J1796D01*
G01*
X51325Y28664D02*
G03*
X51830Y27445I1724J0D01*
G01*
X49781Y27736D02*
G03*
X50525Y29532I-1796J1796D01*
G01*
X54556Y29395D02*
G03*
X54200Y28535I860J-860D01*
G01*
X54556Y29395D02*
G03*
X55300Y31191I-1796J1796D01*
G01*
Y34600D02*
G03*
X54876Y35624I-1449J0D01*
G01*
X41100Y2200D02*
G03*
X41800Y2900I0J700D01*
G01*
Y4200D02*
G03*
X40800Y5200I-1000J0D01*
G01*
X29737Y5763D02*
G03*
X31096Y5200I1359J1359D01*
G01*
X37205Y2194D02*
G03*
X39001Y2938I0J2540D01*
G01*
X31865Y2756D02*
G03*
X33458Y2194I1593J1978D01*
G01*
X63378Y15878D02*
G03*
X62600Y16200I-778J-778D01*
G01*
X63725Y15040D02*
G03*
X63378Y15878I-1185J0D01*
G01*
X63150Y9800D02*
G03*
X63725Y10375I0J575D01*
G01*
X30417Y21900D02*
G03*
X28621Y21156I0J-2540D01*
G01*
X27708Y20243D02*
G03*
X27326Y19321I922J-922D01*
G01*
X50061Y19892D02*
G03*
X51857Y19148I1796J1796D01*
G01*
X48997Y20956D02*
G03*
X47201Y21700I-1796J-1796D01*
G01*
X39644Y26915D02*
G03*
X38900Y25119I1796J-1796D01*
G01*
Y22442D02*
G03*
X39642Y21700I742J0D01*
G01*
X50272Y20297D02*
G03*
X52069Y19553I1796J1796D01*
G01*
X49195Y21374D02*
G03*
X47399Y22118I-1796J-1796D01*
G01*
X42052Y27445D02*
G03*
X39512Y24905I0J-2540D01*
G01*
Y22712D02*
G03*
X40106Y22118I594J0D01*
G01*
X45091Y26456D02*
G03*
X43295Y25712I0J-2540D01*
G01*
X52431Y26456D02*
G03*
X53041Y27065I0J609D01*
G01*
X52925Y43495D02*
G03*
X52550Y44400I-1280J0D01*
G01*
X32952Y47900D02*
G03*
X31156Y47156I0J-2540D01*
G01*
X47283D02*
G03*
X45487Y47900I-1796J-1796D01*
G01*
X45972Y46756D02*
G03*
X44176Y47500I-1796J-1796D01*
G01*
X47830Y43403D02*
G03*
X48925Y42950I1095J1095D01*
G01*
X44878Y46356D02*
G03*
X43082Y47100I-1796J-1796D01*
G01*
X9600Y26052D02*
G03*
X10329Y24291I2490J0D01*
G01*
X10831Y25721D02*
G03*
X11575Y23925I2540J0D01*
G01*
X33352Y47500D02*
G03*
X31556Y46756I0J-2540D01*
G01*
X18663Y33863D02*
G03*
X18000Y32263I1600J-1600D01*
G01*
X27521Y16777D02*
G03*
X28265Y18573I-1796J1796D01*
G01*
X25692Y16000D02*
G03*
X27488Y16744I0J2540D01*
G01*
X18000Y20252D02*
G03*
X18744Y18456I2540J0D01*
G01*
X20456Y16744D02*
G03*
X22252Y16000I1796J1796D01*
G01*
X17500Y20050D02*
G03*
X18244Y18254I2540J0D01*
G01*
X29018Y7479D02*
G03*
X30814Y6735I1796J1796D01*
G01*
X49725Y43662D02*
G03*
X48981Y45458I-2540J0D01*
G01*
X14540Y50044D02*
G03*
X16336Y49300I1796J1796D01*
G01*
X47825Y48556D02*
G03*
X46029Y49300I-1796J-1796D01*
G01*
X12600Y49444D02*
G03*
X14396Y48700I1796J1796D01*
G01*
X47172Y47956D02*
G03*
X45376Y48700I-1796J-1796D01*
G01*
X18244Y34244D02*
G03*
X17500Y32448I1796J-1796D01*
G01*
X53300Y32507D02*
G03*
X53725Y33534I-1026J1026D01*
G01*
X53300Y32507D02*
G03*
X53041Y31881I626J-626D01*
G01*
X31395Y33794D02*
G03*
X29690Y34500I-1705J-1705D01*
G01*
X31544Y33656D02*
G03*
X31395Y33794I-1796J-1796D01*
G01*
X35252Y46600D02*
G03*
X33456Y45856I0J-2540D01*
G01*
X25536Y37936D02*
G03*
X24900Y36400I1536J-1536D01*
G01*
Y35300D02*
G03*
X25700Y34500I800J0D01*
G01*
X34119Y47100D02*
G03*
X32322Y46356I0J-2540D01*
G01*
X24500Y38534D02*
G03*
X23955Y37218I1316J-1316D01*
G01*
X44644Y45856D02*
G03*
X42848Y46600I-1796J-1796D01*
G01*
X48350Y40750D02*
G03*
X48800Y41200I0J450D01*
G01*
D02*
G03*
X48446Y42054I-1207J0D01*
G01*
X32856Y27856D02*
G03*
X33600Y29652I-1796J1796D01*
G01*
Y30548D02*
G03*
X32856Y32344I-2540J0D01*
G01*
X31666Y34334D02*
G03*
X29870Y35078I-1796J-1796D01*
G01*
X27044Y22044D02*
G03*
X26300Y20248I1796J-1796D01*
G01*
X58267Y20149D02*
G03*
X57523Y21945I-2540J0D01*
G01*
X57142Y22326D02*
G03*
X55346Y23070I-1796J-1796D01*
G01*
X55839Y20661D02*
G03*
X54297Y21300I-1542J-1542D01*
G01*
X50135Y22044D02*
G03*
X51931Y21300I1796J1796D01*
G01*
X47150Y25430D02*
G03*
X47434Y24745I968J0D01*
G01*
X57700Y44000D02*
G03*
X58300Y44600I0J600D01*
G01*
X56600Y44000D02*
G03*
X54850Y43275I0J-2474D01*
G01*
X54934Y41374D02*
G03*
X54067Y40806I929J-2364D01*
G01*
X55863Y41550D02*
G03*
X54934Y41374I0J-2540D01*
G01*
X53500Y38052D02*
G03*
X54244Y36256I2540J0D01*
G01*
X54011Y40750D02*
G03*
X53500Y39516I1234J-1234D01*
G01*
X57352Y43300D02*
G03*
X55556Y42556I0J-2540D01*
G01*
X54083Y41561D02*
G03*
X54900Y41900I0J1156D01*
G01*
X52125Y42136D02*
G03*
X52700Y41561I575J0D01*
G01*
X62733Y42556D02*
G03*
X60937Y43300I-1796J-1796D01*
G01*
X64200Y40748D02*
G03*
X63959Y41330I-823J0D01*
G01*
X63456Y19024D02*
G03*
X64200Y20820I-1796J1796D01*
G01*
X55925Y40750D02*
G03*
X55975Y40700I50J0D01*
G01*
X56900D02*
G03*
X57400Y41200I0J500D01*
G01*
X58325Y42700D02*
G03*
X57400Y41775I0J-925D01*
G01*
X62289Y41956D02*
G03*
X60493Y42700I-1796J-1796D01*
G01*
X63700Y39493D02*
G03*
X62956Y41289I-2540J0D01*
G01*
Y28513D02*
G03*
X63700Y30309I-1796J1796D01*
G01*
X61544Y27101D02*
G03*
X60800Y25305I1796J-1796D01*
G01*
Y17200D02*
G03*
X61800Y16200I1000J0D01*
G01*
X61479Y15549D02*
G03*
X59907Y16200I-1572J-1572D01*
G01*
X58533Y16769D02*
G03*
X59907Y16200I1375J1375D01*
G01*
X55846Y19456D02*
G03*
X54050Y20200I-1796J-1796D01*
G01*
X50356Y20944D02*
G03*
X52152Y20200I1796J1796D01*
G01*
X47679Y23621D02*
G03*
X46281Y24200I-1397J-1397D01*
G01*
X12828Y51756D02*
G03*
X11032Y52500I-1796J-1796D01*
G01*
X10500D02*
G03*
X9600Y51600I0J-900D01*
G01*
X26204Y35821D02*
G03*
X28000Y35078I1796J1796D01*
G01*
X47525Y41550D02*
G03*
X46970Y42890I-1895J0D01*
G01*
X37889Y46142D02*
G03*
X36093Y45398I0J-2540D01*
G01*
X44462D02*
G03*
X42666Y46142I-1796J-1796D01*
G01*
X50525Y43551D02*
G03*
X49781Y45347I-2540J0D01*
G01*
X51325Y44004D02*
G03*
X50581Y45800I-2540J0D01*
G01*
X48619Y35681D02*
G03*
X48000Y34186I1495J-1495D01*
G01*
X50690Y36700D02*
G03*
X48894Y35956I0J-2540D01*
G01*
X53894D02*
G03*
X52098Y36700I-1796J-1796D01*
G01*
X54525Y34550D02*
G03*
X53977Y35873I-1871J0D01*
G01*
X58044Y11656D02*
G03*
X59628Y11000I1584J1584D01*
G01*
X57300Y13452D02*
G03*
X58044Y11656I2540J0D01*
G01*
X59628Y11000D02*
G03*
X61137Y11625I0J2134D01*
G01*
X57300Y15673D02*
G03*
X56556Y17469I-2540J0D01*
G01*
X55621Y18404D02*
G03*
X53825Y19148I-1796J-1796D01*
G01*
X55785Y18809D02*
G03*
X53989Y19553I-1796J-1796D01*
G01*
X59460Y15028D02*
G03*
X59385Y15208I-255J0D01*
G01*
X46763Y31863D02*
X46781Y31881D01*
X47300Y30940D02*
Y31297D01*
X46614Y29300D02*
X46626Y29312D01*
X38352Y28700D02*
X45165D01*
X48000Y32987D02*
Y34186D01*
X41818Y28200D02*
X45157D01*
X46953Y28944D02*
X47453Y29444D01*
X48925Y33613D02*
Y34550D01*
X48000Y30765D02*
Y31380D01*
X42052Y27445D02*
X47150D01*
X47745Y28880D02*
X47764Y28900D01*
X48500Y30677D02*
Y31191D01*
X48893Y32141D02*
X49153Y32400D01*
X49725Y33782D02*
Y34550D01*
X31666Y34334D02*
X36556Y29444D01*
X39644Y26915D02*
X40300Y27571D01*
X57266Y19247D02*
X59438D01*
X60057Y19866D02*
Y21166D01*
X55846Y19456D02*
X58533Y16769D01*
X55785Y18809D02*
X59385Y15208D01*
X57589Y24686D02*
X59313Y22962D01*
X54200Y25430D02*
X55793D01*
X51830Y24300D02*
Y25430D01*
X52509Y23621D02*
X55854D01*
X57650Y22877D02*
X58425Y22103D01*
X49490Y24966D02*
Y25430D01*
X51763Y23070D02*
X55346D01*
X49490Y27445D02*
X49781Y27736D01*
X54200Y27445D02*
Y28535D01*
X55300Y31191D02*
Y34600D01*
X40257Y2200D02*
X41100D01*
X41800Y2900D02*
Y4200D01*
X31096Y5200D02*
X40800D01*
X11575Y23925D02*
X29737Y5763D01*
X40257Y2194D02*
Y2200D01*
X39001Y2938D02*
X40257Y4194D01*
X33458Y2194D02*
X37205D01*
X63725Y10375D02*
Y15040D01*
X62582Y9800D02*
X63150D01*
X40383Y22800D02*
X43295Y25712D01*
X30417Y21900D02*
X38139D01*
X27708Y20243D02*
X28621Y21156D01*
X48997Y20956D02*
X50061Y19892D01*
X39642Y21700D02*
X47201D01*
X38900Y22442D02*
Y25119D01*
X49195Y21374D02*
X50272Y20297D01*
X40106Y22118D02*
X47399D01*
X39512Y22712D02*
Y24905D01*
X45091Y26456D02*
X52431D01*
X45972Y46756D02*
X48310Y44418D01*
X52925Y42950D02*
Y43495D01*
X32952Y47900D02*
X45487D01*
X33352Y47500D02*
X44176D01*
X34119Y47100D02*
X43082D01*
X44878Y46356D02*
X47830Y43403D01*
X10329Y24291D02*
X31865Y2756D01*
X9600Y26052D02*
Y51600D01*
X10831Y25721D02*
Y51213D01*
X18663Y33863D02*
X31556Y46756D01*
X18000Y20252D02*
Y32263D01*
X27488Y16744D02*
X27521Y16777D01*
X22252Y16000D02*
X25692D01*
X18744Y18456D02*
X20456Y16744D01*
X28265Y18573D02*
Y19700D01*
X17500Y20050D02*
Y32448D01*
X30814Y6735D02*
X30884D01*
X18244Y18254D02*
X29018Y7479D01*
X47283Y47156D02*
X48981Y45458D01*
X49725Y42950D02*
Y43662D01*
X47825Y48556D02*
X50581Y45800D01*
X12828Y51756D02*
X13371Y51213D01*
X14540Y50044D01*
X16336Y49300D02*
X46029D01*
X10831Y51213D02*
X12600Y49444D01*
X47172Y47956D02*
X49781Y45347D01*
X14396Y48700D02*
X45376D01*
X18244Y34244D02*
X31156Y47156D01*
X53041Y27065D02*
Y31881D01*
X53725Y33534D02*
Y34550D01*
X31544Y33656D02*
X32856Y32344D01*
X35252Y46600D02*
X42848D01*
X25536Y37936D02*
X33456Y45856D01*
X25700Y34500D02*
X29690D01*
X24900Y35300D02*
Y36400D01*
X24500Y38534D02*
X32322Y46356D01*
X23955Y36300D02*
Y37218D01*
X44644Y45856D02*
X48446Y42054D01*
X47525Y40750D02*
X48350D01*
X33600Y29652D02*
Y30548D01*
X28000Y35078D02*
X29870D01*
X27044Y22044D02*
X32856Y27856D01*
X26300Y18986D02*
Y20248D01*
X58267Y20046D02*
Y20149D01*
X59168Y20046D02*
Y20307D01*
X57142Y22326D02*
X57523Y21945D01*
X51931Y21300D02*
X54297D01*
X55839Y20661D02*
X56447Y20053D01*
X47434Y24745D02*
X50135Y22044D01*
X58298Y45600D02*
X58300D01*
X58298D02*
X58298D01*
X58300Y44600D02*
Y45600D01*
X56600Y44000D02*
X57700D01*
X54525Y42950D02*
X54850Y43275D01*
X55863Y41550D02*
X55925D01*
X54011Y40750D02*
X54067Y40806D01*
X53500Y38052D02*
Y39516D01*
X57352Y43300D02*
X60937D01*
X54900Y41900D02*
X55556Y42556D01*
X52700Y41561D02*
X54083D01*
X52125Y42136D02*
Y42950D01*
X62733Y42556D02*
X63959Y41330D01*
X64200Y20820D02*
Y40748D01*
X62000Y17568D02*
X63456Y19024D01*
X55975Y40700D02*
X56900D01*
X57400Y41200D02*
Y41775D01*
X58325Y42700D02*
X60493D01*
X62289Y41956D02*
X62956Y41289D01*
X63700Y30309D02*
Y39493D01*
X61544Y27101D02*
X62956Y28513D01*
X60800Y17200D02*
Y25305D01*
X61800Y16200D02*
X62600D01*
X61479Y15549D02*
X62000Y15028D01*
X52152Y20200D02*
X54050D01*
X47679Y23621D02*
X50356Y20944D01*
X10500Y52500D02*
X11032D01*
X58123Y45775D02*
X58298Y45600D01*
X58123Y45775D02*
Y47925D01*
X60480D02*
X60480Y47925D01*
X58123Y47925D02*
X60480D01*
X25725Y36300D02*
X26204Y35821D01*
X26995Y36300D02*
X36093Y45398D01*
X44462D02*
X46970Y42890D01*
X37889Y46142D02*
X42666D01*
X50525Y42950D02*
Y43551D01*
X51325Y42950D02*
Y44004D01*
X50525Y29532D02*
Y34550D01*
X51325Y28664D02*
Y34550D01*
X54244Y36256D02*
X54876Y35624D01*
X47525Y33677D02*
Y35950D01*
X48619Y35681D02*
X48894Y35956D01*
X50690Y36700D02*
X52098D01*
X53894Y35956D02*
X53977Y35873D01*
X57300Y13452D02*
Y15673D01*
X61137Y11625D02*
X62000Y12488D01*
X55621Y18404D02*
X56556Y17469D01*
X51857Y19148D02*
X53825D01*
X52069Y19553D02*
X53989D01*
D11*
X60245Y38124D02*
G03*
X60255Y38100I34J0D01*
G01*
X35214Y32263D02*
G03*
X36214Y32677I0J1414D01*
G01*
X60245Y38124D02*
Y40450D01*
X36214Y32677D02*
X36600Y33063D01*
D13*
X45105Y32109D02*
G03*
X46291Y32600I0J1677D01*
G01*
X43200Y33400D02*
G03*
X43225Y33460I-60J60D01*
G01*
X44915Y35750D02*
G03*
X45828Y36128I0J1292D01*
G01*
X43340Y38755D02*
G03*
X44318Y38350I978J978D01*
G01*
X59861Y9800D02*
G03*
X59190Y9129I0J-671D01*
G01*
X60255Y37050D02*
G03*
X60999Y35254I2540J0D01*
G01*
X60421Y33721D02*
G03*
X59721Y32030I1692J-1692D01*
G01*
X60455Y33803D02*
G03*
X60413Y33904I-145J0D01*
G01*
D02*
G03*
X60413Y33905I-102J-102D01*
G01*
X60455Y33803D02*
G03*
X59801Y35382I-2234J0D01*
G01*
X59177Y36006D02*
G03*
X57381Y36750I-1796J-1796D01*
G01*
X57116Y37550D02*
G03*
X58565Y38150I0J2049D01*
G01*
X56433Y47925D02*
G03*
X56551Y48209I-284J284D01*
G01*
X56203Y39150D02*
G03*
X58450Y40505I0J2540D01*
G01*
X56655Y34188D02*
G03*
X55925Y35950I-2492J0D01*
G01*
X41655Y36819D02*
G03*
X42700Y37251I0J1478D01*
G01*
X43421Y37550D02*
G03*
X42700Y37251I0J-1019D01*
G01*
X60421Y33721D02*
G03*
X60455Y33803I-81J81D01*
G01*
X56655Y33595D02*
G03*
X57399Y31798I2540J0D01*
G01*
X59721Y30000D02*
G03*
X60233Y29488I512J0D01*
G01*
X47086Y36750D02*
G03*
X46000Y36300I0J-1536D01*
G01*
X44900Y32109D02*
X45105D01*
X43225Y33460D02*
Y35700D01*
X44915D02*
Y35750D01*
Y33629D02*
Y35700D01*
X45124Y40445D02*
X45124Y40445D01*
X43340Y40445D02*
X45124D01*
X59861Y9800D02*
X60567D01*
X59190Y8600D02*
Y9129D01*
X60255Y37050D02*
Y38100D01*
X60999Y35254D02*
X61053Y35200D01*
X60413Y33905D02*
X60413Y33904D01*
X59177Y36006D02*
X59801Y35382D01*
X55925Y36750D02*
X57381D01*
X58565Y38150D02*
Y39216D01*
Y38100D02*
Y38150D01*
X55925Y37550D02*
X57116D01*
X36600Y35078D02*
Y36819D01*
X54883Y45600D02*
X56283Y45600D01*
X55033Y47925D02*
X56433Y47925D01*
X54365Y38350D02*
X55925D01*
X54365Y39950D02*
X55925D01*
X46230Y39106D02*
X47525D01*
X44318Y38350D02*
X47525D01*
X36600Y36819D02*
X41655D01*
X43421Y37550D02*
X47525D01*
X58555Y40450D02*
Y41944D01*
X62145Y33803D02*
X62145Y35132D01*
X58345Y33803D02*
X58345Y35132D01*
X57399Y31798D02*
X57509Y31688D01*
X56655Y33595D02*
Y33803D01*
Y34188D01*
X59721Y30000D02*
Y32030D01*
X60233Y29488D02*
X61209D01*
X47086Y36750D02*
X47525D01*
X45828Y36128D02*
X46000Y36300D01*
D16*
X60567Y9800D02*
D03*
X62582D02*
D03*
X58298Y45600D02*
D03*
X56283Y45600D02*
D03*
D17*
X49490Y27445D02*
D03*
X49490Y25430D02*
D03*
X54200Y27445D02*
D03*
X54200Y25430D02*
D03*
X47150Y27445D02*
D03*
X47150Y25430D02*
D03*
X36600Y33063D02*
D03*
Y35078D02*
D03*
Y36819D02*
D03*
X36600Y38834D02*
D03*
X51830Y27445D02*
D03*
X51830Y25430D02*
D03*
D20*
X43225Y35700D02*
D03*
X44915D02*
D03*
X58123Y47925D02*
D03*
X56433Y47925D02*
D03*
X56655Y33803D02*
D03*
X58345Y33803D02*
D03*
X58555Y40450D02*
D03*
X60245Y40450D02*
D03*
X58565Y38100D02*
D03*
X60255Y38100D02*
D03*
X60455Y33803D02*
D03*
X62145Y33803D02*
D03*
D23*
X43340Y38755D02*
D03*
X43340Y40445D02*
D03*
D34*
X60480Y47925D02*
D03*
X62980Y47925D02*
D03*
X54500Y17548D02*
D03*
Y12468D02*
D03*
X54500Y15008D02*
D03*
X51960Y17548D02*
D03*
X51960Y15008D02*
D03*
Y12468D02*
D03*
X51960Y9928D02*
D03*
X49420Y9928D02*
D03*
X49420Y12468D02*
D03*
X49420Y15008D02*
D03*
X49420Y17548D02*
D03*
X7272Y39250D02*
D03*
Y36750D02*
D03*
X7272Y19270D02*
D03*
X7272Y16770D02*
D03*
X7272Y29250D02*
D03*
X7272Y26750D02*
D03*
D35*
X59460Y12488D02*
D03*
X59460Y15028D02*
D03*
X59460Y17568D02*
D03*
X62000Y17568D02*
D03*
X62000Y15028D02*
D03*
X49050Y3896D02*
D03*
D36*
X62000Y12488D02*
D03*
D37*
X52550Y3896D02*
D03*
D38*
X51471Y53753D02*
D03*
X48931Y53753D02*
D03*
X54011Y53753D02*
D03*
X56551Y53753D02*
D03*
X56551Y51213D02*
D03*
X54011Y51213D02*
D03*
X48931D02*
D03*
X51471Y51213D02*
D03*
X18451Y51213D02*
D03*
X15911Y51213D02*
D03*
X10831Y51213D02*
D03*
X13371Y51213D02*
D03*
X20991D02*
D03*
X36231Y51213D02*
D03*
X33691Y51213D02*
D03*
X26071D02*
D03*
X23531Y51213D02*
D03*
X28611Y51213D02*
D03*
X31151Y51213D02*
D03*
X41311Y51213D02*
D03*
X38771Y51213D02*
D03*
X43851Y51213D02*
D03*
X46391D02*
D03*
X15911Y53753D02*
D03*
X13371D02*
D03*
X10831D02*
D03*
X8291Y53753D02*
D03*
X46391Y53753D02*
D03*
X43851D02*
D03*
X38771D02*
D03*
X41311Y53753D02*
D03*
X31151Y53753D02*
D03*
X28611Y53753D02*
D03*
X23531D02*
D03*
X26071Y53753D02*
D03*
X33691Y53753D02*
D03*
X36231Y53753D02*
D03*
X20991Y53753D02*
D03*
X18451D02*
D03*
X17200Y6600D02*
D03*
X9600Y6600D02*
D03*
D39*
X8291Y51213D02*
D03*
D40*
X54500Y9928D02*
D03*
D41*
X4600Y40500D02*
D03*
Y30500D02*
D03*
X4600Y20500D02*
D03*
X4600Y25500D02*
D03*
X4600Y35500D02*
D03*
D42*
X4600Y15500D02*
D03*
D43*
X40257Y8194D02*
D03*
X40257Y6194D02*
D03*
X40257Y4194D02*
D03*
D44*
X40257Y2194D02*
D03*
D45*
X46291Y32600D02*
D03*
X46281Y30700D02*
D03*
X43200Y33400D02*
D03*
X45124Y40445D02*
D03*
X57266Y19247D02*
D03*
X22815Y4625D02*
D03*
X63750Y8600D02*
D03*
X59190Y8600D02*
D03*
X36315Y6907D02*
D03*
X38139Y21900D02*
D03*
X40383Y22800D02*
D03*
X61053Y35200D02*
D03*
X58565Y39216D02*
D03*
X52550Y44400D02*
D03*
X48310Y44418D02*
D03*
X56447Y20053D02*
D03*
X58267Y20046D02*
D03*
X59168D02*
D03*
X46281Y24200D02*
D03*
X30884Y6735D02*
D03*
X19538Y41775D02*
D03*
X18730D02*
D03*
X17876Y41775D02*
D03*
X13222Y41646D02*
D03*
Y40838D02*
D03*
X39312Y17821D02*
D03*
X38397Y17838D02*
D03*
X28535Y1143D02*
D03*
X37512Y41343D02*
D03*
Y40411D02*
D03*
X37457Y14854D02*
D03*
Y13922D02*
D03*
Y12990D02*
D03*
X36545Y13000D02*
D03*
X35650D02*
D03*
X28265Y19700D02*
D03*
X27326Y19321D02*
D03*
X26300Y18986D02*
D03*
X23955Y36300D02*
D03*
X26995D02*
D03*
X25725D02*
D03*
X38344Y40400D02*
D03*
Y41332D02*
D03*
X24200Y16914D02*
D03*
X25070Y16904D02*
D03*
X25940Y16894D02*
D03*
X25800Y17800D02*
D03*
X38407Y20800D02*
D03*
X38403Y19846D02*
D03*
X38400Y18842D02*
D03*
X39315Y18825D02*
D03*
X39318Y19829D02*
D03*
X39322Y20783D02*
D03*
X33550Y3000D02*
D03*
X54883Y45600D02*
D03*
X55033Y47925D02*
D03*
X54365Y38350D02*
D03*
Y39950D02*
D03*
X46230Y39106D02*
D03*
X58555Y41944D02*
D03*
X62145Y35132D02*
D03*
X58345Y35132D02*
D03*
X58017Y2900D02*
D03*
X57994Y3693D02*
D03*
Y4500D02*
D03*
X54806D02*
D03*
Y3693D02*
D03*
X54783Y2900D02*
D03*
X46332Y6265D02*
D03*
Y7197D02*
D03*
Y8129D02*
D03*
X47200Y8100D02*
D03*
Y7168D02*
D03*
Y6236D02*
D03*
X48045Y8096D02*
D03*
Y7164D02*
D03*
Y6231D02*
D03*
X61465Y21600D02*
D03*
D46*
X35214Y32263D02*
D03*
X42300Y44067D02*
D03*
X41200Y44078D02*
D03*
X40100Y44089D02*
D03*
Y45200D02*
D03*
X41200Y45189D02*
D03*
X42300Y45178D02*
D03*
X40100Y42978D02*
D03*
X41200Y42967D02*
D03*
X42300Y42956D02*
D03*
X21403Y32457D02*
D03*
X21400Y30996D02*
D03*
X21397Y29535D02*
D03*
X21395Y28074D02*
D03*
X21392Y26613D02*
D03*
X21390Y25152D02*
D03*
X21387Y23691D02*
D03*
X21385Y22230D02*
D03*
X21382Y20769D02*
D03*
X21380Y19308D02*
D03*
X22990Y26613D02*
D03*
X22992Y28074D02*
D03*
X22995Y29535D02*
D03*
X22997Y30996D02*
D03*
X23000Y32457D02*
D03*
X24597D02*
D03*
X24595Y30996D02*
D03*
X24592Y29535D02*
D03*
X26195Y32457D02*
D03*
X26192Y30996D02*
D03*
X26190Y29535D02*
D03*
X27792Y32457D02*
D03*
X27790Y30996D02*
D03*
X22987Y25152D02*
D03*
X24590Y28074D02*
D03*
X24587Y26613D02*
D03*
X19792Y25152D02*
D03*
X19795Y26613D02*
D03*
X19798Y28074D02*
D03*
X19800Y29535D02*
D03*
X19803Y30996D02*
D03*
X29390Y32457D02*
D03*
X29387Y30996D02*
D03*
X27787Y29535D02*
D03*
X26187Y28074D02*
D03*
X22985Y23691D02*
D03*
X19782Y19308D02*
D03*
X19785Y20769D02*
D03*
X21405Y33918D02*
D03*
X21377Y17847D02*
D03*
X24585Y25152D02*
D03*
X24582Y23691D02*
D03*
X26185Y26613D02*
D03*
X26182Y25152D02*
D03*
X26180Y23691D02*
D03*
X27785Y28074D02*
D03*
X27782Y26613D02*
D03*
X27780Y25152D02*
D03*
X29385Y29535D02*
D03*
X29382Y28074D02*
D03*
X29380Y26613D02*
D03*
X30987Y32457D02*
D03*
X30985Y30996D02*
D03*
X30982Y29535D02*
D03*
X30980Y28074D02*
D03*
X32582Y30996D02*
D03*
X32580Y29535D02*
D03*
X59250Y27830D02*
D03*
X53885Y31400D02*
D03*
X56000Y28000D02*
D03*
X62900Y30600D02*
D03*
X49545Y31400D02*
D03*
X49205Y28857D02*
D03*
D47*
X44900Y33629D02*
D03*
Y32109D02*
D03*
D48*
X57509Y29488D02*
D03*
X57509Y31688D02*
D03*
X61209D02*
D03*
Y29488D02*
D03*
D49*
X54525Y42950D02*
D03*
X53725D02*
D03*
X52925Y42950D02*
D03*
X52125D02*
D03*
X51325Y42950D02*
D03*
X50525D02*
D03*
X49725D02*
D03*
X48925Y42950D02*
D03*
X48925Y34550D02*
D03*
X49725Y34550D02*
D03*
X50525Y34550D02*
D03*
X51325Y34550D02*
D03*
X52125Y34550D02*
D03*
X52925Y34550D02*
D03*
X53725Y34550D02*
D03*
X54525Y34550D02*
D03*
D50*
X47525Y41550D02*
D03*
Y40750D02*
D03*
X47525Y39950D02*
D03*
X47525Y39150D02*
D03*
X47525Y38350D02*
D03*
Y37550D02*
D03*
Y36750D02*
D03*
X47525Y35950D02*
D03*
X55925D02*
D03*
Y36750D02*
D03*
X55925Y37550D02*
D03*
Y38350D02*
D03*
X55925Y39150D02*
D03*
X55925Y39950D02*
D03*
X55925Y40750D02*
D03*
X55925Y41550D02*
D03*
M02*
