G04 Layer_Color=16711935*
%FSLAX43Y43*%
%MOMM*%
G71*
G01*
G75*
G04:AMPARAMS|DCode=66|XSize=1.31mm|YSize=1.56mm|CornerRadius=0.201mm|HoleSize=0mm|Usage=FLASHONLY|Rotation=180.000|XOffset=0mm|YOffset=0mm|HoleType=Round|Shape=RoundedRectangle|*
%AMROUNDEDRECTD66*
21,1,1.310,1.157,0,0,180.0*
21,1,0.907,1.560,0,0,180.0*
1,1,0.403,-0.454,0.579*
1,1,0.403,0.454,0.579*
1,1,0.403,0.454,-0.579*
1,1,0.403,-0.454,-0.579*
%
%ADD66ROUNDEDRECTD66*%
G04:AMPARAMS|DCode=67|XSize=1.31mm|YSize=1.56mm|CornerRadius=0.201mm|HoleSize=0mm|Usage=FLASHONLY|Rotation=270.000|XOffset=0mm|YOffset=0mm|HoleType=Round|Shape=RoundedRectangle|*
%AMROUNDEDRECTD67*
21,1,1.310,1.157,0,0,270.0*
21,1,0.907,1.560,0,0,270.0*
1,1,0.403,-0.579,-0.454*
1,1,0.403,-0.579,0.454*
1,1,0.403,0.579,0.454*
1,1,0.403,0.579,-0.454*
%
%ADD67ROUNDEDRECTD67*%
G04:AMPARAMS|DCode=70|XSize=1.63mm|YSize=1.12mm|CornerRadius=0.177mm|HoleSize=0mm|Usage=FLASHONLY|Rotation=180.000|XOffset=0mm|YOffset=0mm|HoleType=Round|Shape=RoundedRectangle|*
%AMROUNDEDRECTD70*
21,1,1.630,0.765,0,0,180.0*
21,1,1.275,1.120,0,0,180.0*
1,1,0.355,-0.637,0.383*
1,1,0.355,0.637,0.383*
1,1,0.355,0.637,-0.383*
1,1,0.355,-0.637,-0.383*
%
%ADD70ROUNDEDRECTD70*%
G04:AMPARAMS|DCode=71|XSize=1.63mm|YSize=1.12mm|CornerRadius=0.177mm|HoleSize=0mm|Usage=FLASHONLY|Rotation=270.000|XOffset=0mm|YOffset=0mm|HoleType=Round|Shape=RoundedRectangle|*
%AMROUNDEDRECTD71*
21,1,1.630,0.765,0,0,270.0*
21,1,1.275,1.120,0,0,270.0*
1,1,0.355,-0.383,-0.637*
1,1,0.355,-0.383,0.637*
1,1,0.355,0.383,0.637*
1,1,0.355,0.383,-0.637*
%
%ADD71ROUNDEDRECTD71*%
%ADD74C,2.000*%
%ADD75C,1.300*%
%ADD76R,1.300X1.300*%
%ADD77C,1.500*%
%ADD78C,2.800*%
%ADD79R,2.300X2.300*%
%ADD80R,2.000X2.000*%
%ADD81C,2.103*%
%ADD82C,1.603*%
%ADD83R,1.500X1.500*%
%ADD84C,0.100*%
%ADD85C,1.800*%
%ADD86R,1.800X1.800*%
%ADD87R,1.800X1.800*%
%ADD88C,1.100*%
%ADD89O,1.750X0.650*%
%ADD90O,0.650X1.750*%
G04:AMPARAMS|DCode=91|XSize=1.7mm|YSize=1.35mm|CornerRadius=0.206mm|HoleSize=0mm|Usage=FLASHONLY|Rotation=180.000|XOffset=0mm|YOffset=0mm|HoleType=Round|Shape=RoundedRectangle|*
%AMROUNDEDRECTD91*
21,1,1.700,0.938,0,0,180.0*
21,1,1.288,1.350,0,0,180.0*
1,1,0.412,-0.644,0.469*
1,1,0.412,0.644,0.469*
1,1,0.412,0.644,-0.469*
1,1,0.412,-0.644,-0.469*
%
%ADD91ROUNDEDRECTD91*%
G04:AMPARAMS|DCode=92|XSize=1.15mm|YSize=1.17mm|CornerRadius=0.181mm|HoleSize=0mm|Usage=FLASHONLY|Rotation=270.000|XOffset=0mm|YOffset=0mm|HoleType=Round|Shape=RoundedRectangle|*
%AMROUNDEDRECTD92*
21,1,1.150,0.808,0,0,270.0*
21,1,0.787,1.170,0,0,270.0*
1,1,0.362,-0.404,-0.394*
1,1,0.362,-0.404,0.394*
1,1,0.362,0.404,0.394*
1,1,0.362,0.404,-0.394*
%
%ADD92ROUNDEDRECTD92*%
D66*
X62145Y33803D02*
D03*
X60455Y33803D02*
D03*
X60255Y38100D02*
D03*
X58565Y38100D02*
D03*
X60245Y40450D02*
D03*
X58555Y40450D02*
D03*
X58345Y33803D02*
D03*
X56655Y33803D02*
D03*
X56433Y47925D02*
D03*
X58123Y47925D02*
D03*
X44915Y35700D02*
D03*
X43225D02*
D03*
D67*
X43340Y40445D02*
D03*
X43340Y38755D02*
D03*
D70*
X51830Y25430D02*
D03*
X51830Y27445D02*
D03*
X36600Y38834D02*
D03*
X36600Y36819D02*
D03*
Y35078D02*
D03*
Y33063D02*
D03*
X47150Y25430D02*
D03*
X47150Y27445D02*
D03*
X54200Y25430D02*
D03*
X54200Y27445D02*
D03*
X49490Y25430D02*
D03*
X49490Y27445D02*
D03*
D71*
X56283Y45600D02*
D03*
X58298Y45600D02*
D03*
X62582Y9800D02*
D03*
X60567D02*
D03*
D74*
X7272Y26750D02*
D03*
X7272Y29250D02*
D03*
X7272Y16770D02*
D03*
X7272Y19270D02*
D03*
X7272Y36750D02*
D03*
Y39250D02*
D03*
X49420Y17548D02*
D03*
X49420Y15008D02*
D03*
X49420Y12468D02*
D03*
X49420Y9928D02*
D03*
X51960Y9928D02*
D03*
X51960Y12468D02*
D03*
Y15008D02*
D03*
X51960Y17548D02*
D03*
X54500Y15008D02*
D03*
X54500Y12468D02*
D03*
X62980Y47925D02*
D03*
X60480Y47925D02*
D03*
D75*
X40257Y4194D02*
D03*
X40257Y6194D02*
D03*
X40257Y8194D02*
D03*
D76*
X40257Y2194D02*
D03*
D77*
X9600Y6600D02*
D03*
X17200Y6600D02*
D03*
X18451Y53753D02*
D03*
X20991D02*
D03*
X36231Y53753D02*
D03*
X33691Y53753D02*
D03*
X26071Y53753D02*
D03*
X23531Y53753D02*
D03*
X31151Y53753D02*
D03*
X41311Y53753D02*
D03*
X38771Y53753D02*
D03*
X46391D02*
D03*
X8291Y53753D02*
D03*
X10831Y53753D02*
D03*
X13371D02*
D03*
X15911D02*
D03*
X46391Y51213D02*
D03*
X38771Y51213D02*
D03*
X41311Y51213D02*
D03*
X31151Y51213D02*
D03*
X23531Y51213D02*
D03*
X26071Y51213D02*
D03*
X33691D02*
D03*
X36231Y51213D02*
D03*
X20991Y51213D02*
D03*
X13371D02*
D03*
X10831Y51213D02*
D03*
X18451Y51213D02*
D03*
X51471Y51213D02*
D03*
X48931Y51213D02*
D03*
X56551Y51213D02*
D03*
X56551Y53753D02*
D03*
X48931D02*
D03*
X51471Y53753D02*
D03*
D78*
X4600Y35500D02*
D03*
X4600Y25500D02*
D03*
X4600Y20500D02*
D03*
X4600Y30500D02*
D03*
Y40500D02*
D03*
D79*
Y15500D02*
D03*
D80*
X54500Y9928D02*
D03*
D81*
X54500Y17548D02*
D03*
D82*
X28611Y53753D02*
D03*
X43851Y53753D02*
D03*
X43851Y51213D02*
D03*
X28611Y51213D02*
D03*
X15911Y51213D02*
D03*
X54011Y51213D02*
D03*
X54011Y53753D02*
D03*
D83*
X8291Y51213D02*
D03*
D84*
X61500Y52500D02*
D03*
Y3500D02*
D03*
X3500D02*
D03*
D85*
X49050Y3896D02*
D03*
X62000Y15028D02*
D03*
X62000Y17568D02*
D03*
X59460Y17568D02*
D03*
X59460Y15028D02*
D03*
X59460Y12488D02*
D03*
D86*
X52550Y3896D02*
D03*
D87*
X62000Y12488D02*
D03*
D88*
X32580Y29535D02*
D03*
X32582Y30996D02*
D03*
X30980Y28074D02*
D03*
X30982Y29535D02*
D03*
X30985Y30996D02*
D03*
X30987Y32457D02*
D03*
X29380Y26613D02*
D03*
X29382Y28074D02*
D03*
X29385Y29535D02*
D03*
X27780Y25152D02*
D03*
X27782Y26613D02*
D03*
X27785Y28074D02*
D03*
X26180Y23691D02*
D03*
X26182Y25152D02*
D03*
X26185Y26613D02*
D03*
X24582Y23691D02*
D03*
X24585Y25152D02*
D03*
X21377Y17847D02*
D03*
X21405Y33918D02*
D03*
X19785Y20769D02*
D03*
X19782Y19308D02*
D03*
X22985Y23691D02*
D03*
X26187Y28074D02*
D03*
X27787Y29535D02*
D03*
X29387Y30996D02*
D03*
X29390Y32457D02*
D03*
X19803Y30996D02*
D03*
X19800Y29535D02*
D03*
X19798Y28074D02*
D03*
X19795Y26613D02*
D03*
X19792Y25152D02*
D03*
X24587Y26613D02*
D03*
X24590Y28074D02*
D03*
X22987Y25152D02*
D03*
X27790Y30996D02*
D03*
X27792Y32457D02*
D03*
X26190Y29535D02*
D03*
X26192Y30996D02*
D03*
X26195Y32457D02*
D03*
X24592Y29535D02*
D03*
X24595Y30996D02*
D03*
X24597Y32457D02*
D03*
X23000D02*
D03*
X22997Y30996D02*
D03*
X22995Y29535D02*
D03*
X22992Y28074D02*
D03*
X22990Y26613D02*
D03*
X21380Y19308D02*
D03*
X21382Y20769D02*
D03*
X21385Y22230D02*
D03*
X21387Y23691D02*
D03*
X21390Y25152D02*
D03*
X21392Y26613D02*
D03*
X21395Y28074D02*
D03*
X21397Y29535D02*
D03*
X21400Y30996D02*
D03*
X21403Y32457D02*
D03*
D89*
X55925Y41550D02*
D03*
X55925Y40750D02*
D03*
X55925Y39950D02*
D03*
X55925Y39150D02*
D03*
X55925Y38350D02*
D03*
Y37550D02*
D03*
X55925Y36750D02*
D03*
Y35950D02*
D03*
X47525D02*
D03*
X47525Y36750D02*
D03*
Y37550D02*
D03*
Y38350D02*
D03*
X47525Y39150D02*
D03*
X47525Y39950D02*
D03*
X47525Y40750D02*
D03*
Y41550D02*
D03*
D90*
X54525Y34550D02*
D03*
X53725Y34550D02*
D03*
X52925Y34550D02*
D03*
X52125Y34550D02*
D03*
X51325Y34550D02*
D03*
X50525Y34550D02*
D03*
X49725Y34550D02*
D03*
X48925Y34550D02*
D03*
X48925Y42950D02*
D03*
X49725Y42950D02*
D03*
X50525D02*
D03*
X51325D02*
D03*
X52125Y42950D02*
D03*
X52925D02*
D03*
X53725Y42950D02*
D03*
X54525D02*
D03*
D91*
X61209Y29488D02*
D03*
Y31688D02*
D03*
X57509D02*
D03*
X57509Y29488D02*
D03*
D92*
X44900Y32109D02*
D03*
Y33629D02*
D03*
M02*
