G04 Layer_Physical_Order=3*
G04 Layer_Color=48896*
%FSLAX43Y43*%
%MOMM*%
G71*
G01*
G75*
%ADD11C,0.500*%
%ADD31C,1.500*%
%ADD34C,1.900*%
%ADD35C,1.700*%
%ADD38C,1.400*%
%ADD41C,2.700*%
%ADD43C,1.200*%
%ADD45C,0.700*%
%ADD46C,1.000*%
G36*
X62495Y55490D02*
X62972Y55346D01*
X63411Y55111D01*
X63795Y54795D01*
X64111Y54411D01*
X64346Y53972D01*
X64490Y53495D01*
X64541Y52977D01*
Y16829D01*
Y3023D01*
X64490Y2505D01*
X64346Y2028D01*
X64111Y1589D01*
X63795Y1205D01*
X63411Y889D01*
X62972Y654D01*
X62495Y510D01*
X61977Y459D01*
X57000D01*
X57000Y18400D01*
X57200Y18550D01*
X57266Y18541D01*
X57449Y18565D01*
X57619Y18636D01*
X57765Y18748D01*
X57877Y18894D01*
X57948Y19064D01*
X57965Y19197D01*
X58021Y19275D01*
X58159Y19354D01*
X58267Y19340D01*
X58450Y19364D01*
X58620Y19435D01*
X58718Y19510D01*
X58815Y19435D01*
X58986Y19364D01*
X59168Y19340D01*
X59351Y19364D01*
X59522Y19435D01*
X59668Y19547D01*
X59780Y19693D01*
X59850Y19863D01*
X59875Y20046D01*
X59850Y20229D01*
X59780Y20399D01*
X59668Y20545D01*
X59522Y20658D01*
X59351Y20728D01*
X59168Y20752D01*
X58986Y20728D01*
X58815Y20658D01*
X58718Y20583D01*
X58620Y20658D01*
X58450Y20728D01*
X58267Y20752D01*
X58084Y20728D01*
X57914Y20658D01*
X57768Y20545D01*
X57656Y20399D01*
X57585Y20229D01*
X57568Y20096D01*
X57512Y20018D01*
X57374Y19939D01*
X57340Y19943D01*
X57229Y20009D01*
X57142Y20138D01*
X57129Y20236D01*
X57058Y20406D01*
X56946Y20552D01*
X56800Y20664D01*
X56630Y20735D01*
X56447Y20759D01*
X56264Y20735D01*
X56094Y20664D01*
X55948Y20552D01*
X55835Y20406D01*
X55833Y20400D01*
X44879D01*
X44675Y20443D01*
X44627Y20444D01*
X44580Y20453D01*
X44370D01*
X44323Y20444D01*
X44275Y20443D01*
X44071Y20400D01*
X44057D01*
X43953Y20395D01*
X43750Y20354D01*
X43559Y20275D01*
X43386Y20160D01*
X43240Y20014D01*
X43125Y19841D01*
X43046Y19650D01*
X43022Y19534D01*
X43005Y19447D01*
X43000Y19343D01*
X43000Y19343D01*
X43000Y19343D01*
X43000Y749D01*
X42710Y459D01*
X3023D01*
X2505Y510D01*
X2028Y654D01*
X1589Y889D01*
X1205Y1205D01*
X889Y1589D01*
X654Y2028D01*
X510Y2505D01*
X459Y3023D01*
Y52977D01*
X510Y53495D01*
X654Y53972D01*
X889Y54411D01*
X1205Y54795D01*
X1589Y55111D01*
X2028Y55346D01*
X2505Y55490D01*
X3023Y55541D01*
X61977D01*
X62495Y55490D01*
D02*
G37*
G36*
X46949Y19900D02*
X55447Y19900D01*
X55447Y19900D01*
X55447Y19900D01*
X55447D01*
X55631Y19884D01*
X55754Y19860D01*
X55773Y19852D01*
X55835Y19700D01*
X55948Y19554D01*
X56094Y19442D01*
X56264Y19371D01*
X56373Y19357D01*
X56380Y19346D01*
X56460Y19154D01*
X56500Y18950D01*
Y18847D01*
X56500Y459D01*
X46215D01*
X45934Y740D01*
Y5455D01*
X46134Y5589D01*
X46149Y5583D01*
X46332Y5559D01*
X46515Y5583D01*
X46685Y5653D01*
X46747Y5701D01*
X46847Y5624D01*
X47017Y5554D01*
X47200Y5530D01*
X47383Y5554D01*
X47553Y5624D01*
X47620Y5675D01*
X47692Y5620D01*
X47862Y5549D01*
X48045Y5525D01*
X48228Y5549D01*
X48398Y5620D01*
X48544Y5732D01*
X48657Y5878D01*
X48727Y6049D01*
X48751Y6231D01*
X48727Y6414D01*
X48657Y6584D01*
X48570Y6698D01*
X48657Y6811D01*
X48727Y6981D01*
X48751Y7164D01*
X48727Y7346D01*
X48657Y7517D01*
X48570Y7630D01*
X48657Y7743D01*
X48727Y7913D01*
X48751Y8096D01*
X48727Y8279D01*
X48657Y8449D01*
X48544Y8595D01*
X48398Y8707D01*
X48228Y8778D01*
X48045Y8802D01*
X47862Y8778D01*
X47692Y8707D01*
X47625Y8656D01*
X47553Y8711D01*
X47383Y8782D01*
X47200Y8806D01*
X47017Y8782D01*
X46847Y8711D01*
X46785Y8664D01*
X46685Y8740D01*
X46515Y8811D01*
X46332Y8835D01*
X46149Y8811D01*
X46134Y8805D01*
X45934Y8938D01*
Y19000D01*
X45931Y19016D01*
X45962Y19173D01*
X46039Y19360D01*
X46152Y19528D01*
X46295Y19671D01*
X46463Y19783D01*
X46650Y19861D01*
X46848Y19900D01*
X46949Y19900D01*
D02*
G37*
%LPC*%
G36*
X49231Y54603D02*
Y54053D01*
X49781D01*
X49717Y54207D01*
X49573Y54395D01*
X49385Y54539D01*
X49231Y54603D01*
D02*
G37*
G36*
X48631D02*
X48477Y54539D01*
X48289Y54395D01*
X48145Y54207D01*
X48081Y54053D01*
X48631D01*
Y54603D01*
D02*
G37*
G36*
X44151D02*
Y54053D01*
X44701D01*
X44637Y54207D01*
X44493Y54395D01*
X44305Y54539D01*
X44151Y54603D01*
D02*
G37*
G36*
X43551D02*
X43397Y54539D01*
X43209Y54395D01*
X43065Y54207D01*
X43001Y54053D01*
X43551D01*
Y54603D01*
D02*
G37*
G36*
X31451D02*
Y54053D01*
X32001D01*
X31937Y54207D01*
X31793Y54395D01*
X31605Y54539D01*
X31451Y54603D01*
D02*
G37*
G36*
X30851D02*
X30697Y54539D01*
X30509Y54395D01*
X30365Y54207D01*
X30301Y54053D01*
X30851D01*
Y54603D01*
D02*
G37*
G36*
X13671Y54603D02*
Y54053D01*
X14221D01*
X14157Y54207D01*
X14013Y54395D01*
X13825Y54539D01*
X13671Y54603D01*
D02*
G37*
G36*
X13071D02*
X12917Y54539D01*
X12729Y54395D01*
X12585Y54207D01*
X12521Y54053D01*
X13071D01*
Y54603D01*
D02*
G37*
G36*
X23831Y54603D02*
Y54053D01*
X24381D01*
X24317Y54207D01*
X24173Y54395D01*
X23985Y54539D01*
X23831Y54603D01*
D02*
G37*
G36*
X23231D02*
X23077Y54539D01*
X22889Y54395D01*
X22745Y54207D01*
X22681Y54053D01*
X23231D01*
Y54603D01*
D02*
G37*
G36*
X49781Y53453D02*
X49231D01*
Y52903D01*
X49385Y52967D01*
X49573Y53111D01*
X49717Y53299D01*
X49781Y53453D01*
D02*
G37*
G36*
X48631D02*
X48081D01*
X48145Y53299D01*
X48289Y53111D01*
X48477Y52967D01*
X48631Y52903D01*
Y53453D01*
D02*
G37*
G36*
X14221Y53453D02*
X13671D01*
Y52903D01*
X13825Y52967D01*
X14013Y53111D01*
X14157Y53299D01*
X14221Y53453D01*
D02*
G37*
G36*
X13071D02*
X12521D01*
X12585Y53299D01*
X12729Y53111D01*
X12917Y52967D01*
X13071Y52903D01*
Y53453D01*
D02*
G37*
G36*
X44701D02*
X44151D01*
Y52903D01*
X44305Y52967D01*
X44493Y53111D01*
X44637Y53299D01*
X44701Y53453D01*
D02*
G37*
G36*
X43551D02*
X43001D01*
X43065Y53299D01*
X43209Y53111D01*
X43397Y52967D01*
X43551Y52903D01*
Y53453D01*
D02*
G37*
G36*
X32001D02*
X31451D01*
Y52903D01*
X31605Y52967D01*
X31793Y53111D01*
X31937Y53299D01*
X32001Y53453D01*
D02*
G37*
G36*
X30851D02*
X30301D01*
X30365Y53299D01*
X30509Y53111D01*
X30697Y52967D01*
X30851Y52903D01*
Y53453D01*
D02*
G37*
G36*
X24381Y53453D02*
X23831D01*
Y52903D01*
X23985Y52967D01*
X24173Y53111D01*
X24317Y53299D01*
X24381Y53453D01*
D02*
G37*
G36*
X23231D02*
X22681D01*
X22745Y53299D01*
X22889Y53111D01*
X23077Y52967D01*
X23231Y52903D01*
Y53453D01*
D02*
G37*
G36*
X56551Y54812D02*
X56277Y54776D01*
X56021Y54670D01*
X55802Y54502D01*
X55634Y54283D01*
X55528Y54027D01*
X55492Y53753D01*
X55528Y53479D01*
X55634Y53224D01*
X55802Y53004D01*
X56021Y52836D01*
X56277Y52730D01*
X56551Y52694D01*
X56825Y52730D01*
X57080Y52836D01*
X57300Y53004D01*
X57468Y53224D01*
X57574Y53479D01*
X57610Y53753D01*
X57574Y54027D01*
X57468Y54283D01*
X57300Y54502D01*
X57080Y54670D01*
X56825Y54776D01*
X56551Y54812D01*
D02*
G37*
G36*
X36231D02*
X35957Y54776D01*
X35701Y54670D01*
X35482Y54502D01*
X35314Y54283D01*
X35208Y54027D01*
X35172Y53753D01*
X35208Y53479D01*
X35314Y53224D01*
X35482Y53004D01*
X35701Y52836D01*
X35957Y52730D01*
X36231Y52694D01*
X36505Y52730D01*
X36760Y52836D01*
X36980Y53004D01*
X37148Y53224D01*
X37254Y53479D01*
X37290Y53753D01*
X37254Y54027D01*
X37148Y54283D01*
X36980Y54502D01*
X36760Y54670D01*
X36505Y54776D01*
X36231Y54812D01*
D02*
G37*
G36*
X26071D02*
X25797Y54776D01*
X25541Y54670D01*
X25322Y54502D01*
X25154Y54283D01*
X25048Y54027D01*
X25012Y53753D01*
X25048Y53479D01*
X25154Y53224D01*
X25322Y53004D01*
X25541Y52836D01*
X25797Y52730D01*
X26071Y52694D01*
X26345Y52730D01*
X26600Y52836D01*
X26820Y53004D01*
X26988Y53224D01*
X27094Y53479D01*
X27130Y53753D01*
X27094Y54027D01*
X26988Y54283D01*
X26820Y54502D01*
X26600Y54670D01*
X26345Y54776D01*
X26071Y54812D01*
D02*
G37*
G36*
X8291D02*
X8017Y54776D01*
X7761Y54670D01*
X7542Y54502D01*
X7374Y54283D01*
X7268Y54027D01*
X7232Y53753D01*
X7268Y53479D01*
X7374Y53224D01*
X7542Y53004D01*
X7761Y52836D01*
X8017Y52730D01*
X8291Y52694D01*
X8565Y52730D01*
X8820Y52836D01*
X9040Y53004D01*
X9208Y53224D01*
X9314Y53479D01*
X9350Y53753D01*
X9314Y54027D01*
X9208Y54283D01*
X9040Y54502D01*
X8820Y54670D01*
X8565Y54776D01*
X8291Y54812D01*
D02*
G37*
G36*
X51471Y54812D02*
X51197Y54776D01*
X50941Y54670D01*
X50722Y54502D01*
X50554Y54283D01*
X50448Y54027D01*
X50412Y53753D01*
X50448Y53479D01*
X50554Y53224D01*
X50722Y53004D01*
X50941Y52836D01*
X51197Y52730D01*
X51471Y52694D01*
X51745Y52730D01*
X52000Y52836D01*
X52220Y53004D01*
X52388Y53224D01*
X52494Y53479D01*
X52530Y53753D01*
X52494Y54027D01*
X52388Y54283D01*
X52220Y54502D01*
X52000Y54670D01*
X51745Y54776D01*
X51471Y54812D01*
D02*
G37*
G36*
X46391D02*
X46117Y54776D01*
X45861Y54670D01*
X45642Y54502D01*
X45474Y54283D01*
X45368Y54027D01*
X45332Y53753D01*
X45368Y53479D01*
X45474Y53224D01*
X45642Y53004D01*
X45861Y52836D01*
X46117Y52730D01*
X46391Y52694D01*
X46665Y52730D01*
X46920Y52836D01*
X47140Y53004D01*
X47308Y53224D01*
X47414Y53479D01*
X47450Y53753D01*
X47414Y54027D01*
X47308Y54283D01*
X47140Y54502D01*
X46920Y54670D01*
X46665Y54776D01*
X46391Y54812D01*
D02*
G37*
G36*
X38771D02*
X38497Y54776D01*
X38241Y54670D01*
X38022Y54502D01*
X37854Y54283D01*
X37748Y54027D01*
X37712Y53753D01*
X37748Y53479D01*
X37854Y53224D01*
X38022Y53004D01*
X38241Y52836D01*
X38497Y52730D01*
X38771Y52694D01*
X39045Y52730D01*
X39300Y52836D01*
X39520Y53004D01*
X39688Y53224D01*
X39794Y53479D01*
X39830Y53753D01*
X39794Y54027D01*
X39688Y54283D01*
X39520Y54502D01*
X39300Y54670D01*
X39045Y54776D01*
X38771Y54812D01*
D02*
G37*
G36*
X33691D02*
X33417Y54776D01*
X33161Y54670D01*
X32942Y54502D01*
X32774Y54283D01*
X32668Y54027D01*
X32632Y53753D01*
X32668Y53479D01*
X32774Y53224D01*
X32942Y53004D01*
X33161Y52836D01*
X33417Y52730D01*
X33691Y52694D01*
X33965Y52730D01*
X34220Y52836D01*
X34440Y53004D01*
X34608Y53224D01*
X34714Y53479D01*
X34750Y53753D01*
X34714Y54027D01*
X34608Y54283D01*
X34440Y54502D01*
X34220Y54670D01*
X33965Y54776D01*
X33691Y54812D01*
D02*
G37*
G36*
X20991D02*
X20717Y54776D01*
X20461Y54670D01*
X20242Y54502D01*
X20074Y54283D01*
X19968Y54027D01*
X19932Y53753D01*
X19968Y53479D01*
X20074Y53224D01*
X20242Y53004D01*
X20461Y52836D01*
X20717Y52730D01*
X20991Y52694D01*
X21265Y52730D01*
X21520Y52836D01*
X21740Y53004D01*
X21908Y53224D01*
X22014Y53479D01*
X22050Y53753D01*
X22014Y54027D01*
X21908Y54283D01*
X21740Y54502D01*
X21520Y54670D01*
X21265Y54776D01*
X20991Y54812D01*
D02*
G37*
G36*
X18451D02*
X18177Y54776D01*
X17921Y54670D01*
X17702Y54502D01*
X17534Y54283D01*
X17428Y54027D01*
X17392Y53753D01*
X17428Y53479D01*
X17534Y53224D01*
X17702Y53004D01*
X17921Y52836D01*
X18177Y52730D01*
X18451Y52694D01*
X18725Y52730D01*
X18980Y52836D01*
X19200Y53004D01*
X19368Y53224D01*
X19474Y53479D01*
X19510Y53753D01*
X19474Y54027D01*
X19368Y54283D01*
X19200Y54502D01*
X18980Y54670D01*
X18725Y54776D01*
X18451Y54812D01*
D02*
G37*
G36*
X15911D02*
X15637Y54776D01*
X15381Y54670D01*
X15162Y54502D01*
X14994Y54283D01*
X14888Y54027D01*
X14852Y53753D01*
X14888Y53479D01*
X14994Y53224D01*
X15162Y53004D01*
X15381Y52836D01*
X15637Y52730D01*
X15911Y52694D01*
X16185Y52730D01*
X16440Y52836D01*
X16660Y53004D01*
X16828Y53224D01*
X16934Y53479D01*
X16970Y53753D01*
X16934Y54027D01*
X16828Y54283D01*
X16660Y54502D01*
X16440Y54670D01*
X16185Y54776D01*
X15911Y54812D01*
D02*
G37*
G36*
X10831D02*
X10557Y54776D01*
X10301Y54670D01*
X10082Y54502D01*
X9914Y54283D01*
X9808Y54027D01*
X9772Y53753D01*
X9808Y53479D01*
X9914Y53224D01*
X10082Y53004D01*
X10301Y52836D01*
X10557Y52730D01*
X10831Y52694D01*
X11105Y52730D01*
X11360Y52836D01*
X11580Y53004D01*
X11748Y53224D01*
X11854Y53479D01*
X11890Y53753D01*
X11854Y54027D01*
X11748Y54283D01*
X11580Y54502D01*
X11360Y54670D01*
X11105Y54776D01*
X10831Y54812D01*
D02*
G37*
G36*
X54011Y54812D02*
X53737Y54776D01*
X53481Y54670D01*
X53262Y54502D01*
X53094Y54283D01*
X52988Y54027D01*
X52952Y53753D01*
X52988Y53479D01*
X53094Y53224D01*
X53262Y53004D01*
X53481Y52836D01*
X53737Y52730D01*
X54011Y52694D01*
X54285Y52730D01*
X54540Y52836D01*
X54760Y53004D01*
X54928Y53224D01*
X55034Y53479D01*
X55070Y53753D01*
X55034Y54027D01*
X54928Y54283D01*
X54760Y54502D01*
X54540Y54670D01*
X54285Y54776D01*
X54011Y54812D01*
D02*
G37*
G36*
X41311D02*
X41037Y54776D01*
X40781Y54670D01*
X40562Y54502D01*
X40394Y54283D01*
X40288Y54027D01*
X40252Y53753D01*
X40288Y53479D01*
X40394Y53224D01*
X40562Y53004D01*
X40781Y52836D01*
X41037Y52730D01*
X41311Y52694D01*
X41585Y52730D01*
X41840Y52836D01*
X42060Y53004D01*
X42228Y53224D01*
X42334Y53479D01*
X42370Y53753D01*
X42334Y54027D01*
X42228Y54283D01*
X42060Y54502D01*
X41840Y54670D01*
X41585Y54776D01*
X41311Y54812D01*
D02*
G37*
G36*
X28611D02*
X28337Y54776D01*
X28081Y54670D01*
X27862Y54502D01*
X27694Y54283D01*
X27588Y54027D01*
X27552Y53753D01*
X27588Y53479D01*
X27694Y53224D01*
X27862Y53004D01*
X28081Y52836D01*
X28337Y52730D01*
X28611Y52694D01*
X28885Y52730D01*
X29140Y52836D01*
X29360Y53004D01*
X29528Y53224D01*
X29634Y53479D01*
X29670Y53753D01*
X29634Y54027D01*
X29528Y54283D01*
X29360Y54502D01*
X29140Y54670D01*
X28885Y54776D01*
X28611Y54812D01*
D02*
G37*
G36*
X18751Y52063D02*
Y51513D01*
X19301D01*
X19237Y51667D01*
X19093Y51855D01*
X18905Y51999D01*
X18751Y52063D01*
D02*
G37*
G36*
X18151D02*
X17997Y51999D01*
X17809Y51855D01*
X17665Y51667D01*
X17601Y51513D01*
X18151D01*
Y52063D01*
D02*
G37*
G36*
X56851Y52063D02*
Y51513D01*
X57401D01*
X57337Y51667D01*
X57193Y51855D01*
X57005Y51999D01*
X56851Y52063D01*
D02*
G37*
G36*
X56251D02*
X56097Y51999D01*
X55909Y51855D01*
X55765Y51667D01*
X55701Y51513D01*
X56251D01*
Y52063D01*
D02*
G37*
G36*
X39071Y52063D02*
Y51513D01*
X39621D01*
X39557Y51667D01*
X39413Y51855D01*
X39225Y51999D01*
X39071Y52063D01*
D02*
G37*
G36*
X38471D02*
X38317Y51999D01*
X38129Y51855D01*
X37985Y51667D01*
X37921Y51513D01*
X38471D01*
Y52063D01*
D02*
G37*
G36*
X61500Y54359D02*
X61137Y54323D01*
X60789Y54217D01*
X60467Y54046D01*
X60186Y53814D01*
X59954Y53533D01*
X59783Y53211D01*
X59677Y52863D01*
X59641Y52500D01*
X59677Y52137D01*
X59783Y51789D01*
X59954Y51467D01*
X60186Y51186D01*
X60467Y50954D01*
X60789Y50783D01*
X61137Y50677D01*
X61500Y50641D01*
X61863Y50677D01*
X62211Y50783D01*
X62533Y50954D01*
X62814Y51186D01*
X63046Y51467D01*
X63217Y51789D01*
X63323Y52137D01*
X63359Y52500D01*
X63323Y52863D01*
X63217Y53211D01*
X63046Y53533D01*
X62814Y53814D01*
X62533Y54046D01*
X62211Y54217D01*
X61863Y54323D01*
X61500Y54359D01*
D02*
G37*
G36*
X19301Y50913D02*
X18751D01*
Y50363D01*
X18905Y50427D01*
X19093Y50571D01*
X19237Y50759D01*
X19301Y50913D01*
D02*
G37*
G36*
X18151D02*
X17601D01*
X17665Y50759D01*
X17809Y50571D01*
X17997Y50427D01*
X18151Y50363D01*
Y50913D01*
D02*
G37*
G36*
X57401Y50913D02*
X56851D01*
Y50363D01*
X57005Y50427D01*
X57193Y50571D01*
X57337Y50759D01*
X57401Y50913D01*
D02*
G37*
G36*
X56251D02*
X55701D01*
X55765Y50759D01*
X55909Y50571D01*
X56097Y50427D01*
X56251Y50363D01*
Y50913D01*
D02*
G37*
G36*
X39621Y50913D02*
X39071D01*
Y50363D01*
X39225Y50427D01*
X39413Y50571D01*
X39557Y50759D01*
X39621Y50913D01*
D02*
G37*
G36*
X38471D02*
X37921D01*
X37985Y50759D01*
X38129Y50571D01*
X38317Y50427D01*
X38471Y50363D01*
Y50913D01*
D02*
G37*
G36*
X9341Y52263D02*
X7241D01*
Y50163D01*
X9341D01*
Y52263D01*
D02*
G37*
G36*
X51471Y52272D02*
X51197Y52236D01*
X50941Y52130D01*
X50722Y51962D01*
X50554Y51743D01*
X50448Y51487D01*
X50412Y51213D01*
X50448Y50939D01*
X50554Y50684D01*
X50722Y50464D01*
X50941Y50296D01*
X51197Y50190D01*
X51471Y50154D01*
X51745Y50190D01*
X52000Y50296D01*
X52220Y50464D01*
X52388Y50684D01*
X52494Y50939D01*
X52530Y51213D01*
X52494Y51487D01*
X52388Y51743D01*
X52220Y51962D01*
X52000Y52130D01*
X51745Y52236D01*
X51471Y52272D01*
D02*
G37*
G36*
X46391D02*
X46117Y52236D01*
X45861Y52130D01*
X45642Y51962D01*
X45474Y51743D01*
X45368Y51487D01*
X45332Y51213D01*
X45368Y50939D01*
X45474Y50684D01*
X45642Y50464D01*
X45861Y50296D01*
X46117Y50190D01*
X46391Y50154D01*
X46665Y50190D01*
X46920Y50296D01*
X47140Y50464D01*
X47308Y50684D01*
X47414Y50939D01*
X47450Y51213D01*
X47414Y51487D01*
X47308Y51743D01*
X47140Y51962D01*
X46920Y52130D01*
X46665Y52236D01*
X46391Y52272D01*
D02*
G37*
G36*
X43851D02*
X43577Y52236D01*
X43321Y52130D01*
X43102Y51962D01*
X42934Y51743D01*
X42828Y51487D01*
X42792Y51213D01*
X42828Y50939D01*
X42934Y50684D01*
X43102Y50464D01*
X43321Y50296D01*
X43577Y50190D01*
X43851Y50154D01*
X44125Y50190D01*
X44380Y50296D01*
X44600Y50464D01*
X44768Y50684D01*
X44874Y50939D01*
X44910Y51213D01*
X44874Y51487D01*
X44768Y51743D01*
X44600Y51962D01*
X44380Y52130D01*
X44125Y52236D01*
X43851Y52272D01*
D02*
G37*
G36*
X31151D02*
X30877Y52236D01*
X30621Y52130D01*
X30402Y51962D01*
X30234Y51743D01*
X30128Y51487D01*
X30092Y51213D01*
X30128Y50939D01*
X30234Y50684D01*
X30402Y50464D01*
X30621Y50296D01*
X30877Y50190D01*
X31151Y50154D01*
X31425Y50190D01*
X31680Y50296D01*
X31900Y50464D01*
X32068Y50684D01*
X32174Y50939D01*
X32210Y51213D01*
X32174Y51487D01*
X32068Y51743D01*
X31900Y51962D01*
X31680Y52130D01*
X31425Y52236D01*
X31151Y52272D01*
D02*
G37*
G36*
X41311Y52272D02*
X41037Y52236D01*
X40781Y52130D01*
X40562Y51962D01*
X40394Y51743D01*
X40288Y51487D01*
X40252Y51213D01*
X40288Y50939D01*
X40394Y50684D01*
X40562Y50464D01*
X40781Y50296D01*
X41037Y50190D01*
X41311Y50154D01*
X41585Y50190D01*
X41840Y50296D01*
X42060Y50464D01*
X42228Y50684D01*
X42334Y50939D01*
X42370Y51213D01*
X42334Y51487D01*
X42228Y51743D01*
X42060Y51962D01*
X41840Y52130D01*
X41585Y52236D01*
X41311Y52272D01*
D02*
G37*
G36*
X36231D02*
X35957Y52236D01*
X35701Y52130D01*
X35482Y51962D01*
X35314Y51743D01*
X35208Y51487D01*
X35172Y51213D01*
X35208Y50939D01*
X35314Y50684D01*
X35482Y50464D01*
X35701Y50296D01*
X35957Y50190D01*
X36231Y50154D01*
X36505Y50190D01*
X36760Y50296D01*
X36980Y50464D01*
X37148Y50684D01*
X37254Y50939D01*
X37290Y51213D01*
X37254Y51487D01*
X37148Y51743D01*
X36980Y51962D01*
X36760Y52130D01*
X36505Y52236D01*
X36231Y52272D01*
D02*
G37*
G36*
X23531D02*
X23257Y52236D01*
X23001Y52130D01*
X22782Y51962D01*
X22614Y51743D01*
X22508Y51487D01*
X22472Y51213D01*
X22508Y50939D01*
X22614Y50684D01*
X22782Y50464D01*
X23001Y50296D01*
X23257Y50190D01*
X23531Y50154D01*
X23805Y50190D01*
X24060Y50296D01*
X24280Y50464D01*
X24448Y50684D01*
X24554Y50939D01*
X24590Y51213D01*
X24554Y51487D01*
X24448Y51743D01*
X24280Y51962D01*
X24060Y52130D01*
X23805Y52236D01*
X23531Y52272D01*
D02*
G37*
G36*
X10831D02*
X10557Y52236D01*
X10301Y52130D01*
X10082Y51962D01*
X9914Y51743D01*
X9808Y51487D01*
X9772Y51213D01*
X9808Y50939D01*
X9914Y50684D01*
X10082Y50464D01*
X10301Y50296D01*
X10557Y50190D01*
X10831Y50154D01*
X11105Y50190D01*
X11360Y50296D01*
X11580Y50464D01*
X11748Y50684D01*
X11854Y50939D01*
X11890Y51213D01*
X11854Y51487D01*
X11748Y51743D01*
X11580Y51962D01*
X11360Y52130D01*
X11105Y52236D01*
X10831Y52272D01*
D02*
G37*
G36*
X54011Y52272D02*
X53737Y52236D01*
X53481Y52130D01*
X53262Y51962D01*
X53094Y51743D01*
X52988Y51487D01*
X52952Y51213D01*
X52988Y50939D01*
X53094Y50684D01*
X53262Y50464D01*
X53481Y50296D01*
X53737Y50190D01*
X54011Y50154D01*
X54285Y50190D01*
X54540Y50296D01*
X54760Y50464D01*
X54928Y50684D01*
X55034Y50939D01*
X55070Y51213D01*
X55034Y51487D01*
X54928Y51743D01*
X54760Y51962D01*
X54540Y52130D01*
X54285Y52236D01*
X54011Y52272D01*
D02*
G37*
G36*
X48931D02*
X48657Y52236D01*
X48401Y52130D01*
X48182Y51962D01*
X48014Y51743D01*
X47908Y51487D01*
X47872Y51213D01*
X47908Y50939D01*
X48014Y50684D01*
X48182Y50464D01*
X48401Y50296D01*
X48657Y50190D01*
X48931Y50154D01*
X49205Y50190D01*
X49460Y50296D01*
X49680Y50464D01*
X49848Y50684D01*
X49954Y50939D01*
X49990Y51213D01*
X49954Y51487D01*
X49848Y51743D01*
X49680Y51962D01*
X49460Y52130D01*
X49205Y52236D01*
X48931Y52272D01*
D02*
G37*
G36*
X33691D02*
X33417Y52236D01*
X33161Y52130D01*
X32942Y51962D01*
X32774Y51743D01*
X32668Y51487D01*
X32632Y51213D01*
X32668Y50939D01*
X32774Y50684D01*
X32942Y50464D01*
X33161Y50296D01*
X33417Y50190D01*
X33691Y50154D01*
X33965Y50190D01*
X34220Y50296D01*
X34440Y50464D01*
X34608Y50684D01*
X34714Y50939D01*
X34750Y51213D01*
X34714Y51487D01*
X34608Y51743D01*
X34440Y51962D01*
X34220Y52130D01*
X33965Y52236D01*
X33691Y52272D01*
D02*
G37*
G36*
X28611D02*
X28337Y52236D01*
X28081Y52130D01*
X27862Y51962D01*
X27694Y51743D01*
X27588Y51487D01*
X27552Y51213D01*
X27588Y50939D01*
X27694Y50684D01*
X27862Y50464D01*
X28081Y50296D01*
X28337Y50190D01*
X28611Y50154D01*
X28885Y50190D01*
X29140Y50296D01*
X29360Y50464D01*
X29528Y50684D01*
X29634Y50939D01*
X29670Y51213D01*
X29634Y51487D01*
X29528Y51743D01*
X29360Y51962D01*
X29140Y52130D01*
X28885Y52236D01*
X28611Y52272D01*
D02*
G37*
G36*
X26071D02*
X25797Y52236D01*
X25541Y52130D01*
X25322Y51962D01*
X25154Y51743D01*
X25048Y51487D01*
X25012Y51213D01*
X25048Y50939D01*
X25154Y50684D01*
X25322Y50464D01*
X25541Y50296D01*
X25797Y50190D01*
X26071Y50154D01*
X26345Y50190D01*
X26600Y50296D01*
X26820Y50464D01*
X26988Y50684D01*
X27094Y50939D01*
X27130Y51213D01*
X27094Y51487D01*
X26988Y51743D01*
X26820Y51962D01*
X26600Y52130D01*
X26345Y52236D01*
X26071Y52272D01*
D02*
G37*
G36*
X20991D02*
X20717Y52236D01*
X20461Y52130D01*
X20242Y51962D01*
X20074Y51743D01*
X19968Y51487D01*
X19932Y51213D01*
X19968Y50939D01*
X20074Y50684D01*
X20242Y50464D01*
X20461Y50296D01*
X20717Y50190D01*
X20991Y50154D01*
X21265Y50190D01*
X21520Y50296D01*
X21740Y50464D01*
X21908Y50684D01*
X22014Y50939D01*
X22050Y51213D01*
X22014Y51487D01*
X21908Y51743D01*
X21740Y51962D01*
X21520Y52130D01*
X21265Y52236D01*
X20991Y52272D01*
D02*
G37*
G36*
X13371D02*
X13097Y52236D01*
X12841Y52130D01*
X12622Y51962D01*
X12454Y51743D01*
X12348Y51487D01*
X12312Y51213D01*
X12348Y50939D01*
X12454Y50684D01*
X12622Y50464D01*
X12841Y50296D01*
X13097Y50190D01*
X13371Y50154D01*
X13645Y50190D01*
X13900Y50296D01*
X14120Y50464D01*
X14288Y50684D01*
X14394Y50939D01*
X14430Y51213D01*
X14394Y51487D01*
X14288Y51743D01*
X14120Y51962D01*
X13900Y52130D01*
X13645Y52236D01*
X13371Y52272D01*
D02*
G37*
G36*
X15911Y52272D02*
X15637Y52236D01*
X15381Y52130D01*
X15162Y51962D01*
X14994Y51743D01*
X14888Y51487D01*
X14852Y51213D01*
X14888Y50939D01*
X14994Y50684D01*
X15162Y50464D01*
X15381Y50296D01*
X15637Y50190D01*
X15911Y50154D01*
X16185Y50190D01*
X16440Y50296D01*
X16660Y50464D01*
X16828Y50684D01*
X16934Y50939D01*
X16970Y51213D01*
X16934Y51487D01*
X16828Y51743D01*
X16660Y51962D01*
X16440Y52130D01*
X16185Y52236D01*
X15911Y52272D01*
D02*
G37*
G36*
X63280Y49045D02*
Y48225D01*
X64100D01*
X64100Y48225D01*
X63985Y48505D01*
X63800Y48745D01*
X63560Y48930D01*
X63280Y49045D01*
X63280Y49045D01*
D02*
G37*
G36*
X60480Y49236D02*
X60141Y49192D01*
X59824Y49061D01*
X59553Y48852D01*
X59344Y48581D01*
X59213Y48264D01*
X59169Y47925D01*
X59213Y47586D01*
X59344Y47269D01*
X59553Y46998D01*
X59824Y46789D01*
X60141Y46658D01*
X60480Y46614D01*
X60819Y46658D01*
X61136Y46789D01*
X61407Y46998D01*
X61616Y47269D01*
X61703Y47480D01*
X61919D01*
X61975Y47345D01*
X62160Y47105D01*
X62400Y46920D01*
X62680Y46805D01*
X62680Y46805D01*
Y47925D01*
Y49045D01*
X62680Y49045D01*
X62400Y48930D01*
X62160Y48745D01*
X61975Y48505D01*
X61919Y48370D01*
X61703D01*
X61616Y48581D01*
X61407Y48852D01*
X61136Y49061D01*
X60819Y49192D01*
X60480Y49236D01*
D02*
G37*
G36*
X64100Y47625D02*
X63280D01*
Y46805D01*
X63280Y46805D01*
X63560Y46920D01*
X63800Y47105D01*
X63985Y47345D01*
X64100Y47625D01*
X64100Y47625D01*
D02*
G37*
G36*
X54883Y46306D02*
X54701Y46282D01*
X54530Y46211D01*
X54384Y46099D01*
X54272Y45953D01*
X54201Y45783D01*
X54177Y45600D01*
X54201Y45417D01*
X54272Y45247D01*
X54384Y45101D01*
X54530Y44989D01*
X54701Y44918D01*
X54883Y44894D01*
X55066Y44918D01*
X55236Y44989D01*
X55383Y45101D01*
X55495Y45247D01*
X55565Y45417D01*
X55589Y45600D01*
X55565Y45783D01*
X55495Y45953D01*
X55383Y46099D01*
X55236Y46211D01*
X55066Y46282D01*
X54883Y46306D01*
D02*
G37*
G36*
X48310Y45124D02*
X48127Y45100D01*
X47957Y45029D01*
X47811Y44917D01*
X47699Y44771D01*
X47628Y44600D01*
X47604Y44418D01*
X47628Y44235D01*
X47699Y44065D01*
X47811Y43918D01*
X47957Y43806D01*
X48127Y43736D01*
X48310Y43712D01*
X48493Y43736D01*
X48663Y43806D01*
X48809Y43918D01*
X48922Y44065D01*
X48992Y44235D01*
X49016Y44418D01*
X48992Y44600D01*
X48922Y44771D01*
X48809Y44917D01*
X48663Y45029D01*
X48493Y45100D01*
X48310Y45124D01*
D02*
G37*
G36*
X52550Y45106D02*
X52367Y45082D01*
X52197Y45011D01*
X52051Y44899D01*
X51939Y44753D01*
X51868Y44583D01*
X51844Y44400D01*
X51868Y44217D01*
X51939Y44047D01*
X52051Y43901D01*
X52197Y43789D01*
X52367Y43718D01*
X52550Y43694D01*
X52733Y43718D01*
X52903Y43789D01*
X53049Y43901D01*
X53161Y44047D01*
X53232Y44217D01*
X53256Y44400D01*
X53232Y44583D01*
X53161Y44753D01*
X53049Y44899D01*
X52903Y45011D01*
X52733Y45082D01*
X52550Y45106D01*
D02*
G37*
G36*
X40100Y46057D02*
X39878Y46028D01*
X39671Y45942D01*
X39494Y45806D01*
X39358Y45629D01*
X39272Y45422D01*
X39243Y45200D01*
X39272Y44978D01*
X39358Y44771D01*
X39455Y44645D01*
X39358Y44518D01*
X39272Y44311D01*
X39243Y44089D01*
X39272Y43867D01*
X39358Y43660D01*
X39455Y43534D01*
X39358Y43407D01*
X39272Y43200D01*
X39243Y42978D01*
X39272Y42756D01*
X39358Y42549D01*
X39494Y42372D01*
X39671Y42236D01*
X39878Y42150D01*
X40100Y42121D01*
X40322Y42150D01*
X40529Y42236D01*
X40643Y42323D01*
X40771Y42225D01*
X40978Y42139D01*
X41200Y42110D01*
X41422Y42139D01*
X41629Y42225D01*
X41743Y42312D01*
X41871Y42213D01*
X42078Y42128D01*
X42300Y42099D01*
X42522Y42128D01*
X42729Y42213D01*
X42906Y42350D01*
X43042Y42527D01*
X43128Y42734D01*
X43157Y42956D01*
X43128Y43178D01*
X43042Y43385D01*
X42945Y43511D01*
X43042Y43638D01*
X43128Y43845D01*
X43157Y44067D01*
X43128Y44289D01*
X43042Y44496D01*
X42945Y44622D01*
X43042Y44749D01*
X43128Y44956D01*
X43157Y45178D01*
X43128Y45400D01*
X43042Y45607D01*
X42906Y45784D01*
X42729Y45920D01*
X42522Y46006D01*
X42300Y46035D01*
X42078Y46006D01*
X41871Y45920D01*
X41757Y45833D01*
X41629Y45931D01*
X41422Y46017D01*
X41200Y46046D01*
X40978Y46017D01*
X40771Y45931D01*
X40657Y45844D01*
X40529Y45942D01*
X40322Y46028D01*
X40100Y46057D01*
D02*
G37*
G36*
X58555Y42650D02*
X58372Y42626D01*
X58202Y42555D01*
X58056Y42443D01*
X57944Y42297D01*
X57873Y42126D01*
X57849Y41944D01*
X57873Y41761D01*
X57944Y41591D01*
X58056Y41444D01*
X58202Y41332D01*
X58372Y41262D01*
X58555Y41238D01*
X58738Y41262D01*
X58908Y41332D01*
X59054Y41444D01*
X59166Y41591D01*
X59237Y41761D01*
X59261Y41944D01*
X59237Y42126D01*
X59166Y42297D01*
X59054Y42443D01*
X58908Y42555D01*
X58738Y42626D01*
X58555Y42650D01*
D02*
G37*
G36*
X37512Y42050D02*
X37329Y42025D01*
X37159Y41955D01*
X37013Y41843D01*
X36901Y41697D01*
X36830Y41526D01*
X36806Y41343D01*
X36830Y41161D01*
X36901Y40990D01*
X36987Y40877D01*
X36901Y40764D01*
X36830Y40594D01*
X36806Y40411D01*
X36830Y40229D01*
X36901Y40058D01*
X37013Y39912D01*
X37159Y39800D01*
X37329Y39729D01*
X37512Y39705D01*
X37695Y39729D01*
X37865Y39800D01*
X37921Y39842D01*
X37991Y39789D01*
X38161Y39718D01*
X38344Y39694D01*
X38527Y39718D01*
X38697Y39789D01*
X38843Y39901D01*
X38955Y40047D01*
X39026Y40217D01*
X39050Y40400D01*
X39026Y40583D01*
X38955Y40753D01*
X38869Y40866D01*
X38955Y40979D01*
X39026Y41149D01*
X39050Y41332D01*
X39026Y41515D01*
X38955Y41685D01*
X38843Y41831D01*
X38697Y41944D01*
X38527Y42014D01*
X38344Y42038D01*
X38161Y42014D01*
X37991Y41944D01*
X37935Y41901D01*
X37865Y41955D01*
X37695Y42025D01*
X37512Y42050D01*
D02*
G37*
G36*
X58565Y39922D02*
X58382Y39898D01*
X58212Y39828D01*
X58066Y39715D01*
X57953Y39569D01*
X57883Y39399D01*
X57859Y39216D01*
X57883Y39033D01*
X57953Y38863D01*
X58066Y38717D01*
X58212Y38605D01*
X58382Y38534D01*
X58565Y38510D01*
X58748Y38534D01*
X58918Y38605D01*
X59064Y38717D01*
X59176Y38863D01*
X59247Y39033D01*
X59271Y39216D01*
X59247Y39399D01*
X59176Y39569D01*
X59064Y39715D01*
X58918Y39828D01*
X58748Y39898D01*
X58565Y39922D01*
D02*
G37*
G36*
X26995Y37006D02*
X26812Y36982D01*
X26642Y36911D01*
X26496Y36799D01*
X26486Y36787D01*
X26234D01*
X26224Y36799D01*
X26078Y36911D01*
X25908Y36982D01*
X25725Y37006D01*
X25542Y36982D01*
X25372Y36911D01*
X25226Y36799D01*
X25114Y36653D01*
X25043Y36483D01*
X25019Y36300D01*
X25043Y36117D01*
X25114Y35947D01*
X25226Y35801D01*
X25372Y35689D01*
X25542Y35618D01*
X25725Y35594D01*
X25908Y35618D01*
X26078Y35689D01*
X26224Y35801D01*
X26234Y35813D01*
X26486D01*
X26496Y35801D01*
X26642Y35689D01*
X26812Y35618D01*
X26995Y35594D01*
X27178Y35618D01*
X27348Y35689D01*
X27494Y35801D01*
X27606Y35947D01*
X27677Y36117D01*
X27701Y36300D01*
X27677Y36483D01*
X27606Y36653D01*
X27494Y36799D01*
X27348Y36911D01*
X27178Y36982D01*
X26995Y37006D01*
D02*
G37*
G36*
X4600Y42208D02*
X4267Y42175D01*
X3946Y42078D01*
X3651Y41920D01*
X3392Y41708D01*
X3180Y41449D01*
X3022Y41154D01*
X2925Y40833D01*
X2892Y40500D01*
X2925Y40167D01*
X3022Y39846D01*
X3180Y39551D01*
X3392Y39292D01*
X3651Y39080D01*
X3946Y38922D01*
X4267Y38825D01*
X4600Y38792D01*
X4933Y38825D01*
X5254Y38922D01*
X5549Y39080D01*
X5767Y39259D01*
X5792Y39258D01*
X5912Y39218D01*
X5971Y39175D01*
X6006Y38911D01*
X6137Y38594D01*
X6345Y38323D01*
X6617Y38114D01*
X6651Y38100D01*
Y37900D01*
X6617Y37885D01*
X6345Y37677D01*
X6137Y37406D01*
X6006Y37089D01*
X5971Y36825D01*
X5912Y36782D01*
X5791Y36742D01*
X5767Y36741D01*
X5549Y36920D01*
X5254Y37078D01*
X4933Y37175D01*
X4600Y37208D01*
X4267Y37175D01*
X3946Y37078D01*
X3651Y36920D01*
X3392Y36708D01*
X3180Y36449D01*
X3022Y36154D01*
X2925Y35833D01*
X2892Y35500D01*
X2925Y35167D01*
X3022Y34846D01*
X3180Y34551D01*
X3392Y34292D01*
X3651Y34080D01*
X3946Y33922D01*
X4267Y33825D01*
X4600Y33792D01*
X4933Y33825D01*
X5254Y33922D01*
X5549Y34080D01*
X5808Y34292D01*
X6020Y34551D01*
X6178Y34846D01*
X6275Y35167D01*
X6308Y35500D01*
X6298Y35607D01*
X6488Y35713D01*
X6617Y35614D01*
X6933Y35483D01*
X7272Y35439D01*
X7612Y35483D01*
X7928Y35614D01*
X8199Y35823D01*
X8408Y36094D01*
X8539Y36411D01*
X8583Y36750D01*
X8539Y37089D01*
X8408Y37406D01*
X8199Y37677D01*
X7928Y37885D01*
X7893Y37900D01*
Y38100D01*
X7928Y38114D01*
X8199Y38323D01*
X8408Y38594D01*
X8539Y38911D01*
X8583Y39250D01*
X8539Y39589D01*
X8408Y39906D01*
X8199Y40177D01*
X7928Y40385D01*
X7612Y40516D01*
X7272Y40561D01*
X6933Y40516D01*
X6617Y40385D01*
X6488Y40287D01*
X6298Y40393D01*
X6308Y40500D01*
X6275Y40833D01*
X6178Y41154D01*
X6020Y41449D01*
X5808Y41708D01*
X5549Y41920D01*
X5254Y42078D01*
X4933Y42175D01*
X4600Y42208D01*
D02*
G37*
G36*
X23955Y37006D02*
X23772Y36982D01*
X23602Y36911D01*
X23456Y36799D01*
X23344Y36653D01*
X23273Y36483D01*
X23249Y36300D01*
X23273Y36117D01*
X23344Y35947D01*
X23456Y35801D01*
X23602Y35689D01*
X23772Y35618D01*
X23955Y35594D01*
X24138Y35618D01*
X24308Y35689D01*
X24454Y35801D01*
X24566Y35947D01*
X24637Y36117D01*
X24661Y36300D01*
X24637Y36483D01*
X24566Y36653D01*
X24454Y36799D01*
X24308Y36911D01*
X24138Y36982D01*
X23955Y37006D01*
D02*
G37*
G36*
X46291Y33306D02*
X46108Y33282D01*
X45938Y33211D01*
X45792Y33099D01*
X45679Y32953D01*
X45609Y32783D01*
X45585Y32600D01*
X45609Y32417D01*
X45679Y32247D01*
X45792Y32101D01*
X45938Y31989D01*
X46108Y31918D01*
X46291Y31894D01*
X46474Y31918D01*
X46644Y31989D01*
X46790Y32101D01*
X46902Y32247D01*
X46973Y32417D01*
X46997Y32600D01*
X46973Y32783D01*
X46902Y32953D01*
X46790Y33099D01*
X46644Y33211D01*
X46474Y33282D01*
X46291Y33306D01*
D02*
G37*
G36*
X4900Y32028D02*
Y30800D01*
X6128D01*
X6128Y30804D01*
X6039Y31096D01*
X5895Y31365D01*
X5701Y31601D01*
X5465Y31795D01*
X5196Y31939D01*
X4904Y32028D01*
X4900Y32028D01*
D02*
G37*
G36*
X4300Y32028D02*
X4296Y32028D01*
X4004Y31939D01*
X3735Y31795D01*
X3499Y31601D01*
X3305Y31365D01*
X3161Y31096D01*
X3072Y30804D01*
X3072Y30800D01*
X4300D01*
Y32028D01*
D02*
G37*
G36*
X46281Y31406D02*
X46099Y31382D01*
X45928Y31311D01*
X45782Y31199D01*
X45670Y31053D01*
X45599Y30883D01*
X45575Y30700D01*
X45599Y30517D01*
X45670Y30347D01*
X45782Y30201D01*
X45928Y30089D01*
X46099Y30018D01*
X46281Y29994D01*
X46464Y30018D01*
X46634Y30089D01*
X46781Y30201D01*
X46893Y30347D01*
X46963Y30517D01*
X46987Y30700D01*
X46963Y30883D01*
X46893Y31053D01*
X46781Y31199D01*
X46634Y31311D01*
X46464Y31382D01*
X46281Y31406D01*
D02*
G37*
G36*
X7572Y30370D02*
Y29550D01*
X8393D01*
X8393Y29550D01*
X8277Y29830D01*
X8092Y30070D01*
X7852Y30255D01*
X7572Y30370D01*
X7572Y30370D01*
D02*
G37*
G36*
X6972D02*
X6972Y30370D01*
X6692Y30255D01*
X6452Y30070D01*
X6268Y29830D01*
X6152Y29550D01*
X6152Y29550D01*
X6972D01*
Y30370D01*
D02*
G37*
G36*
X6128Y30200D02*
X4900D01*
Y28972D01*
X4904Y28972D01*
X5196Y29061D01*
X5465Y29205D01*
X5701Y29399D01*
X5895Y29635D01*
X6039Y29904D01*
X6128Y30196D01*
X6128Y30200D01*
D02*
G37*
G36*
X4300D02*
X3072D01*
X3072Y30196D01*
X3161Y29904D01*
X3305Y29635D01*
X3499Y29399D01*
X3735Y29205D01*
X4004Y29061D01*
X4296Y28972D01*
X4300Y28972D01*
Y30200D01*
D02*
G37*
G36*
X8393Y28950D02*
X6152D01*
X6152Y28950D01*
X6268Y28670D01*
X6452Y28430D01*
X6692Y28245D01*
X6828Y28189D01*
Y27973D01*
X6617Y27886D01*
X6345Y27677D01*
X6137Y27406D01*
X6006Y27089D01*
X5971Y26825D01*
X5912Y26782D01*
X5792Y26742D01*
X5767Y26741D01*
X5549Y26920D01*
X5254Y27078D01*
X4933Y27175D01*
X4600Y27208D01*
X4267Y27175D01*
X3946Y27078D01*
X3651Y26920D01*
X3392Y26708D01*
X3180Y26449D01*
X3022Y26154D01*
X2925Y25833D01*
X2892Y25500D01*
X2925Y25167D01*
X3022Y24846D01*
X3180Y24551D01*
X3392Y24292D01*
X3651Y24080D01*
X3946Y23922D01*
X4267Y23825D01*
X4600Y23792D01*
X4933Y23825D01*
X5254Y23922D01*
X5549Y24080D01*
X5808Y24292D01*
X6020Y24551D01*
X6178Y24846D01*
X6275Y25167D01*
X6308Y25500D01*
X6298Y25607D01*
X6488Y25713D01*
X6617Y25614D01*
X6933Y25483D01*
X7272Y25439D01*
X7612Y25483D01*
X7928Y25614D01*
X8199Y25823D01*
X8408Y26094D01*
X8539Y26411D01*
X8583Y26750D01*
X8539Y27089D01*
X8408Y27406D01*
X8199Y27677D01*
X7928Y27886D01*
X7717Y27973D01*
Y28189D01*
X7852Y28245D01*
X8092Y28430D01*
X8277Y28670D01*
X8393Y28950D01*
X8393Y28950D01*
D02*
G37*
G36*
X46281Y24906D02*
X46099Y24882D01*
X45928Y24811D01*
X45782Y24699D01*
X45670Y24553D01*
X45599Y24383D01*
X45575Y24200D01*
X45599Y24017D01*
X45670Y23847D01*
X45782Y23701D01*
X45928Y23589D01*
X46099Y23518D01*
X46281Y23494D01*
X46464Y23518D01*
X46634Y23589D01*
X46781Y23701D01*
X46893Y23847D01*
X46963Y24017D01*
X46987Y24200D01*
X46963Y24383D01*
X46893Y24553D01*
X46781Y24699D01*
X46634Y24811D01*
X46464Y24882D01*
X46281Y24906D01*
D02*
G37*
G36*
X40383Y23506D02*
X40200Y23482D01*
X40030Y23411D01*
X39883Y23299D01*
X39771Y23153D01*
X39701Y22983D01*
X39677Y22800D01*
X39701Y22617D01*
X39771Y22447D01*
X39883Y22301D01*
X40030Y22189D01*
X40200Y22118D01*
X40383Y22094D01*
X40565Y22118D01*
X40736Y22189D01*
X40882Y22301D01*
X40994Y22447D01*
X41065Y22617D01*
X41089Y22800D01*
X41065Y22983D01*
X40994Y23153D01*
X40882Y23299D01*
X40736Y23411D01*
X40565Y23482D01*
X40383Y23506D01*
D02*
G37*
G36*
X61465Y22306D02*
X61282Y22282D01*
X61112Y22211D01*
X60966Y22099D01*
X60854Y21953D01*
X60783Y21783D01*
X60759Y21600D01*
X60783Y21417D01*
X60854Y21247D01*
X60966Y21101D01*
X61112Y20989D01*
X61282Y20918D01*
X61465Y20894D01*
X61648Y20918D01*
X61818Y20989D01*
X61964Y21101D01*
X62076Y21247D01*
X62147Y21417D01*
X62171Y21600D01*
X62147Y21783D01*
X62076Y21953D01*
X61964Y22099D01*
X61818Y22211D01*
X61648Y22282D01*
X61465Y22306D01*
D02*
G37*
G36*
X28265Y20406D02*
X28082Y20382D01*
X27912Y20311D01*
X27766Y20199D01*
X27654Y20053D01*
X27615Y19959D01*
X27509Y20003D01*
X27326Y20027D01*
X27143Y20003D01*
X26973Y19932D01*
X26827Y19820D01*
X26777Y19755D01*
X26713Y19674D01*
X26494Y19663D01*
X26483Y19668D01*
X26300Y19692D01*
X26117Y19668D01*
X25947Y19598D01*
X25801Y19485D01*
X25689Y19339D01*
X25618Y19169D01*
X25594Y18986D01*
X25618Y18803D01*
X25665Y18690D01*
X25634Y18556D01*
X25568Y18462D01*
X25447Y18411D01*
X25301Y18299D01*
X25189Y18153D01*
X25118Y17983D01*
X25094Y17800D01*
X25070Y17611D01*
X24933Y17592D01*
X24887Y17586D01*
X24717Y17515D01*
X24642Y17458D01*
X24553Y17525D01*
X24383Y17596D01*
X24200Y17620D01*
X24017Y17596D01*
X23847Y17525D01*
X23701Y17413D01*
X23589Y17267D01*
X23518Y17097D01*
X23494Y16914D01*
X23518Y16731D01*
X23589Y16561D01*
X23701Y16415D01*
X23847Y16303D01*
X24017Y16232D01*
X24200Y16208D01*
X24383Y16232D01*
X24553Y16303D01*
X24628Y16360D01*
X24717Y16292D01*
X24887Y16222D01*
X25070Y16198D01*
X25253Y16222D01*
X25423Y16292D01*
X25498Y16350D01*
X25587Y16282D01*
X25757Y16212D01*
X25940Y16188D01*
X26123Y16212D01*
X26293Y16282D01*
X26439Y16395D01*
X26551Y16541D01*
X26622Y16711D01*
X26646Y16894D01*
X26622Y17077D01*
X26551Y17247D01*
X26439Y17393D01*
X26396Y17426D01*
X26411Y17447D01*
X26482Y17617D01*
X26506Y17800D01*
X26482Y17983D01*
X26435Y18096D01*
X26466Y18230D01*
X26532Y18324D01*
X26653Y18375D01*
X26799Y18487D01*
X26849Y18552D01*
X26913Y18633D01*
X27132Y18643D01*
X27143Y18639D01*
X27326Y18615D01*
X27509Y18639D01*
X27679Y18709D01*
X27825Y18822D01*
X27937Y18968D01*
X27976Y19062D01*
X28082Y19018D01*
X28265Y18994D01*
X28448Y19018D01*
X28618Y19089D01*
X28764Y19201D01*
X28876Y19347D01*
X28947Y19517D01*
X28971Y19700D01*
X28947Y19883D01*
X28876Y20053D01*
X28764Y20199D01*
X28618Y20311D01*
X28448Y20382D01*
X28265Y20406D01*
D02*
G37*
G36*
X59760Y18580D02*
Y17868D01*
X60472D01*
X60377Y18098D01*
X60209Y18317D01*
X59990Y18485D01*
X59760Y18580D01*
D02*
G37*
G36*
X59160D02*
X58930Y18485D01*
X58711Y18317D01*
X58543Y18098D01*
X58448Y17868D01*
X59160D01*
Y18580D01*
D02*
G37*
G36*
X38139Y22606D02*
X37956Y22582D01*
X37786Y22511D01*
X37640Y22399D01*
X37528Y22253D01*
X37457Y22083D01*
X37433Y21900D01*
X37457Y21717D01*
X37528Y21547D01*
X37640Y21401D01*
X37786Y21289D01*
X37766Y21081D01*
X37725Y20983D01*
X37701Y20800D01*
X37725Y20617D01*
X37796Y20447D01*
X37889Y20326D01*
X37792Y20199D01*
X37721Y20029D01*
X37697Y19846D01*
X37721Y19663D01*
X37792Y19493D01*
X37904Y19347D01*
X37789Y19195D01*
X37718Y19025D01*
X37694Y18842D01*
X37718Y18660D01*
X37789Y18489D01*
X37901Y18343D01*
X37786Y18191D01*
X37715Y18021D01*
X37691Y17838D01*
X37715Y17656D01*
X37786Y17485D01*
X37898Y17339D01*
X38044Y17227D01*
X38214Y17156D01*
X38397Y17132D01*
X38580Y17156D01*
X38750Y17227D01*
X38843Y17298D01*
X38959Y17209D01*
X39129Y17139D01*
X39312Y17115D01*
X39495Y17139D01*
X39665Y17209D01*
X39811Y17322D01*
X39924Y17468D01*
X39994Y17638D01*
X40018Y17821D01*
X39994Y18004D01*
X39924Y18174D01*
X39811Y18320D01*
X39927Y18472D01*
X39997Y18642D01*
X40021Y18825D01*
X39997Y19008D01*
X39927Y19178D01*
X39814Y19324D01*
X39929Y19476D01*
X40000Y19646D01*
X40024Y19829D01*
X40000Y20011D01*
X39929Y20182D01*
X39836Y20303D01*
X39934Y20429D01*
X40004Y20600D01*
X40028Y20783D01*
X40004Y20965D01*
X39934Y21136D01*
X39821Y21282D01*
X39675Y21394D01*
X39505Y21464D01*
X39322Y21489D01*
X39139Y21464D01*
X38969Y21394D01*
X38954Y21382D01*
X38768Y21492D01*
X38781Y21619D01*
X38821Y21717D01*
X38845Y21900D01*
X38821Y22083D01*
X38751Y22253D01*
X38638Y22399D01*
X38492Y22511D01*
X38322Y22582D01*
X38139Y22606D01*
D02*
G37*
G36*
X59160Y17268D02*
X58448D01*
X58543Y17039D01*
X58711Y16819D01*
X58930Y16651D01*
X59160Y16556D01*
Y17268D01*
D02*
G37*
G36*
X60472D02*
X59760D01*
Y16556D01*
X59990Y16651D01*
X60209Y16819D01*
X60377Y17039D01*
X60472Y17268D01*
D02*
G37*
G36*
X4600Y22208D02*
X4267Y22175D01*
X3946Y22078D01*
X3651Y21920D01*
X3392Y21708D01*
X3180Y21449D01*
X3022Y21154D01*
X2925Y20833D01*
X2892Y20500D01*
X2925Y20167D01*
X3022Y19846D01*
X3180Y19551D01*
X3392Y19292D01*
X3651Y19080D01*
X3946Y18922D01*
X4267Y18825D01*
X4600Y18792D01*
X4933Y18825D01*
X5254Y18922D01*
X5549Y19080D01*
X5766Y19258D01*
X5916Y19218D01*
X5973Y19178D01*
X6006Y18930D01*
X6137Y18614D01*
X6345Y18343D01*
X6617Y18134D01*
X6651Y18120D01*
Y17920D01*
X6617Y17905D01*
X6345Y17697D01*
X6137Y17425D01*
X6006Y17109D01*
X5985Y16950D01*
X3150D01*
Y14050D01*
X6050D01*
Y15899D01*
X6250Y15966D01*
X6345Y15843D01*
X6617Y15634D01*
X6933Y15503D01*
X7272Y15459D01*
X7612Y15503D01*
X7928Y15634D01*
X8199Y15843D01*
X8408Y16114D01*
X8539Y16430D01*
X8583Y16770D01*
X8539Y17109D01*
X8408Y17425D01*
X8199Y17697D01*
X7928Y17905D01*
X7893Y17920D01*
Y18120D01*
X7928Y18134D01*
X8199Y18343D01*
X8408Y18614D01*
X8539Y18930D01*
X8583Y19270D01*
X8539Y19609D01*
X8408Y19925D01*
X8199Y20197D01*
X7928Y20405D01*
X7612Y20536D01*
X7272Y20581D01*
X6933Y20536D01*
X6617Y20405D01*
X6490Y20309D01*
X6300Y20414D01*
X6308Y20500D01*
X6275Y20833D01*
X6178Y21154D01*
X6020Y21449D01*
X5808Y21708D01*
X5549Y21920D01*
X5254Y22078D01*
X4933Y22175D01*
X4600Y22208D01*
D02*
G37*
G36*
X62000Y18779D02*
X61687Y18737D01*
X61395Y18616D01*
X61144Y18424D01*
X60952Y18173D01*
X60831Y17881D01*
X60790Y17568D01*
X60831Y17255D01*
X60952Y16963D01*
X61144Y16712D01*
X61395Y16520D01*
X61687Y16399D01*
X61687Y16399D01*
Y16197D01*
X61687Y16197D01*
X61395Y16076D01*
X61144Y15884D01*
X60952Y15633D01*
X60831Y15341D01*
X60831Y15341D01*
X60629D01*
X60629Y15341D01*
X60508Y15633D01*
X60316Y15884D01*
X60065Y16076D01*
X59773Y16197D01*
X59460Y16239D01*
X59147Y16197D01*
X58855Y16076D01*
X58604Y15884D01*
X58412Y15633D01*
X58291Y15341D01*
X58250Y15028D01*
X58291Y14715D01*
X58412Y14423D01*
X58604Y14172D01*
X58855Y13980D01*
X59147Y13859D01*
X59147Y13859D01*
Y13657D01*
X59147Y13657D01*
X58855Y13536D01*
X58604Y13344D01*
X58412Y13093D01*
X58291Y12801D01*
X58250Y12488D01*
X58291Y12175D01*
X58412Y11883D01*
X58604Y11632D01*
X58855Y11440D01*
X59147Y11319D01*
X59460Y11278D01*
X59773Y11319D01*
X60065Y11440D01*
X60316Y11632D01*
X60508Y11883D01*
X60600Y12105D01*
X60800Y12065D01*
Y11288D01*
X63200D01*
Y13688D01*
X62423D01*
X62384Y13888D01*
X62605Y13980D01*
X62856Y14172D01*
X63048Y14423D01*
X63169Y14715D01*
X63210Y15028D01*
X63169Y15341D01*
X63048Y15633D01*
X62856Y15884D01*
X62605Y16076D01*
X62313Y16197D01*
X62313Y16197D01*
Y16399D01*
X62313Y16399D01*
X62605Y16520D01*
X62856Y16712D01*
X63048Y16963D01*
X63169Y17255D01*
X63210Y17568D01*
X63169Y17881D01*
X63048Y18173D01*
X62856Y18424D01*
X62605Y18616D01*
X62313Y18737D01*
X62000Y18779D01*
D02*
G37*
G36*
X37457Y15560D02*
X37274Y15536D01*
X37104Y15465D01*
X36958Y15353D01*
X36846Y15207D01*
X36775Y15037D01*
X36751Y14854D01*
X36775Y14671D01*
X36846Y14501D01*
X36932Y14388D01*
X36846Y14275D01*
X36775Y14105D01*
X36751Y13922D01*
X36757Y13879D01*
X36584Y13701D01*
X36545Y13706D01*
X36362Y13682D01*
X36192Y13611D01*
X36097Y13539D01*
X36003Y13611D01*
X35833Y13682D01*
X35650Y13706D01*
X35467Y13682D01*
X35297Y13611D01*
X35151Y13499D01*
X35039Y13353D01*
X34968Y13183D01*
X34944Y13000D01*
X34968Y12817D01*
X35039Y12647D01*
X35151Y12501D01*
X35297Y12389D01*
X35467Y12318D01*
X35650Y12294D01*
X35833Y12318D01*
X36003Y12389D01*
X36097Y12461D01*
X36192Y12389D01*
X36362Y12318D01*
X36545Y12294D01*
X36728Y12318D01*
X36898Y12389D01*
X36994Y12462D01*
X37104Y12378D01*
X37274Y12308D01*
X37457Y12284D01*
X37640Y12308D01*
X37810Y12378D01*
X37956Y12490D01*
X38069Y12637D01*
X38139Y12807D01*
X38163Y12990D01*
X38139Y13172D01*
X38069Y13343D01*
X37982Y13456D01*
X38069Y13569D01*
X38139Y13739D01*
X38163Y13922D01*
X38139Y14105D01*
X38069Y14275D01*
X37982Y14388D01*
X38069Y14501D01*
X38139Y14671D01*
X38163Y14854D01*
X38139Y15037D01*
X38069Y15207D01*
X37956Y15353D01*
X37810Y15465D01*
X37640Y15536D01*
X37457Y15560D01*
D02*
G37*
G36*
X40557Y8936D02*
Y8494D01*
X40999D01*
X40956Y8598D01*
X40828Y8765D01*
X40661Y8893D01*
X40557Y8936D01*
D02*
G37*
G36*
X39957Y8936D02*
X39854Y8893D01*
X39687Y8765D01*
X39558Y8598D01*
X39516Y8494D01*
X39957D01*
Y8936D01*
D02*
G37*
G36*
X59190Y9306D02*
X59007Y9282D01*
X58837Y9211D01*
X58691Y9099D01*
X58578Y8953D01*
X58508Y8783D01*
X58484Y8600D01*
X58508Y8417D01*
X58578Y8247D01*
X58691Y8101D01*
X58837Y7988D01*
X59007Y7918D01*
X59190Y7894D01*
X59373Y7918D01*
X59543Y7988D01*
X59689Y8101D01*
X59801Y8247D01*
X59872Y8417D01*
X59896Y8600D01*
X59872Y8783D01*
X59801Y8953D01*
X59689Y9099D01*
X59543Y9211D01*
X59373Y9282D01*
X59190Y9306D01*
D02*
G37*
G36*
X39957Y7894D02*
X39516D01*
X39558Y7791D01*
X39687Y7623D01*
X39854Y7495D01*
X39957Y7452D01*
Y7894D01*
D02*
G37*
G36*
X40999D02*
X40557D01*
Y7452D01*
X40661Y7495D01*
X40828Y7623D01*
X40956Y7791D01*
X40999Y7894D01*
D02*
G37*
G36*
X36315Y7614D02*
X36132Y7589D01*
X35962Y7519D01*
X35816Y7407D01*
X35703Y7261D01*
X35633Y7090D01*
X35609Y6907D01*
X35633Y6725D01*
X35703Y6554D01*
X35816Y6408D01*
X35962Y6296D01*
X36132Y6226D01*
X36315Y6201D01*
X36498Y6226D01*
X36668Y6296D01*
X36814Y6408D01*
X36926Y6554D01*
X36997Y6725D01*
X37021Y6907D01*
X36997Y7090D01*
X36926Y7261D01*
X36814Y7407D01*
X36668Y7519D01*
X36498Y7589D01*
X36315Y7614D01*
D02*
G37*
G36*
X30884Y7441D02*
X30702Y7417D01*
X30531Y7347D01*
X30385Y7234D01*
X30273Y7088D01*
X30202Y6918D01*
X30178Y6735D01*
X30202Y6552D01*
X30273Y6382D01*
X30385Y6236D01*
X30531Y6124D01*
X30702Y6053D01*
X30884Y6029D01*
X31067Y6053D01*
X31237Y6124D01*
X31384Y6236D01*
X31496Y6382D01*
X31566Y6552D01*
X31590Y6735D01*
X31566Y6918D01*
X31496Y7088D01*
X31384Y7234D01*
X31237Y7347D01*
X31067Y7417D01*
X30884Y7441D01*
D02*
G37*
G36*
X17200Y7659D02*
X16926Y7623D01*
X16670Y7517D01*
X16451Y7349D01*
X16283Y7130D01*
X16177Y6874D01*
X16141Y6600D01*
X16177Y6326D01*
X16283Y6070D01*
X16451Y5851D01*
X16670Y5683D01*
X16926Y5577D01*
X17200Y5541D01*
X17474Y5577D01*
X17730Y5683D01*
X17949Y5851D01*
X18117Y6070D01*
X18223Y6326D01*
X18259Y6600D01*
X18223Y6874D01*
X18117Y7130D01*
X17949Y7349D01*
X17730Y7517D01*
X17474Y7623D01*
X17200Y7659D01*
D02*
G37*
G36*
X9600Y7659D02*
X9326Y7623D01*
X9070Y7517D01*
X8851Y7349D01*
X8683Y7130D01*
X8577Y6874D01*
X8541Y6600D01*
X8577Y6326D01*
X8683Y6070D01*
X8851Y5851D01*
X9070Y5683D01*
X9326Y5577D01*
X9600Y5541D01*
X9874Y5577D01*
X10130Y5683D01*
X10349Y5851D01*
X10517Y6070D01*
X10623Y6326D01*
X10659Y6600D01*
X10623Y6874D01*
X10517Y7130D01*
X10349Y7349D01*
X10130Y7517D01*
X9874Y7623D01*
X9600Y7659D01*
D02*
G37*
G36*
X33550Y3706D02*
X33367Y3682D01*
X33197Y3611D01*
X33051Y3499D01*
X32939Y3353D01*
X32868Y3183D01*
X32844Y3000D01*
X32868Y2817D01*
X32939Y2647D01*
X33051Y2501D01*
X33197Y2389D01*
X33367Y2318D01*
X33550Y2294D01*
X33733Y2318D01*
X33903Y2389D01*
X34049Y2501D01*
X34161Y2647D01*
X34232Y2817D01*
X34256Y3000D01*
X34232Y3183D01*
X34161Y3353D01*
X34049Y3499D01*
X33903Y3611D01*
X33733Y3682D01*
X33550Y3706D01*
D02*
G37*
G36*
X57994Y5206D02*
X57812Y5182D01*
X57641Y5111D01*
X57495Y4999D01*
X57383Y4853D01*
X57312Y4683D01*
X57288Y4500D01*
X57312Y4317D01*
X57383Y4147D01*
X57422Y4096D01*
X57383Y4046D01*
X57312Y3875D01*
X57288Y3693D01*
X57312Y3510D01*
X57383Y3340D01*
X57427Y3282D01*
X57406Y3253D01*
X57335Y3083D01*
X57311Y2900D01*
X57335Y2717D01*
X57406Y2547D01*
X57518Y2401D01*
X57664Y2289D01*
X57834Y2218D01*
X58017Y2194D01*
X58200Y2218D01*
X58370Y2289D01*
X58516Y2401D01*
X58628Y2547D01*
X58699Y2717D01*
X58723Y2900D01*
X58699Y3083D01*
X58628Y3253D01*
X58584Y3311D01*
X58606Y3340D01*
X58676Y3510D01*
X58700Y3693D01*
X58676Y3875D01*
X58606Y4046D01*
X58567Y4096D01*
X58606Y4147D01*
X58676Y4317D01*
X58700Y4500D01*
X58676Y4683D01*
X58606Y4853D01*
X58494Y4999D01*
X58347Y5111D01*
X58177Y5182D01*
X57994Y5206D01*
D02*
G37*
G36*
X61500Y5359D02*
X61137Y5323D01*
X60789Y5217D01*
X60467Y5046D01*
X60186Y4814D01*
X59954Y4533D01*
X59783Y4211D01*
X59677Y3863D01*
X59641Y3500D01*
X59677Y3137D01*
X59783Y2789D01*
X59954Y2467D01*
X60186Y2186D01*
X60467Y1954D01*
X60789Y1783D01*
X61137Y1677D01*
X61500Y1641D01*
X61863Y1677D01*
X62211Y1783D01*
X62533Y1954D01*
X62814Y2186D01*
X63046Y2467D01*
X63217Y2789D01*
X63323Y3137D01*
X63359Y3500D01*
X63323Y3863D01*
X63217Y4211D01*
X63046Y4533D01*
X62814Y4814D01*
X62533Y5046D01*
X62211Y5217D01*
X61863Y5323D01*
X61500Y5359D01*
D02*
G37*
G36*
X3500D02*
X3137Y5323D01*
X2789Y5217D01*
X2467Y5046D01*
X2186Y4814D01*
X1954Y4533D01*
X1783Y4211D01*
X1677Y3863D01*
X1641Y3500D01*
X1677Y3137D01*
X1783Y2789D01*
X1954Y2467D01*
X2186Y2186D01*
X2467Y1954D01*
X2789Y1783D01*
X3137Y1677D01*
X3500Y1641D01*
X3863Y1677D01*
X4211Y1783D01*
X4533Y1954D01*
X4814Y2186D01*
X5046Y2467D01*
X5217Y2789D01*
X5323Y3137D01*
X5359Y3500D01*
X5323Y3863D01*
X5217Y4211D01*
X5046Y4533D01*
X4814Y4814D01*
X4533Y5046D01*
X4211Y5217D01*
X3863Y5323D01*
X3500Y5359D01*
D02*
G37*
G36*
X40257Y7152D02*
X40009Y7120D01*
X39778Y7024D01*
X39580Y6872D01*
X39427Y6673D01*
X39332Y6442D01*
X39299Y6194D01*
X39332Y5946D01*
X39427Y5715D01*
X39580Y5517D01*
X39778Y5364D01*
X39928Y5302D01*
Y5086D01*
X39778Y5024D01*
X39580Y4872D01*
X39427Y4673D01*
X39332Y4442D01*
X39299Y4194D01*
X39332Y3946D01*
X39427Y3715D01*
X39580Y3517D01*
X39778Y3364D01*
X39827Y3344D01*
X39787Y3144D01*
X39307D01*
Y1244D01*
X41207D01*
Y3144D01*
X40727D01*
X40688Y3344D01*
X40736Y3364D01*
X40935Y3517D01*
X41087Y3715D01*
X41183Y3946D01*
X41215Y4194D01*
X41183Y4442D01*
X41087Y4673D01*
X40935Y4872D01*
X40736Y5024D01*
X40587Y5086D01*
Y5302D01*
X40736Y5364D01*
X40935Y5517D01*
X41087Y5715D01*
X41183Y5946D01*
X41215Y6194D01*
X41183Y6442D01*
X41087Y6673D01*
X40935Y6872D01*
X40736Y7024D01*
X40505Y7120D01*
X40257Y7152D01*
D02*
G37*
G36*
X54500Y18859D02*
X54161Y18815D01*
X53844Y18684D01*
X53573Y18475D01*
X53364Y18204D01*
X53338Y18140D01*
X53122D01*
X53096Y18204D01*
X52887Y18475D01*
X52616Y18684D01*
X52299Y18815D01*
X51960Y18859D01*
X51621Y18815D01*
X51304Y18684D01*
X51033Y18475D01*
X50824Y18204D01*
X50717Y17944D01*
X50528Y17927D01*
X50506Y17932D01*
X50425Y18128D01*
X50240Y18368D01*
X50000Y18553D01*
X49720Y18669D01*
X49720Y18669D01*
Y17548D01*
Y16428D01*
X49720Y16428D01*
X50000Y16544D01*
X50240Y16728D01*
X50425Y16968D01*
X50506Y17164D01*
X50528Y17170D01*
X50717Y17152D01*
X50824Y16893D01*
X51033Y16621D01*
X51304Y16413D01*
X51368Y16386D01*
Y16170D01*
X51304Y16144D01*
X51033Y15935D01*
X50824Y15664D01*
X50717Y15405D01*
X50528Y15387D01*
X50506Y15392D01*
X50425Y15588D01*
X50240Y15828D01*
X50000Y16013D01*
X49720Y16129D01*
X49720Y16129D01*
Y15008D01*
Y13888D01*
X49720Y13888D01*
X50000Y14004D01*
X50240Y14188D01*
X50425Y14428D01*
X50506Y14624D01*
X50528Y14630D01*
X50717Y14612D01*
X50824Y14353D01*
X51033Y14081D01*
X51304Y13873D01*
X51368Y13846D01*
Y13630D01*
X51304Y13604D01*
X51033Y13395D01*
X50824Y13124D01*
X50717Y12864D01*
X50528Y12847D01*
X50506Y12852D01*
X50424Y13048D01*
X50240Y13288D01*
X50000Y13473D01*
X49720Y13589D01*
X49720Y13589D01*
Y12468D01*
Y11348D01*
X49720Y11348D01*
X50000Y11464D01*
X50240Y11648D01*
X50424Y11888D01*
X50506Y12084D01*
X50528Y12090D01*
X50717Y12072D01*
X50824Y11813D01*
X51033Y11541D01*
X51304Y11333D01*
X51368Y11306D01*
Y11090D01*
X51304Y11064D01*
X51033Y10855D01*
X50824Y10584D01*
X50717Y10325D01*
X50528Y10307D01*
X50506Y10312D01*
X50425Y10508D01*
X50240Y10748D01*
X50000Y10933D01*
X49720Y11049D01*
X49720Y11049D01*
Y9928D01*
Y8808D01*
X49720Y8808D01*
X50000Y8924D01*
X50240Y9108D01*
X50425Y9348D01*
X50506Y9544D01*
X50528Y9550D01*
X50717Y9532D01*
X50824Y9273D01*
X51033Y9001D01*
X51304Y8793D01*
X51621Y8662D01*
X51960Y8617D01*
X52299Y8662D01*
X52616Y8793D01*
X52887Y9001D01*
X53000Y9148D01*
X53200Y9080D01*
Y8628D01*
X55800D01*
Y11228D01*
X55348D01*
X55280Y11428D01*
X55427Y11541D01*
X55636Y11813D01*
X55767Y12129D01*
X55811Y12468D01*
X55767Y12808D01*
X55636Y13124D01*
X55427Y13395D01*
X55156Y13604D01*
X55092Y13630D01*
Y13846D01*
X55156Y13873D01*
X55427Y14081D01*
X55636Y14353D01*
X55767Y14669D01*
X55811Y15008D01*
X55767Y15348D01*
X55636Y15664D01*
X55427Y15935D01*
X55156Y16144D01*
X55092Y16170D01*
Y16386D01*
X55156Y16413D01*
X55427Y16621D01*
X55636Y16893D01*
X55767Y17209D01*
X55811Y17548D01*
X55767Y17888D01*
X55636Y18204D01*
X55427Y18475D01*
X55156Y18684D01*
X54839Y18815D01*
X54500Y18859D01*
D02*
G37*
G36*
X49120Y18669D02*
X49120Y18669D01*
X48840Y18553D01*
X48600Y18368D01*
X48415Y18128D01*
X48300Y17848D01*
X48300Y17848D01*
X49120D01*
Y18669D01*
D02*
G37*
G36*
Y17248D02*
X48300D01*
X48300Y17248D01*
X48415Y16968D01*
X48600Y16728D01*
X48840Y16544D01*
X49120Y16428D01*
X49120Y16428D01*
Y17248D01*
D02*
G37*
G36*
X49120Y16129D02*
X49120Y16129D01*
X48840Y16013D01*
X48600Y15828D01*
X48415Y15588D01*
X48300Y15308D01*
X48300Y15308D01*
X49120D01*
Y16129D01*
D02*
G37*
G36*
Y14708D02*
X48300D01*
X48300Y14708D01*
X48415Y14428D01*
X48600Y14188D01*
X48840Y14004D01*
X49120Y13888D01*
X49120Y13888D01*
Y14708D01*
D02*
G37*
G36*
X49120Y13589D02*
X49120Y13589D01*
X48840Y13473D01*
X48600Y13288D01*
X48415Y13048D01*
X48300Y12768D01*
X48300Y12768D01*
X49120D01*
Y13589D01*
D02*
G37*
G36*
Y12168D02*
X48300D01*
X48300Y12168D01*
X48415Y11888D01*
X48600Y11648D01*
X48840Y11464D01*
X49120Y11348D01*
X49120Y11348D01*
Y12168D01*
D02*
G37*
G36*
X49120Y11049D02*
X49120Y11049D01*
X48840Y10933D01*
X48600Y10748D01*
X48415Y10508D01*
X48300Y10228D01*
X48300Y10228D01*
X49120D01*
Y11049D01*
D02*
G37*
G36*
Y9628D02*
X48300D01*
X48300Y9628D01*
X48415Y9348D01*
X48600Y9108D01*
X48840Y8924D01*
X49120Y8808D01*
X49120Y8808D01*
Y9628D01*
D02*
G37*
G36*
X49350Y4908D02*
Y4196D01*
X50062D01*
X49967Y4426D01*
X49799Y4645D01*
X49580Y4813D01*
X49350Y4908D01*
D02*
G37*
G36*
X48750Y4908D02*
X48520Y4813D01*
X48301Y4645D01*
X48133Y4426D01*
X48038Y4196D01*
X48750D01*
Y4908D01*
D02*
G37*
G36*
X50062Y3596D02*
X49350D01*
Y2884D01*
X49580Y2979D01*
X49799Y3147D01*
X49967Y3367D01*
X50062Y3596D01*
D02*
G37*
G36*
X48750D02*
X48038D01*
X48133Y3367D01*
X48301Y3147D01*
X48520Y2979D01*
X48750Y2884D01*
Y3596D01*
D02*
G37*
G36*
X53750Y5096D02*
X51350D01*
Y2696D01*
X53750D01*
Y5096D01*
D02*
G37*
G36*
X54806Y5206D02*
X54623Y5182D01*
X54453Y5111D01*
X54306Y4999D01*
X54194Y4853D01*
X54124Y4683D01*
X54100Y4500D01*
X54124Y4317D01*
X54194Y4147D01*
X54233Y4096D01*
X54194Y4046D01*
X54124Y3875D01*
X54100Y3693D01*
X54124Y3510D01*
X54194Y3340D01*
X54216Y3311D01*
X54172Y3253D01*
X54101Y3083D01*
X54077Y2900D01*
X54101Y2717D01*
X54172Y2547D01*
X54284Y2401D01*
X54430Y2289D01*
X54600Y2218D01*
X54783Y2194D01*
X54966Y2218D01*
X55136Y2289D01*
X55282Y2401D01*
X55394Y2547D01*
X55465Y2717D01*
X55489Y2900D01*
X55465Y3083D01*
X55394Y3253D01*
X55373Y3282D01*
X55417Y3340D01*
X55488Y3510D01*
X55512Y3693D01*
X55488Y3875D01*
X55417Y4046D01*
X55378Y4096D01*
X55417Y4147D01*
X55488Y4317D01*
X55512Y4500D01*
X55488Y4683D01*
X55417Y4853D01*
X55305Y4999D01*
X55159Y5111D01*
X54988Y5182D01*
X54806Y5206D01*
D02*
G37*
%LPD*%
D11*
X51254Y21800D02*
G03*
X51000Y21186I614J-614D01*
G01*
D31*
Y19528D02*
Y21186D01*
D34*
X62980Y47925D02*
D03*
X49420Y9928D02*
D03*
X49420Y12468D02*
D03*
X49420Y15008D02*
D03*
X49420Y17548D02*
D03*
X7272Y29250D02*
D03*
D35*
X59460Y17568D02*
D03*
X49050Y3896D02*
D03*
D38*
X48931Y53753D02*
D03*
X56551Y51213D02*
D03*
X18451Y51213D02*
D03*
X38771Y51213D02*
D03*
X13371Y53753D02*
D03*
X43851D02*
D03*
X31151D02*
D03*
X23531Y53753D02*
D03*
D41*
X4600Y30500D02*
D03*
D43*
X40257Y8194D02*
D03*
D45*
X43200Y33400D02*
D03*
X45124Y40445D02*
D03*
X22815Y4625D02*
D03*
X63750Y8600D02*
D03*
X61053Y35200D02*
D03*
X19538Y41775D02*
D03*
X18730D02*
D03*
X17876Y41775D02*
D03*
X13222Y41646D02*
D03*
Y40838D02*
D03*
X28535Y1143D02*
D03*
X55033Y47925D02*
D03*
X54365Y38350D02*
D03*
Y39950D02*
D03*
X46230Y39106D02*
D03*
X62145Y35132D02*
D03*
X58345Y35132D02*
D03*
D46*
X35214Y32263D02*
D03*
X21403Y32457D02*
D03*
X21400Y30996D02*
D03*
X21397Y29535D02*
D03*
X21395Y28074D02*
D03*
X21392Y26613D02*
D03*
X21390Y25152D02*
D03*
X21387Y23691D02*
D03*
X21385Y22230D02*
D03*
X21382Y20769D02*
D03*
X21380Y19308D02*
D03*
X22990Y26613D02*
D03*
X22992Y28074D02*
D03*
X22995Y29535D02*
D03*
X22997Y30996D02*
D03*
X23000Y32457D02*
D03*
X24597D02*
D03*
X24595Y30996D02*
D03*
X24592Y29535D02*
D03*
X26195Y32457D02*
D03*
X26192Y30996D02*
D03*
X26190Y29535D02*
D03*
X27792Y32457D02*
D03*
X27790Y30996D02*
D03*
X22987Y25152D02*
D03*
X24590Y28074D02*
D03*
X24587Y26613D02*
D03*
X19792Y25152D02*
D03*
X19795Y26613D02*
D03*
X19798Y28074D02*
D03*
X19800Y29535D02*
D03*
X19803Y30996D02*
D03*
X29390Y32457D02*
D03*
X29387Y30996D02*
D03*
X27787Y29535D02*
D03*
X26187Y28074D02*
D03*
X22985Y23691D02*
D03*
X19782Y19308D02*
D03*
X19785Y20769D02*
D03*
X21405Y33918D02*
D03*
X21377Y17847D02*
D03*
X24585Y25152D02*
D03*
X24582Y23691D02*
D03*
X26185Y26613D02*
D03*
X26182Y25152D02*
D03*
X26180Y23691D02*
D03*
X27785Y28074D02*
D03*
X27782Y26613D02*
D03*
X27780Y25152D02*
D03*
X29385Y29535D02*
D03*
X29382Y28074D02*
D03*
X29380Y26613D02*
D03*
X30987Y32457D02*
D03*
X30985Y30996D02*
D03*
X30982Y29535D02*
D03*
X30980Y28074D02*
D03*
X32582Y30996D02*
D03*
X32580Y29535D02*
D03*
X59250Y27830D02*
D03*
X53885Y31400D02*
D03*
X56000Y28000D02*
D03*
X62900Y30600D02*
D03*
X49545Y31400D02*
D03*
X49205Y28857D02*
D03*
M02*
