G04 Layer_Physical_Order=1*
G04 Layer_Color=16776960*
%FSLAX43Y43*%
%MOMM*%
G71*
G01*
G75*
%ADD10C,0.300*%
%ADD11C,0.500*%
%ADD12C,0.200*%
%ADD13C,1.000*%
G04:AMPARAMS|DCode=14|XSize=3.1mm|YSize=5.6mm|CornerRadius=0.388mm|HoleSize=0mm|Usage=FLASHONLY|Rotation=0.000|XOffset=0mm|YOffset=0mm|HoleType=Round|Shape=RoundedRectangle|*
%AMROUNDEDRECTD14*
21,1,3.100,4.825,0,0,0.0*
21,1,2.325,5.600,0,0,0.0*
1,1,0.775,1.163,-2.413*
1,1,0.775,-1.163,-2.413*
1,1,0.775,-1.163,2.413*
1,1,0.775,1.163,2.413*
%
%ADD14ROUNDEDRECTD14*%
G04:AMPARAMS|DCode=15|XSize=1.74mm|YSize=2.17mm|CornerRadius=0.218mm|HoleSize=0mm|Usage=FLASHONLY|Rotation=270.000|XOffset=0mm|YOffset=0mm|HoleType=Round|Shape=RoundedRectangle|*
%AMROUNDEDRECTD15*
21,1,1.740,1.735,0,0,270.0*
21,1,1.305,2.170,0,0,270.0*
1,1,0.435,-0.868,-0.652*
1,1,0.435,-0.868,0.652*
1,1,0.435,0.868,0.652*
1,1,0.435,0.868,-0.652*
%
%ADD15ROUNDEDRECTD15*%
G04:AMPARAMS|DCode=16|XSize=1.74mm|YSize=2.17mm|CornerRadius=0.218mm|HoleSize=0mm|Usage=FLASHONLY|Rotation=180.000|XOffset=0mm|YOffset=0mm|HoleType=Round|Shape=RoundedRectangle|*
%AMROUNDEDRECTD16*
21,1,1.740,1.735,0,0,180.0*
21,1,1.305,2.170,0,0,180.0*
1,1,0.435,-0.652,0.868*
1,1,0.435,0.652,0.868*
1,1,0.435,0.652,-0.868*
1,1,0.435,-0.652,-0.868*
%
%ADD16ROUNDEDRECTD16*%
%ADD17R,16.650X6.350*%
G04:AMPARAMS|DCode=18|XSize=0.71mm|YSize=2.19mm|CornerRadius=0.089mm|HoleSize=0mm|Usage=FLASHONLY|Rotation=0.000|XOffset=0mm|YOffset=0mm|HoleType=Round|Shape=RoundedRectangle|*
%AMROUNDEDRECTD18*
21,1,0.710,2.013,0,0,0.0*
21,1,0.532,2.190,0,0,0.0*
1,1,0.177,0.266,-1.006*
1,1,0.177,-0.266,-1.006*
1,1,0.177,-0.266,1.006*
1,1,0.177,0.266,1.006*
%
%ADD18ROUNDEDRECTD18*%
G04:AMPARAMS|DCode=19|XSize=1.19mm|YSize=2.96mm|CornerRadius=0.149mm|HoleSize=0mm|Usage=FLASHONLY|Rotation=90.000|XOffset=0mm|YOffset=0mm|HoleType=Round|Shape=RoundedRectangle|*
%AMROUNDEDRECTD19*
21,1,1.190,2.663,0,0,90.0*
21,1,0.892,2.960,0,0,90.0*
1,1,0.297,1.331,0.446*
1,1,0.297,1.331,-0.446*
1,1,0.297,-1.331,-0.446*
1,1,0.297,-1.331,0.446*
%
%ADD19ROUNDEDRECTD19*%
G04:AMPARAMS|DCode=20|XSize=7.28mm|YSize=6.84mm|CornerRadius=0.855mm|HoleSize=0mm|Usage=FLASHONLY|Rotation=270.000|XOffset=0mm|YOffset=0mm|HoleType=Round|Shape=RoundedRectangle|*
%AMROUNDEDRECTD20*
21,1,7.280,5.130,0,0,270.0*
21,1,5.570,6.840,0,0,270.0*
1,1,1.710,-2.565,-2.785*
1,1,1.710,-2.565,2.785*
1,1,1.710,2.565,2.785*
1,1,1.710,2.565,-2.785*
%
%ADD20ROUNDEDRECTD20*%
G04:AMPARAMS|DCode=21|XSize=0.91mm|YSize=1.46mm|CornerRadius=0.114mm|HoleSize=0mm|Usage=FLASHONLY|Rotation=180.000|XOffset=0mm|YOffset=0mm|HoleType=Round|Shape=RoundedRectangle|*
%AMROUNDEDRECTD21*
21,1,0.910,1.232,0,0,180.0*
21,1,0.683,1.460,0,0,180.0*
1,1,0.228,-0.341,0.616*
1,1,0.228,0.341,0.616*
1,1,0.228,0.341,-0.616*
1,1,0.228,-0.341,-0.616*
%
%ADD21ROUNDEDRECTD21*%
G04:AMPARAMS|DCode=22|XSize=2.12mm|YSize=3.2mm|CornerRadius=0.265mm|HoleSize=0mm|Usage=FLASHONLY|Rotation=0.000|XOffset=0mm|YOffset=0mm|HoleType=Round|Shape=RoundedRectangle|*
%AMROUNDEDRECTD22*
21,1,2.120,2.670,0,0,0.0*
21,1,1.590,3.200,0,0,0.0*
1,1,0.530,0.795,-1.335*
1,1,0.530,-0.795,-1.335*
1,1,0.530,-0.795,1.335*
1,1,0.530,0.795,1.335*
%
%ADD22ROUNDEDRECTD22*%
G04:AMPARAMS|DCode=23|XSize=1.21mm|YSize=1.46mm|CornerRadius=0.151mm|HoleSize=0mm|Usage=FLASHONLY|Rotation=180.000|XOffset=0mm|YOffset=0mm|HoleType=Round|Shape=RoundedRectangle|*
%AMROUNDEDRECTD23*
21,1,1.210,1.157,0,0,180.0*
21,1,0.907,1.460,0,0,180.0*
1,1,0.302,-0.454,0.579*
1,1,0.302,0.454,0.579*
1,1,0.302,0.454,-0.579*
1,1,0.302,-0.454,-0.579*
%
%ADD23ROUNDEDRECTD23*%
G04:AMPARAMS|DCode=24|XSize=1.21mm|YSize=1.46mm|CornerRadius=0.151mm|HoleSize=0mm|Usage=FLASHONLY|Rotation=270.000|XOffset=0mm|YOffset=0mm|HoleType=Round|Shape=RoundedRectangle|*
%AMROUNDEDRECTD24*
21,1,1.210,1.157,0,0,270.0*
21,1,0.907,1.460,0,0,270.0*
1,1,0.302,-0.579,-0.454*
1,1,0.302,-0.579,0.454*
1,1,0.302,0.579,0.454*
1,1,0.302,0.579,-0.454*
%
%ADD24ROUNDEDRECTD24*%
G04:AMPARAMS|DCode=25|XSize=2.12mm|YSize=3.2mm|CornerRadius=0.265mm|HoleSize=0mm|Usage=FLASHONLY|Rotation=90.000|XOffset=0mm|YOffset=0mm|HoleType=Round|Shape=RoundedRectangle|*
%AMROUNDEDRECTD25*
21,1,2.120,2.670,0,0,90.0*
21,1,1.590,3.200,0,0,90.0*
1,1,0.530,1.335,0.795*
1,1,0.530,1.335,-0.795*
1,1,0.530,-1.335,-0.795*
1,1,0.530,-1.335,0.795*
%
%ADD25ROUNDEDRECTD25*%
G04:AMPARAMS|DCode=26|XSize=1.76mm|YSize=2.82mm|CornerRadius=0.22mm|HoleSize=0mm|Usage=FLASHONLY|Rotation=270.000|XOffset=0mm|YOffset=0mm|HoleType=Round|Shape=RoundedRectangle|*
%AMROUNDEDRECTD26*
21,1,1.760,2.380,0,0,270.0*
21,1,1.320,2.820,0,0,270.0*
1,1,0.440,-1.190,-0.660*
1,1,0.440,-1.190,0.660*
1,1,0.440,1.190,0.660*
1,1,0.440,1.190,-0.660*
%
%ADD26ROUNDEDRECTD26*%
G04:AMPARAMS|DCode=27|XSize=1.53mm|YSize=1.02mm|CornerRadius=0.128mm|HoleSize=0mm|Usage=FLASHONLY|Rotation=180.000|XOffset=0mm|YOffset=0mm|HoleType=Round|Shape=RoundedRectangle|*
%AMROUNDEDRECTD27*
21,1,1.530,0.765,0,0,180.0*
21,1,1.275,1.020,0,0,180.0*
1,1,0.255,-0.637,0.383*
1,1,0.255,0.637,0.383*
1,1,0.255,0.637,-0.383*
1,1,0.255,-0.637,-0.383*
%
%ADD27ROUNDEDRECTD27*%
G04:AMPARAMS|DCode=28|XSize=1.53mm|YSize=1.02mm|CornerRadius=0.128mm|HoleSize=0mm|Usage=FLASHONLY|Rotation=270.000|XOffset=0mm|YOffset=0mm|HoleType=Round|Shape=RoundedRectangle|*
%AMROUNDEDRECTD28*
21,1,1.530,0.765,0,0,270.0*
21,1,1.275,1.020,0,0,270.0*
1,1,0.255,-0.383,-0.637*
1,1,0.255,-0.383,0.637*
1,1,0.255,0.383,0.637*
1,1,0.255,0.383,-0.637*
%
%ADD28ROUNDEDRECTD28*%
G04:AMPARAMS|DCode=29|XSize=1.5mm|YSize=1.5mm|CornerRadius=0.188mm|HoleSize=0mm|Usage=FLASHONLY|Rotation=180.000|XOffset=0mm|YOffset=0mm|HoleType=Round|Shape=RoundedRectangle|*
%AMROUNDEDRECTD29*
21,1,1.500,1.125,0,0,180.0*
21,1,1.125,1.500,0,0,180.0*
1,1,0.375,-0.563,0.563*
1,1,0.375,0.563,0.563*
1,1,0.375,0.563,-0.563*
1,1,0.375,-0.563,-0.563*
%
%ADD29ROUNDEDRECTD29*%
G04:AMPARAMS|DCode=30|XSize=1mm|YSize=1.4mm|CornerRadius=0.125mm|HoleSize=0mm|Usage=FLASHONLY|Rotation=0.000|XOffset=0mm|YOffset=0mm|HoleType=Round|Shape=RoundedRectangle|*
%AMROUNDEDRECTD30*
21,1,1.000,1.150,0,0,0.0*
21,1,0.750,1.400,0,0,0.0*
1,1,0.250,0.375,-0.575*
1,1,0.250,-0.375,-0.575*
1,1,0.250,-0.375,0.575*
1,1,0.250,0.375,0.575*
%
%ADD30ROUNDEDRECTD30*%
%ADD31C,2.000*%
%ADD32C,0.600*%
%ADD33C,1.500*%
%ADD34C,1.900*%
%ADD35C,1.200*%
%ADD36R,1.200X1.200*%
%ADD37C,1.400*%
%ADD38C,2.700*%
%ADD39R,2.200X2.200*%
%ADD40R,1.900X1.900*%
%ADD41R,1.400X1.400*%
%ADD42C,1.700*%
%ADD43R,1.700X1.700*%
%ADD44R,1.700X1.700*%
%ADD45C,0.700*%
%ADD46C,1.000*%
G36*
X30981Y48444D02*
X31394Y48334D01*
X31788Y48171D01*
X32157Y47957D01*
X32496Y47697D01*
X32798Y47396D01*
X33057Y47057D01*
X33271Y46688D01*
X33434Y46294D01*
X33544Y45881D01*
X33600Y45458D01*
X33600Y45245D01*
X33600Y45245D01*
X33600Y45245D01*
Y37428D01*
X33458Y37286D01*
X33273Y37363D01*
Y37440D01*
X32280D01*
Y36662D01*
X32573D01*
X32649Y36477D01*
X32022Y35851D01*
X31809D01*
X31696Y35828D01*
X31601Y35764D01*
X31545Y35681D01*
X31449Y35669D01*
X31431D01*
X31335Y35681D01*
X31279Y35764D01*
X31184Y35828D01*
X31105Y35844D01*
Y34550D01*
X30505D01*
Y35918D01*
X30434Y35969D01*
X30400Y36027D01*
X30400Y43800D01*
X30389Y44016D01*
X30305Y44439D01*
X30140Y44837D01*
X29901Y45196D01*
X29596Y45501D01*
X29237Y45740D01*
X28839Y45905D01*
X28416Y45989D01*
X28200Y46000D01*
X28200Y46000D01*
X28200Y46000D01*
X5122Y46000D01*
X4904Y45989D01*
X4477Y45904D01*
X4074Y45738D01*
X3712Y45496D01*
X3404Y45188D01*
X3162Y44826D01*
X2996Y44423D01*
X2911Y43996D01*
X2900Y43778D01*
X2900Y43778D01*
X2900Y43778D01*
X2900Y39423D01*
X2908Y39270D01*
X2967Y38970D01*
X3084Y38687D01*
X3254Y38433D01*
X3470Y38217D01*
X3725Y38047D01*
X4007Y37930D01*
X4307Y37870D01*
X4460Y37862D01*
X6504Y37862D01*
X6572Y37662D01*
X6452Y37570D01*
X6268Y37330D01*
X6152Y37050D01*
X6152Y37050D01*
X7272D01*
Y36750D01*
X7572D01*
Y35630D01*
X7572Y35630D01*
X7852Y35745D01*
X8092Y35930D01*
X8277Y36170D01*
X8300Y36226D01*
X8500Y36186D01*
X8500Y34967D01*
X8500Y34774D01*
X8424Y34393D01*
X8276Y34035D01*
X8061Y33713D01*
X7787Y33439D01*
X7465Y33224D01*
X7107Y33076D01*
X6726Y33000D01*
X6533Y33000D01*
Y33000D01*
X6533Y33000D01*
X2516Y33000D01*
X2318Y33000D01*
X1930Y33077D01*
X1564Y33229D01*
X1235Y33449D01*
X954Y33729D01*
X734Y34058D01*
X583Y34424D01*
X506Y34813D01*
X506Y35011D01*
X506Y45592D01*
Y45782D01*
X555Y46160D01*
X654Y46529D01*
X800Y46881D01*
X990Y47211D01*
X1223Y47513D01*
X1492Y47783D01*
X1795Y48015D01*
X2125Y48206D01*
X2477Y48352D01*
X2845Y48450D01*
X3223Y48500D01*
X3414Y48500D01*
X3414Y48500D01*
X30345Y48500D01*
X30558Y48500D01*
X30981Y48444D01*
D02*
G37*
G36*
X13479Y43000D02*
X22500Y43000D01*
X22500Y43000D01*
X22500Y43000D01*
X22500D01*
X22684Y42983D01*
X22788Y42962D01*
X22967Y42888D01*
X23128Y42780D01*
X23265Y42643D01*
X23373Y42482D01*
X23447Y42303D01*
X23485Y42112D01*
Y42087D01*
X23340Y41990D01*
X23285Y41980D01*
X23275Y41986D01*
X23112Y42018D01*
X22545D01*
Y40940D01*
X22245D01*
Y40640D01*
X20952D01*
Y40288D01*
X20953Y40280D01*
X20827Y40125D01*
X19537D01*
Y40710D01*
X19510Y40847D01*
X19432Y40963D01*
X19316Y41041D01*
X19179Y41068D01*
X18900D01*
Y40256D01*
X18300D01*
Y41068D01*
X18021D01*
X17884Y41041D01*
X17768Y40963D01*
X17690Y40847D01*
X17663Y40710D01*
Y40125D01*
X13518Y40125D01*
X13418D01*
X13222Y40164D01*
X13038Y40240D01*
X12872Y40351D01*
X12731Y40492D01*
X12620Y40658D01*
X12544Y40842D01*
X12505Y41038D01*
X12505Y41138D01*
X12505Y42026D01*
X12505Y42026D01*
X12524Y42218D01*
X12542Y42310D01*
X12616Y42487D01*
X12722Y42647D01*
X12858Y42783D01*
X13018Y42889D01*
X13195Y42963D01*
X13383Y43000D01*
X13479Y43000D01*
D02*
G37*
G36*
X53500Y34036D02*
X53500Y33919D01*
X53454Y33690D01*
X53365Y33474D01*
X53235Y33280D01*
X53070Y33115D01*
X52876Y32985D01*
X52660Y32895D01*
X52431Y32850D01*
X52314Y32850D01*
X50431D01*
X50270Y32842D01*
X49953Y32779D01*
X49655Y32656D01*
X49418Y32497D01*
X49406Y32489D01*
X49406Y32489D01*
X49387Y32476D01*
X49268Y32368D01*
X49267Y32368D01*
X49267Y32368D01*
X49128Y32229D01*
X48801Y31902D01*
X48673Y31761D01*
X48462Y31445D01*
X48317Y31094D01*
X48244Y30726D01*
X48242Y30721D01*
X48233Y30531D01*
X48233D01*
X48233Y30531D01*
X48233Y28067D01*
X48239Y27953D01*
X48283Y27728D01*
X48371Y27517D01*
X48498Y27327D01*
X48660Y27165D01*
X48850Y27038D01*
X49061Y26950D01*
X49286Y26906D01*
X49400Y26900D01*
X49855Y26900D01*
X49977Y26792D01*
X50028Y26700D01*
Y26600D01*
X51715D01*
Y26000D01*
X50028D01*
Y25854D01*
X49855Y25700D01*
X48000Y25700D01*
X47892Y25700D01*
X47679Y25742D01*
X47479Y25825D01*
X47299Y25946D01*
X47146Y26099D01*
X47025Y26279D01*
X46942Y26479D01*
X46900Y26692D01*
X46900Y26800D01*
X46900Y33961D01*
X47280D01*
Y35039D01*
Y36117D01*
X46900D01*
X46900Y39524D01*
X46900Y39634D01*
X46943Y39849D01*
X47027Y40053D01*
X47149Y40235D01*
X47305Y40391D01*
X47488Y40513D01*
X47691Y40597D01*
X47907Y40640D01*
X48017Y40640D01*
X48017Y40640D01*
X49618Y40640D01*
Y40325D01*
X53142D01*
Y40640D01*
X53500D01*
X53500Y34036D01*
D02*
G37*
G36*
X38603Y42731D02*
X38731Y42604D01*
X38800Y42437D01*
Y42347D01*
X38800D01*
X38800Y40424D01*
X38800Y40333D01*
X38730Y40164D01*
X38601Y40035D01*
X38524Y40003D01*
X38341Y39965D01*
X38341Y39965D01*
Y39965D01*
X37135Y39965D01*
X37084Y40026D01*
X37009Y40165D01*
X37033Y40288D01*
Y40640D01*
X35740D01*
Y40940D01*
X35440D01*
Y42018D01*
X34872D01*
X34805Y42005D01*
X34605Y42138D01*
Y42391D01*
X34683Y42579D01*
X34826Y42722D01*
X35014Y42800D01*
X35116D01*
X35116Y42800D01*
X38347Y42800D01*
X38437Y42800D01*
X38603Y42731D01*
D02*
G37*
G36*
X26200Y39300D02*
X26200Y39300D01*
X26456Y39300D01*
X26958Y39200D01*
X27431Y39004D01*
X27857Y38720D01*
X28219Y38357D01*
X28504Y37932D01*
X28700Y37458D01*
X28800Y36956D01*
X28800Y35964D01*
X28744Y35916D01*
X28600Y35837D01*
X28565Y35844D01*
Y34550D01*
X27965D01*
Y35844D01*
X27900Y35831D01*
X27880Y35832D01*
X27700Y35944D01*
Y36298D01*
X27700Y36298D01*
X27700Y36298D01*
X27700Y36299D01*
X27697Y36367D01*
X27670Y36502D01*
X27617Y36629D01*
X27541Y36743D01*
X27443Y36841D01*
X27329Y36917D01*
X27202Y36970D01*
X27067Y36997D01*
X26998Y37000D01*
X17931Y37000D01*
X17931Y37000D01*
X17739Y36994D01*
X17359Y36944D01*
X16988Y36844D01*
X16634Y36697D01*
X16301Y36506D01*
X15997Y36272D01*
X15726Y36001D01*
X15492Y35696D01*
X15300Y35364D01*
X15153Y35009D01*
X15054Y34639D01*
X15004Y34258D01*
X14998Y34066D01*
Y20502D01*
X15005Y20357D01*
X15061Y20071D01*
X15173Y19803D01*
X15335Y19560D01*
X15540Y19355D01*
X15782Y19193D01*
X16051Y19082D01*
X16337Y19025D01*
X16482Y19018D01*
X17017Y19018D01*
X17018Y19017D01*
X17018Y19017D01*
X17019D01*
X17201Y18991D01*
X17361Y18925D01*
X17532Y18755D01*
X17624Y18532D01*
X17624Y18411D01*
X17524Y18296D01*
X17424Y18237D01*
X17319D01*
Y17300D01*
Y16363D01*
X17473D01*
X17624Y16189D01*
Y16141D01*
X17482Y16000D01*
X14600Y16000D01*
X10600Y16000D01*
X10452D01*
X10162Y16058D01*
X9889Y16171D01*
X9644Y16335D01*
X9435Y16544D01*
X9271Y16790D01*
X9158Y17062D01*
X9100Y17352D01*
X9100Y17500D01*
Y20484D01*
X9100Y20484D01*
X9100Y20484D01*
X9088Y20725D01*
X8994Y21196D01*
X8810Y21640D01*
X8543Y22040D01*
X8382Y22218D01*
X7885Y22715D01*
X7885Y22715D01*
X7885Y22715D01*
X7879Y22721D01*
X7789Y22806D01*
X7743Y22844D01*
X7586Y22973D01*
X7368Y23119D01*
X7136Y23243D01*
X6893Y23343D01*
X6641Y23420D01*
X6383Y23471D01*
X6122Y23497D01*
X5990Y23500D01*
X3100Y23500D01*
X3001Y23500D01*
X2808Y23538D01*
X2626Y23614D01*
X2462Y23723D01*
X2323Y23863D01*
X2214Y24026D01*
X2138Y24208D01*
X2100Y24402D01*
X2100Y24500D01*
Y26500D01*
X2100Y26599D01*
X2138Y26792D01*
X2214Y26974D01*
X2323Y27138D01*
X2462Y27277D01*
X2626Y27386D01*
X2808Y27462D01*
X3001Y27500D01*
X3100Y27500D01*
X6176Y27500D01*
X6255Y27300D01*
X6152Y27050D01*
X6152Y27050D01*
X8393D01*
X8393Y27050D01*
X8277Y27330D01*
X8092Y27570D01*
X8044Y27607D01*
X8052Y27853D01*
X8283Y28007D01*
X8593Y28317D01*
X8836Y28681D01*
X9004Y29086D01*
X9089Y29515D01*
X9100Y29735D01*
X9100Y38775D01*
X9100Y38775D01*
X9134Y38961D01*
X9180Y39072D01*
X9328Y39220D01*
X9521Y39300D01*
X9625Y39300D01*
X9707Y39218D01*
Y39130D01*
X10785D01*
X11863D01*
Y39300D01*
X13840Y39300D01*
X13939Y39201D01*
X15600D01*
X17218D01*
Y39300D01*
X17545Y39300D01*
X17588Y39258D01*
X17679Y39100D01*
X17663Y39020D01*
Y38866D01*
X18600D01*
X19537D01*
Y39020D01*
X19521Y39100D01*
X19612Y39258D01*
X19655Y39300D01*
X26200Y39300D01*
X26200Y39300D01*
D02*
G37*
G36*
X40200Y49200D02*
X56851Y49200D01*
X56851Y49200D01*
X56851Y49200D01*
X57094Y49200D01*
X57578Y49152D01*
X58055Y49058D01*
X58520Y48917D01*
X58969Y48731D01*
X59397Y48502D01*
X59457Y48461D01*
X59360Y48225D01*
X59320Y47925D01*
X59360Y47625D01*
X59475Y47345D01*
X59660Y47105D01*
X59900Y46920D01*
X60180Y46805D01*
X60480Y46765D01*
X60780Y46805D01*
X61060Y46920D01*
X61128Y46972D01*
X63805Y44295D01*
X63805Y44295D01*
X63805Y44295D01*
X63807Y44293D01*
X63936Y44160D01*
X64125Y43930D01*
X64306Y43660D01*
X64458Y43374D01*
X64582Y43075D01*
X64677Y42764D01*
X64694Y42676D01*
Y36803D01*
X64610Y36600D01*
X64455Y36368D01*
X64258Y36171D01*
X64026Y36015D01*
X63768Y35909D01*
X63494Y35854D01*
X63354Y35854D01*
X57915Y35854D01*
X57915Y35854D01*
X57826Y35850D01*
X57650Y35815D01*
X57484Y35746D01*
X57335Y35646D01*
X57208Y35519D01*
X57108Y35370D01*
X57039Y35204D01*
X57004Y35028D01*
X57000Y34939D01*
X57000Y30200D01*
X57000D01*
X57000Y30082D01*
X56954Y29850D01*
X56863Y29632D01*
X56732Y29435D01*
X56565Y29268D01*
X56368Y29137D01*
X56150Y29046D01*
X55918Y29000D01*
X53537D01*
X53503Y29025D01*
X53391Y29200D01*
X53402Y29254D01*
Y29400D01*
X51715D01*
Y30000D01*
X53402D01*
Y30146D01*
X53575Y30300D01*
X53731Y30300D01*
X53731Y30300D01*
X53731Y30300D01*
X53855Y30306D01*
X53923Y30319D01*
X54099Y30355D01*
X54329Y30450D01*
X54536Y30588D01*
X54712Y30764D01*
X54850Y30971D01*
X54945Y31201D01*
X54994Y31445D01*
X55000Y31569D01*
X55000Y41900D01*
X55000D01*
X54992Y42053D01*
X54933Y42352D01*
X54816Y42634D01*
X54646Y42888D01*
X54431Y43104D01*
X54177Y43274D01*
X53895Y43390D01*
X53595Y43450D01*
X53443Y43457D01*
X45309Y43457D01*
X45309Y43457D01*
X45162Y43450D01*
X44873Y43393D01*
X44601Y43280D01*
X44356Y43116D01*
X44246Y43017D01*
X43926Y42696D01*
X43925Y42696D01*
X43831Y42602D01*
X43610Y42454D01*
X43363Y42352D01*
X43102Y42300D01*
X42969Y42300D01*
X40075Y42300D01*
X39999Y42300D01*
X39849Y42330D01*
X39708Y42388D01*
X39581Y42473D01*
X39473Y42581D01*
X39388Y42708D01*
X39330Y42849D01*
X39300Y42999D01*
Y43075D01*
X39300Y43300D01*
X39300Y48300D01*
X39300Y48300D01*
X39311Y48406D01*
X39320Y48492D01*
X39335Y48562D01*
X39402Y48726D01*
X39501Y48874D01*
X39626Y48999D01*
X39774Y49098D01*
X39937Y49165D01*
X40111Y49200D01*
X40200Y49200D01*
D02*
G37*
G36*
X28448Y45421D02*
X28823Y45266D01*
X29159Y45041D01*
X29446Y44754D01*
X29671Y44418D01*
X29826Y44043D01*
X29905Y43646D01*
X29905Y43444D01*
X29905Y43444D01*
X29905Y43444D01*
X29905Y36034D01*
X29874Y35979D01*
X29835Y35943D01*
Y34550D01*
X29235D01*
Y35878D01*
X29180Y35924D01*
X29180Y37052D01*
X29176Y37185D01*
X29150Y37450D01*
X29098Y37712D01*
X29021Y37967D01*
X28919Y38214D01*
X28793Y38449D01*
X28645Y38671D01*
X28513Y38832D01*
X28475Y38877D01*
X28386Y38971D01*
X28383Y38974D01*
X28383Y38974D01*
X28383Y38974D01*
X27252Y40105D01*
X27266Y40125D01*
X27298Y40288D01*
Y40640D01*
X26005D01*
Y40940D01*
X25705D01*
Y42018D01*
X25137D01*
X24975Y41986D01*
X24923Y41951D01*
X24718Y42048D01*
X24718Y42050D01*
X24658Y42347D01*
X24543Y42627D01*
X24374Y42879D01*
X24160Y43093D01*
X23908Y43261D01*
X23628Y43377D01*
X23365Y43429D01*
X23331Y43436D01*
X23182Y43444D01*
X23180Y43444D01*
X23180Y43444D01*
X23180Y43444D01*
X13299Y43444D01*
X13132Y43435D01*
X12804Y43370D01*
X12495Y43242D01*
X12240Y43072D01*
X12217Y43056D01*
X12170Y43014D01*
X12093Y42944D01*
X11902Y42959D01*
X11863Y42976D01*
Y43457D01*
X11831Y43620D01*
X11738Y43758D01*
X11600Y43851D01*
X11438Y43883D01*
X11085D01*
Y42590D01*
X10785D01*
Y42290D01*
X9707D01*
Y41722D01*
X9739Y41560D01*
X9832Y41421D01*
X9970Y41329D01*
X10132Y41297D01*
X10184D01*
X10261Y41112D01*
X8588Y39439D01*
X8399Y39504D01*
X8393Y39550D01*
X8277Y39830D01*
X8092Y40070D01*
X7852Y40254D01*
X7572Y40370D01*
X7572Y40370D01*
Y39250D01*
X7272D01*
Y38950D01*
X6152D01*
X6152Y38950D01*
X6268Y38670D01*
X6436Y38450D01*
X6399Y38273D01*
X6391Y38250D01*
X4435Y38250D01*
X4367Y38250D01*
X4235Y38276D01*
X4110Y38328D01*
X3998Y38403D01*
X3903Y38498D01*
X3828Y38610D01*
X3776Y38735D01*
X3750Y38867D01*
X3750Y38935D01*
Y39002D01*
X3922Y39105D01*
X4004Y39061D01*
X4296Y38972D01*
X4300Y38972D01*
Y40500D01*
Y42028D01*
X4296Y42028D01*
X4004Y41939D01*
X3922Y41895D01*
X3750Y41998D01*
X3750Y43472D01*
X3836Y43906D01*
X4006Y44316D01*
X4252Y44684D01*
X4566Y44998D01*
X4934Y45244D01*
X5344Y45413D01*
X5778Y45500D01*
X6000D01*
X6000Y45500D01*
X27849Y45500D01*
X28051Y45500D01*
X28448Y45421D01*
D02*
G37*
G36*
X35038Y39201D02*
X43156Y39201D01*
Y39020D01*
X44425D01*
Y38720D01*
X44725D01*
Y36911D01*
X45220D01*
X45401Y36947D01*
X45418Y36958D01*
X45618Y36851D01*
X45618Y24409D01*
X45618Y24409D01*
X45618Y24309D01*
X45579Y24115D01*
X45503Y23931D01*
X45392Y23766D01*
X45252Y23625D01*
X45087Y23515D01*
X44903Y23439D01*
X44708Y23400D01*
X38561D01*
X38561Y23400D01*
X38458Y23395D01*
X38257Y23355D01*
X38067Y23276D01*
X37896Y23162D01*
X37750Y23016D01*
X37636Y22845D01*
X37557Y22655D01*
X37517Y22454D01*
X37512Y22351D01*
X37512Y17516D01*
X37512Y17516D01*
Y17446D01*
X37485Y17307D01*
X37431Y17177D01*
X37352Y17060D01*
X37252Y16960D01*
X37135Y16882D01*
X37005Y16828D01*
X36866Y16800D01*
X34815Y16800D01*
X34693Y16800D01*
X34467Y16894D01*
X34294Y17067D01*
X34200Y17293D01*
X34200Y18089D01*
X34200Y18285D01*
X34200Y18285D01*
X34195Y18390D01*
X34179Y18468D01*
X34179Y18468D01*
X34178Y18476D01*
X34176Y18484D01*
X34154Y18596D01*
X34074Y18790D01*
X33957Y18964D01*
X33886Y19042D01*
X33532Y19397D01*
X33495Y19452D01*
X33480Y19466D01*
X33469Y19483D01*
X33384Y19569D01*
X33384Y19569D01*
X33117Y19836D01*
X33116Y19836D01*
X33059Y19894D01*
X33042Y19905D01*
X33028Y19919D01*
X32972Y19956D01*
X32959Y19969D01*
X33045Y20129D01*
Y21450D01*
Y22744D01*
X32966Y22728D01*
X32871Y22664D01*
X32815Y22581D01*
X32719Y22569D01*
X32701D01*
X32605Y22581D01*
X32549Y22664D01*
X32500Y22697D01*
Y22900D01*
X23531Y22900D01*
Y22900D01*
X23485Y22866D01*
Y21450D01*
Y20122D01*
X23531Y20084D01*
Y19310D01*
X23331Y19203D01*
X23321Y19210D01*
X23184Y19237D01*
X23030D01*
Y18300D01*
Y17363D01*
X23184D01*
X23321Y17390D01*
X23331Y17397D01*
X23531Y17290D01*
Y16132D01*
X23331Y16025D01*
X23300Y16046D01*
X23138Y16078D01*
X22570D01*
Y15000D01*
X22270D01*
Y14700D01*
X20977D01*
Y14348D01*
X21009Y14185D01*
X21013Y14179D01*
X20906Y13979D01*
X19514Y13979D01*
X19514Y13979D01*
X19366Y13979D01*
X19078Y14037D01*
X18806Y14149D01*
X18561Y14313D01*
X18353Y14521D01*
X18190Y14766D01*
X18077Y15037D01*
X18020Y15326D01*
X18020Y15473D01*
Y16234D01*
X18220Y16370D01*
X18255Y16363D01*
X18409D01*
Y17300D01*
Y18237D01*
X18255D01*
X18220Y18230D01*
X18020Y18366D01*
Y18812D01*
X18020Y18812D01*
X18020Y18812D01*
X18019Y18831D01*
X18012Y18972D01*
X18007Y18997D01*
X17949Y19287D01*
X17827Y19584D01*
X17648Y19851D01*
X17540Y19970D01*
X16673Y20837D01*
X16673Y20837D01*
X16513Y20997D01*
X16262Y21374D01*
X16088Y21792D01*
X16000Y22236D01*
Y22463D01*
X16000Y27000D01*
Y32500D01*
Y33600D01*
X16000Y33600D01*
X16000D01*
X16000Y33807D01*
X16081Y34213D01*
X16239Y34595D01*
X16469Y34939D01*
X16761Y35231D01*
X17105Y35461D01*
X17487Y35619D01*
X17893Y35700D01*
X18100Y35700D01*
X22449Y35700D01*
X22624Y35556D01*
Y34850D01*
X23185D01*
Y34550D01*
X23485D01*
Y33121D01*
X23531Y33082D01*
Y33000D01*
X32900Y33000D01*
Y33094D01*
X33045Y33220D01*
Y34550D01*
Y35912D01*
X33028Y35926D01*
X32967Y36032D01*
X33043Y36216D01*
X33180Y36421D01*
X33268Y36509D01*
X33846Y37087D01*
X33846Y37087D01*
X33846Y37087D01*
X33846Y37087D01*
X33926Y37175D01*
X33966Y37236D01*
X34057Y37372D01*
X34148Y37591D01*
X34194Y37823D01*
X34200Y37941D01*
X34200Y38163D01*
X34200Y38363D01*
X34222Y38555D01*
X34232Y38608D01*
X34295Y38760D01*
X34387Y38898D01*
X34504Y39014D01*
X34641Y39106D01*
X34793Y39169D01*
X34955Y39201D01*
X35038Y39201D01*
D02*
G37*
G36*
X60875Y25050D02*
X60875Y25050D01*
X60875D01*
X61058Y25025D01*
X61229Y24955D01*
X61405Y24779D01*
X61500Y24549D01*
X61500Y24425D01*
X61500Y23449D01*
X61500Y23449D01*
X61500Y23252D01*
X61423Y22865D01*
X61272Y22500D01*
X61053Y22172D01*
X60155Y21275D01*
X60155Y21275D01*
X59995Y21115D01*
X59617Y20862D01*
X59198Y20689D01*
X58753Y20600D01*
X58302D01*
X58267Y20607D01*
X58232Y20600D01*
X56516D01*
X56447Y20614D01*
X56377Y20600D01*
X44716Y20600D01*
X44716Y20600D01*
X44548Y20592D01*
X44218Y20526D01*
X43907Y20397D01*
X43628Y20210D01*
X43390Y19972D01*
X43203Y19693D01*
X43074Y19382D01*
X43008Y19052D01*
X43000Y18884D01*
X43000Y16000D01*
X43000Y14000D01*
X43000Y14000D01*
X43000Y13842D01*
X42938Y13533D01*
X42818Y13242D01*
X42643Y12980D01*
X42420Y12757D01*
X42158Y12582D01*
X41867Y12461D01*
X41558Y12400D01*
X41400Y12400D01*
X35115Y12400D01*
X35115Y12400D01*
X35012D01*
X34823Y12478D01*
X34678Y12623D01*
X34600Y12813D01*
X34600Y12915D01*
Y13827D01*
X34800Y13960D01*
X34868Y13947D01*
X35435D01*
Y15025D01*
X35735D01*
Y15325D01*
X37028D01*
Y15677D01*
X37004Y15800D01*
X37079Y15939D01*
X37130Y16000D01*
X38211Y16000D01*
X38400Y16000D01*
X38400Y16000D01*
X38400Y16000D01*
X38557Y16008D01*
X38594Y16015D01*
X38864Y16069D01*
X39154Y16189D01*
X39415Y16363D01*
X39637Y16585D01*
X39811Y16846D01*
X39931Y17136D01*
X39992Y17443D01*
X40000Y17600D01*
X40000Y20700D01*
X40000Y20700D01*
X40008Y20897D01*
X40061Y21167D01*
X40182Y21458D01*
X40357Y21720D01*
X40580Y21943D01*
X40842Y22118D01*
X41133Y22239D01*
X41442Y22300D01*
X41600Y22300D01*
X43000Y22300D01*
X45600Y22300D01*
X45727Y22306D01*
X45792Y22319D01*
X45977Y22356D01*
X46213Y22453D01*
X46425Y22595D01*
X46605Y22775D01*
X46746Y22987D01*
X46844Y23223D01*
X46894Y23473D01*
X46900Y23600D01*
X46900Y24185D01*
X46900Y24185D01*
X46900Y24185D01*
X46920Y24372D01*
X46933Y24437D01*
X46998Y24595D01*
X47093Y24736D01*
X47214Y24857D01*
X47355Y24952D01*
X47513Y25017D01*
X47680Y25050D01*
X47765Y25050D01*
X49830Y25050D01*
X49979Y24900D01*
X51715D01*
X53402D01*
Y25046D01*
X53405Y25050D01*
X57816Y25050D01*
X57981Y24855D01*
X57981Y24850D01*
Y23820D01*
X59250D01*
X60519D01*
Y24855D01*
X60684Y25050D01*
X60875D01*
X60875Y25050D01*
D02*
G37*
G36*
X29835Y20122D02*
X29905Y20064D01*
X29905Y15750D01*
X29905Y13405D01*
X29905Y13405D01*
Y13168D01*
X29813Y12703D01*
X29631Y12266D01*
X29368Y11872D01*
X29033Y11537D01*
X28639Y11274D01*
X28201Y11092D01*
X27737Y11000D01*
X27500D01*
X5696Y11000D01*
X5504Y11000D01*
X5128Y11075D01*
X4774Y11221D01*
X4455Y11434D01*
X4184Y11705D01*
X3971Y12024D01*
X3825Y12378D01*
X3750Y12754D01*
X3750Y12946D01*
X3750Y14200D01*
X4300D01*
Y15500D01*
Y16800D01*
X3932D01*
X3878Y16812D01*
X3766Y16997D01*
X3769Y17024D01*
X3785Y17106D01*
X3854Y17271D01*
X3953Y17420D01*
X4080Y17547D01*
X4229Y17646D01*
X4394Y17715D01*
X4570Y17750D01*
X4660Y17750D01*
X5827Y17750D01*
X5827Y17750D01*
X5827Y17750D01*
X6022Y17750D01*
X6283Y17698D01*
X6365Y17480D01*
X6364Y17475D01*
X6268Y17350D01*
X6152Y17070D01*
X6152Y17070D01*
X7272D01*
Y16770D01*
X7572D01*
Y15649D01*
X7572Y15649D01*
X7852Y15765D01*
X8092Y15950D01*
X8155Y16032D01*
X8355Y16045D01*
X9707Y14693D01*
Y14320D01*
X10785D01*
Y14020D01*
X11085D01*
Y12727D01*
X11438D01*
X11600Y12759D01*
X11738Y12851D01*
X11831Y12990D01*
X11863Y13153D01*
Y13300D01*
X24840Y13300D01*
Y13820D01*
X24901Y13871D01*
X25040Y13946D01*
X25162Y13922D01*
X25730D01*
Y15000D01*
X26030D01*
Y15300D01*
X27323D01*
Y15653D01*
X27291Y15815D01*
X27198Y15953D01*
X27060Y16046D01*
X26897Y16078D01*
X26669D01*
X26592Y16263D01*
X28188Y17859D01*
X28188Y17859D01*
X28188Y17859D01*
X28334Y18020D01*
X28574Y18380D01*
X28740Y18779D01*
X28824Y19204D01*
X28835Y19420D01*
X28835Y20199D01*
X28841Y20205D01*
X29061Y20236D01*
X29156Y20172D01*
X29235Y20156D01*
Y21450D01*
X29835D01*
Y20122D01*
D02*
G37*
G36*
X25526Y18924D02*
X25677Y18823D01*
X25889Y18611D01*
X25903Y18590D01*
X25924Y18576D01*
X26170Y18330D01*
Y18330D01*
X26291Y18176D01*
X26311Y18147D01*
X26370Y18004D01*
X26400Y17852D01*
X26400Y17774D01*
X26400Y16744D01*
X26400Y16744D01*
Y16675D01*
X26348Y16549D01*
X26251Y16452D01*
X26125Y16400D01*
X24144Y16400D01*
X24075Y16400D01*
X23949Y16452D01*
X23852Y16549D01*
X23800Y16675D01*
X23800Y16744D01*
Y17192D01*
X23966Y17363D01*
X24120D01*
Y18300D01*
X24420D01*
Y18600D01*
X25232D01*
Y18815D01*
X25299Y18910D01*
X25303Y18913D01*
X25418Y18969D01*
X25526Y18924D01*
D02*
G37*
G36*
X58050Y8500D02*
X58159D01*
X58362Y8416D01*
X58516Y8262D01*
X58569Y8133D01*
X58600Y7950D01*
Y7950D01*
X58600D01*
X58600Y7950D01*
Y6375D01*
X58600Y6261D01*
X58512Y6049D01*
X58351Y5888D01*
X58208Y5828D01*
X58025Y5800D01*
X58025Y5800D01*
Y5800D01*
X57358Y5800D01*
Y5846D01*
X56400D01*
X55347D01*
X55301Y5800D01*
X46200Y5800D01*
X46117D01*
X45964Y5863D01*
X45847Y5980D01*
X45784Y6133D01*
X45784Y8068D01*
X45784Y8154D01*
X45850Y8313D01*
X45971Y8434D01*
X46130Y8500D01*
X46216Y8500D01*
X46216Y8500D01*
X58050Y8500D01*
D02*
G37*
G36*
X2200Y23000D02*
X6508Y23000D01*
X6508Y23000D01*
X6508Y23000D01*
X6509D01*
X6695Y22992D01*
X6943Y22943D01*
X7215Y22830D01*
X7459Y22667D01*
X7667Y22459D01*
X7830Y22215D01*
X7943Y21943D01*
X8000Y21655D01*
X8000Y21508D01*
X8000Y20388D01*
X7800Y20296D01*
X7572Y20390D01*
X7572Y20390D01*
Y19270D01*
X7272D01*
Y18970D01*
X6152D01*
X6152Y18970D01*
X6268Y18690D01*
X6452Y18450D01*
X6598Y18337D01*
X6530Y18138D01*
X4276Y18138D01*
X4276Y18137D01*
X4151Y18131D01*
X3906Y18083D01*
X3675Y17987D01*
X3467Y17848D01*
X3290Y17671D01*
X3151Y17463D01*
X3055Y17232D01*
X3006Y16986D01*
X3000Y16861D01*
X3000Y12200D01*
X3000Y12200D01*
X3008Y12033D01*
X3073Y11707D01*
X3201Y11399D01*
X3386Y11122D01*
X3622Y10886D01*
X3899Y10701D01*
X4207Y10573D01*
X4533Y10508D01*
X4700Y10500D01*
X27996Y10500D01*
X28232Y10511D01*
X28694Y10603D01*
X29129Y10784D01*
X29521Y11046D01*
X29854Y11379D01*
X30116Y11771D01*
X30296Y12206D01*
X30388Y12668D01*
X30400Y12904D01*
X30400Y19973D01*
X30443Y20046D01*
X30505Y20113D01*
Y21450D01*
X31105D01*
Y20156D01*
X31184Y20172D01*
X31279Y20236D01*
X31335Y20319D01*
X31431Y20331D01*
X31449D01*
X31545Y20319D01*
X31601Y20236D01*
X31640Y20209D01*
X31734Y19935D01*
X32385Y19935D01*
X32385Y19935D01*
Y19935D01*
X32385D01*
X32575Y19914D01*
X32627Y19903D01*
X32778Y19841D01*
X32914Y19750D01*
X32972Y19692D01*
X33239Y19425D01*
X33239Y19425D01*
X33325Y19339D01*
X33460Y19137D01*
X33553Y18913D01*
X33600Y18675D01*
X33600Y18554D01*
X33600Y11500D01*
X33600Y11500D01*
Y11271D01*
X33540Y10816D01*
X33421Y10373D01*
X33246Y9949D01*
X33016Y9551D01*
X32737Y9187D01*
X32413Y8863D01*
X32049Y8584D01*
X31651Y8354D01*
X31227Y8179D01*
X30784Y8060D01*
X30329Y8000D01*
X30100D01*
X3000Y8000D01*
X3000Y8000D01*
X2754Y8000D01*
X2272Y8096D01*
X1818Y8284D01*
X1410Y8557D01*
X1062Y8904D01*
X789Y9313D01*
X601Y9767D01*
X506Y10249D01*
Y10494D01*
X506Y21306D01*
X506Y21306D01*
X512Y21503D01*
X571Y21800D01*
X698Y22108D01*
X884Y22386D01*
X1120Y22622D01*
X1397Y22807D01*
X1706Y22935D01*
X2033Y23000D01*
X2200Y23000D01*
D02*
G37*
G36*
X52670Y5530D02*
X52670Y5530D01*
X52670D01*
X52853Y5498D01*
X52970Y5450D01*
X53119Y5300D01*
X53183Y5146D01*
X53145Y5056D01*
X53022Y4946D01*
X52850D01*
Y3896D01*
Y2846D01*
X53200D01*
Y2801D01*
X53204Y2722D01*
X53234Y2568D01*
X53295Y2423D01*
X53382Y2293D01*
X53493Y2182D01*
X53623Y2095D01*
X53768Y2034D01*
X53922Y2004D01*
X54001Y2000D01*
X55442Y2000D01*
Y1846D01*
X56400D01*
X57358D01*
Y1872D01*
X57509Y1998D01*
X57682Y1967D01*
X57795Y1921D01*
X57940Y1775D01*
X58019Y1584D01*
X58019Y1480D01*
X58018Y1017D01*
X58018Y1017D01*
X58018Y949D01*
X57991Y815D01*
X57938Y689D01*
X57862Y576D01*
X57766Y479D01*
X57652Y404D01*
X57526Y352D01*
X57392Y325D01*
X57324D01*
X51400Y325D01*
X51400Y325D01*
X51336Y325D01*
X51210Y350D01*
X51092Y399D01*
X50986Y470D01*
X50895Y561D01*
X50824Y667D01*
X50775Y785D01*
X50750Y911D01*
X50750Y975D01*
X50750Y4825D01*
X50750Y4825D01*
X50774Y5015D01*
X50777Y5031D01*
X50830Y5159D01*
X50907Y5275D01*
X51006Y5373D01*
X51121Y5450D01*
X51250Y5503D01*
X51386Y5530D01*
X51455Y5530D01*
X52670Y5530D01*
X52670Y5530D01*
D02*
G37*
G36*
X55829Y5000D02*
X55838Y4804D01*
X55686Y4774D01*
X55558Y4688D01*
X55472Y4560D01*
X55442Y4409D01*
Y4146D01*
X56400D01*
X57358D01*
Y4409D01*
X57328Y4560D01*
X57242Y4688D01*
X57114Y4774D01*
X56963Y4804D01*
X56971Y5000D01*
X58256Y5000D01*
X58414Y4935D01*
X58535Y4814D01*
X58560Y4752D01*
X58600Y4570D01*
Y4570D01*
X58600D01*
X58600Y4570D01*
X58600Y2900D01*
X58600Y2820D01*
X58539Y2673D01*
X58427Y2561D01*
X58382Y2543D01*
X58200Y2500D01*
Y2500D01*
X56981D01*
X56963Y2504D01*
X56405D01*
X56400Y2504D01*
X56395Y2504D01*
X55838D01*
X55819Y2500D01*
X54440D01*
X54330Y2546D01*
X54246Y2630D01*
X54200Y2740D01*
X54200Y2800D01*
X54200Y4647D01*
X54267Y4809D01*
X54391Y4933D01*
X54553Y5000D01*
X54640D01*
X54640Y5000D01*
X55829Y5000D01*
D02*
G37*
%LPC*%
G36*
X32847Y42018D02*
X32280D01*
Y41240D01*
X33273D01*
Y41593D01*
X33241Y41756D01*
X33148Y41894D01*
X33010Y41986D01*
X32847Y42018D01*
D02*
G37*
G36*
X31680D02*
X31112D01*
X30950Y41986D01*
X30811Y41894D01*
X30719Y41756D01*
X30687Y41593D01*
Y41240D01*
X31680D01*
Y42018D01*
D02*
G37*
G36*
X33273Y40640D02*
X32280D01*
Y39862D01*
X32847D01*
X33010Y39895D01*
X33148Y39987D01*
X33241Y40125D01*
X33273Y40288D01*
Y40640D01*
D02*
G37*
G36*
X31680D02*
X30687D01*
Y40288D01*
X30719Y40125D01*
X30811Y39987D01*
X30950Y39895D01*
X31112Y39862D01*
X31680D01*
Y40640D01*
D02*
G37*
G36*
X32847Y38818D02*
X32280D01*
Y38040D01*
X33273D01*
Y38393D01*
X33241Y38556D01*
X33148Y38694D01*
X33010Y38786D01*
X32847Y38818D01*
D02*
G37*
G36*
X31680D02*
X31112D01*
X30950Y38786D01*
X30811Y38694D01*
X30719Y38556D01*
X30687Y38393D01*
Y38040D01*
X31680D01*
Y38818D01*
D02*
G37*
G36*
Y37440D02*
X30687D01*
Y37088D01*
X30719Y36925D01*
X30811Y36787D01*
X30950Y36695D01*
X31112Y36662D01*
X31680D01*
Y37440D01*
D02*
G37*
G36*
X4900Y37028D02*
Y35800D01*
X6128D01*
X6128Y35804D01*
X6039Y36096D01*
X5895Y36365D01*
X5701Y36601D01*
X5465Y36795D01*
X5196Y36939D01*
X4904Y37028D01*
X4900Y37028D01*
D02*
G37*
G36*
X4300Y37028D02*
X4296Y37028D01*
X4004Y36939D01*
X3735Y36795D01*
X3499Y36601D01*
X3305Y36365D01*
X3161Y36096D01*
X3072Y35804D01*
X3072Y35800D01*
X4300D01*
Y37028D01*
D02*
G37*
G36*
X6972Y36450D02*
X6152D01*
X6152Y36450D01*
X6268Y36170D01*
X6452Y35930D01*
X6692Y35745D01*
X6972Y35630D01*
X6972Y35630D01*
Y36450D01*
D02*
G37*
G36*
X6128Y35200D02*
X4900D01*
Y33972D01*
X4904Y33972D01*
X5196Y34061D01*
X5465Y34205D01*
X5701Y34399D01*
X5895Y34635D01*
X6039Y34904D01*
X6128Y35196D01*
X6128Y35200D01*
D02*
G37*
G36*
X4300D02*
X3072D01*
X3072Y35196D01*
X3161Y34904D01*
X3305Y34635D01*
X3499Y34399D01*
X3735Y34205D01*
X4004Y34061D01*
X4296Y33972D01*
X4300Y33972D01*
Y35200D01*
D02*
G37*
G36*
X16790Y42579D02*
X15900D01*
Y41791D01*
X17218D01*
Y42151D01*
X17186Y42315D01*
X17093Y42454D01*
X16954Y42547D01*
X16790Y42579D01*
D02*
G37*
G36*
X15300D02*
X14410D01*
X14246Y42547D01*
X14107Y42454D01*
X14014Y42315D01*
X13982Y42151D01*
Y41791D01*
X15300D01*
Y42579D01*
D02*
G37*
G36*
X21945Y42018D02*
X21378D01*
X21215Y41986D01*
X21076Y41894D01*
X20984Y41756D01*
X20952Y41593D01*
Y41240D01*
X21945D01*
Y42018D01*
D02*
G37*
G36*
X17218Y41191D02*
X15900D01*
Y40403D01*
X16790D01*
X16954Y40436D01*
X17093Y40528D01*
X17186Y40667D01*
X17218Y40831D01*
Y41191D01*
D02*
G37*
G36*
X15300D02*
X13982D01*
Y40831D01*
X14014Y40667D01*
X14107Y40528D01*
X14246Y40436D01*
X14410Y40403D01*
X15300D01*
Y41191D01*
D02*
G37*
G36*
X53142Y39725D02*
X51680D01*
Y37014D01*
X52542D01*
X52772Y37059D01*
X52966Y37189D01*
X53096Y37383D01*
X53142Y37613D01*
Y39725D01*
D02*
G37*
G36*
X51080D02*
X49618D01*
Y37613D01*
X49664Y37383D01*
X49794Y37189D01*
X49988Y37059D01*
X50217Y37014D01*
X51080D01*
Y39725D01*
D02*
G37*
G36*
X48447Y36117D02*
X47880D01*
Y35339D01*
X48873D01*
Y35691D01*
X48841Y35854D01*
X48749Y35992D01*
X48610Y36084D01*
X48447Y36117D01*
D02*
G37*
G36*
X48873Y34739D02*
X47880D01*
Y33961D01*
X48447D01*
X48610Y33993D01*
X48749Y34085D01*
X48841Y34223D01*
X48873Y34386D01*
Y34739D01*
D02*
G37*
G36*
X36607Y42018D02*
X36040D01*
Y41240D01*
X37033D01*
Y41593D01*
X37001Y41756D01*
X36908Y41894D01*
X36770Y41986D01*
X36607Y42018D01*
D02*
G37*
G36*
X17218Y38601D02*
X15900D01*
Y37813D01*
X16790D01*
X16954Y37846D01*
X17093Y37938D01*
X17186Y38077D01*
X17218Y38241D01*
Y38601D01*
D02*
G37*
G36*
X15300D02*
X13982D01*
Y38241D01*
X14014Y38077D01*
X14107Y37938D01*
X14246Y37846D01*
X14410Y37813D01*
X15300D01*
Y38601D01*
D02*
G37*
G36*
X19537Y38266D02*
X18900D01*
Y37754D01*
X19179D01*
X19316Y37781D01*
X19432Y37859D01*
X19510Y37975D01*
X19537Y38112D01*
Y38266D01*
D02*
G37*
G36*
X18300D02*
X17663D01*
Y38112D01*
X17690Y37975D01*
X17768Y37859D01*
X17884Y37781D01*
X18021Y37754D01*
X18300D01*
Y38266D01*
D02*
G37*
G36*
X11863Y38530D02*
X11085D01*
Y37537D01*
X11438D01*
X11600Y37569D01*
X11738Y37661D01*
X11831Y37800D01*
X11863Y37962D01*
Y38530D01*
D02*
G37*
G36*
X10485D02*
X9707D01*
Y37962D01*
X9739Y37800D01*
X9832Y37661D01*
X9970Y37569D01*
X10132Y37537D01*
X10485D01*
Y38530D01*
D02*
G37*
G36*
X12505Y34119D02*
X11470D01*
Y33150D01*
X12979D01*
Y33645D01*
X12943Y33826D01*
X12840Y33980D01*
X12686Y34083D01*
X12505Y34119D01*
D02*
G37*
G36*
X10870D02*
X9835D01*
X9654Y34083D01*
X9500Y33980D01*
X9397Y33826D01*
X9361Y33645D01*
Y33150D01*
X10870D01*
Y34119D01*
D02*
G37*
G36*
X12979Y32550D02*
X11470D01*
Y31581D01*
X12505D01*
X12686Y31617D01*
X12840Y31720D01*
X12943Y31874D01*
X12979Y32055D01*
Y32550D01*
D02*
G37*
G36*
X10870D02*
X9361D01*
Y32055D01*
X9397Y31874D01*
X9500Y31720D01*
X9654Y31617D01*
X9835Y31581D01*
X10870D01*
Y32550D01*
D02*
G37*
G36*
X4900Y27028D02*
Y25800D01*
X6128D01*
X6128Y25804D01*
X6039Y26096D01*
X5895Y26365D01*
X5701Y26601D01*
X5465Y26795D01*
X5196Y26939D01*
X4904Y27028D01*
X4900Y27028D01*
D02*
G37*
G36*
X4300Y27028D02*
X4296Y27028D01*
X4004Y26939D01*
X3735Y26795D01*
X3499Y26601D01*
X3305Y26365D01*
X3161Y26096D01*
X3072Y25804D01*
X3072Y25800D01*
X4300D01*
Y27028D01*
D02*
G37*
G36*
X8393Y26450D02*
X7572D01*
Y25630D01*
X7572Y25630D01*
X7852Y25745D01*
X8092Y25930D01*
X8277Y26170D01*
X8393Y26450D01*
X8393Y26450D01*
D02*
G37*
G36*
X6972D02*
X6152D01*
X6152Y26450D01*
X6268Y26170D01*
X6452Y25930D01*
X6692Y25745D01*
X6972Y25630D01*
X6972Y25630D01*
Y26450D01*
D02*
G37*
G36*
X6128Y25200D02*
X4900D01*
Y23972D01*
X4904Y23972D01*
X5196Y24061D01*
X5465Y24205D01*
X5701Y24399D01*
X5895Y24635D01*
X6039Y24904D01*
X6128Y25196D01*
X6128Y25200D01*
D02*
G37*
G36*
X4300D02*
X3072D01*
X3072Y25196D01*
X3161Y24904D01*
X3305Y24635D01*
X3499Y24399D01*
X3735Y24205D01*
X4004Y24061D01*
X4296Y23972D01*
X4300Y23972D01*
Y25200D01*
D02*
G37*
G36*
X12505Y24569D02*
X11470D01*
Y23600D01*
X12979D01*
Y24095D01*
X12943Y24276D01*
X12840Y24430D01*
X12686Y24533D01*
X12505Y24569D01*
D02*
G37*
G36*
X10870D02*
X9835D01*
X9654Y24533D01*
X9500Y24430D01*
X9397Y24276D01*
X9361Y24095D01*
Y23600D01*
X10870D01*
Y24569D01*
D02*
G37*
G36*
X12979Y23000D02*
X11470D01*
Y22031D01*
X12505D01*
X12686Y22067D01*
X12840Y22170D01*
X12943Y22324D01*
X12979Y22505D01*
Y23000D01*
D02*
G37*
G36*
X10870D02*
X9361D01*
Y22505D01*
X9397Y22324D01*
X9500Y22170D01*
X9654Y22067D01*
X9835Y22031D01*
X10870D01*
Y23000D01*
D02*
G37*
G36*
X11438Y19073D02*
X11085D01*
Y18080D01*
X11863D01*
Y18647D01*
X11831Y18810D01*
X11738Y18948D01*
X11600Y19041D01*
X11438Y19073D01*
D02*
G37*
G36*
X10485D02*
X10132D01*
X9970Y19041D01*
X9832Y18948D01*
X9739Y18810D01*
X9707Y18647D01*
Y18080D01*
X10485D01*
Y19073D01*
D02*
G37*
G36*
X16719Y18237D02*
X16565D01*
X16428Y18210D01*
X16312Y18132D01*
X16234Y18016D01*
X16207Y17879D01*
Y17600D01*
X16719D01*
Y18237D01*
D02*
G37*
G36*
X11863Y17480D02*
X11085D01*
Y16487D01*
X11438D01*
X11600Y16519D01*
X11738Y16611D01*
X11831Y16750D01*
X11863Y16913D01*
Y17480D01*
D02*
G37*
G36*
X10485D02*
X9707D01*
Y16913D01*
X9739Y16750D01*
X9832Y16611D01*
X9970Y16519D01*
X10132Y16487D01*
X10485D01*
Y17480D01*
D02*
G37*
G36*
X16719Y17000D02*
X16207D01*
Y16721D01*
X16234Y16584D01*
X16312Y16468D01*
X16428Y16390D01*
X16565Y16363D01*
X16719D01*
Y17000D01*
D02*
G37*
G36*
X55033Y48486D02*
X54819Y48443D01*
X54637Y48322D01*
X54515Y48140D01*
X54473Y47925D01*
X54515Y47710D01*
X54637Y47528D01*
X54819Y47407D01*
X55033Y47364D01*
X55248Y47407D01*
X55430Y47528D01*
X55551Y47710D01*
X55594Y47925D01*
X55551Y48140D01*
X55430Y48322D01*
X55248Y48443D01*
X55033Y48486D01*
D02*
G37*
G36*
X45220Y48089D02*
X44725D01*
Y46580D01*
X45694D01*
Y47615D01*
X45658Y47796D01*
X45555Y47950D01*
X45401Y48053D01*
X45220Y48089D01*
D02*
G37*
G36*
X44125D02*
X43630D01*
X43449Y48053D01*
X43295Y47950D01*
X43192Y47796D01*
X43156Y47615D01*
Y46580D01*
X44125D01*
Y48089D01*
D02*
G37*
G36*
X54883Y46161D02*
X54669Y46118D01*
X54487Y45997D01*
X54365Y45815D01*
X54323Y45600D01*
X54365Y45385D01*
X54487Y45203D01*
X54669Y45082D01*
X54883Y45039D01*
X55098Y45082D01*
X55280Y45203D01*
X55402Y45385D01*
X55444Y45600D01*
X55402Y45815D01*
X55280Y45997D01*
X55098Y46118D01*
X54883Y46161D01*
D02*
G37*
G36*
X45694Y45980D02*
X44725D01*
Y44471D01*
X45220D01*
X45401Y44507D01*
X45555Y44610D01*
X45658Y44764D01*
X45694Y44945D01*
Y45980D01*
D02*
G37*
G36*
X44125D02*
X43156D01*
Y44945D01*
X43192Y44764D01*
X43295Y44610D01*
X43449Y44507D01*
X43630Y44471D01*
X44125D01*
Y45980D01*
D02*
G37*
G36*
X48310Y44978D02*
X48096Y44936D01*
X47914Y44814D01*
X47792Y44632D01*
X47749Y44418D01*
X47792Y44203D01*
X47914Y44021D01*
X48096Y43900D01*
X48310Y43857D01*
X48525Y43900D01*
X48707Y44021D01*
X48828Y44203D01*
X48871Y44418D01*
X48828Y44632D01*
X48707Y44814D01*
X48525Y44936D01*
X48310Y44978D01*
D02*
G37*
G36*
X52550Y44961D02*
X52335Y44918D01*
X52153Y44797D01*
X52032Y44615D01*
X51989Y44400D01*
X52032Y44185D01*
X52153Y44003D01*
X52335Y43882D01*
X52550Y43839D01*
X52765Y43882D01*
X52947Y44003D01*
X53068Y44185D01*
X53111Y44400D01*
X53068Y44615D01*
X52947Y44797D01*
X52765Y44918D01*
X52550Y44961D01*
D02*
G37*
G36*
X58555Y42504D02*
X58340Y42462D01*
X58158Y42340D01*
X58037Y42158D01*
X57994Y41944D01*
X58037Y41729D01*
X58158Y41547D01*
X58340Y41426D01*
X58555Y41383D01*
X58770Y41426D01*
X58952Y41547D01*
X59073Y41729D01*
X59116Y41944D01*
X59073Y42158D01*
X58952Y42340D01*
X58770Y42462D01*
X58555Y42504D01*
D02*
G37*
G36*
X63643Y43037D02*
X62780D01*
Y40325D01*
X64242D01*
Y42438D01*
X64196Y42667D01*
X64066Y42861D01*
X63872Y42991D01*
X63643Y43037D01*
D02*
G37*
G36*
X62180D02*
X61318D01*
X61088Y42991D01*
X60894Y42861D01*
X60764Y42667D01*
X60718Y42438D01*
Y40325D01*
X62180D01*
Y43037D01*
D02*
G37*
G36*
X58565Y39777D02*
X58350Y39734D01*
X58168Y39613D01*
X58047Y39431D01*
X58004Y39216D01*
X58047Y39001D01*
X58168Y38820D01*
X58350Y38698D01*
X58565Y38655D01*
X58779Y38698D01*
X58961Y38820D01*
X59083Y39001D01*
X59126Y39216D01*
X59083Y39431D01*
X58961Y39613D01*
X58779Y39734D01*
X58565Y39777D01*
D02*
G37*
G36*
X64242Y39725D02*
X62780D01*
Y37014D01*
X63643D01*
X63872Y37059D01*
X64066Y37189D01*
X64196Y37383D01*
X64242Y37613D01*
Y39725D01*
D02*
G37*
G36*
X62180D02*
X60718D01*
Y37613D01*
X60764Y37383D01*
X60894Y37189D01*
X61088Y37059D01*
X61318Y37014D01*
X62180D01*
Y39725D01*
D02*
G37*
G36*
X10485Y43883D02*
X10132D01*
X9970Y43851D01*
X9832Y43758D01*
X9739Y43620D01*
X9707Y43457D01*
Y42890D01*
X10485D01*
Y43883D01*
D02*
G37*
G36*
X26872Y42018D02*
X26305D01*
Y41240D01*
X27298D01*
Y41593D01*
X27266Y41756D01*
X27173Y41894D01*
X27035Y41986D01*
X26872Y42018D01*
D02*
G37*
G36*
X4900Y42028D02*
Y40800D01*
X6128D01*
X6128Y40804D01*
X6039Y41096D01*
X5895Y41365D01*
X5701Y41601D01*
X5465Y41795D01*
X5196Y41939D01*
X4904Y42028D01*
X4900Y42028D01*
D02*
G37*
G36*
X6972Y40370D02*
X6972Y40370D01*
X6692Y40254D01*
X6452Y40070D01*
X6268Y39830D01*
X6152Y39550D01*
X6152Y39550D01*
X6972D01*
Y40370D01*
D02*
G37*
G36*
X6128Y40200D02*
X4900D01*
Y38972D01*
X4904Y38972D01*
X5196Y39061D01*
X5465Y39205D01*
X5701Y39399D01*
X5895Y39635D01*
X6039Y39904D01*
X6128Y40196D01*
X6128Y40200D01*
D02*
G37*
G36*
X36607Y38818D02*
X36040D01*
Y38040D01*
X37033D01*
Y38393D01*
X37001Y38556D01*
X36908Y38694D01*
X36770Y38786D01*
X36607Y38818D01*
D02*
G37*
G36*
X35440D02*
X34872D01*
X34710Y38786D01*
X34571Y38694D01*
X34479Y38556D01*
X34447Y38393D01*
Y38040D01*
X35440D01*
Y38818D01*
D02*
G37*
G36*
X44125Y38420D02*
X43156D01*
Y37385D01*
X43192Y37204D01*
X43295Y37050D01*
X43449Y36947D01*
X43630Y36911D01*
X44125D01*
Y38420D01*
D02*
G37*
G36*
X37033Y37440D02*
X36040D01*
Y36662D01*
X36607D01*
X36770Y36695D01*
X36908Y36787D01*
X37001Y36925D01*
X37033Y37088D01*
Y37440D01*
D02*
G37*
G36*
X35440D02*
X34447D01*
Y37088D01*
X34479Y36925D01*
X34571Y36787D01*
X34710Y36695D01*
X34872Y36662D01*
X35440D01*
Y37440D01*
D02*
G37*
G36*
X34315Y35844D02*
X34236Y35828D01*
X34141Y35764D01*
X34085Y35681D01*
X33989Y35669D01*
X33971D01*
X33875Y35681D01*
X33819Y35764D01*
X33724Y35828D01*
X33645Y35844D01*
Y34550D01*
Y33256D01*
X33724Y33272D01*
X33819Y33336D01*
X33875Y33419D01*
X33971Y33431D01*
X33989D01*
X34085Y33419D01*
X34141Y33336D01*
X34236Y33272D01*
X34315Y33256D01*
Y34550D01*
Y35844D01*
D02*
G37*
G36*
X44688Y36117D02*
X44120D01*
Y35339D01*
X45113D01*
Y35691D01*
X45081Y35854D01*
X44989Y35992D01*
X44850Y36084D01*
X44688Y36117D01*
D02*
G37*
G36*
X43520D02*
X42953D01*
X42790Y36084D01*
X42652Y35992D01*
X42559Y35854D01*
X42527Y35691D01*
Y35339D01*
X43520D01*
Y36117D01*
D02*
G37*
G36*
X34915Y35844D02*
Y34850D01*
X35176D01*
Y35556D01*
X35153Y35669D01*
X35089Y35764D01*
X34994Y35828D01*
X34915Y35844D01*
D02*
G37*
G36*
X45113Y34739D02*
X44120D01*
Y33961D01*
X44688D01*
X44850Y33993D01*
X44989Y34085D01*
X45081Y34223D01*
X45113Y34386D01*
Y34739D01*
D02*
G37*
G36*
X43520D02*
X42527D01*
Y34386D01*
X42559Y34223D01*
X42652Y34085D01*
X42790Y33993D01*
X42953Y33961D01*
X43520D01*
Y34739D01*
D02*
G37*
G36*
X35176Y34250D02*
X34915D01*
Y33256D01*
X34994Y33272D01*
X35089Y33336D01*
X35153Y33431D01*
X35176Y33544D01*
Y34250D01*
D02*
G37*
G36*
X22885D02*
X22624D01*
Y33544D01*
X22647Y33431D01*
X22711Y33336D01*
X22806Y33272D01*
X22885Y33256D01*
Y34250D01*
D02*
G37*
G36*
X20065Y34119D02*
X19030D01*
Y33150D01*
X20539D01*
Y33645D01*
X20503Y33826D01*
X20400Y33980D01*
X20246Y34083D01*
X20065Y34119D01*
D02*
G37*
G36*
X18430D02*
X17395D01*
X17214Y34083D01*
X17060Y33980D01*
X16957Y33826D01*
X16921Y33645D01*
Y33150D01*
X18430D01*
Y34119D01*
D02*
G37*
G36*
X20539Y32550D02*
X19030D01*
Y31581D01*
X20065D01*
X20246Y31617D01*
X20400Y31720D01*
X20503Y31874D01*
X20539Y32055D01*
Y32550D01*
D02*
G37*
G36*
X18430D02*
X16921D01*
Y32055D01*
X16957Y31874D01*
X17060Y31720D01*
X17214Y31617D01*
X17395Y31581D01*
X18430D01*
Y32550D01*
D02*
G37*
G36*
X37425Y31375D02*
X29200D01*
Y28300D01*
X37425D01*
Y31375D01*
D02*
G37*
G36*
X28600D02*
X20375D01*
Y28300D01*
X28600D01*
Y31375D01*
D02*
G37*
G36*
X43965Y31849D02*
X41700D01*
Y28300D01*
X45029D01*
Y30785D01*
X44993Y31060D01*
X44887Y31317D01*
X44717Y31537D01*
X44497Y31707D01*
X44240Y31813D01*
X43965Y31849D01*
D02*
G37*
G36*
X41100D02*
X38835D01*
X38560Y31813D01*
X38303Y31707D01*
X38083Y31537D01*
X37913Y31317D01*
X37807Y31060D01*
X37771Y30785D01*
Y28300D01*
X41100D01*
Y31849D01*
D02*
G37*
G36*
X37425Y27700D02*
X29200D01*
Y24625D01*
X37425D01*
Y27700D01*
D02*
G37*
G36*
X28600D02*
X20375D01*
Y24797D01*
X20375Y24688D01*
X20371Y24683D01*
X20233Y24558D01*
X20233Y24558D01*
X20065Y24569D01*
X20048Y24569D01*
X19030D01*
Y23600D01*
X20539D01*
Y24095D01*
X20503Y24276D01*
X20404Y24425D01*
X20410Y24458D01*
X20469Y24625D01*
X20549Y24625D01*
X20549Y24625D01*
X20549Y24625D01*
X28600D01*
Y27700D01*
D02*
G37*
G36*
X45029Y27700D02*
X41700D01*
Y24151D01*
X43965D01*
X44240Y24187D01*
X44497Y24293D01*
X44717Y24463D01*
X44887Y24683D01*
X44993Y24940D01*
X45029Y25215D01*
Y27700D01*
D02*
G37*
G36*
X41100D02*
X37771D01*
Y25215D01*
X37807Y24940D01*
X37913Y24683D01*
X38083Y24463D01*
X38303Y24293D01*
X38560Y24187D01*
X38835Y24151D01*
X41100D01*
Y27700D01*
D02*
G37*
G36*
X18430Y24569D02*
X17395D01*
X17214Y24533D01*
X17060Y24430D01*
X16957Y24276D01*
X16921Y24095D01*
Y23600D01*
X18430D01*
Y24569D01*
D02*
G37*
G36*
X34315Y22744D02*
X34236Y22728D01*
X34141Y22664D01*
X34085Y22581D01*
X33989Y22569D01*
X33971D01*
X33875Y22581D01*
X33819Y22664D01*
X33724Y22728D01*
X33645Y22744D01*
Y21450D01*
Y20156D01*
X33724Y20172D01*
X33819Y20236D01*
X33875Y20319D01*
X33971Y20331D01*
X33989D01*
X34085Y20319D01*
X34141Y20236D01*
X34236Y20172D01*
X34315Y20156D01*
Y21450D01*
Y22744D01*
D02*
G37*
G36*
X20539Y23000D02*
X19030D01*
Y22031D01*
X20065D01*
X20246Y22067D01*
X20400Y22170D01*
X20503Y22324D01*
X20539Y22505D01*
Y23000D01*
D02*
G37*
G36*
X18430D02*
X16921D01*
Y22505D01*
X16957Y22324D01*
X17060Y22170D01*
X17214Y22067D01*
X17395Y22031D01*
X18430D01*
Y23000D01*
D02*
G37*
G36*
X34915Y22744D02*
Y21750D01*
X35176D01*
Y22456D01*
X35153Y22569D01*
X35089Y22664D01*
X34994Y22728D01*
X34915Y22744D01*
D02*
G37*
G36*
X22885D02*
X22806Y22728D01*
X22711Y22664D01*
X22647Y22569D01*
X22624Y22456D01*
Y21750D01*
X22885D01*
Y22744D01*
D02*
G37*
G36*
X35176Y21150D02*
X34915D01*
Y20156D01*
X34994Y20172D01*
X35089Y20236D01*
X35153Y20331D01*
X35176Y20444D01*
Y21150D01*
D02*
G37*
G36*
X22885D02*
X22624D01*
Y20444D01*
X22647Y20331D01*
X22711Y20236D01*
X22806Y20172D01*
X22885Y20156D01*
Y21150D01*
D02*
G37*
G36*
X22430Y19237D02*
X22276D01*
X22139Y19210D01*
X22023Y19132D01*
X21945Y19016D01*
X21918Y18879D01*
Y18600D01*
X22430D01*
Y19237D01*
D02*
G37*
G36*
X36597Y19353D02*
X36030D01*
Y18575D01*
X37023D01*
Y18927D01*
X36991Y19090D01*
X36898Y19229D01*
X36760Y19321D01*
X36597Y19353D01*
D02*
G37*
G36*
X35430D02*
X34862D01*
X34700Y19321D01*
X34562Y19229D01*
X34469Y19090D01*
X34437Y18927D01*
Y18575D01*
X35430D01*
Y19353D01*
D02*
G37*
G36*
X19163Y18237D02*
X19009D01*
Y17600D01*
X19521D01*
Y17879D01*
X19494Y18016D01*
X19416Y18132D01*
X19300Y18210D01*
X19163Y18237D01*
D02*
G37*
G36*
X22430Y18000D02*
X21918D01*
Y17721D01*
X21945Y17584D01*
X22023Y17468D01*
X22139Y17390D01*
X22276Y17363D01*
X22430D01*
Y18000D01*
D02*
G37*
G36*
X37023Y17975D02*
X36030D01*
Y17197D01*
X36597D01*
X36760Y17229D01*
X36898Y17322D01*
X36991Y17460D01*
X37023Y17622D01*
Y17975D01*
D02*
G37*
G36*
X35430D02*
X34437D01*
Y17622D01*
X34469Y17460D01*
X34562Y17322D01*
X34700Y17229D01*
X34862Y17197D01*
X35430D01*
Y17975D01*
D02*
G37*
G36*
X19521Y17000D02*
X19009D01*
Y16363D01*
X19163D01*
X19300Y16390D01*
X19416Y16468D01*
X19494Y16584D01*
X19521Y16721D01*
Y17000D01*
D02*
G37*
G36*
X21970Y16078D02*
X21403D01*
X21240Y16046D01*
X21101Y15953D01*
X21009Y15815D01*
X20977Y15653D01*
Y15300D01*
X21970D01*
Y16078D01*
D02*
G37*
G36*
X53402Y24300D02*
X52015D01*
Y23798D01*
X53046D01*
X53182Y23825D01*
X53298Y23902D01*
X53375Y24018D01*
X53402Y24154D01*
Y24300D01*
D02*
G37*
G36*
X51415D02*
X50028D01*
Y24154D01*
X50055Y24018D01*
X50132Y23902D01*
X50248Y23825D01*
X50384Y23798D01*
X51415D01*
Y24300D01*
D02*
G37*
G36*
X60519Y23220D02*
X59550D01*
Y21711D01*
X60045D01*
X60226Y21747D01*
X60380Y21850D01*
X60483Y22004D01*
X60519Y22185D01*
Y23220D01*
D02*
G37*
G36*
X58950D02*
X57981D01*
Y22185D01*
X58017Y22004D01*
X58120Y21850D01*
X58274Y21747D01*
X58455Y21711D01*
X58950D01*
Y23220D01*
D02*
G37*
G36*
X37028Y14725D02*
X36035D01*
Y13947D01*
X36602D01*
X36765Y13979D01*
X36903Y14072D01*
X36996Y14210D01*
X37028Y14373D01*
Y14725D01*
D02*
G37*
G36*
X5900Y16800D02*
X4900D01*
Y15800D01*
X5900D01*
Y16800D01*
D02*
G37*
G36*
X6972Y16470D02*
X6152D01*
X6152Y16470D01*
X6268Y16190D01*
X6452Y15950D01*
X6692Y15765D01*
X6972Y15649D01*
X6972Y15649D01*
Y16470D01*
D02*
G37*
G36*
X5900Y15200D02*
X4900D01*
Y14200D01*
X5900D01*
Y15200D01*
D02*
G37*
G36*
X27323Y14700D02*
X26330D01*
Y13922D01*
X26897D01*
X27060Y13954D01*
X27198Y14047D01*
X27291Y14185D01*
X27323Y14347D01*
Y14700D01*
D02*
G37*
G36*
X10485Y13720D02*
X9707D01*
Y13153D01*
X9739Y12990D01*
X9832Y12851D01*
X9970Y12759D01*
X10132Y12727D01*
X10485D01*
Y13720D01*
D02*
G37*
G36*
X25232Y18000D02*
X24720D01*
Y17363D01*
X24874D01*
X25011Y17390D01*
X25127Y17468D01*
X25205Y17584D01*
X25232Y17721D01*
Y18000D01*
D02*
G37*
G36*
X56963Y7104D02*
X56700D01*
Y6446D01*
X57358D01*
Y6709D01*
X57328Y6860D01*
X57242Y6988D01*
X57114Y7074D01*
X56963Y7104D01*
D02*
G37*
G36*
X56100D02*
X55838D01*
X55686Y7074D01*
X55558Y6988D01*
X55472Y6860D01*
X55442Y6709D01*
Y6446D01*
X56100D01*
Y7104D01*
D02*
G37*
G36*
X4900Y22028D02*
Y20800D01*
X6128D01*
X6128Y20804D01*
X6039Y21096D01*
X5895Y21365D01*
X5701Y21601D01*
X5465Y21795D01*
X5196Y21939D01*
X4904Y22028D01*
X4900Y22028D01*
D02*
G37*
G36*
X4300Y22028D02*
X4296Y22028D01*
X4004Y21939D01*
X3735Y21795D01*
X3499Y21601D01*
X3305Y21365D01*
X3161Y21096D01*
X3072Y20804D01*
X3072Y20800D01*
X4300D01*
Y22028D01*
D02*
G37*
G36*
X6972Y20390D02*
X6972Y20390D01*
X6692Y20274D01*
X6452Y20090D01*
X6268Y19850D01*
X6152Y19570D01*
X6152Y19570D01*
X6972D01*
Y20390D01*
D02*
G37*
G36*
X6128Y20200D02*
X4900D01*
Y18972D01*
X4904Y18972D01*
X5196Y19061D01*
X5465Y19205D01*
X5701Y19399D01*
X5895Y19635D01*
X6039Y19904D01*
X6128Y20196D01*
X6128Y20200D01*
D02*
G37*
G36*
X4300D02*
X3072D01*
X3072Y20196D01*
X3161Y19904D01*
X3305Y19635D01*
X3499Y19399D01*
X3735Y19205D01*
X4004Y19061D01*
X4296Y18972D01*
X4300Y18972D01*
Y20200D01*
D02*
G37*
G36*
X32838Y19353D02*
X32270D01*
Y18575D01*
X33263D01*
Y18927D01*
X33231Y19090D01*
X33139Y19229D01*
X33000Y19321D01*
X32838Y19353D01*
D02*
G37*
G36*
X31670D02*
X31103D01*
X30940Y19321D01*
X30802Y19229D01*
X30709Y19090D01*
X30677Y18927D01*
Y18575D01*
X31670D01*
Y19353D01*
D02*
G37*
G36*
X33263Y17975D02*
X32270D01*
Y17197D01*
X32838D01*
X33000Y17229D01*
X33139Y17322D01*
X33231Y17460D01*
X33263Y17622D01*
Y17975D01*
D02*
G37*
G36*
X31670D02*
X30677D01*
Y17622D01*
X30709Y17460D01*
X30802Y17322D01*
X30940Y17229D01*
X31103Y17197D01*
X31670D01*
Y17975D01*
D02*
G37*
G36*
X32842Y16103D02*
X32275D01*
Y15325D01*
X33268D01*
Y15677D01*
X33236Y15840D01*
X33144Y15979D01*
X33005Y16071D01*
X32842Y16103D01*
D02*
G37*
G36*
X31675D02*
X31108D01*
X30945Y16071D01*
X30806Y15979D01*
X30714Y15840D01*
X30682Y15677D01*
Y15325D01*
X31675D01*
Y16103D01*
D02*
G37*
G36*
X33268Y14725D02*
X32275D01*
Y13947D01*
X32842D01*
X33005Y13979D01*
X33144Y14072D01*
X33236Y14210D01*
X33268Y14373D01*
Y14725D01*
D02*
G37*
G36*
X31675D02*
X30682D01*
Y14373D01*
X30714Y14210D01*
X30806Y14072D01*
X30945Y13979D01*
X31108Y13947D01*
X31675D01*
Y14725D01*
D02*
G37*
G36*
X52250Y4946D02*
X51500D01*
Y4196D01*
X52250D01*
Y4946D01*
D02*
G37*
G36*
Y3596D02*
X51500D01*
Y2846D01*
X52250D01*
Y3596D01*
D02*
G37*
G36*
X57358Y1246D02*
X56700D01*
Y588D01*
X56963D01*
X57114Y619D01*
X57242Y704D01*
X57328Y832D01*
X57358Y984D01*
Y1246D01*
D02*
G37*
G36*
X56100D02*
X55442D01*
Y984D01*
X55472Y832D01*
X55558Y704D01*
X55686Y619D01*
X55838Y588D01*
X56100D01*
Y1246D01*
D02*
G37*
G36*
X57358Y3546D02*
X56700D01*
Y2888D01*
X56963D01*
X57114Y2919D01*
X57242Y3004D01*
X57328Y3132D01*
X57358Y3284D01*
Y3546D01*
D02*
G37*
G36*
X56100D02*
X55442D01*
Y3284D01*
X55472Y3132D01*
X55558Y3004D01*
X55686Y2919D01*
X55838Y2888D01*
X56100D01*
Y3546D01*
D02*
G37*
%LPD*%
D10*
X61010Y21145D02*
G03*
X60643Y20257I888J-888D01*
G01*
X60571Y20186D02*
X60643Y20257D01*
X61010Y21145D02*
X61465Y21600D01*
X33552Y3002D02*
X34939D01*
X28513Y4455D02*
X28535Y4432D01*
X29417D01*
X29700Y4150D01*
Y2693D02*
Y4150D01*
Y2693D02*
X29900Y2493D01*
X30884D01*
X28535Y1143D02*
Y2418D01*
X34939Y6907D02*
X36315D01*
X59190Y8600D02*
X60590D01*
X62575Y8600D02*
X63750D01*
X25990Y4625D02*
X28342D01*
X22815Y4625D02*
X24090D01*
D11*
X49318Y28744D02*
G03*
X51115Y28000I1796J1796D01*
G01*
X59250Y31080D02*
G03*
X59334Y30996I84J0D01*
G01*
X13031Y3169D02*
G03*
X14827Y2425I1796J1796D01*
G01*
X49205Y28857D02*
X49318Y28744D01*
X51115Y28000D02*
X51715D01*
X49545Y31400D02*
X51715D01*
X59730Y30600D02*
X62900D01*
X59630Y30700D02*
X59730Y30600D01*
X59630Y30700D02*
X59630Y30700D01*
X51715Y31400D02*
X53885D01*
X51715Y28000D02*
X56000D01*
X59334Y30996D02*
X59630Y30700D01*
X59250Y27830D02*
Y31080D01*
X9600Y6600D02*
X13031Y3169D01*
X14827Y2425D02*
X25040D01*
D12*
X62000Y17568D02*
G03*
X62657Y19156I-1587J1587D01*
G01*
X37998Y987D02*
G03*
X39794Y1731I0J2540D01*
G01*
X25725Y20374D02*
G03*
X26300Y18986I1963J0D01*
G01*
X24455Y35093D02*
G03*
X23955Y36300I-1707J0D01*
G01*
X26995Y20120D02*
G03*
X27326Y19321I1130J0D01*
G01*
X38430Y21900D02*
G03*
X40227Y22644I0J2540D01*
G01*
X40257Y4194D02*
G03*
X38571Y4892I-1686J-1686D01*
G01*
X62657Y19156D02*
Y20257D01*
X34938Y4892D02*
X38571D01*
X26995Y20120D02*
Y21450D01*
X25725Y20374D02*
Y21450D01*
X25725Y34550D02*
Y36300D01*
X26995Y34550D02*
Y36300D01*
X26995Y34550D02*
X26995Y34550D01*
X28265Y19700D02*
Y21450D01*
X30884Y4508D02*
Y6735D01*
X24455Y34550D02*
Y35093D01*
X38139Y21900D02*
X38430D01*
X40227Y22644D02*
X40383Y22800D01*
X34938Y987D02*
X37998D01*
X39794Y1731D02*
X40257Y2194D01*
X46281Y24200D02*
Y30700D01*
D13*
X54259Y29700D02*
G03*
X54500Y29800I0J341D01*
G01*
X47992Y26400D02*
G03*
X48233Y26300I241J241D01*
G01*
X51715Y29700D02*
X54259D01*
X38000Y24276D02*
X44151D01*
X48233Y26300D02*
X51715D01*
X21079Y31379D02*
X36795Y31379D01*
X20575Y25125D02*
Y30922D01*
Y25125D02*
X21079Y24621D01*
X36795D01*
X38090Y31800D02*
X44014D01*
X44810Y24095D02*
Y30738D01*
X44548Y31000D02*
X44810Y30738D01*
X44548Y31000D02*
Y31266D01*
X44014Y31800D02*
X44548Y31266D01*
X55796Y6750D02*
X56400Y6146D01*
X55796Y6750D02*
X57054D01*
X57358Y6446D01*
D14*
X51380Y40025D02*
D03*
X62480Y40025D02*
D03*
D15*
X26030Y15000D02*
D03*
X22270Y15000D02*
D03*
X31980Y40940D02*
D03*
X35740Y40940D02*
D03*
X35740Y37740D02*
D03*
X31980Y37740D02*
D03*
X22245Y40940D02*
D03*
X26005Y40940D02*
D03*
X31975Y15025D02*
D03*
X35735D02*
D03*
X35730Y18275D02*
D03*
X31970Y18275D02*
D03*
X43820Y35039D02*
D03*
X47580Y35039D02*
D03*
D16*
X10785Y42590D02*
D03*
Y38830D02*
D03*
Y14020D02*
D03*
Y17780D02*
D03*
D17*
X28900Y28000D02*
D03*
D18*
X34615Y34550D02*
D03*
X33345D02*
D03*
X32075D02*
D03*
X30805D02*
D03*
X29535D02*
D03*
X28265D02*
D03*
X26995D02*
D03*
X25725D02*
D03*
X24455D02*
D03*
X23185D02*
D03*
X34615Y21450D02*
D03*
X33345D02*
D03*
X32075D02*
D03*
X30805D02*
D03*
X29535D02*
D03*
X28265D02*
D03*
X26995D02*
D03*
X25725D02*
D03*
X24455D02*
D03*
X23185D02*
D03*
D19*
X51715Y24600D02*
D03*
X51715Y26300D02*
D03*
X51715Y31400D02*
D03*
Y29700D02*
D03*
X51715Y28000D02*
D03*
D20*
X41400Y28000D02*
D03*
D21*
X62575Y8600D02*
D03*
X60625D02*
D03*
D22*
X44425Y38720D02*
D03*
X44425Y46280D02*
D03*
X59250Y31080D02*
D03*
X59250Y23520D02*
D03*
D23*
X18709Y17300D02*
D03*
X17019Y17300D02*
D03*
X22730Y18300D02*
D03*
X24420Y18300D02*
D03*
D24*
X18600Y40256D02*
D03*
Y38566D02*
D03*
D25*
X18730Y32850D02*
D03*
X11170Y32850D02*
D03*
X18730Y23300D02*
D03*
X11170Y23300D02*
D03*
D26*
X15600Y41491D02*
D03*
Y38901D02*
D03*
D27*
X34939Y3002D02*
D03*
X34938Y987D02*
D03*
X34939Y6907D02*
D03*
X34938Y4892D02*
D03*
X30884Y2493D02*
D03*
Y4508D02*
D03*
X28535Y2418D02*
D03*
Y4432D02*
D03*
D28*
X60643Y20257D02*
D03*
X62657Y20257D02*
D03*
D29*
X56400Y3846D02*
D03*
X56400Y6146D02*
D03*
X56400Y1546D02*
D03*
D30*
X25040Y2425D02*
D03*
X24090Y4625D02*
D03*
X25990Y4625D02*
D03*
D31*
X37225Y25125D02*
Y30922D01*
D32*
X29535Y34550D02*
Y36910D01*
X24455Y18310D02*
Y21450D01*
X24445Y18300D02*
X24455Y18310D01*
D33*
X56254Y3846D02*
X56400D01*
X55800Y3246D02*
X56900D01*
X55904Y1050D02*
X56400Y1546D01*
X55904Y1050D02*
X56931D01*
X55789Y4250D02*
X56658D01*
X56254Y3846D02*
X56658Y4250D01*
D34*
X7272Y26750D02*
D03*
X7272Y29250D02*
D03*
X7272Y16770D02*
D03*
X7272Y19270D02*
D03*
X7272Y36750D02*
D03*
Y39250D02*
D03*
X49420Y17548D02*
D03*
X49420Y15008D02*
D03*
X49420Y12468D02*
D03*
X49420Y9928D02*
D03*
X51960Y9928D02*
D03*
X51960Y12468D02*
D03*
Y15008D02*
D03*
X51960Y17548D02*
D03*
X54500Y15008D02*
D03*
X54500Y12468D02*
D03*
Y17548D02*
D03*
X62980Y47925D02*
D03*
X60480Y47925D02*
D03*
D35*
X40257Y4194D02*
D03*
X40257Y6194D02*
D03*
X40257Y8194D02*
D03*
D36*
X40257Y2194D02*
D03*
D37*
X9600Y6600D02*
D03*
X17200Y6600D02*
D03*
X18451Y53753D02*
D03*
X20991D02*
D03*
X36231Y53753D02*
D03*
X33691Y53753D02*
D03*
X26071Y53753D02*
D03*
X23531Y53753D02*
D03*
X28611D02*
D03*
X31151Y53753D02*
D03*
X41311Y53753D02*
D03*
X38771Y53753D02*
D03*
X43851D02*
D03*
X46391D02*
D03*
X8291Y53753D02*
D03*
X10831Y53753D02*
D03*
X13371D02*
D03*
X15911D02*
D03*
X46391Y51213D02*
D03*
X43851D02*
D03*
X38771Y51213D02*
D03*
X41311Y51213D02*
D03*
X31151Y51213D02*
D03*
X28611Y51213D02*
D03*
X23531Y51213D02*
D03*
X26071Y51213D02*
D03*
X33691D02*
D03*
X36231Y51213D02*
D03*
X20991Y51213D02*
D03*
X13371D02*
D03*
X10831Y51213D02*
D03*
X15911Y51213D02*
D03*
X18451Y51213D02*
D03*
X51471Y51213D02*
D03*
X48931Y51213D02*
D03*
X54011D02*
D03*
X56551Y51213D02*
D03*
X56551Y53753D02*
D03*
X54011Y53753D02*
D03*
X48931Y53753D02*
D03*
X51471Y53753D02*
D03*
D38*
X4600Y35500D02*
D03*
X4600Y25500D02*
D03*
X4600Y20500D02*
D03*
X4600Y30500D02*
D03*
Y40500D02*
D03*
D39*
Y15500D02*
D03*
D40*
X54500Y9928D02*
D03*
D41*
X8291Y51213D02*
D03*
D42*
X49050Y3896D02*
D03*
X62000Y15028D02*
D03*
X62000Y17568D02*
D03*
X59460Y17568D02*
D03*
X59460Y15028D02*
D03*
X59460Y12488D02*
D03*
D43*
X52550Y3896D02*
D03*
D44*
X62000Y12488D02*
D03*
D45*
X61465Y21600D02*
D03*
X48045Y6231D02*
D03*
Y7164D02*
D03*
Y8096D02*
D03*
X47200Y6236D02*
D03*
Y7168D02*
D03*
Y8100D02*
D03*
X46332Y8129D02*
D03*
Y7197D02*
D03*
Y6265D02*
D03*
X54783Y2900D02*
D03*
X54806Y3693D02*
D03*
Y4500D02*
D03*
X57994D02*
D03*
Y3693D02*
D03*
X58017Y2900D02*
D03*
X58345Y35132D02*
D03*
X62145Y35132D02*
D03*
X58555Y41944D02*
D03*
X46230Y39106D02*
D03*
X54365Y39950D02*
D03*
Y38350D02*
D03*
X55033Y47925D02*
D03*
X54883Y45600D02*
D03*
X33550Y3000D02*
D03*
X39322Y20783D02*
D03*
X39318Y19829D02*
D03*
X39315Y18825D02*
D03*
X38400Y18842D02*
D03*
X38403Y19846D02*
D03*
X38407Y20800D02*
D03*
X25800Y17800D02*
D03*
X25940Y16894D02*
D03*
X25070Y16904D02*
D03*
X24200Y16914D02*
D03*
X38344Y41332D02*
D03*
Y40400D02*
D03*
X25725Y36300D02*
D03*
X26995D02*
D03*
X23955D02*
D03*
X26300Y18986D02*
D03*
X27326Y19321D02*
D03*
X28265Y19700D02*
D03*
X35650Y13000D02*
D03*
X36545D02*
D03*
X37457Y12990D02*
D03*
Y13922D02*
D03*
Y14854D02*
D03*
X37512Y40411D02*
D03*
Y41343D02*
D03*
X28535Y1143D02*
D03*
X38397Y17838D02*
D03*
X39312Y17821D02*
D03*
X13222Y40838D02*
D03*
Y41646D02*
D03*
X17876Y41775D02*
D03*
X18730Y41775D02*
D03*
X19538D02*
D03*
X30884Y6735D02*
D03*
X46281Y24200D02*
D03*
X59168Y20046D02*
D03*
X58267D02*
D03*
X56447Y20053D02*
D03*
X48310Y44418D02*
D03*
X52550Y44400D02*
D03*
X58565Y39216D02*
D03*
X61053Y35200D02*
D03*
X40383Y22800D02*
D03*
X38139Y21900D02*
D03*
X36315Y6907D02*
D03*
X59190Y8600D02*
D03*
X63750Y8600D02*
D03*
X22815Y4625D02*
D03*
X57266Y19247D02*
D03*
X45124Y40445D02*
D03*
X43200Y33400D02*
D03*
X46281Y30700D02*
D03*
X46291Y32600D02*
D03*
D46*
X49205Y28857D02*
D03*
X49545Y31400D02*
D03*
X62900Y30600D02*
D03*
X56000Y28000D02*
D03*
X53885Y31400D02*
D03*
X59250Y27830D02*
D03*
X32580Y29535D02*
D03*
X32582Y30996D02*
D03*
X30980Y28074D02*
D03*
X30982Y29535D02*
D03*
X30985Y30996D02*
D03*
X30987Y32457D02*
D03*
X29380Y26613D02*
D03*
X29382Y28074D02*
D03*
X29385Y29535D02*
D03*
X27780Y25152D02*
D03*
X27782Y26613D02*
D03*
X27785Y28074D02*
D03*
X26180Y23691D02*
D03*
X26182Y25152D02*
D03*
X26185Y26613D02*
D03*
X24582Y23691D02*
D03*
X24585Y25152D02*
D03*
X21377Y17847D02*
D03*
X21405Y33918D02*
D03*
X19785Y20769D02*
D03*
X19782Y19308D02*
D03*
X22985Y23691D02*
D03*
X26187Y28074D02*
D03*
X27787Y29535D02*
D03*
X29387Y30996D02*
D03*
X29390Y32457D02*
D03*
X19803Y30996D02*
D03*
X19800Y29535D02*
D03*
X19798Y28074D02*
D03*
X19795Y26613D02*
D03*
X19792Y25152D02*
D03*
X24587Y26613D02*
D03*
X24590Y28074D02*
D03*
X22987Y25152D02*
D03*
X27790Y30996D02*
D03*
X27792Y32457D02*
D03*
X26190Y29535D02*
D03*
X26192Y30996D02*
D03*
X26195Y32457D02*
D03*
X24592Y29535D02*
D03*
X24595Y30996D02*
D03*
X24597Y32457D02*
D03*
X23000D02*
D03*
X22997Y30996D02*
D03*
X22995Y29535D02*
D03*
X22992Y28074D02*
D03*
X22990Y26613D02*
D03*
X21380Y19308D02*
D03*
X21382Y20769D02*
D03*
X21385Y22230D02*
D03*
X21387Y23691D02*
D03*
X21390Y25152D02*
D03*
X21392Y26613D02*
D03*
X21395Y28074D02*
D03*
X21397Y29535D02*
D03*
X21400Y30996D02*
D03*
X21403Y32457D02*
D03*
X42300Y42956D02*
D03*
X41200Y42967D02*
D03*
X40100Y42978D02*
D03*
X42300Y45178D02*
D03*
X41200Y45189D02*
D03*
X40100Y45200D02*
D03*
Y44089D02*
D03*
X41200Y44078D02*
D03*
X42300Y44067D02*
D03*
X35214Y32263D02*
D03*
M02*
