G04 Layer_Color=32896*
%FSLAX43Y43*%
%MOMM*%
G71*
G01*
G75*
%ADD10C,0.200*%
%ADD13C,0.300*%
%ADD32C,0.600*%
%ADD51C,0.150*%
%ADD52C,0.250*%
G36*
X54052Y29730D02*
X54656D01*
Y29603D01*
X54051Y29265D01*
X53892D01*
Y29585D01*
X53700D01*
Y29730D01*
X53892D01*
Y29827D01*
X54052D01*
Y29730D01*
D02*
G37*
G36*
X36301Y40527D02*
X36321Y40518D01*
X36341Y40508D01*
X36358Y40498D01*
X36373Y40489D01*
X36387Y40481D01*
X36400Y40474D01*
X36421Y40461D01*
X36437Y40451D01*
X36448Y40443D01*
X36455Y40439D01*
X36456Y40437D01*
X36472Y40425D01*
X36487Y40410D01*
X36501Y40396D01*
X36513Y40384D01*
X36523Y40372D01*
X36530Y40362D01*
X36535Y40357D01*
X36537Y40354D01*
X36545Y40389D01*
X36556Y40419D01*
X36571Y40446D01*
X36586Y40467D01*
X36599Y40484D01*
X36610Y40496D01*
X36618Y40503D01*
X36620Y40506D01*
X36621D01*
X36649Y40525D01*
X36679Y40539D01*
X36709Y40549D01*
X36737Y40554D01*
X36762Y40558D01*
X36774Y40560D01*
X36783D01*
X36790Y40561D01*
X36802D01*
X36834Y40560D01*
X36862Y40556D01*
X36889Y40550D01*
X36912Y40544D01*
X36929Y40537D01*
X36943Y40532D01*
X36951Y40527D01*
X36954Y40526D01*
X36977Y40512D01*
X36995Y40496D01*
X37010Y40482D01*
X37022Y40468D01*
X37032Y40456D01*
X37039Y40446D01*
X37041Y40439D01*
X37043Y40436D01*
X37047Y40425D01*
X37051Y40412D01*
X37058Y40384D01*
X37063Y40354D01*
X37067Y40324D01*
X37068Y40298D01*
Y40285D01*
X37070Y40275D01*
Y40267D01*
Y40260D01*
Y40255D01*
Y40254D01*
Y39921D01*
X36117D01*
Y40079D01*
X36514D01*
Y40110D01*
Y40130D01*
X36513Y40145D01*
X36511Y40160D01*
X36508Y40171D01*
X36507Y40179D01*
X36504Y40185D01*
X36503Y40188D01*
Y40189D01*
X36499Y40199D01*
X36492Y40207D01*
X36479Y40222D01*
X36473Y40227D01*
X36468Y40231D01*
X36465Y40234D01*
X36463Y40236D01*
X36458Y40240D01*
X36449Y40245D01*
X36441Y40253D01*
X36431Y40258D01*
X36407Y40272D01*
X36383Y40286D01*
X36360Y40299D01*
X36351Y40305D01*
X36342Y40310D01*
X36335Y40315D01*
X36329Y40317D01*
X36325Y40320D01*
X36324D01*
X36117Y40433D01*
Y40623D01*
X36301Y40527D01*
D02*
G37*
G36*
X36434Y41189D02*
X36463Y41183D01*
X36489Y41177D01*
X36510Y41169D01*
X36527Y41162D01*
X36540Y41155D01*
X36548Y41149D01*
X36551Y41148D01*
X36572Y41131D01*
X36589Y41114D01*
X36602Y41097D01*
X36613Y41080D01*
X36620Y41065D01*
X36624Y41053D01*
X36627Y41045D01*
X36628Y41043D01*
Y41042D01*
X36642Y41062D01*
X36658Y41079D01*
X36673Y41094D01*
X36686Y41105D01*
X36699Y41115D01*
X36707Y41121D01*
X36713Y41125D01*
X36716Y41127D01*
X36735Y41136D01*
X36755Y41143D01*
X36774Y41149D01*
X36792Y41152D01*
X36806Y41155D01*
X36819Y41156D01*
X36845D01*
X36862Y41153D01*
X36893Y41146D01*
X36922Y41136D01*
X36947Y41125D01*
X36968Y41112D01*
X36977Y41107D01*
X36984Y41103D01*
X36989Y41098D01*
X36993Y41096D01*
X36995Y41094D01*
X36996Y41093D01*
X37010Y41080D01*
X37022Y41067D01*
X37032Y41053D01*
X37040Y41039D01*
X37054Y41011D01*
X37063Y40984D01*
X37068Y40959D01*
X37070Y40949D01*
X37071Y40940D01*
X37072Y40932D01*
Y40926D01*
Y40924D01*
Y40922D01*
Y40905D01*
X37070Y40888D01*
X37063Y40857D01*
X37053Y40829D01*
X37043Y40807D01*
X37032Y40788D01*
X37022Y40774D01*
X37015Y40766D01*
X37013Y40764D01*
X37012Y40763D01*
X37000Y40752D01*
X36986Y40742D01*
X36957Y40723D01*
X36926Y40709D01*
X36895Y40698D01*
X36867Y40690D01*
X36855Y40687D01*
X36844Y40684D01*
X36836Y40682D01*
X36828Y40681D01*
X36824Y40680D01*
X36823D01*
X36795Y40818D01*
X36817Y40821D01*
X36836Y40825D01*
X36852Y40831D01*
X36865Y40836D01*
X36875Y40842D01*
X36883Y40846D01*
X36888Y40849D01*
X36889Y40850D01*
X36900Y40862D01*
X36907Y40873D01*
X36913Y40884D01*
X36917Y40894D01*
X36920Y40902D01*
X36922Y40911D01*
Y40915D01*
Y40917D01*
X36920Y40931D01*
X36917Y40943D01*
X36913Y40955D01*
X36907Y40963D01*
X36902Y40970D01*
X36898Y40976D01*
X36895Y40979D01*
X36893Y40980D01*
X36882Y40988D01*
X36869Y40994D01*
X36857Y41000D01*
X36845Y41002D01*
X36834Y41004D01*
X36826Y41005D01*
X36817D01*
X36796Y41004D01*
X36778Y41000D01*
X36762Y40994D01*
X36750Y40988D01*
X36740Y40983D01*
X36731Y40977D01*
X36727Y40973D01*
X36726Y40971D01*
X36716Y40957D01*
X36707Y40943D01*
X36703Y40928D01*
X36699Y40912D01*
X36697Y40900D01*
X36696Y40888D01*
Y40881D01*
Y40878D01*
X36547Y40863D01*
X36551Y40877D01*
X36555Y40890D01*
X36558Y40902D01*
X36559Y40912D01*
X36561Y40919D01*
Y40925D01*
Y40929D01*
Y40931D01*
X36559Y40946D01*
X36555Y40960D01*
X36548Y40973D01*
X36541Y40984D01*
X36532Y40993D01*
X36527Y41000D01*
X36521Y41004D01*
X36520Y41005D01*
X36504Y41015D01*
X36486Y41024D01*
X36468Y41029D01*
X36451Y41032D01*
X36435Y41035D01*
X36423Y41036D01*
X36411D01*
X36384Y41035D01*
X36362Y41031D01*
X36341Y41026D01*
X36325Y41021D01*
X36311Y41014D01*
X36303Y41010D01*
X36296Y41005D01*
X36294Y41004D01*
X36280Y40991D01*
X36270Y40979D01*
X36263Y40964D01*
X36259Y40952D01*
X36256Y40942D01*
X36253Y40933D01*
Y40926D01*
Y40925D01*
X36255Y40909D01*
X36259Y40895D01*
X36265Y40883D01*
X36272Y40873D01*
X36277Y40864D01*
X36283Y40857D01*
X36287Y40853D01*
X36289Y40852D01*
X36303Y40842D01*
X36320Y40833D01*
X36337Y40826D01*
X36353Y40822D01*
X36369Y40818D01*
X36380Y40816D01*
X36389Y40815D01*
X36391D01*
X36370Y40670D01*
X36325Y40677D01*
X36287Y40687D01*
X36269Y40694D01*
X36253Y40701D01*
X36238Y40708D01*
X36225Y40715D01*
X36212Y40722D01*
X36203Y40729D01*
X36194Y40735D01*
X36186Y40740D01*
X36180Y40745D01*
X36176Y40749D01*
X36174Y40750D01*
X36173Y40752D01*
X36160Y40766D01*
X36149Y40780D01*
X36139Y40794D01*
X36132Y40809D01*
X36118Y40839D01*
X36110Y40866D01*
X36105Y40890D01*
X36104Y40901D01*
X36103Y40909D01*
X36101Y40917D01*
Y40922D01*
Y40925D01*
Y40926D01*
X36103Y40946D01*
X36105Y40964D01*
X36110Y40983D01*
X36114Y41001D01*
X36128Y41032D01*
X36143Y41059D01*
X36159Y41081D01*
X36166Y41090D01*
X36173Y41097D01*
X36177Y41103D01*
X36181Y41108D01*
X36184Y41110D01*
X36186Y41111D01*
X36203Y41125D01*
X36220Y41138D01*
X36238Y41148D01*
X36256Y41156D01*
X36291Y41170D01*
X36325Y41180D01*
X36342Y41183D01*
X36356Y41186D01*
X36369Y41187D01*
X36380Y41189D01*
X36389Y41190D01*
X36401D01*
X36434Y41189D01*
D02*
G37*
G36*
X36347Y31341D02*
X36367Y31331D01*
X36386Y31321D01*
X36403Y31311D01*
X36419Y31303D01*
X36433Y31294D01*
X36446Y31287D01*
X36467Y31274D01*
X36482Y31264D01*
X36493Y31256D01*
X36501Y31252D01*
X36502Y31250D01*
X36517Y31238D01*
X36533Y31224D01*
X36547Y31210D01*
X36558Y31197D01*
X36568Y31186D01*
X36575Y31176D01*
X36581Y31170D01*
X36582Y31167D01*
X36591Y31202D01*
X36602Y31232D01*
X36616Y31259D01*
X36632Y31280D01*
X36644Y31297D01*
X36656Y31310D01*
X36664Y31317D01*
X36665Y31319D01*
X36667D01*
X36695Y31338D01*
X36725Y31352D01*
X36754Y31362D01*
X36782Y31367D01*
X36808Y31372D01*
X36819Y31373D01*
X36829D01*
X36836Y31374D01*
X36847D01*
X36880Y31373D01*
X36908Y31369D01*
X36935Y31363D01*
X36957Y31358D01*
X36974Y31351D01*
X36988Y31345D01*
X36997Y31341D01*
X37000Y31339D01*
X37022Y31325D01*
X37040Y31310D01*
X37056Y31296D01*
X37067Y31281D01*
X37077Y31269D01*
X37084Y31259D01*
X37087Y31252D01*
X37088Y31249D01*
X37093Y31238D01*
X37097Y31225D01*
X37104Y31197D01*
X37108Y31167D01*
X37112Y31138D01*
X37114Y31111D01*
Y31098D01*
X37115Y31088D01*
Y31080D01*
Y31073D01*
Y31069D01*
Y31067D01*
Y30734D01*
X36162D01*
Y30892D01*
X36560D01*
Y30923D01*
Y30943D01*
X36558Y30959D01*
X36557Y30973D01*
X36554Y30984D01*
X36553Y30992D01*
X36550Y30998D01*
X36548Y31001D01*
Y31002D01*
X36544Y31012D01*
X36537Y31021D01*
X36524Y31035D01*
X36519Y31040D01*
X36513Y31045D01*
X36510Y31047D01*
X36509Y31049D01*
X36503Y31053D01*
X36495Y31059D01*
X36486Y31066D01*
X36477Y31071D01*
X36453Y31085D01*
X36429Y31100D01*
X36406Y31112D01*
X36396Y31118D01*
X36388Y31124D01*
X36381Y31128D01*
X36375Y31131D01*
X36371Y31133D01*
X36369D01*
X36162Y31246D01*
Y31436D01*
X36347Y31341D01*
D02*
G37*
G36*
X36510Y32014D02*
X36537Y32013D01*
X36561Y32009D01*
X36585Y32003D01*
X36606Y31998D01*
X36627Y31990D01*
X36646Y31982D01*
X36663Y31975D01*
X36677Y31968D01*
X36689Y31959D01*
X36701Y31952D01*
X36711Y31947D01*
X36718Y31941D01*
X36723Y31938D01*
X36726Y31936D01*
X36727Y31934D01*
X36740Y31921D01*
X36751Y31909D01*
X36761Y31896D01*
X36770Y31882D01*
X36782Y31855D01*
X36792Y31831D01*
X36797Y31809D01*
X36798Y31800D01*
X36799Y31792D01*
X36801Y31785D01*
Y31780D01*
Y31778D01*
Y31776D01*
X36799Y31756D01*
X36795Y31738D01*
X36791Y31721D01*
X36785Y31706D01*
X36778Y31692D01*
X36774Y31682D01*
X36770Y31676D01*
X36768Y31673D01*
X36932Y31699D01*
Y31981D01*
X37102D01*
Y31585D01*
X36606Y31508D01*
X36585Y31630D01*
X36598Y31639D01*
X36608Y31649D01*
X36618Y31659D01*
X36625Y31669D01*
X36637Y31689D01*
X36646Y31707D01*
X36650Y31723D01*
X36653Y31734D01*
X36654Y31742D01*
Y31745D01*
X36653Y31764D01*
X36647Y31779D01*
X36640Y31795D01*
X36633Y31806D01*
X36625Y31816D01*
X36618Y31823D01*
X36612Y31827D01*
X36610Y31828D01*
X36592Y31840D01*
X36572Y31848D01*
X36550Y31854D01*
X36529Y31858D01*
X36509Y31861D01*
X36493Y31862D01*
X36478D01*
X36446Y31861D01*
X36416Y31857D01*
X36392Y31851D01*
X36372Y31845D01*
X36358Y31840D01*
X36347Y31834D01*
X36341Y31830D01*
X36338Y31828D01*
X36323Y31816D01*
X36313Y31803D01*
X36305Y31789D01*
X36299Y31776D01*
X36296Y31766D01*
X36295Y31758D01*
X36293Y31751D01*
Y31749D01*
X36295Y31735D01*
X36299Y31723D01*
X36305Y31710D01*
X36312Y31700D01*
X36317Y31692D01*
X36323Y31685D01*
X36327Y31680D01*
X36329Y31679D01*
X36343Y31668D01*
X36360Y31659D01*
X36375Y31652D01*
X36391Y31648D01*
X36405Y31645D01*
X36417Y31642D01*
X36424Y31641D01*
X36427D01*
X36407Y31491D01*
X36364Y31499D01*
X36343Y31504D01*
X36324Y31510D01*
X36307Y31517D01*
X36292Y31524D01*
X36276Y31531D01*
X36264Y31538D01*
X36252Y31545D01*
X36243Y31552D01*
X36234Y31558D01*
X36227Y31563D01*
X36221Y31568D01*
X36217Y31572D01*
X36216Y31573D01*
X36214Y31575D01*
X36203Y31589D01*
X36192Y31603D01*
X36175Y31631D01*
X36164Y31661D01*
X36155Y31687D01*
X36151Y31711D01*
X36148Y31723D01*
Y31731D01*
X36147Y31738D01*
Y31744D01*
Y31747D01*
Y31748D01*
X36148Y31772D01*
X36151Y31793D01*
X36157Y31814D01*
X36164Y31833D01*
X36171Y31851D01*
X36179Y31866D01*
X36189Y31882D01*
X36199Y31895D01*
X36209Y31906D01*
X36219Y31917D01*
X36227Y31926D01*
X36234Y31933D01*
X36241Y31938D01*
X36247Y31943D01*
X36250Y31944D01*
X36251Y31945D01*
X36271Y31958D01*
X36292Y31969D01*
X36312Y31978D01*
X36331Y31986D01*
X36371Y31999D01*
X36406Y32007D01*
X36423Y32010D01*
X36437Y32012D01*
X36450Y32014D01*
X36461D01*
X36470Y32016D01*
X36482D01*
X36510Y32014D01*
D02*
G37*
G36*
X53885Y29144D02*
X53904Y29134D01*
X53924Y29124D01*
X53941Y29114D01*
X53957Y29106D01*
X53971Y29097D01*
X53983Y29090D01*
X54004Y29077D01*
X54020Y29068D01*
X54031Y29059D01*
X54038Y29055D01*
X54040Y29053D01*
X54055Y29041D01*
X54071Y29027D01*
X54085Y29013D01*
X54096Y29000D01*
X54106Y28989D01*
X54113Y28979D01*
X54119Y28973D01*
X54120Y28970D01*
X54129Y29006D01*
X54140Y29035D01*
X54154Y29062D01*
X54169Y29083D01*
X54182Y29100D01*
X54193Y29113D01*
X54202Y29120D01*
X54203Y29123D01*
X54205D01*
X54233Y29141D01*
X54262Y29155D01*
X54292Y29165D01*
X54320Y29170D01*
X54346Y29175D01*
X54357Y29176D01*
X54367D01*
X54374Y29177D01*
X54385D01*
X54418Y29176D01*
X54446Y29172D01*
X54473Y29166D01*
X54495Y29161D01*
X54512Y29154D01*
X54526Y29148D01*
X54535Y29144D01*
X54537Y29142D01*
X54560Y29128D01*
X54578Y29113D01*
X54594Y29099D01*
X54605Y29084D01*
X54615Y29072D01*
X54622Y29062D01*
X54625Y29055D01*
X54626Y29052D01*
X54630Y29041D01*
X54635Y29028D01*
X54642Y29000D01*
X54646Y28970D01*
X54650Y28941D01*
X54652Y28914D01*
Y28901D01*
X54653Y28891D01*
Y28883D01*
Y28876D01*
Y28872D01*
Y28870D01*
Y28537D01*
X53700D01*
Y28695D01*
X54098D01*
Y28726D01*
Y28746D01*
X54096Y28762D01*
X54095Y28776D01*
X54092Y28787D01*
X54090Y28795D01*
X54088Y28801D01*
X54086Y28804D01*
Y28805D01*
X54082Y28815D01*
X54075Y28824D01*
X54062Y28838D01*
X54057Y28843D01*
X54051Y28848D01*
X54048Y28850D01*
X54047Y28852D01*
X54041Y28856D01*
X54033Y28862D01*
X54024Y28869D01*
X54014Y28874D01*
X53990Y28889D01*
X53966Y28903D01*
X53944Y28915D01*
X53934Y28921D01*
X53926Y28927D01*
X53918Y28931D01*
X53913Y28934D01*
X53909Y28936D01*
X53907D01*
X53700Y29049D01*
Y29240D01*
X53885Y29144D01*
D02*
G37*
G36*
X58281Y35968D02*
X58295Y35939D01*
X58311Y35914D01*
X58326Y35893D01*
X58340Y35875D01*
X58352Y35860D01*
X58360Y35852D01*
X58362Y35851D01*
X58363Y35849D01*
X58388Y35827D01*
X58412Y35808D01*
X58433Y35793D01*
X58453Y35780D01*
X58470Y35772D01*
X58481Y35765D01*
X58490Y35762D01*
X58491Y35760D01*
X58493D01*
Y35594D01*
X58453Y35612D01*
X58415Y35633D01*
X58383Y35657D01*
X58354Y35680D01*
X58342Y35690D01*
X58331Y35700D01*
X58321Y35710D01*
X58314Y35717D01*
X58307Y35724D01*
X58302Y35728D01*
X58300Y35731D01*
X58298Y35732D01*
Y35043D01*
X58147D01*
Y35999D01*
X58270D01*
X58281Y35968D01*
D02*
G37*
G36*
X57712Y35996D02*
X57743Y35989D01*
X57771Y35979D01*
X57793Y35969D01*
X57812Y35958D01*
X57826Y35948D01*
X57834Y35941D01*
X57836Y35939D01*
X57837Y35938D01*
X57848Y35927D01*
X57858Y35913D01*
X57877Y35883D01*
X57891Y35852D01*
X57902Y35821D01*
X57910Y35793D01*
X57913Y35781D01*
X57916Y35770D01*
X57917Y35762D01*
X57919Y35755D01*
X57920Y35750D01*
Y35749D01*
X57782Y35721D01*
X57779Y35743D01*
X57775Y35762D01*
X57769Y35779D01*
X57764Y35791D01*
X57758Y35801D01*
X57754Y35810D01*
X57751Y35814D01*
X57750Y35815D01*
X57738Y35827D01*
X57727Y35834D01*
X57716Y35839D01*
X57706Y35843D01*
X57698Y35846D01*
X57689Y35848D01*
X57683D01*
X57669Y35846D01*
X57657Y35843D01*
X57645Y35839D01*
X57637Y35834D01*
X57630Y35828D01*
X57624Y35824D01*
X57621Y35821D01*
X57620Y35820D01*
X57612Y35808D01*
X57606Y35796D01*
X57600Y35783D01*
X57597Y35772D01*
X57596Y35760D01*
X57595Y35752D01*
Y35746D01*
Y35743D01*
X57596Y35722D01*
X57600Y35704D01*
X57606Y35688D01*
X57612Y35676D01*
X57617Y35666D01*
X57623Y35657D01*
X57627Y35653D01*
X57628Y35652D01*
X57643Y35642D01*
X57657Y35633D01*
X57672Y35629D01*
X57688Y35625D01*
X57700Y35624D01*
X57712Y35622D01*
X57722D01*
X57737Y35473D01*
X57723Y35477D01*
X57710Y35481D01*
X57698Y35484D01*
X57688Y35485D01*
X57681Y35487D01*
X57669D01*
X57654Y35485D01*
X57640Y35481D01*
X57627Y35474D01*
X57616Y35467D01*
X57607Y35459D01*
X57600Y35453D01*
X57596Y35447D01*
X57595Y35446D01*
X57585Y35430D01*
X57576Y35412D01*
X57571Y35394D01*
X57568Y35377D01*
X57565Y35361D01*
X57564Y35349D01*
Y35340D01*
Y35339D01*
Y35337D01*
X57565Y35311D01*
X57569Y35288D01*
X57574Y35267D01*
X57579Y35251D01*
X57586Y35237D01*
X57590Y35229D01*
X57595Y35222D01*
X57596Y35220D01*
X57609Y35206D01*
X57621Y35196D01*
X57636Y35189D01*
X57648Y35185D01*
X57658Y35182D01*
X57667Y35180D01*
X57675D01*
X57691Y35181D01*
X57705Y35185D01*
X57717Y35191D01*
X57727Y35198D01*
X57736Y35203D01*
X57743Y35209D01*
X57747Y35213D01*
X57748Y35215D01*
X57758Y35229D01*
X57767Y35246D01*
X57774Y35263D01*
X57778Y35280D01*
X57782Y35295D01*
X57784Y35306D01*
X57785Y35315D01*
Y35316D01*
Y35318D01*
X57930Y35297D01*
X57923Y35251D01*
X57913Y35213D01*
X57906Y35195D01*
X57899Y35180D01*
X57892Y35164D01*
X57885Y35151D01*
X57878Y35139D01*
X57871Y35129D01*
X57865Y35120D01*
X57860Y35112D01*
X57855Y35106D01*
X57851Y35102D01*
X57850Y35101D01*
X57848Y35099D01*
X57834Y35086D01*
X57820Y35075D01*
X57806Y35065D01*
X57791Y35058D01*
X57761Y35044D01*
X57734Y35036D01*
X57710Y35032D01*
X57699Y35030D01*
X57691Y35029D01*
X57683Y35027D01*
X57674D01*
X57654Y35029D01*
X57636Y35032D01*
X57617Y35036D01*
X57599Y35040D01*
X57568Y35054D01*
X57541Y35070D01*
X57519Y35085D01*
X57510Y35092D01*
X57503Y35099D01*
X57497Y35103D01*
X57492Y35108D01*
X57490Y35110D01*
X57489Y35112D01*
X57475Y35129D01*
X57462Y35146D01*
X57452Y35164D01*
X57444Y35182D01*
X57430Y35218D01*
X57420Y35251D01*
X57417Y35268D01*
X57414Y35282D01*
X57413Y35295D01*
X57411Y35306D01*
X57410Y35315D01*
Y35322D01*
Y35326D01*
Y35328D01*
X57411Y35360D01*
X57417Y35390D01*
X57423Y35415D01*
X57431Y35436D01*
X57438Y35453D01*
X57445Y35466D01*
X57451Y35474D01*
X57452Y35477D01*
X57469Y35498D01*
X57486Y35515D01*
X57503Y35528D01*
X57520Y35539D01*
X57535Y35546D01*
X57547Y35550D01*
X57555Y35553D01*
X57557Y35555D01*
X57558D01*
X57538Y35569D01*
X57521Y35584D01*
X57506Y35600D01*
X57495Y35612D01*
X57485Y35625D01*
X57479Y35633D01*
X57475Y35639D01*
X57473Y35642D01*
X57464Y35662D01*
X57457Y35681D01*
X57451Y35700D01*
X57448Y35718D01*
X57445Y35732D01*
X57444Y35745D01*
Y35752D01*
Y35755D01*
Y35772D01*
X57447Y35789D01*
X57454Y35820D01*
X57464Y35848D01*
X57475Y35873D01*
X57488Y35894D01*
X57493Y35903D01*
X57497Y35910D01*
X57502Y35915D01*
X57504Y35920D01*
X57506Y35921D01*
X57507Y35922D01*
X57520Y35937D01*
X57533Y35948D01*
X57547Y35958D01*
X57561Y35966D01*
X57589Y35980D01*
X57616Y35989D01*
X57641Y35994D01*
X57651Y35996D01*
X57660Y35997D01*
X57668Y35999D01*
X57695D01*
X57712Y35996D01*
D02*
G37*
G36*
X62763Y35998D02*
X62791Y35994D01*
X62817Y35989D01*
X62842Y35982D01*
X62865Y35972D01*
X62886Y35962D01*
X62905Y35951D01*
X62922Y35941D01*
X62938Y35929D01*
X62952Y35918D01*
X62963Y35908D01*
X62973Y35898D01*
X62980Y35891D01*
X62986Y35886D01*
X62989Y35881D01*
X62990Y35880D01*
X63010Y35853D01*
X63027Y35824D01*
X63041Y35794D01*
X63053Y35763D01*
X63065Y35731D01*
X63073Y35700D01*
X63080Y35669D01*
X63086Y35638D01*
X63090Y35609D01*
X63094Y35584D01*
X63097Y35560D01*
X63099Y35539D01*
Y35523D01*
X63100Y35511D01*
Y35502D01*
Y35501D01*
Y35499D01*
X63099Y35457D01*
X63096Y35418D01*
X63090Y35380D01*
X63083Y35344D01*
X63075Y35312D01*
X63066Y35282D01*
X63056Y35254D01*
X63045Y35230D01*
X63035Y35208D01*
X63025Y35188D01*
X63017Y35171D01*
X63008Y35158D01*
X63001Y35147D01*
X62996Y35139D01*
X62993Y35134D01*
X62991Y35133D01*
X62973Y35112D01*
X62953Y35095D01*
X62934Y35079D01*
X62913Y35065D01*
X62891Y35054D01*
X62872Y35044D01*
X62852Y35037D01*
X62832Y35030D01*
X62814Y35026D01*
X62797Y35022D01*
X62781Y35020D01*
X62769Y35017D01*
X62757D01*
X62750Y35016D01*
X62743D01*
X62721Y35017D01*
X62700Y35019D01*
X62660Y35027D01*
X62625Y35038D01*
X62609Y35046D01*
X62595Y35053D01*
X62583Y35060D01*
X62571Y35067D01*
X62562Y35072D01*
X62554Y35078D01*
X62547Y35082D01*
X62543Y35086D01*
X62540Y35088D01*
X62539Y35089D01*
X62523Y35105D01*
X62509Y35120D01*
X62485Y35157D01*
X62464Y35196D01*
X62447Y35234D01*
X62440Y35253D01*
X62435Y35270D01*
X62430Y35285D01*
X62426Y35298D01*
X62423Y35309D01*
X62421Y35318D01*
X62419Y35323D01*
Y35325D01*
X62573Y35384D01*
X62581Y35346D01*
X62593Y35315D01*
X62602Y35288D01*
X62614Y35267D01*
X62624Y35250D01*
X62632Y35239D01*
X62638Y35232D01*
X62639Y35229D01*
X62656Y35213D01*
X62674Y35201D01*
X62693Y35192D01*
X62710Y35186D01*
X62724Y35184D01*
X62736Y35182D01*
X62743Y35181D01*
X62746D01*
X62762Y35182D01*
X62776Y35184D01*
X62804Y35192D01*
X62827Y35205D01*
X62846Y35219D01*
X62863Y35232D01*
X62874Y35244D01*
X62882Y35253D01*
X62884Y35254D01*
Y35256D01*
X62893Y35271D01*
X62901Y35288D01*
X62908Y35308D01*
X62914Y35327D01*
X62924Y35370D01*
X62929Y35412D01*
X62932Y35432D01*
X62934Y35450D01*
X62935Y35467D01*
Y35481D01*
X62936Y35494D01*
Y35502D01*
Y35509D01*
Y35511D01*
Y35542D01*
X62934Y35571D01*
X62931Y35598D01*
X62928Y35622D01*
X62924Y35645D01*
X62920Y35666D01*
X62915Y35684D01*
X62910Y35700D01*
X62904Y35714D01*
X62900Y35726D01*
X62896Y35736D01*
X62891Y35745D01*
X62887Y35750D01*
X62886Y35756D01*
X62883Y35757D01*
Y35759D01*
X62872Y35773D01*
X62860Y35784D01*
X62849Y35794D01*
X62838Y35803D01*
X62814Y35817D01*
X62791Y35825D01*
X62772Y35831D01*
X62756Y35834D01*
X62750Y35835D01*
X62742D01*
X62719Y35834D01*
X62700Y35828D01*
X62683Y35822D01*
X62667Y35814D01*
X62655Y35807D01*
X62645Y35800D01*
X62639Y35794D01*
X62638Y35793D01*
X62622Y35776D01*
X62609Y35757D01*
X62598Y35738D01*
X62590Y35718D01*
X62584Y35701D01*
X62580Y35687D01*
X62578Y35681D01*
Y35677D01*
X62577Y35676D01*
Y35674D01*
X62421Y35719D01*
X62426Y35742D01*
X62433Y35763D01*
X62440Y35783D01*
X62447Y35803D01*
X62456Y35819D01*
X62463Y35835D01*
X62471Y35848D01*
X62478Y35860D01*
X62485Y35872D01*
X62492Y35881D01*
X62498Y35890D01*
X62504Y35897D01*
X62508Y35901D01*
X62511Y35905D01*
X62512Y35908D01*
X62514D01*
X62530Y35924D01*
X62549Y35938D01*
X62567Y35951D01*
X62585Y35962D01*
X62604Y35970D01*
X62622Y35977D01*
X62657Y35989D01*
X62673Y35993D01*
X62687Y35996D01*
X62700Y35997D01*
X62711Y35998D01*
X62721Y36000D01*
X62733D01*
X62763Y35998D01*
D02*
G37*
G36*
X49150Y29144D02*
X49169Y29134D01*
X49189Y29124D01*
X49206Y29114D01*
X49222Y29106D01*
X49236Y29097D01*
X49248Y29090D01*
X49269Y29077D01*
X49285Y29068D01*
X49296Y29059D01*
X49303Y29055D01*
X49305Y29053D01*
X49320Y29041D01*
X49336Y29027D01*
X49350Y29013D01*
X49361Y29000D01*
X49371Y28989D01*
X49378Y28979D01*
X49384Y28973D01*
X49385Y28970D01*
X49394Y29006D01*
X49405Y29035D01*
X49419Y29062D01*
X49434Y29083D01*
X49447Y29100D01*
X49458Y29113D01*
X49467Y29120D01*
X49468Y29123D01*
X49470D01*
X49498Y29141D01*
X49527Y29155D01*
X49557Y29165D01*
X49585Y29170D01*
X49611Y29175D01*
X49622Y29176D01*
X49632D01*
X49639Y29177D01*
X49650D01*
X49682Y29176D01*
X49711Y29172D01*
X49737Y29166D01*
X49760Y29161D01*
X49777Y29154D01*
X49791Y29148D01*
X49799Y29144D01*
X49802Y29142D01*
X49825Y29128D01*
X49843Y29113D01*
X49859Y29099D01*
X49870Y29084D01*
X49880Y29072D01*
X49887Y29062D01*
X49890Y29055D01*
X49891Y29052D01*
X49895Y29041D01*
X49900Y29028D01*
X49907Y29000D01*
X49911Y28970D01*
X49915Y28941D01*
X49917Y28914D01*
Y28901D01*
X49918Y28891D01*
Y28883D01*
Y28876D01*
Y28872D01*
Y28870D01*
Y28537D01*
X48965D01*
Y28695D01*
X49362D01*
Y28726D01*
Y28746D01*
X49361Y28762D01*
X49360Y28776D01*
X49357Y28787D01*
X49355Y28795D01*
X49353Y28801D01*
X49351Y28804D01*
Y28805D01*
X49347Y28815D01*
X49340Y28824D01*
X49327Y28838D01*
X49322Y28843D01*
X49316Y28848D01*
X49313Y28850D01*
X49312Y28852D01*
X49306Y28856D01*
X49298Y28862D01*
X49289Y28869D01*
X49279Y28874D01*
X49255Y28889D01*
X49231Y28903D01*
X49209Y28915D01*
X49199Y28921D01*
X49191Y28927D01*
X49183Y28931D01*
X49178Y28934D01*
X49174Y28936D01*
X49172D01*
X48965Y29049D01*
Y29240D01*
X49150Y29144D01*
D02*
G37*
G36*
X49695Y29795D02*
X49729Y29788D01*
X49760Y29778D01*
X49787Y29767D01*
X49809Y29754D01*
X49819Y29748D01*
X49826Y29744D01*
X49832Y29740D01*
X49836Y29737D01*
X49839Y29736D01*
X49840Y29734D01*
X49854Y29722D01*
X49867Y29709D01*
X49877Y29695D01*
X49887Y29679D01*
X49895Y29664D01*
X49901Y29648D01*
X49911Y29619D01*
X49917Y29591D01*
X49918Y29579D01*
X49919Y29568D01*
X49921Y29560D01*
Y29554D01*
Y29550D01*
Y29548D01*
X49919Y29528D01*
X49918Y29509D01*
X49909Y29474D01*
X49900Y29443D01*
X49887Y29417D01*
X49874Y29396D01*
X49867Y29389D01*
X49863Y29382D01*
X49859Y29376D01*
X49854Y29372D01*
X49853Y29371D01*
X49852Y29369D01*
X49838Y29357D01*
X49823Y29347D01*
X49790Y29328D01*
X49754Y29314D01*
X49721Y29304D01*
X49704Y29300D01*
X49688Y29296D01*
X49674Y29294D01*
X49663Y29292D01*
X49653Y29290D01*
X49646D01*
X49640Y29289D01*
X49639D01*
X49619Y29438D01*
X49646Y29441D01*
X49668Y29445D01*
X49688Y29451D01*
X49705Y29458D01*
X49721Y29466D01*
X49732Y29475D01*
X49742Y29485D01*
X49750Y29495D01*
X49756Y29505D01*
X49760Y29513D01*
X49766Y29530D01*
X49767Y29536D01*
X49768Y29541D01*
Y29544D01*
Y29545D01*
X49767Y29561D01*
X49763Y29576D01*
X49759Y29589D01*
X49753Y29599D01*
X49746Y29607D01*
X49742Y29613D01*
X49737Y29617D01*
X49736Y29619D01*
X49723Y29629D01*
X49708Y29636D01*
X49692Y29640D01*
X49677Y29644D01*
X49663Y29646D01*
X49651Y29647D01*
X49642D01*
X49620Y29646D01*
X49599Y29641D01*
X49580Y29636D01*
X49563Y29630D01*
X49547Y29624D01*
X49536Y29619D01*
X49529Y29614D01*
X49526Y29613D01*
X49518Y29607D01*
X49508Y29600D01*
X49485Y29583D01*
X49461Y29564D01*
X49436Y29543D01*
X49412Y29523D01*
X49401Y29514D01*
X49392Y29506D01*
X49385Y29500D01*
X49379Y29495D01*
X49375Y29492D01*
X49374Y29490D01*
X49348Y29468D01*
X49323Y29448D01*
X49300Y29428D01*
X49279Y29412D01*
X49258Y29396D01*
X49240Y29383D01*
X49223Y29371D01*
X49207Y29361D01*
X49193Y29351D01*
X49182Y29342D01*
X49171Y29337D01*
X49162Y29331D01*
X49155Y29327D01*
X49151Y29326D01*
X49148Y29323D01*
X49147D01*
X49114Y29309D01*
X49082Y29297D01*
X49051Y29287D01*
X49024Y29282D01*
X49000Y29278D01*
X48990Y29275D01*
X48982Y29273D01*
X48975D01*
X48969Y29272D01*
X48965D01*
Y29798D01*
X49134D01*
Y29499D01*
X49152Y29509D01*
X49168Y29519D01*
X49174Y29523D01*
X49179Y29527D01*
X49182Y29528D01*
X49183Y29530D01*
X49196Y29540D01*
X49212Y29552D01*
X49229Y29568D01*
X49247Y29583D01*
X49264Y29598D01*
X49278Y29610D01*
X49284Y29614D01*
X49288Y29619D01*
X49289Y29620D01*
X49291Y29622D01*
X49322Y29648D01*
X49350Y29671D01*
X49374Y29691D01*
X49395Y29706D01*
X49410Y29717D01*
X49423Y29726D01*
X49430Y29730D01*
X49433Y29732D01*
X49454Y29743D01*
X49474Y29754D01*
X49492Y29763D01*
X49509Y29770D01*
X49523Y29774D01*
X49533Y29778D01*
X49540Y29781D01*
X49543D01*
X49564Y29786D01*
X49584Y29791D01*
X49604Y29794D01*
X49620Y29796D01*
X49636D01*
X49647Y29798D01*
X49677D01*
X49695Y29795D01*
D02*
G37*
G36*
X58978Y36010D02*
X59006Y36006D01*
X59031Y36000D01*
X59057Y35993D01*
X59079Y35983D01*
X59100Y35973D01*
X59120Y35962D01*
X59137Y35952D01*
X59152Y35941D01*
X59166Y35929D01*
X59178Y35920D01*
X59188Y35910D01*
X59195Y35903D01*
X59200Y35897D01*
X59203Y35893D01*
X59205Y35891D01*
X59224Y35865D01*
X59241Y35835D01*
X59255Y35805D01*
X59268Y35774D01*
X59279Y35742D01*
X59288Y35711D01*
X59295Y35680D01*
X59300Y35649D01*
X59305Y35621D01*
X59309Y35595D01*
X59312Y35571D01*
X59313Y35550D01*
Y35535D01*
X59314Y35522D01*
Y35514D01*
Y35512D01*
Y35511D01*
X59313Y35468D01*
X59310Y35429D01*
X59305Y35391D01*
X59298Y35356D01*
X59289Y35323D01*
X59281Y35294D01*
X59271Y35266D01*
X59260Y35242D01*
X59250Y35219D01*
X59240Y35199D01*
X59231Y35182D01*
X59223Y35170D01*
X59216Y35158D01*
X59210Y35150D01*
X59207Y35146D01*
X59206Y35144D01*
X59188Y35123D01*
X59168Y35106D01*
X59148Y35091D01*
X59127Y35077D01*
X59106Y35065D01*
X59086Y35055D01*
X59066Y35048D01*
X59047Y35041D01*
X59028Y35037D01*
X59011Y35033D01*
X58996Y35032D01*
X58983Y35029D01*
X58972D01*
X58965Y35027D01*
X58958D01*
X58935Y35029D01*
X58914Y35030D01*
X58875Y35039D01*
X58839Y35050D01*
X58824Y35057D01*
X58810Y35064D01*
X58797Y35071D01*
X58786Y35078D01*
X58776Y35084D01*
X58769Y35089D01*
X58762Y35094D01*
X58758Y35098D01*
X58755Y35099D01*
X58753Y35101D01*
X58738Y35116D01*
X58724Y35132D01*
X58700Y35168D01*
X58679Y35208D01*
X58662Y35246D01*
X58655Y35264D01*
X58649Y35281D01*
X58645Y35297D01*
X58641Y35309D01*
X58638Y35320D01*
X58635Y35329D01*
X58634Y35335D01*
Y35336D01*
X58787Y35395D01*
X58796Y35357D01*
X58807Y35326D01*
X58817Y35299D01*
X58828Y35278D01*
X58838Y35261D01*
X58846Y35250D01*
X58852Y35243D01*
X58854Y35240D01*
X58870Y35225D01*
X58889Y35212D01*
X58907Y35203D01*
X58924Y35198D01*
X58938Y35195D01*
X58951Y35194D01*
X58958Y35192D01*
X58961D01*
X58976Y35194D01*
X58990Y35195D01*
X59018Y35203D01*
X59041Y35216D01*
X59061Y35230D01*
X59078Y35243D01*
X59089Y35256D01*
X59096Y35264D01*
X59099Y35266D01*
Y35267D01*
X59107Y35282D01*
X59116Y35299D01*
X59123Y35319D01*
X59128Y35339D01*
X59138Y35381D01*
X59144Y35423D01*
X59147Y35443D01*
X59148Y35461D01*
X59150Y35478D01*
Y35492D01*
X59151Y35505D01*
Y35514D01*
Y35521D01*
Y35522D01*
Y35553D01*
X59148Y35583D01*
X59145Y35609D01*
X59143Y35633D01*
X59138Y35656D01*
X59134Y35677D01*
X59130Y35695D01*
X59124Y35711D01*
X59119Y35725D01*
X59114Y35738D01*
X59110Y35748D01*
X59106Y35756D01*
X59102Y35762D01*
X59100Y35767D01*
X59097Y35769D01*
Y35770D01*
X59086Y35784D01*
X59075Y35796D01*
X59064Y35805D01*
X59052Y35814D01*
X59028Y35828D01*
X59006Y35836D01*
X58986Y35842D01*
X58971Y35845D01*
X58965Y35846D01*
X58956D01*
X58934Y35845D01*
X58914Y35839D01*
X58897Y35834D01*
X58882Y35825D01*
X58869Y35818D01*
X58859Y35811D01*
X58854Y35805D01*
X58852Y35804D01*
X58837Y35787D01*
X58824Y35769D01*
X58813Y35749D01*
X58804Y35729D01*
X58799Y35712D01*
X58794Y35698D01*
X58793Y35693D01*
Y35688D01*
X58792Y35687D01*
Y35686D01*
X58635Y35731D01*
X58641Y35753D01*
X58648Y35774D01*
X58655Y35794D01*
X58662Y35814D01*
X58670Y35831D01*
X58677Y35846D01*
X58686Y35859D01*
X58693Y35872D01*
X58700Y35883D01*
X58707Y35893D01*
X58713Y35901D01*
X58718Y35908D01*
X58722Y35913D01*
X58725Y35917D01*
X58727Y35920D01*
X58728D01*
X58745Y35935D01*
X58763Y35949D01*
X58782Y35962D01*
X58800Y35973D01*
X58818Y35982D01*
X58837Y35989D01*
X58872Y36000D01*
X58887Y36004D01*
X58901Y36007D01*
X58914Y36008D01*
X58925Y36010D01*
X58935Y36011D01*
X58948D01*
X58978Y36010D01*
D02*
G37*
G36*
X51843Y39449D02*
X51874Y39446D01*
X51901Y39442D01*
X51923Y39436D01*
X51942Y39432D01*
X51954Y39427D01*
X51963Y39425D01*
X51966Y39423D01*
X51988Y39412D01*
X52008Y39399D01*
X52025Y39387D01*
X52040Y39374D01*
X52052Y39363D01*
X52061Y39353D01*
X52067Y39347D01*
X52068Y39344D01*
X52084Y39323D01*
X52098Y39299D01*
X52111Y39275D01*
X52121Y39251D01*
X52129Y39231D01*
X52135Y39215D01*
X52138Y39208D01*
X52139Y39203D01*
X52140Y39200D01*
Y39199D01*
X52150Y39164D01*
X52157Y39127D01*
X52161Y39090D01*
X52166Y39057D01*
Y39041D01*
X52167Y39027D01*
Y39014D01*
X52169Y39005D01*
Y38996D01*
Y38989D01*
Y38985D01*
Y38983D01*
X52167Y38934D01*
X52164Y38890D01*
X52163Y38869D01*
X52160Y38851D01*
X52157Y38834D01*
X52156Y38818D01*
X52153Y38804D01*
X52150Y38792D01*
X52147Y38780D01*
X52146Y38772D01*
X52145Y38765D01*
X52143Y38759D01*
X52142Y38756D01*
Y38755D01*
X52130Y38721D01*
X52119Y38692D01*
X52107Y38666D01*
X52094Y38645D01*
X52084Y38627D01*
X52075Y38614D01*
X52070Y38607D01*
X52067Y38604D01*
X52049Y38584D01*
X52032Y38568D01*
X52013Y38553D01*
X51998Y38542D01*
X51984Y38534D01*
X51974Y38527D01*
X51967Y38524D01*
X51964Y38522D01*
X51942Y38514D01*
X51915Y38508D01*
X51888Y38503D01*
X51861Y38500D01*
X51837Y38498D01*
X51827D01*
X51819Y38497D01*
X51513D01*
Y39450D01*
X51809D01*
X51843Y39449D01*
D02*
G37*
G36*
X52653Y38494D02*
X52531D01*
X52520Y38525D01*
X52505Y38553D01*
X52490Y38579D01*
X52474Y38600D01*
X52460Y38618D01*
X52449Y38632D01*
X52441Y38641D01*
X52439Y38642D01*
X52438Y38644D01*
X52412Y38666D01*
X52388Y38685D01*
X52367Y38700D01*
X52348Y38713D01*
X52331Y38721D01*
X52319Y38728D01*
X52311Y38731D01*
X52310Y38732D01*
X52308D01*
Y38899D01*
X52348Y38880D01*
X52386Y38859D01*
X52418Y38835D01*
X52446Y38813D01*
X52459Y38803D01*
X52470Y38793D01*
X52480Y38783D01*
X52487Y38776D01*
X52494Y38769D01*
X52498Y38765D01*
X52501Y38762D01*
X52503Y38761D01*
Y39450D01*
X52653D01*
Y38494D01*
D02*
G37*
G36*
X46749Y29144D02*
X46768Y29134D01*
X46788Y29124D01*
X46805Y29114D01*
X46821Y29106D01*
X46835Y29097D01*
X46847Y29090D01*
X46869Y29077D01*
X46884Y29068D01*
X46895Y29059D01*
X46902Y29055D01*
X46904Y29053D01*
X46919Y29041D01*
X46935Y29027D01*
X46949Y29013D01*
X46960Y29000D01*
X46970Y28989D01*
X46977Y28979D01*
X46983Y28973D01*
X46984Y28970D01*
X46993Y29006D01*
X47004Y29035D01*
X47018Y29062D01*
X47033Y29083D01*
X47046Y29100D01*
X47057Y29113D01*
X47066Y29120D01*
X47067Y29123D01*
X47069D01*
X47097Y29141D01*
X47127Y29155D01*
X47156Y29165D01*
X47184Y29170D01*
X47210Y29175D01*
X47221Y29176D01*
X47231D01*
X47238Y29177D01*
X47249D01*
X47282Y29176D01*
X47310Y29172D01*
X47337Y29166D01*
X47359Y29161D01*
X47376Y29154D01*
X47390Y29148D01*
X47399Y29144D01*
X47401Y29142D01*
X47424Y29128D01*
X47442Y29113D01*
X47458Y29099D01*
X47469Y29084D01*
X47479Y29072D01*
X47486Y29062D01*
X47489Y29055D01*
X47490Y29052D01*
X47494Y29041D01*
X47499Y29028D01*
X47506Y29000D01*
X47510Y28970D01*
X47514Y28941D01*
X47516Y28914D01*
Y28901D01*
X47517Y28891D01*
Y28883D01*
Y28876D01*
Y28872D01*
Y28870D01*
Y28538D01*
X46564D01*
Y28695D01*
X46962D01*
Y28726D01*
Y28746D01*
X46960Y28762D01*
X46959Y28776D01*
X46956Y28787D01*
X46955Y28795D01*
X46952Y28801D01*
X46950Y28804D01*
Y28805D01*
X46946Y28815D01*
X46939Y28824D01*
X46926Y28838D01*
X46921Y28843D01*
X46915Y28848D01*
X46912Y28850D01*
X46911Y28852D01*
X46905Y28856D01*
X46897Y28862D01*
X46888Y28869D01*
X46878Y28874D01*
X46854Y28889D01*
X46830Y28903D01*
X46808Y28915D01*
X46798Y28921D01*
X46790Y28927D01*
X46783Y28931D01*
X46777Y28934D01*
X46773Y28936D01*
X46771D01*
X46564Y29049D01*
Y29240D01*
X46749Y29144D01*
D02*
G37*
G36*
X51615Y29144D02*
X51634Y29134D01*
X51654Y29124D01*
X51671Y29114D01*
X51687Y29106D01*
X51701Y29097D01*
X51713Y29090D01*
X51734Y29077D01*
X51750Y29068D01*
X51761Y29059D01*
X51768Y29055D01*
X51770Y29053D01*
X51785Y29041D01*
X51801Y29027D01*
X51815Y29013D01*
X51826Y29000D01*
X51836Y28989D01*
X51843Y28979D01*
X51849Y28973D01*
X51850Y28970D01*
X51859Y29006D01*
X51870Y29035D01*
X51884Y29062D01*
X51899Y29083D01*
X51912Y29100D01*
X51923Y29113D01*
X51932Y29120D01*
X51933Y29123D01*
X51935D01*
X51963Y29141D01*
X51992Y29155D01*
X52022Y29165D01*
X52050Y29170D01*
X52076Y29175D01*
X52087Y29176D01*
X52097D01*
X52104Y29177D01*
X52115D01*
X52147Y29176D01*
X52176Y29172D01*
X52202Y29166D01*
X52225Y29161D01*
X52242Y29154D01*
X52256Y29148D01*
X52264Y29144D01*
X52267Y29142D01*
X52290Y29128D01*
X52308Y29113D01*
X52324Y29099D01*
X52335Y29084D01*
X52345Y29072D01*
X52352Y29062D01*
X52355Y29055D01*
X52356Y29052D01*
X52360Y29041D01*
X52365Y29028D01*
X52372Y29000D01*
X52376Y28970D01*
X52380Y28941D01*
X52382Y28914D01*
Y28901D01*
X52383Y28891D01*
Y28883D01*
Y28876D01*
Y28872D01*
Y28870D01*
Y28537D01*
X51430D01*
Y28695D01*
X51827D01*
Y28726D01*
Y28746D01*
X51826Y28762D01*
X51825Y28776D01*
X51822Y28787D01*
X51820Y28795D01*
X51818Y28801D01*
X51816Y28804D01*
Y28805D01*
X51812Y28815D01*
X51805Y28824D01*
X51792Y28838D01*
X51787Y28843D01*
X51781Y28848D01*
X51778Y28850D01*
X51777Y28852D01*
X51771Y28856D01*
X51763Y28862D01*
X51754Y28869D01*
X51744Y28874D01*
X51720Y28889D01*
X51696Y28903D01*
X51674Y28915D01*
X51664Y28921D01*
X51655Y28927D01*
X51648Y28931D01*
X51643Y28934D01*
X51639Y28936D01*
X51637D01*
X51430Y29049D01*
Y29240D01*
X51615Y29144D01*
D02*
G37*
G36*
X52386Y29554D02*
X52355Y29543D01*
X52327Y29529D01*
X52301Y29513D01*
X52280Y29497D01*
X52262Y29483D01*
X52248Y29472D01*
X52239Y29464D01*
X52238Y29462D01*
X52236Y29461D01*
X52214Y29435D01*
X52195Y29412D01*
X52180Y29390D01*
X52167Y29371D01*
X52159Y29354D01*
X52152Y29342D01*
X52149Y29334D01*
X52147Y29333D01*
Y29331D01*
X51981D01*
X51999Y29371D01*
X52021Y29409D01*
X52045Y29441D01*
X52067Y29469D01*
X52077Y29482D01*
X52087Y29493D01*
X52097Y29503D01*
X52104Y29510D01*
X52111Y29517D01*
X52115Y29521D01*
X52118Y29524D01*
X52119Y29526D01*
X51430D01*
Y29677D01*
X52386D01*
Y29554D01*
D02*
G37*
G36*
X51055Y39449D02*
X51086Y39446D01*
X51113Y39442D01*
X51135Y39436D01*
X51154Y39432D01*
X51166Y39427D01*
X51175Y39425D01*
X51178Y39423D01*
X51200Y39412D01*
X51220Y39399D01*
X51237Y39387D01*
X51252Y39374D01*
X51264Y39363D01*
X51273Y39353D01*
X51279Y39347D01*
X51280Y39344D01*
X51296Y39323D01*
X51310Y39299D01*
X51323Y39275D01*
X51333Y39251D01*
X51341Y39231D01*
X51347Y39215D01*
X51349Y39208D01*
X51351Y39203D01*
X51352Y39200D01*
Y39199D01*
X51362Y39164D01*
X51369Y39127D01*
X51373Y39090D01*
X51378Y39057D01*
Y39041D01*
X51379Y39027D01*
Y39014D01*
X51381Y39005D01*
Y38996D01*
Y38989D01*
Y38985D01*
Y38983D01*
X51379Y38934D01*
X51376Y38890D01*
X51375Y38869D01*
X51372Y38851D01*
X51369Y38834D01*
X51368Y38818D01*
X51365Y38804D01*
X51362Y38792D01*
X51359Y38780D01*
X51358Y38772D01*
X51357Y38765D01*
X51355Y38759D01*
X51354Y38756D01*
Y38755D01*
X51342Y38721D01*
X51331Y38692D01*
X51318Y38666D01*
X51306Y38645D01*
X51296Y38627D01*
X51287Y38614D01*
X51282Y38607D01*
X51279Y38604D01*
X51261Y38584D01*
X51244Y38568D01*
X51225Y38553D01*
X51210Y38542D01*
X51196Y38534D01*
X51186Y38527D01*
X51179Y38524D01*
X51176Y38522D01*
X51154Y38514D01*
X51127Y38508D01*
X51100Y38503D01*
X51073Y38500D01*
X51049Y38498D01*
X51039D01*
X51031Y38497D01*
X50725D01*
Y39450D01*
X51021D01*
X51055Y39449D01*
D02*
G37*
G36*
X55100Y45200D02*
X54942D01*
Y45598D01*
X54891D01*
X54876Y45596D01*
X54862Y45595D01*
X54850Y45592D01*
X54842Y45590D01*
X54836Y45588D01*
X54834Y45586D01*
X54832D01*
X54822Y45582D01*
X54814Y45575D01*
X54800Y45562D01*
X54794Y45557D01*
X54790Y45551D01*
X54787Y45548D01*
X54786Y45547D01*
X54781Y45541D01*
X54776Y45533D01*
X54769Y45524D01*
X54763Y45514D01*
X54749Y45490D01*
X54735Y45466D01*
X54722Y45444D01*
X54717Y45434D01*
X54711Y45426D01*
X54707Y45419D01*
X54704Y45413D01*
X54701Y45409D01*
Y45407D01*
X54588Y45200D01*
X54398D01*
X54494Y45385D01*
X54504Y45404D01*
X54514Y45424D01*
X54523Y45441D01*
X54532Y45457D01*
X54540Y45471D01*
X54547Y45483D01*
X54560Y45505D01*
X54570Y45520D01*
X54578Y45531D01*
X54583Y45538D01*
X54584Y45540D01*
X54597Y45555D01*
X54611Y45571D01*
X54625Y45585D01*
X54638Y45596D01*
X54649Y45606D01*
X54659Y45613D01*
X54664Y45619D01*
X54667Y45620D01*
X54632Y45629D01*
X54602Y45640D01*
X54576Y45654D01*
X54554Y45669D01*
X54538Y45682D01*
X54525Y45693D01*
X54518Y45702D01*
X54515Y45703D01*
Y45705D01*
X54497Y45733D01*
X54483Y45762D01*
X54473Y45792D01*
X54467Y45820D01*
X54463Y45846D01*
X54461Y45857D01*
Y45867D01*
X54460Y45874D01*
Y45881D01*
Y45884D01*
Y45885D01*
X54461Y45918D01*
X54466Y45946D01*
X54471Y45973D01*
X54477Y45995D01*
X54484Y46012D01*
X54490Y46026D01*
X54494Y46035D01*
X54495Y46037D01*
X54509Y46060D01*
X54525Y46078D01*
X54539Y46094D01*
X54553Y46105D01*
X54566Y46115D01*
X54576Y46122D01*
X54583Y46125D01*
X54585Y46126D01*
X54597Y46130D01*
X54609Y46135D01*
X54638Y46142D01*
X54667Y46146D01*
X54697Y46150D01*
X54724Y46152D01*
X54736D01*
X54746Y46153D01*
X55100D01*
Y45200D01*
D02*
G37*
G36*
X53487Y46125D02*
X53501Y46097D01*
X53517Y46071D01*
X53532Y46050D01*
X53547Y46032D01*
X53558Y46018D01*
X53566Y46009D01*
X53568Y46008D01*
X53569Y46006D01*
X53594Y45984D01*
X53618Y45965D01*
X53640Y45950D01*
X53659Y45937D01*
X53676Y45929D01*
X53687Y45922D01*
X53696Y45919D01*
X53697Y45918D01*
X53699D01*
Y45751D01*
X53659Y45770D01*
X53621Y45791D01*
X53589Y45815D01*
X53561Y45837D01*
X53548Y45847D01*
X53537Y45857D01*
X53527Y45867D01*
X53520Y45874D01*
X53513Y45881D01*
X53508Y45885D01*
X53506Y45888D01*
X53504Y45889D01*
Y45200D01*
X53353D01*
Y46156D01*
X53476D01*
X53487Y46125D01*
D02*
G37*
G36*
X54095D02*
X54109Y46097D01*
X54124Y46071D01*
X54140Y46050D01*
X54154Y46032D01*
X54165Y46018D01*
X54174Y46009D01*
X54175Y46008D01*
X54177Y46006D01*
X54202Y45984D01*
X54226Y45965D01*
X54247Y45950D01*
X54267Y45937D01*
X54284Y45929D01*
X54295Y45922D01*
X54304Y45919D01*
X54305Y45918D01*
X54306D01*
Y45751D01*
X54267Y45770D01*
X54229Y45791D01*
X54196Y45815D01*
X54168Y45837D01*
X54155Y45847D01*
X54144Y45857D01*
X54134Y45867D01*
X54127Y45874D01*
X54120Y45881D01*
X54116Y45885D01*
X54113Y45888D01*
X54112Y45889D01*
Y45200D01*
X53961D01*
Y46156D01*
X54084D01*
X54095Y46125D01*
D02*
G37*
G36*
X46894Y29813D02*
X46919Y29812D01*
X46942Y29809D01*
X46964Y29803D01*
X46984Y29799D01*
X47002Y29794D01*
X47019Y29786D01*
X47035Y29781D01*
X47049Y29774D01*
X47062Y29768D01*
X47072Y29761D01*
X47080Y29757D01*
X47087Y29753D01*
X47091Y29748D01*
X47094Y29747D01*
X47096Y29746D01*
X47111Y29733D01*
X47124Y29719D01*
X47135Y29706D01*
X47145Y29692D01*
X47153Y29679D01*
X47160Y29665D01*
X47170Y29641D01*
X47177Y29619D01*
X47179Y29610D01*
X47180Y29602D01*
X47181Y29595D01*
Y29591D01*
Y29588D01*
Y29586D01*
X47180Y29571D01*
X47179Y29557D01*
X47174Y29543D01*
X47172Y29531D01*
X47167Y29523D01*
X47163Y29514D01*
X47162Y29510D01*
X47160Y29509D01*
X47152Y29496D01*
X47142Y29485D01*
X47132Y29475D01*
X47122Y29465D01*
X47114Y29458D01*
X47107Y29452D01*
X47101Y29448D01*
X47100Y29447D01*
X47129Y29448D01*
X47156Y29451D01*
X47180Y29454D01*
X47201Y29457D01*
X47221Y29459D01*
X47239Y29464D01*
X47255Y29466D01*
X47269Y29471D01*
X47280Y29474D01*
X47290Y29476D01*
X47299Y29481D01*
X47304Y29482D01*
X47310Y29485D01*
X47313Y29486D01*
X47315Y29488D01*
X47334Y29500D01*
X47346Y29514D01*
X47356Y29527D01*
X47362Y29540D01*
X47366Y29551D01*
X47368Y29560D01*
X47369Y29567D01*
Y29568D01*
X47368Y29581D01*
X47365Y29593D01*
X47359Y29603D01*
X47352Y29613D01*
X47335Y29629D01*
X47317Y29638D01*
X47297Y29647D01*
X47280Y29651D01*
X47273Y29653D01*
X47267Y29654D01*
X47263D01*
X47283Y29799D01*
X47325Y29791D01*
X47361Y29781D01*
X47392Y29768D01*
X47417Y29755D01*
X47435Y29743D01*
X47449Y29733D01*
X47458Y29726D01*
X47461Y29723D01*
X47480Y29701D01*
X47494Y29675D01*
X47506Y29651D01*
X47513Y29627D01*
X47517Y29607D01*
X47518Y29591D01*
X47520Y29585D01*
Y29581D01*
Y29578D01*
Y29576D01*
X47518Y29554D01*
X47516Y29531D01*
X47509Y29512D01*
X47502Y29492D01*
X47483Y29457D01*
X47473Y29441D01*
X47462Y29427D01*
X47451Y29414D01*
X47441Y29403D01*
X47431Y29393D01*
X47423Y29385D01*
X47416Y29379D01*
X47410Y29375D01*
X47406Y29372D01*
X47404Y29371D01*
X47382Y29357D01*
X47355Y29345D01*
X47327Y29334D01*
X47297Y29326D01*
X47235Y29311D01*
X47173Y29302D01*
X47143Y29299D01*
X47117Y29296D01*
X47093Y29295D01*
X47070Y29293D01*
X47053Y29292D01*
X47028D01*
X46981Y29293D01*
X46938Y29295D01*
X46898Y29299D01*
X46861Y29303D01*
X46828Y29310D01*
X46798Y29316D01*
X46770Y29323D01*
X46746Y29330D01*
X46725Y29337D01*
X46708Y29344D01*
X46692Y29351D01*
X46680Y29357D01*
X46671Y29361D01*
X46664Y29365D01*
X46660Y29366D01*
X46659Y29368D01*
X46639Y29383D01*
X46622Y29399D01*
X46608Y29414D01*
X46595Y29431D01*
X46584Y29447D01*
X46575Y29464D01*
X46568Y29479D01*
X46563Y29495D01*
X46554Y29521D01*
X46551Y29533D01*
X46550Y29543D01*
Y29551D01*
X46549Y29557D01*
Y29561D01*
Y29562D01*
X46550Y29582D01*
X46553Y29600D01*
X46557Y29619D01*
X46561Y29636D01*
X46575Y29667D01*
X46591Y29692D01*
X46606Y29713D01*
X46613Y29722D01*
X46620Y29729D01*
X46625Y29734D01*
X46629Y29739D01*
X46632Y29740D01*
X46633Y29741D01*
X46650Y29754D01*
X46668Y29765D01*
X46687Y29775D01*
X46706Y29784D01*
X46746Y29796D01*
X46783Y29806D01*
X46801Y29809D01*
X46816Y29810D01*
X46832Y29812D01*
X46845Y29813D01*
X46854Y29815D01*
X46869D01*
X46894Y29813D01*
D02*
G37*
G36*
X63776Y29380D02*
X63410D01*
X63822Y28761D01*
Y28588D01*
X63186D01*
Y28749D01*
X63632D01*
X63203Y29391D01*
Y29541D01*
X63776D01*
Y29380D01*
D02*
G37*
G36*
X62883Y29542D02*
X62903Y29541D01*
X62938Y29532D01*
X62969Y29523D01*
X62995Y29510D01*
X63016Y29497D01*
X63023Y29490D01*
X63030Y29486D01*
X63035Y29482D01*
X63040Y29477D01*
X63041Y29476D01*
X63043Y29475D01*
X63055Y29461D01*
X63065Y29446D01*
X63083Y29413D01*
X63098Y29377D01*
X63107Y29344D01*
X63112Y29327D01*
X63116Y29311D01*
X63117Y29297D01*
X63120Y29286D01*
X63121Y29276D01*
Y29269D01*
X63123Y29263D01*
Y29262D01*
X62973Y29242D01*
X62971Y29269D01*
X62966Y29291D01*
X62961Y29311D01*
X62954Y29328D01*
X62945Y29344D01*
X62937Y29355D01*
X62927Y29365D01*
X62917Y29373D01*
X62907Y29379D01*
X62899Y29383D01*
X62882Y29389D01*
X62876Y29390D01*
X62871Y29391D01*
X62866D01*
X62851Y29390D01*
X62835Y29386D01*
X62823Y29382D01*
X62813Y29376D01*
X62804Y29369D01*
X62799Y29365D01*
X62794Y29360D01*
X62793Y29359D01*
X62783Y29346D01*
X62776Y29331D01*
X62772Y29315D01*
X62768Y29300D01*
X62766Y29286D01*
X62765Y29274D01*
Y29267D01*
Y29266D01*
Y29265D01*
X62766Y29243D01*
X62770Y29222D01*
X62776Y29203D01*
X62782Y29186D01*
X62787Y29170D01*
X62793Y29159D01*
X62797Y29152D01*
X62799Y29149D01*
X62804Y29141D01*
X62811Y29131D01*
X62828Y29108D01*
X62848Y29084D01*
X62869Y29059D01*
X62889Y29035D01*
X62897Y29024D01*
X62906Y29015D01*
X62911Y29008D01*
X62917Y29002D01*
X62920Y28998D01*
X62921Y28997D01*
X62944Y28971D01*
X62964Y28946D01*
X62983Y28923D01*
X63000Y28902D01*
X63016Y28881D01*
X63028Y28863D01*
X63041Y28846D01*
X63051Y28830D01*
X63061Y28816D01*
X63069Y28805D01*
X63075Y28794D01*
X63081Y28785D01*
X63085Y28778D01*
X63086Y28774D01*
X63089Y28771D01*
Y28770D01*
X63103Y28737D01*
X63114Y28705D01*
X63124Y28674D01*
X63130Y28647D01*
X63134Y28623D01*
X63137Y28613D01*
X63138Y28605D01*
Y28598D01*
X63140Y28592D01*
Y28589D01*
Y28588D01*
X62614D01*
Y28757D01*
X62913D01*
X62903Y28775D01*
X62893Y28791D01*
X62889Y28797D01*
X62885Y28802D01*
X62883Y28805D01*
X62882Y28806D01*
X62872Y28819D01*
X62859Y28835D01*
X62844Y28852D01*
X62828Y28870D01*
X62814Y28887D01*
X62801Y28901D01*
X62797Y28907D01*
X62793Y28911D01*
X62792Y28912D01*
X62790Y28914D01*
X62763Y28945D01*
X62741Y28973D01*
X62721Y28997D01*
X62706Y29018D01*
X62694Y29033D01*
X62686Y29046D01*
X62682Y29053D01*
X62680Y29056D01*
X62669Y29077D01*
X62658Y29097D01*
X62649Y29115D01*
X62642Y29132D01*
X62638Y29146D01*
X62634Y29156D01*
X62631Y29163D01*
Y29166D01*
X62625Y29187D01*
X62621Y29207D01*
X62618Y29227D01*
X62615Y29243D01*
Y29259D01*
X62614Y29270D01*
Y29277D01*
Y29280D01*
Y29300D01*
X62617Y29318D01*
X62624Y29352D01*
X62634Y29383D01*
X62645Y29410D01*
X62658Y29432D01*
X62663Y29442D01*
X62668Y29449D01*
X62672Y29455D01*
X62675Y29459D01*
X62676Y29462D01*
X62677Y29463D01*
X62690Y29477D01*
X62703Y29490D01*
X62717Y29500D01*
X62732Y29510D01*
X62748Y29518D01*
X62763Y29524D01*
X62793Y29534D01*
X62821Y29539D01*
X62832Y29541D01*
X62844Y29542D01*
X62852Y29544D01*
X62863D01*
X62883Y29542D01*
D02*
G37*
G36*
X62067Y35956D02*
X62081Y35928D01*
X62096Y35903D01*
X62112Y35881D01*
X62126Y35863D01*
X62137Y35849D01*
X62146Y35841D01*
X62147Y35839D01*
X62148Y35838D01*
X62174Y35815D01*
X62198Y35797D01*
X62219Y35781D01*
X62239Y35769D01*
X62256Y35760D01*
X62267Y35753D01*
X62275Y35750D01*
X62277Y35749D01*
X62278D01*
Y35583D01*
X62239Y35601D01*
X62201Y35622D01*
X62168Y35646D01*
X62140Y35669D01*
X62127Y35678D01*
X62116Y35688D01*
X62106Y35698D01*
X62099Y35705D01*
X62092Y35712D01*
X62088Y35717D01*
X62085Y35719D01*
X62084Y35721D01*
Y35031D01*
X61933D01*
Y35987D01*
X62055D01*
X62067Y35956D01*
D02*
G37*
G36*
X61696Y38554D02*
X61714Y38552D01*
X61731Y38547D01*
X61748Y38542D01*
X61779Y38528D01*
X61804Y38512D01*
X61825Y38497D01*
X61834Y38488D01*
X61841Y38482D01*
X61847Y38477D01*
X61851Y38473D01*
X61852Y38470D01*
X61854Y38468D01*
X61866Y38451D01*
X61878Y38433D01*
X61887Y38415D01*
X61895Y38395D01*
X61909Y38356D01*
X61917Y38319D01*
X61920Y38301D01*
X61921Y38285D01*
X61923Y38270D01*
X61924Y38258D01*
X61926Y38247D01*
Y38240D01*
Y38234D01*
Y38233D01*
X61924Y38208D01*
X61923Y38182D01*
X61920Y38160D01*
X61914Y38138D01*
X61910Y38119D01*
X61904Y38099D01*
X61897Y38082D01*
X61892Y38068D01*
X61885Y38054D01*
X61879Y38041D01*
X61873Y38031D01*
X61868Y38023D01*
X61864Y38016D01*
X61861Y38012D01*
X61859Y38009D01*
X61858Y38007D01*
X61845Y37992D01*
X61831Y37979D01*
X61817Y37968D01*
X61804Y37958D01*
X61790Y37951D01*
X61778Y37944D01*
X61754Y37934D01*
X61731Y37927D01*
X61723Y37926D01*
X61715Y37924D01*
X61708Y37923D01*
X61700D01*
X61684Y37924D01*
X61669Y37926D01*
X61656Y37928D01*
X61644Y37933D01*
X61635Y37937D01*
X61627Y37940D01*
X61622Y37941D01*
X61621Y37943D01*
X61608Y37951D01*
X61596Y37961D01*
X61586Y37969D01*
X61576Y37979D01*
X61569Y37988D01*
X61562Y37995D01*
X61559Y38000D01*
X61558Y38002D01*
X61559Y37974D01*
X61562Y37947D01*
X61565Y37923D01*
X61569Y37900D01*
X61572Y37881D01*
X61576Y37864D01*
X61579Y37848D01*
X61583Y37834D01*
X61586Y37823D01*
X61589Y37813D01*
X61591Y37804D01*
X61594Y37799D01*
X61597Y37793D01*
X61598Y37790D01*
X61600Y37787D01*
X61613Y37771D01*
X61625Y37758D01*
X61639Y37748D01*
X61652Y37742D01*
X61663Y37738D01*
X61672Y37737D01*
X61677Y37735D01*
X61680D01*
X61693Y37737D01*
X61706Y37740D01*
X61715Y37745D01*
X61725Y37752D01*
X61739Y37769D01*
X61751Y37789D01*
X61758Y37807D01*
X61762Y37824D01*
X61763Y37831D01*
X61765Y37837D01*
Y37840D01*
Y37841D01*
X61910Y37821D01*
X61907Y37799D01*
X61903Y37779D01*
X61897Y37759D01*
X61892Y37742D01*
X61886Y37725D01*
X61880Y37711D01*
X61873Y37699D01*
X61868Y37686D01*
X61862Y37676D01*
X61856Y37668D01*
X61847Y37654D01*
X61840Y37645D01*
X61837Y37642D01*
X61814Y37623D01*
X61789Y37608D01*
X61765Y37599D01*
X61742Y37592D01*
X61721Y37587D01*
X61704Y37586D01*
X61699Y37584D01*
X61690D01*
X61666Y37586D01*
X61645Y37590D01*
X61624Y37596D01*
X61604Y37603D01*
X61569Y37621D01*
X61553Y37631D01*
X61539Y37642D01*
X61527Y37652D01*
X61515Y37662D01*
X61505Y37672D01*
X61497Y37680D01*
X61491Y37689D01*
X61487Y37694D01*
X61484Y37697D01*
X61483Y37699D01*
X61469Y37721D01*
X61456Y37748D01*
X61446Y37776D01*
X61436Y37806D01*
X61428Y37837D01*
X61422Y37868D01*
X61412Y37930D01*
X61410Y37959D01*
X61407Y37986D01*
X61405Y38010D01*
X61404Y38033D01*
X61403Y38050D01*
Y38064D01*
Y38072D01*
Y38074D01*
Y38075D01*
X61404Y38122D01*
X61405Y38165D01*
X61410Y38205D01*
X61415Y38241D01*
X61421Y38275D01*
X61427Y38305D01*
X61434Y38333D01*
X61441Y38357D01*
X61449Y38378D01*
X61456Y38395D01*
X61462Y38411D01*
X61467Y38423D01*
X61473Y38433D01*
X61477Y38439D01*
X61479Y38443D01*
X61480Y38444D01*
X61496Y38464D01*
X61511Y38481D01*
X61527Y38497D01*
X61544Y38509D01*
X61560Y38519D01*
X61576Y38529D01*
X61591Y38536D01*
X61607Y38542D01*
X61634Y38550D01*
X61646Y38553D01*
X61656Y38554D01*
X61665Y38556D01*
X61676D01*
X61696Y38554D01*
D02*
G37*
G36*
X59351Y9388D02*
X59193D01*
Y9786D01*
X59143D01*
X59127Y9784D01*
X59113Y9783D01*
X59102Y9780D01*
X59093Y9779D01*
X59088Y9776D01*
X59085Y9775D01*
X59083D01*
X59074Y9770D01*
X59065Y9763D01*
X59051Y9751D01*
X59045Y9745D01*
X59041Y9739D01*
X59038Y9736D01*
X59037Y9735D01*
X59033Y9729D01*
X59027Y9721D01*
X59020Y9712D01*
X59014Y9703D01*
X59000Y9679D01*
X58986Y9655D01*
X58973Y9632D01*
X58968Y9622D01*
X58962Y9614D01*
X58958Y9607D01*
X58955Y9601D01*
X58952Y9597D01*
Y9595D01*
X58840Y9388D01*
X58649D01*
X58745Y9573D01*
X58755Y9593D01*
X58765Y9612D01*
X58775Y9629D01*
X58783Y9645D01*
X58792Y9659D01*
X58799Y9672D01*
X58811Y9693D01*
X58821Y9708D01*
X58830Y9720D01*
X58834Y9727D01*
X58835Y9728D01*
X58848Y9743D01*
X58862Y9759D01*
X58876Y9773D01*
X58889Y9784D01*
X58900Y9794D01*
X58910Y9801D01*
X58916Y9807D01*
X58918Y9808D01*
X58883Y9817D01*
X58854Y9828D01*
X58827Y9842D01*
X58806Y9858D01*
X58789Y9870D01*
X58776Y9882D01*
X58769Y9890D01*
X58766Y9892D01*
Y9893D01*
X58748Y9921D01*
X58734Y9951D01*
X58724Y9980D01*
X58718Y10009D01*
X58714Y10034D01*
X58713Y10045D01*
Y10055D01*
X58711Y10062D01*
Y10069D01*
Y10072D01*
Y10073D01*
X58713Y10106D01*
X58717Y10134D01*
X58723Y10161D01*
X58728Y10183D01*
X58735Y10200D01*
X58741Y10214D01*
X58745Y10223D01*
X58746Y10226D01*
X58761Y10248D01*
X58776Y10267D01*
X58790Y10282D01*
X58804Y10293D01*
X58817Y10303D01*
X58827Y10310D01*
X58834Y10313D01*
X58837Y10314D01*
X58848Y10319D01*
X58861Y10323D01*
X58889Y10330D01*
X58918Y10334D01*
X58948Y10338D01*
X58975Y10340D01*
X58988D01*
X58997Y10341D01*
X59351D01*
Y9388D01*
D02*
G37*
G36*
X58346Y10313D02*
X58360Y10285D01*
X58376Y10259D01*
X58391Y10238D01*
X58405Y10220D01*
X58417Y10206D01*
X58425Y10197D01*
X58426Y10196D01*
X58428Y10195D01*
X58453Y10172D01*
X58477Y10154D01*
X58498Y10138D01*
X58518Y10126D01*
X58535Y10117D01*
X58546Y10110D01*
X58555Y10107D01*
X58556Y10106D01*
X58558D01*
Y9939D01*
X58518Y9958D01*
X58480Y9979D01*
X58448Y10003D01*
X58419Y10025D01*
X58407Y10035D01*
X58395Y10045D01*
X58386Y10055D01*
X58379Y10062D01*
X58371Y10069D01*
X58367Y10073D01*
X58364Y10076D01*
X58363Y10078D01*
Y9388D01*
X58212D01*
Y10344D01*
X58335D01*
X58346Y10313D01*
D02*
G37*
G36*
X62963Y40917D02*
X62991Y40913D01*
X63017Y40907D01*
X63042Y40900D01*
X63065Y40890D01*
X63086Y40880D01*
X63105Y40869D01*
X63122Y40859D01*
X63138Y40848D01*
X63152Y40837D01*
X63163Y40827D01*
X63173Y40817D01*
X63180Y40810D01*
X63186Y40804D01*
X63189Y40800D01*
X63190Y40799D01*
X63210Y40772D01*
X63227Y40742D01*
X63241Y40713D01*
X63253Y40682D01*
X63265Y40649D01*
X63273Y40618D01*
X63280Y40587D01*
X63286Y40556D01*
X63290Y40528D01*
X63294Y40503D01*
X63297Y40479D01*
X63299Y40457D01*
Y40442D01*
X63300Y40429D01*
Y40421D01*
Y40419D01*
Y40418D01*
X63299Y40376D01*
X63296Y40336D01*
X63290Y40298D01*
X63283Y40263D01*
X63275Y40231D01*
X63266Y40201D01*
X63256Y40173D01*
X63245Y40149D01*
X63235Y40126D01*
X63225Y40106D01*
X63217Y40090D01*
X63208Y40077D01*
X63201Y40066D01*
X63196Y40057D01*
X63193Y40053D01*
X63191Y40051D01*
X63173Y40030D01*
X63153Y40013D01*
X63134Y39998D01*
X63113Y39984D01*
X63091Y39973D01*
X63072Y39963D01*
X63052Y39956D01*
X63032Y39949D01*
X63014Y39944D01*
X62997Y39940D01*
X62981Y39939D01*
X62969Y39936D01*
X62957D01*
X62950Y39934D01*
X62943D01*
X62921Y39936D01*
X62900Y39937D01*
X62860Y39946D01*
X62825Y39957D01*
X62809Y39964D01*
X62795Y39971D01*
X62783Y39978D01*
X62771Y39985D01*
X62761Y39991D01*
X62754Y39996D01*
X62747Y40001D01*
X62743Y40005D01*
X62740Y40006D01*
X62739Y40008D01*
X62723Y40023D01*
X62709Y40039D01*
X62685Y40075D01*
X62664Y40115D01*
X62647Y40153D01*
X62640Y40171D01*
X62635Y40188D01*
X62630Y40204D01*
X62626Y40216D01*
X62623Y40228D01*
X62621Y40236D01*
X62619Y40242D01*
Y40243D01*
X62773Y40302D01*
X62781Y40264D01*
X62793Y40233D01*
X62802Y40207D01*
X62814Y40185D01*
X62824Y40168D01*
X62832Y40157D01*
X62838Y40150D01*
X62839Y40147D01*
X62856Y40132D01*
X62874Y40119D01*
X62893Y40111D01*
X62910Y40105D01*
X62924Y40102D01*
X62936Y40101D01*
X62943Y40099D01*
X62946D01*
X62962Y40101D01*
X62976Y40102D01*
X63004Y40111D01*
X63027Y40123D01*
X63046Y40137D01*
X63063Y40150D01*
X63074Y40163D01*
X63082Y40171D01*
X63084Y40173D01*
Y40174D01*
X63093Y40190D01*
X63101Y40207D01*
X63108Y40226D01*
X63114Y40246D01*
X63124Y40288D01*
X63129Y40331D01*
X63132Y40350D01*
X63134Y40369D01*
X63135Y40386D01*
Y40400D01*
X63136Y40412D01*
Y40421D01*
Y40428D01*
Y40429D01*
Y40460D01*
X63134Y40490D01*
X63131Y40517D01*
X63128Y40541D01*
X63124Y40563D01*
X63120Y40584D01*
X63115Y40603D01*
X63110Y40618D01*
X63104Y40632D01*
X63100Y40645D01*
X63096Y40655D01*
X63091Y40663D01*
X63087Y40669D01*
X63086Y40675D01*
X63083Y40676D01*
Y40677D01*
X63072Y40691D01*
X63060Y40703D01*
X63049Y40713D01*
X63038Y40721D01*
X63014Y40735D01*
X62991Y40744D01*
X62972Y40749D01*
X62956Y40752D01*
X62950Y40754D01*
X62942D01*
X62919Y40752D01*
X62900Y40746D01*
X62883Y40741D01*
X62867Y40732D01*
X62855Y40725D01*
X62845Y40718D01*
X62839Y40713D01*
X62838Y40711D01*
X62822Y40694D01*
X62809Y40676D01*
X62798Y40656D01*
X62790Y40637D01*
X62784Y40620D01*
X62780Y40605D01*
X62778Y40600D01*
Y40596D01*
X62777Y40594D01*
Y40593D01*
X62621Y40638D01*
X62626Y40660D01*
X62633Y40682D01*
X62640Y40701D01*
X62647Y40721D01*
X62656Y40738D01*
X62663Y40754D01*
X62671Y40766D01*
X62678Y40779D01*
X62685Y40790D01*
X62692Y40800D01*
X62698Y40808D01*
X62704Y40816D01*
X62708Y40820D01*
X62711Y40824D01*
X62712Y40827D01*
X62714D01*
X62730Y40842D01*
X62749Y40856D01*
X62767Y40869D01*
X62785Y40880D01*
X62804Y40889D01*
X62822Y40896D01*
X62857Y40907D01*
X62873Y40911D01*
X62887Y40914D01*
X62900Y40916D01*
X62911Y40917D01*
X62921Y40918D01*
X62933D01*
X62963Y40917D01*
D02*
G37*
G36*
X62267Y40875D02*
X62281Y40847D01*
X62296Y40821D01*
X62312Y40800D01*
X62326Y40782D01*
X62337Y40768D01*
X62346Y40759D01*
X62347Y40758D01*
X62348Y40756D01*
X62374Y40734D01*
X62398Y40715D01*
X62419Y40700D01*
X62439Y40687D01*
X62456Y40679D01*
X62467Y40672D01*
X62475Y40669D01*
X62477Y40668D01*
X62478D01*
Y40501D01*
X62439Y40520D01*
X62401Y40541D01*
X62368Y40565D01*
X62340Y40587D01*
X62327Y40597D01*
X62316Y40607D01*
X62306Y40617D01*
X62299Y40624D01*
X62292Y40631D01*
X62288Y40635D01*
X62285Y40638D01*
X62284Y40639D01*
Y39950D01*
X62133D01*
Y40906D01*
X62255D01*
X62267Y40875D01*
D02*
G37*
G36*
X62358Y38567D02*
X62387Y38563D01*
X62412Y38557D01*
X62437Y38550D01*
X62460Y38540D01*
X62481Y38530D01*
X62501Y38519D01*
X62518Y38509D01*
X62533Y38498D01*
X62547Y38487D01*
X62558Y38477D01*
X62568Y38467D01*
X62575Y38460D01*
X62581Y38454D01*
X62584Y38450D01*
X62585Y38449D01*
X62605Y38422D01*
X62622Y38392D01*
X62636Y38363D01*
X62649Y38332D01*
X62660Y38299D01*
X62668Y38268D01*
X62675Y38237D01*
X62681Y38206D01*
X62685Y38178D01*
X62690Y38153D01*
X62692Y38129D01*
X62694Y38107D01*
Y38092D01*
X62695Y38079D01*
Y38071D01*
Y38069D01*
Y38068D01*
X62694Y38026D01*
X62691Y37986D01*
X62685Y37948D01*
X62678Y37913D01*
X62670Y37881D01*
X62661Y37851D01*
X62652Y37823D01*
X62640Y37799D01*
X62630Y37776D01*
X62621Y37756D01*
X62612Y37740D01*
X62604Y37727D01*
X62597Y37716D01*
X62591Y37707D01*
X62588Y37703D01*
X62587Y37701D01*
X62568Y37680D01*
X62549Y37663D01*
X62529Y37648D01*
X62508Y37634D01*
X62487Y37623D01*
X62467Y37613D01*
X62447Y37606D01*
X62427Y37599D01*
X62409Y37594D01*
X62392Y37590D01*
X62377Y37589D01*
X62364Y37586D01*
X62353D01*
X62346Y37584D01*
X62339D01*
X62316Y37586D01*
X62295Y37587D01*
X62255Y37596D01*
X62220Y37607D01*
X62205Y37614D01*
X62191Y37621D01*
X62178Y37628D01*
X62167Y37635D01*
X62157Y37641D01*
X62150Y37646D01*
X62143Y37651D01*
X62138Y37655D01*
X62136Y37656D01*
X62134Y37658D01*
X62119Y37673D01*
X62105Y37689D01*
X62081Y37725D01*
X62059Y37765D01*
X62043Y37803D01*
X62035Y37821D01*
X62030Y37838D01*
X62026Y37854D01*
X62021Y37866D01*
X62019Y37878D01*
X62016Y37886D01*
X62014Y37892D01*
Y37893D01*
X62168Y37952D01*
X62176Y37914D01*
X62188Y37883D01*
X62198Y37857D01*
X62209Y37835D01*
X62219Y37818D01*
X62227Y37807D01*
X62233Y37800D01*
X62234Y37797D01*
X62251Y37782D01*
X62270Y37769D01*
X62288Y37761D01*
X62305Y37755D01*
X62319Y37752D01*
X62332Y37751D01*
X62339Y37749D01*
X62341D01*
X62357Y37751D01*
X62371Y37752D01*
X62399Y37761D01*
X62422Y37773D01*
X62441Y37787D01*
X62458Y37800D01*
X62470Y37813D01*
X62477Y37821D01*
X62480Y37823D01*
Y37824D01*
X62488Y37840D01*
X62496Y37857D01*
X62504Y37876D01*
X62509Y37896D01*
X62519Y37938D01*
X62525Y37981D01*
X62527Y38000D01*
X62529Y38019D01*
X62530Y38036D01*
Y38050D01*
X62532Y38062D01*
Y38071D01*
Y38078D01*
Y38079D01*
Y38110D01*
X62529Y38140D01*
X62526Y38167D01*
X62523Y38191D01*
X62519Y38213D01*
X62515Y38234D01*
X62511Y38253D01*
X62505Y38268D01*
X62499Y38282D01*
X62495Y38295D01*
X62491Y38305D01*
X62487Y38313D01*
X62482Y38319D01*
X62481Y38325D01*
X62478Y38326D01*
Y38327D01*
X62467Y38341D01*
X62456Y38353D01*
X62444Y38363D01*
X62433Y38371D01*
X62409Y38385D01*
X62387Y38394D01*
X62367Y38399D01*
X62351Y38402D01*
X62346Y38404D01*
X62337D01*
X62315Y38402D01*
X62295Y38396D01*
X62278Y38391D01*
X62262Y38382D01*
X62250Y38375D01*
X62240Y38368D01*
X62234Y38363D01*
X62233Y38361D01*
X62217Y38344D01*
X62205Y38326D01*
X62193Y38306D01*
X62185Y38287D01*
X62179Y38270D01*
X62175Y38255D01*
X62174Y38250D01*
Y38246D01*
X62172Y38244D01*
Y38243D01*
X62016Y38288D01*
X62021Y38310D01*
X62028Y38332D01*
X62035Y38351D01*
X62043Y38371D01*
X62051Y38388D01*
X62058Y38404D01*
X62067Y38416D01*
X62074Y38429D01*
X62081Y38440D01*
X62088Y38450D01*
X62093Y38458D01*
X62099Y38466D01*
X62103Y38470D01*
X62106Y38474D01*
X62107Y38477D01*
X62109D01*
X62126Y38492D01*
X62144Y38506D01*
X62162Y38519D01*
X62181Y38530D01*
X62199Y38539D01*
X62217Y38546D01*
X62253Y38557D01*
X62268Y38561D01*
X62282Y38564D01*
X62295Y38566D01*
X62306Y38567D01*
X62316Y38568D01*
X62329D01*
X62358Y38567D01*
D02*
G37*
G36*
X41663Y36167D02*
X41691Y36163D01*
X41717Y36157D01*
X41742Y36150D01*
X41765Y36140D01*
X41786Y36130D01*
X41805Y36119D01*
X41822Y36109D01*
X41838Y36098D01*
X41852Y36087D01*
X41863Y36077D01*
X41873Y36067D01*
X41880Y36060D01*
X41886Y36054D01*
X41889Y36050D01*
X41890Y36049D01*
X41910Y36022D01*
X41927Y35992D01*
X41941Y35963D01*
X41953Y35932D01*
X41965Y35899D01*
X41973Y35868D01*
X41980Y35837D01*
X41986Y35806D01*
X41990Y35778D01*
X41994Y35753D01*
X41997Y35729D01*
X41999Y35707D01*
Y35692D01*
X42000Y35679D01*
Y35671D01*
Y35669D01*
Y35668D01*
X41999Y35626D01*
X41996Y35586D01*
X41990Y35548D01*
X41983Y35513D01*
X41975Y35481D01*
X41966Y35451D01*
X41956Y35423D01*
X41945Y35399D01*
X41935Y35376D01*
X41925Y35356D01*
X41917Y35340D01*
X41908Y35327D01*
X41901Y35316D01*
X41896Y35307D01*
X41893Y35303D01*
X41891Y35301D01*
X41873Y35280D01*
X41853Y35263D01*
X41834Y35248D01*
X41813Y35234D01*
X41791Y35223D01*
X41772Y35213D01*
X41752Y35206D01*
X41732Y35199D01*
X41714Y35194D01*
X41697Y35190D01*
X41681Y35189D01*
X41669Y35186D01*
X41657D01*
X41650Y35184D01*
X41643D01*
X41621Y35186D01*
X41600Y35187D01*
X41560Y35196D01*
X41525Y35207D01*
X41509Y35214D01*
X41495Y35221D01*
X41483Y35228D01*
X41471Y35235D01*
X41461Y35241D01*
X41454Y35247D01*
X41447Y35251D01*
X41443Y35255D01*
X41440Y35256D01*
X41439Y35258D01*
X41423Y35273D01*
X41409Y35289D01*
X41385Y35325D01*
X41364Y35365D01*
X41347Y35403D01*
X41340Y35421D01*
X41335Y35438D01*
X41330Y35454D01*
X41326Y35466D01*
X41323Y35478D01*
X41321Y35486D01*
X41319Y35492D01*
Y35493D01*
X41473Y35552D01*
X41481Y35514D01*
X41493Y35483D01*
X41502Y35457D01*
X41514Y35435D01*
X41524Y35418D01*
X41532Y35407D01*
X41538Y35400D01*
X41539Y35397D01*
X41556Y35382D01*
X41574Y35369D01*
X41593Y35361D01*
X41610Y35355D01*
X41624Y35352D01*
X41636Y35351D01*
X41643Y35349D01*
X41646D01*
X41662Y35351D01*
X41676Y35352D01*
X41704Y35361D01*
X41727Y35373D01*
X41746Y35387D01*
X41763Y35400D01*
X41774Y35413D01*
X41782Y35421D01*
X41784Y35423D01*
Y35424D01*
X41793Y35440D01*
X41801Y35457D01*
X41808Y35476D01*
X41814Y35496D01*
X41824Y35538D01*
X41829Y35581D01*
X41832Y35600D01*
X41834Y35619D01*
X41835Y35636D01*
Y35650D01*
X41836Y35662D01*
Y35671D01*
Y35678D01*
Y35679D01*
Y35710D01*
X41834Y35740D01*
X41831Y35767D01*
X41828Y35791D01*
X41824Y35813D01*
X41820Y35834D01*
X41815Y35853D01*
X41810Y35868D01*
X41804Y35882D01*
X41800Y35895D01*
X41796Y35905D01*
X41791Y35913D01*
X41787Y35919D01*
X41786Y35925D01*
X41783Y35926D01*
Y35927D01*
X41772Y35942D01*
X41760Y35953D01*
X41749Y35963D01*
X41738Y35971D01*
X41714Y35985D01*
X41691Y35994D01*
X41672Y35999D01*
X41656Y36002D01*
X41650Y36004D01*
X41642D01*
X41619Y36002D01*
X41600Y35996D01*
X41583Y35991D01*
X41567Y35982D01*
X41555Y35975D01*
X41545Y35968D01*
X41539Y35963D01*
X41538Y35961D01*
X41522Y35944D01*
X41509Y35926D01*
X41498Y35906D01*
X41490Y35887D01*
X41484Y35870D01*
X41480Y35856D01*
X41478Y35850D01*
Y35846D01*
X41477Y35844D01*
Y35843D01*
X41321Y35888D01*
X41326Y35910D01*
X41333Y35932D01*
X41340Y35951D01*
X41347Y35971D01*
X41356Y35988D01*
X41363Y36004D01*
X41371Y36016D01*
X41378Y36029D01*
X41385Y36040D01*
X41392Y36050D01*
X41398Y36059D01*
X41404Y36066D01*
X41408Y36070D01*
X41411Y36074D01*
X41412Y36077D01*
X41414D01*
X41430Y36092D01*
X41449Y36106D01*
X41467Y36119D01*
X41485Y36130D01*
X41504Y36139D01*
X41522Y36146D01*
X41557Y36157D01*
X41573Y36161D01*
X41587Y36164D01*
X41600Y36166D01*
X41611Y36167D01*
X41621Y36168D01*
X41633D01*
X41663Y36167D01*
D02*
G37*
G36*
X40967Y36125D02*
X40981Y36097D01*
X40996Y36071D01*
X41012Y36050D01*
X41026Y36032D01*
X41037Y36018D01*
X41046Y36009D01*
X41047Y36008D01*
X41048Y36006D01*
X41074Y35984D01*
X41098Y35965D01*
X41119Y35950D01*
X41139Y35937D01*
X41156Y35929D01*
X41167Y35922D01*
X41175Y35919D01*
X41177Y35918D01*
X41178D01*
Y35751D01*
X41139Y35770D01*
X41101Y35791D01*
X41068Y35815D01*
X41040Y35837D01*
X41027Y35847D01*
X41016Y35857D01*
X41006Y35867D01*
X40999Y35874D01*
X40992Y35881D01*
X40988Y35885D01*
X40985Y35888D01*
X40984Y35889D01*
Y35200D01*
X40833D01*
Y36156D01*
X40955D01*
X40967Y36125D01*
D02*
G37*
G36*
X40590Y35644D02*
X40469Y35623D01*
X40459Y35636D01*
X40449Y35645D01*
X40439Y35655D01*
X40430Y35662D01*
X40410Y35675D01*
X40392Y35684D01*
X40376Y35688D01*
X40365Y35691D01*
X40356Y35692D01*
X40353D01*
X40335Y35691D01*
X40320Y35685D01*
X40304Y35678D01*
X40293Y35671D01*
X40283Y35662D01*
X40276Y35655D01*
X40272Y35650D01*
X40270Y35648D01*
X40259Y35630D01*
X40251Y35610D01*
X40245Y35588D01*
X40241Y35567D01*
X40238Y35547D01*
X40236Y35531D01*
Y35524D01*
Y35520D01*
Y35517D01*
Y35516D01*
X40238Y35483D01*
X40242Y35454D01*
X40248Y35430D01*
X40253Y35410D01*
X40259Y35396D01*
X40265Y35385D01*
X40269Y35379D01*
X40270Y35376D01*
X40283Y35361D01*
X40296Y35351D01*
X40310Y35342D01*
X40322Y35337D01*
X40332Y35334D01*
X40341Y35333D01*
X40348Y35331D01*
X40349D01*
X40363Y35333D01*
X40376Y35337D01*
X40389Y35342D01*
X40399Y35349D01*
X40407Y35355D01*
X40414Y35361D01*
X40418Y35365D01*
X40420Y35366D01*
X40431Y35380D01*
X40439Y35397D01*
X40447Y35413D01*
X40451Y35428D01*
X40454Y35442D01*
X40456Y35455D01*
X40458Y35462D01*
Y35465D01*
X40607Y35445D01*
X40600Y35402D01*
X40595Y35380D01*
X40589Y35362D01*
X40582Y35345D01*
X40575Y35330D01*
X40568Y35314D01*
X40561Y35301D01*
X40554Y35290D01*
X40547Y35280D01*
X40541Y35272D01*
X40535Y35265D01*
X40531Y35259D01*
X40527Y35255D01*
X40525Y35254D01*
X40524Y35252D01*
X40510Y35241D01*
X40496Y35230D01*
X40468Y35213D01*
X40438Y35201D01*
X40411Y35193D01*
X40387Y35189D01*
X40376Y35186D01*
X40368D01*
X40361Y35184D01*
X40351D01*
X40327Y35186D01*
X40306Y35189D01*
X40284Y35194D01*
X40266Y35201D01*
X40248Y35208D01*
X40232Y35217D01*
X40217Y35227D01*
X40204Y35237D01*
X40193Y35247D01*
X40181Y35256D01*
X40173Y35265D01*
X40166Y35272D01*
X40160Y35279D01*
X40156Y35285D01*
X40155Y35287D01*
X40153Y35289D01*
X40141Y35309D01*
X40129Y35330D01*
X40121Y35349D01*
X40112Y35369D01*
X40100Y35409D01*
X40091Y35444D01*
X40088Y35461D01*
X40087Y35475D01*
X40084Y35488D01*
Y35499D01*
X40083Y35507D01*
Y35514D01*
Y35519D01*
Y35520D01*
X40084Y35548D01*
X40086Y35575D01*
X40090Y35599D01*
X40096Y35623D01*
X40101Y35644D01*
X40108Y35665D01*
X40117Y35684D01*
X40124Y35700D01*
X40131Y35715D01*
X40139Y35727D01*
X40146Y35739D01*
X40152Y35748D01*
X40158Y35755D01*
X40160Y35761D01*
X40163Y35764D01*
X40165Y35765D01*
X40177Y35778D01*
X40190Y35789D01*
X40203Y35799D01*
X40217Y35808D01*
X40244Y35820D01*
X40267Y35830D01*
X40290Y35834D01*
X40298Y35836D01*
X40307Y35837D01*
X40314Y35839D01*
X40322D01*
X40342Y35837D01*
X40361Y35833D01*
X40377Y35829D01*
X40393Y35823D01*
X40407Y35816D01*
X40417Y35812D01*
X40423Y35808D01*
X40425Y35806D01*
X40400Y35970D01*
X40118D01*
Y36140D01*
X40514D01*
X40590Y35644D01*
D02*
G37*
G36*
X57753Y10343D02*
X57772Y10341D01*
X57808Y10333D01*
X57839Y10323D01*
X57864Y10310D01*
X57885Y10298D01*
X57892Y10290D01*
X57899Y10286D01*
X57905Y10282D01*
X57909Y10278D01*
X57911Y10276D01*
X57912Y10275D01*
X57925Y10261D01*
X57934Y10247D01*
X57953Y10213D01*
X57967Y10178D01*
X57977Y10144D01*
X57981Y10127D01*
X57985Y10111D01*
X57987Y10097D01*
X57989Y10086D01*
X57991Y10076D01*
Y10069D01*
X57992Y10064D01*
Y10062D01*
X57843Y10042D01*
X57840Y10069D01*
X57836Y10092D01*
X57830Y10111D01*
X57823Y10128D01*
X57815Y10144D01*
X57806Y10155D01*
X57796Y10165D01*
X57786Y10173D01*
X57777Y10179D01*
X57768Y10183D01*
X57751Y10189D01*
X57746Y10190D01*
X57740Y10192D01*
X57736D01*
X57720Y10190D01*
X57705Y10186D01*
X57692Y10182D01*
X57682Y10176D01*
X57674Y10169D01*
X57668Y10165D01*
X57664Y10161D01*
X57662Y10159D01*
X57653Y10147D01*
X57646Y10131D01*
X57641Y10116D01*
X57637Y10100D01*
X57636Y10086D01*
X57634Y10075D01*
Y10068D01*
Y10066D01*
Y10065D01*
X57636Y10044D01*
X57640Y10023D01*
X57646Y10003D01*
X57651Y9986D01*
X57657Y9970D01*
X57662Y9959D01*
X57667Y9952D01*
X57668Y9949D01*
X57674Y9941D01*
X57681Y9931D01*
X57698Y9908D01*
X57717Y9884D01*
X57739Y9859D01*
X57758Y9835D01*
X57767Y9824D01*
X57775Y9815D01*
X57781Y9808D01*
X57786Y9803D01*
X57789Y9798D01*
X57791Y9797D01*
X57813Y9772D01*
X57833Y9746D01*
X57853Y9724D01*
X57870Y9703D01*
X57885Y9681D01*
X57898Y9663D01*
X57911Y9646D01*
X57920Y9631D01*
X57930Y9617D01*
X57939Y9605D01*
X57944Y9594D01*
X57950Y9586D01*
X57954Y9579D01*
X57956Y9574D01*
X57958Y9572D01*
Y9570D01*
X57973Y9538D01*
X57984Y9505D01*
X57994Y9474D01*
X57999Y9447D01*
X58004Y9424D01*
X58006Y9414D01*
X58008Y9405D01*
Y9398D01*
X58009Y9392D01*
Y9390D01*
Y9388D01*
X57483D01*
Y9557D01*
X57782D01*
X57772Y9576D01*
X57763Y9591D01*
X57758Y9597D01*
X57754Y9603D01*
X57753Y9605D01*
X57751Y9607D01*
X57741Y9619D01*
X57729Y9635D01*
X57713Y9652D01*
X57698Y9670D01*
X57684Y9687D01*
X57671Y9701D01*
X57667Y9707D01*
X57662Y9711D01*
X57661Y9712D01*
X57660Y9714D01*
X57633Y9745D01*
X57610Y9773D01*
X57591Y9797D01*
X57575Y9818D01*
X57564Y9834D01*
X57555Y9846D01*
X57551Y9853D01*
X57550Y9856D01*
X57538Y9877D01*
X57527Y9897D01*
X57519Y9915D01*
X57512Y9932D01*
X57507Y9946D01*
X57503Y9956D01*
X57500Y9963D01*
Y9966D01*
X57495Y9987D01*
X57490Y10007D01*
X57488Y10027D01*
X57485Y10044D01*
Y10059D01*
X57483Y10071D01*
Y10078D01*
Y10080D01*
Y10100D01*
X57486Y10118D01*
X57493Y10152D01*
X57503Y10183D01*
X57514Y10210D01*
X57527Y10233D01*
X57533Y10243D01*
X57537Y10250D01*
X57541Y10255D01*
X57544Y10259D01*
X57545Y10262D01*
X57547Y10264D01*
X57560Y10278D01*
X57572Y10290D01*
X57586Y10300D01*
X57602Y10310D01*
X57617Y10319D01*
X57633Y10324D01*
X57662Y10334D01*
X57691Y10340D01*
X57702Y10341D01*
X57713Y10343D01*
X57722Y10344D01*
X57733D01*
X57753Y10343D01*
D02*
G37*
G36*
X45329Y29863D02*
X45159D01*
Y30161D01*
X45141Y30152D01*
X45126Y30142D01*
X45120Y30137D01*
X45114Y30133D01*
X45111Y30132D01*
X45110Y30130D01*
X45097Y30121D01*
X45082Y30108D01*
X45065Y30092D01*
X45047Y30077D01*
X45030Y30063D01*
X45016Y30050D01*
X45010Y30046D01*
X45006Y30042D01*
X45004Y30040D01*
X45003Y30039D01*
X44972Y30012D01*
X44944Y29989D01*
X44920Y29970D01*
X44899Y29954D01*
X44883Y29943D01*
X44870Y29934D01*
X44863Y29930D01*
X44861Y29929D01*
X44839Y29917D01*
X44820Y29906D01*
X44801Y29898D01*
X44784Y29891D01*
X44770Y29886D01*
X44760Y29882D01*
X44753Y29879D01*
X44751D01*
X44729Y29874D01*
X44710Y29870D01*
X44690Y29867D01*
X44673Y29864D01*
X44658D01*
X44646Y29863D01*
X44617D01*
X44598Y29865D01*
X44564Y29872D01*
X44533Y29882D01*
X44507Y29894D01*
X44484Y29906D01*
X44474Y29912D01*
X44467Y29916D01*
X44462Y29920D01*
X44457Y29923D01*
X44455Y29925D01*
X44453Y29926D01*
X44439Y29939D01*
X44426Y29951D01*
X44416Y29965D01*
X44407Y29981D01*
X44398Y29996D01*
X44393Y30012D01*
X44383Y30042D01*
X44377Y30070D01*
X44376Y30081D01*
X44374Y30092D01*
X44373Y30101D01*
Y30106D01*
Y30111D01*
Y30112D01*
X44374Y30132D01*
X44376Y30152D01*
X44384Y30187D01*
X44394Y30218D01*
X44407Y30243D01*
X44419Y30264D01*
X44426Y30271D01*
X44431Y30278D01*
X44435Y30284D01*
X44439Y30288D01*
X44440Y30290D01*
X44442Y30291D01*
X44456Y30304D01*
X44470Y30314D01*
X44504Y30332D01*
X44539Y30346D01*
X44573Y30356D01*
X44590Y30360D01*
X44605Y30364D01*
X44619Y30366D01*
X44631Y30369D01*
X44641Y30370D01*
X44648D01*
X44653Y30371D01*
X44655D01*
X44674Y30222D01*
X44648Y30219D01*
X44625Y30215D01*
X44605Y30209D01*
X44588Y30202D01*
X44573Y30194D01*
X44562Y30185D01*
X44552Y30175D01*
X44543Y30166D01*
X44538Y30156D01*
X44533Y30147D01*
X44528Y30130D01*
X44526Y30125D01*
X44525Y30119D01*
Y30116D01*
Y30115D01*
X44526Y30099D01*
X44531Y30084D01*
X44535Y30071D01*
X44541Y30061D01*
X44548Y30053D01*
X44552Y30047D01*
X44556Y30043D01*
X44557Y30042D01*
X44570Y30032D01*
X44586Y30025D01*
X44601Y30020D01*
X44617Y30016D01*
X44631Y30015D01*
X44642Y30013D01*
X44652D01*
X44673Y30015D01*
X44694Y30019D01*
X44714Y30025D01*
X44731Y30030D01*
X44746Y30036D01*
X44758Y30042D01*
X44765Y30046D01*
X44767Y30047D01*
X44776Y30053D01*
X44786Y30060D01*
X44808Y30077D01*
X44832Y30097D01*
X44858Y30118D01*
X44882Y30137D01*
X44893Y30146D01*
X44901Y30154D01*
X44908Y30160D01*
X44914Y30166D01*
X44918Y30168D01*
X44920Y30170D01*
X44945Y30192D01*
X44970Y30212D01*
X44993Y30232D01*
X45014Y30249D01*
X45035Y30264D01*
X45054Y30277D01*
X45071Y30290D01*
X45086Y30300D01*
X45100Y30309D01*
X45111Y30318D01*
X45123Y30323D01*
X45131Y30329D01*
X45138Y30333D01*
X45142Y30335D01*
X45145Y30338D01*
X45147D01*
X45179Y30352D01*
X45212Y30363D01*
X45243Y30373D01*
X45269Y30378D01*
X45293Y30383D01*
X45303Y30386D01*
X45312Y30387D01*
X45319D01*
X45324Y30388D01*
X45329D01*
Y29863D01*
D02*
G37*
G36*
Y30449D02*
X45168D01*
Y30841D01*
X44383D01*
Y30999D01*
X45329D01*
Y30449D01*
D02*
G37*
G36*
X43252Y43428D02*
X43856D01*
Y43302D01*
X43251Y42963D01*
X43092D01*
Y43283D01*
X42900D01*
Y43428D01*
X43092D01*
Y43526D01*
X43252D01*
Y43428D01*
D02*
G37*
G36*
X54067Y48225D02*
X54081Y48197D01*
X54096Y48171D01*
X54112Y48150D01*
X54126Y48132D01*
X54137Y48118D01*
X54146Y48109D01*
X54147Y48108D01*
X54148Y48106D01*
X54174Y48084D01*
X54198Y48065D01*
X54219Y48050D01*
X54239Y48037D01*
X54256Y48029D01*
X54267Y48022D01*
X54275Y48019D01*
X54277Y48018D01*
X54278D01*
Y47851D01*
X54239Y47870D01*
X54201Y47891D01*
X54168Y47915D01*
X54140Y47937D01*
X54127Y47947D01*
X54116Y47957D01*
X54106Y47967D01*
X54099Y47974D01*
X54092Y47981D01*
X54088Y47985D01*
X54085Y47988D01*
X54084Y47989D01*
Y47300D01*
X53933D01*
Y48256D01*
X54055D01*
X54067Y48225D01*
D02*
G37*
G36*
X54763Y48267D02*
X54791Y48263D01*
X54817Y48257D01*
X54842Y48250D01*
X54865Y48240D01*
X54886Y48230D01*
X54905Y48219D01*
X54922Y48209D01*
X54938Y48198D01*
X54952Y48187D01*
X54963Y48177D01*
X54973Y48167D01*
X54980Y48160D01*
X54986Y48154D01*
X54989Y48150D01*
X54990Y48149D01*
X55010Y48122D01*
X55027Y48092D01*
X55041Y48063D01*
X55053Y48032D01*
X55065Y47999D01*
X55073Y47968D01*
X55080Y47937D01*
X55086Y47906D01*
X55090Y47878D01*
X55094Y47853D01*
X55097Y47829D01*
X55099Y47807D01*
Y47792D01*
X55100Y47779D01*
Y47771D01*
Y47769D01*
Y47768D01*
X55099Y47726D01*
X55096Y47686D01*
X55090Y47648D01*
X55083Y47613D01*
X55075Y47581D01*
X55066Y47551D01*
X55056Y47523D01*
X55045Y47499D01*
X55035Y47476D01*
X55025Y47456D01*
X55017Y47440D01*
X55008Y47427D01*
X55001Y47416D01*
X54996Y47407D01*
X54993Y47403D01*
X54991Y47402D01*
X54973Y47380D01*
X54953Y47363D01*
X54934Y47348D01*
X54913Y47334D01*
X54891Y47323D01*
X54872Y47313D01*
X54852Y47306D01*
X54832Y47299D01*
X54814Y47294D01*
X54797Y47290D01*
X54781Y47289D01*
X54769Y47286D01*
X54757D01*
X54750Y47284D01*
X54743D01*
X54721Y47286D01*
X54700Y47287D01*
X54660Y47296D01*
X54625Y47307D01*
X54609Y47314D01*
X54595Y47321D01*
X54583Y47328D01*
X54571Y47335D01*
X54561Y47341D01*
X54554Y47347D01*
X54547Y47351D01*
X54543Y47355D01*
X54540Y47356D01*
X54539Y47358D01*
X54523Y47373D01*
X54509Y47389D01*
X54485Y47425D01*
X54464Y47465D01*
X54447Y47503D01*
X54440Y47521D01*
X54435Y47538D01*
X54430Y47554D01*
X54426Y47566D01*
X54423Y47578D01*
X54421Y47586D01*
X54419Y47592D01*
Y47593D01*
X54573Y47652D01*
X54581Y47614D01*
X54593Y47583D01*
X54602Y47557D01*
X54614Y47535D01*
X54624Y47519D01*
X54632Y47507D01*
X54638Y47500D01*
X54639Y47497D01*
X54656Y47482D01*
X54674Y47469D01*
X54693Y47461D01*
X54710Y47455D01*
X54724Y47452D01*
X54736Y47451D01*
X54743Y47449D01*
X54746D01*
X54762Y47451D01*
X54776Y47452D01*
X54804Y47461D01*
X54827Y47473D01*
X54846Y47487D01*
X54863Y47500D01*
X54874Y47513D01*
X54882Y47521D01*
X54884Y47523D01*
Y47524D01*
X54893Y47540D01*
X54901Y47557D01*
X54908Y47576D01*
X54914Y47596D01*
X54924Y47638D01*
X54929Y47681D01*
X54932Y47700D01*
X54934Y47719D01*
X54935Y47736D01*
Y47750D01*
X54936Y47762D01*
Y47771D01*
Y47778D01*
Y47779D01*
Y47810D01*
X54934Y47840D01*
X54931Y47867D01*
X54928Y47891D01*
X54924Y47913D01*
X54920Y47934D01*
X54915Y47953D01*
X54910Y47968D01*
X54904Y47982D01*
X54900Y47995D01*
X54896Y48005D01*
X54891Y48013D01*
X54887Y48019D01*
X54886Y48025D01*
X54883Y48026D01*
Y48027D01*
X54872Y48042D01*
X54860Y48053D01*
X54849Y48063D01*
X54838Y48071D01*
X54814Y48085D01*
X54791Y48094D01*
X54772Y48099D01*
X54756Y48102D01*
X54750Y48104D01*
X54742D01*
X54719Y48102D01*
X54700Y48096D01*
X54683Y48091D01*
X54667Y48082D01*
X54655Y48075D01*
X54645Y48068D01*
X54639Y48063D01*
X54638Y48061D01*
X54622Y48044D01*
X54609Y48026D01*
X54598Y48006D01*
X54590Y47987D01*
X54584Y47970D01*
X54580Y47956D01*
X54578Y47950D01*
Y47946D01*
X54577Y47944D01*
Y47943D01*
X54421Y47988D01*
X54426Y48010D01*
X54433Y48032D01*
X54440Y48051D01*
X54447Y48071D01*
X54456Y48088D01*
X54463Y48104D01*
X54471Y48116D01*
X54478Y48129D01*
X54485Y48140D01*
X54492Y48150D01*
X54498Y48159D01*
X54504Y48166D01*
X54508Y48170D01*
X54511Y48174D01*
X54512Y48177D01*
X54514D01*
X54530Y48192D01*
X54549Y48206D01*
X54567Y48219D01*
X54585Y48230D01*
X54604Y48239D01*
X54622Y48246D01*
X54657Y48257D01*
X54673Y48261D01*
X54687Y48264D01*
X54700Y48266D01*
X54711Y48267D01*
X54721Y48268D01*
X54733D01*
X54763Y48267D01*
D02*
G37*
G36*
X53459Y48225D02*
X53473Y48197D01*
X53489Y48171D01*
X53504Y48150D01*
X53518Y48132D01*
X53530Y48118D01*
X53538Y48109D01*
X53539Y48108D01*
X53541Y48106D01*
X53566Y48084D01*
X53590Y48065D01*
X53611Y48050D01*
X53631Y48037D01*
X53648Y48029D01*
X53659Y48022D01*
X53668Y48019D01*
X53669Y48018D01*
X53671D01*
Y47851D01*
X53631Y47870D01*
X53593Y47891D01*
X53561Y47915D01*
X53532Y47937D01*
X53520Y47947D01*
X53508Y47957D01*
X53499Y47967D01*
X53492Y47974D01*
X53484Y47981D01*
X53480Y47985D01*
X53477Y47988D01*
X53476Y47989D01*
Y47300D01*
X53325D01*
Y48256D01*
X53448D01*
X53459Y48225D01*
D02*
G37*
G36*
X43856Y42645D02*
X43825Y42633D01*
X43797Y42619D01*
X43771Y42604D01*
X43750Y42588D01*
X43732Y42574D01*
X43718Y42563D01*
X43709Y42554D01*
X43708Y42553D01*
X43706Y42552D01*
X43684Y42526D01*
X43665Y42502D01*
X43650Y42481D01*
X43637Y42461D01*
X43629Y42444D01*
X43622Y42433D01*
X43619Y42425D01*
X43618Y42423D01*
Y42422D01*
X43451D01*
X43470Y42461D01*
X43491Y42499D01*
X43515Y42532D01*
X43537Y42560D01*
X43547Y42573D01*
X43557Y42584D01*
X43567Y42594D01*
X43574Y42601D01*
X43581Y42608D01*
X43585Y42612D01*
X43588Y42615D01*
X43589Y42616D01*
X42900D01*
Y42767D01*
X43856D01*
Y42645D01*
D02*
G37*
G36*
X61473Y35986D02*
X61493Y35984D01*
X61528Y35976D01*
X61559Y35966D01*
X61585Y35953D01*
X61606Y35941D01*
X61613Y35934D01*
X61620Y35929D01*
X61625Y35925D01*
X61630Y35921D01*
X61631Y35920D01*
X61632Y35918D01*
X61645Y35904D01*
X61655Y35890D01*
X61673Y35856D01*
X61687Y35821D01*
X61697Y35787D01*
X61702Y35770D01*
X61706Y35755D01*
X61707Y35741D01*
X61710Y35729D01*
X61711Y35719D01*
Y35712D01*
X61713Y35707D01*
Y35705D01*
X61563Y35686D01*
X61561Y35712D01*
X61556Y35735D01*
X61551Y35755D01*
X61544Y35772D01*
X61535Y35787D01*
X61527Y35798D01*
X61517Y35808D01*
X61507Y35817D01*
X61497Y35822D01*
X61489Y35826D01*
X61472Y35832D01*
X61466Y35834D01*
X61461Y35835D01*
X61456D01*
X61441Y35834D01*
X61425Y35829D01*
X61413Y35825D01*
X61403Y35819D01*
X61394Y35812D01*
X61389Y35808D01*
X61384Y35804D01*
X61383Y35803D01*
X61373Y35790D01*
X61366Y35774D01*
X61362Y35759D01*
X61358Y35743D01*
X61356Y35729D01*
X61355Y35718D01*
Y35711D01*
Y35709D01*
Y35708D01*
X61356Y35687D01*
X61360Y35666D01*
X61366Y35646D01*
X61372Y35629D01*
X61377Y35614D01*
X61383Y35602D01*
X61387Y35595D01*
X61389Y35592D01*
X61394Y35584D01*
X61401Y35574D01*
X61418Y35552D01*
X61438Y35528D01*
X61459Y35502D01*
X61479Y35478D01*
X61487Y35467D01*
X61496Y35459D01*
X61501Y35452D01*
X61507Y35446D01*
X61510Y35442D01*
X61511Y35440D01*
X61534Y35415D01*
X61554Y35389D01*
X61573Y35367D01*
X61590Y35346D01*
X61606Y35325D01*
X61618Y35306D01*
X61631Y35289D01*
X61641Y35274D01*
X61651Y35260D01*
X61659Y35249D01*
X61665Y35237D01*
X61671Y35229D01*
X61675Y35222D01*
X61676Y35218D01*
X61679Y35215D01*
Y35213D01*
X61693Y35181D01*
X61704Y35148D01*
X61714Y35117D01*
X61720Y35091D01*
X61724Y35067D01*
X61727Y35057D01*
X61728Y35048D01*
Y35041D01*
X61730Y35036D01*
Y35033D01*
Y35031D01*
X61204D01*
Y35201D01*
X61503D01*
X61493Y35219D01*
X61483Y35234D01*
X61479Y35240D01*
X61475Y35246D01*
X61473Y35249D01*
X61472Y35250D01*
X61462Y35263D01*
X61449Y35278D01*
X61434Y35295D01*
X61418Y35313D01*
X61404Y35330D01*
X61391Y35344D01*
X61387Y35350D01*
X61383Y35354D01*
X61382Y35356D01*
X61380Y35357D01*
X61353Y35388D01*
X61331Y35416D01*
X61311Y35440D01*
X61296Y35461D01*
X61284Y35477D01*
X61276Y35490D01*
X61272Y35497D01*
X61270Y35499D01*
X61259Y35521D01*
X61248Y35540D01*
X61239Y35559D01*
X61232Y35576D01*
X61228Y35590D01*
X61224Y35600D01*
X61221Y35607D01*
Y35609D01*
X61215Y35631D01*
X61211Y35650D01*
X61208Y35670D01*
X61205Y35687D01*
Y35702D01*
X61204Y35714D01*
Y35721D01*
Y35724D01*
Y35743D01*
X61207Y35762D01*
X61214Y35795D01*
X61224Y35826D01*
X61235Y35853D01*
X61248Y35876D01*
X61253Y35886D01*
X61258Y35893D01*
X61262Y35898D01*
X61265Y35903D01*
X61266Y35905D01*
X61267Y35907D01*
X61280Y35921D01*
X61293Y35934D01*
X61307Y35944D01*
X61322Y35953D01*
X61338Y35962D01*
X61353Y35967D01*
X61383Y35977D01*
X61411Y35983D01*
X61422Y35984D01*
X61434Y35986D01*
X61442Y35987D01*
X61453D01*
X61473Y35986D01*
D02*
G37*
G36*
X61679Y40904D02*
X61699Y40902D01*
X61717Y40896D01*
X61734Y40889D01*
X61765Y40872D01*
X61792Y40852D01*
X61813Y40831D01*
X61821Y40823D01*
X61828Y40814D01*
X61834Y40807D01*
X61838Y40801D01*
X61840Y40799D01*
X61841Y40797D01*
X61854Y40775D01*
X61864Y40749D01*
X61873Y40722D01*
X61880Y40693D01*
X61893Y40631D01*
X61902Y40569D01*
X61904Y40539D01*
X61906Y40511D01*
X61907Y40486D01*
X61909Y40465D01*
X61910Y40446D01*
Y40432D01*
Y40428D01*
Y40424D01*
Y40422D01*
Y40421D01*
X61909Y40371D01*
X61907Y40326D01*
X61903Y40284D01*
X61899Y40246D01*
X61895Y40211D01*
X61887Y40180D01*
X61882Y40153D01*
X61875Y40128D01*
X61869Y40106D01*
X61862Y40088D01*
X61856Y40074D01*
X61852Y40061D01*
X61847Y40051D01*
X61844Y40046D01*
X61842Y40042D01*
X61841Y40040D01*
X61827Y40022D01*
X61813Y40005D01*
X61797Y39991D01*
X61782Y39980D01*
X61766Y39968D01*
X61752Y39960D01*
X61737Y39953D01*
X61723Y39947D01*
X61696Y39940D01*
X61684Y39937D01*
X61675Y39936D01*
X61668D01*
X61662Y39934D01*
X61656D01*
X61635Y39936D01*
X61615Y39939D01*
X61597Y39944D01*
X61580Y39951D01*
X61549Y39968D01*
X61522Y39988D01*
X61501Y40008D01*
X61493Y40016D01*
X61486Y40025D01*
X61480Y40032D01*
X61476Y40037D01*
X61474Y40040D01*
X61473Y40042D01*
X61460Y40064D01*
X61449Y40090D01*
X61441Y40116D01*
X61432Y40146D01*
X61419Y40209D01*
X61411Y40271D01*
X61408Y40301D01*
X61407Y40329D01*
X61404Y40353D01*
Y40376D01*
X61403Y40394D01*
Y40408D01*
Y40412D01*
Y40417D01*
Y40418D01*
Y40419D01*
X61404Y40469D01*
X61405Y40512D01*
X61410Y40555D01*
X61414Y40591D01*
X61419Y40627D01*
X61425Y40658D01*
X61431Y40684D01*
X61438Y40710D01*
X61445Y40731D01*
X61450Y40749D01*
X61456Y40763D01*
X61462Y40776D01*
X61466Y40786D01*
X61470Y40792D01*
X61472Y40796D01*
X61473Y40797D01*
X61487Y40817D01*
X61501Y40832D01*
X61517Y40848D01*
X61532Y40861D01*
X61548Y40871D01*
X61562Y40879D01*
X61577Y40886D01*
X61591Y40892D01*
X61618Y40900D01*
X61630Y40903D01*
X61639Y40904D01*
X61646Y40906D01*
X61658D01*
X61679Y40904D01*
D02*
G37*
G36*
X43252Y42127D02*
X43214Y42119D01*
X43183Y42107D01*
X43157Y42098D01*
X43135Y42086D01*
X43118Y42076D01*
X43107Y42068D01*
X43100Y42062D01*
X43097Y42061D01*
X43082Y42044D01*
X43069Y42026D01*
X43061Y42007D01*
X43055Y41990D01*
X43052Y41976D01*
X43051Y41964D01*
X43049Y41957D01*
Y41955D01*
Y41954D01*
X43051Y41938D01*
X43052Y41924D01*
X43061Y41896D01*
X43073Y41873D01*
X43087Y41854D01*
X43100Y41837D01*
X43113Y41826D01*
X43121Y41819D01*
X43123Y41816D01*
X43124D01*
X43140Y41807D01*
X43157Y41799D01*
X43176Y41792D01*
X43196Y41786D01*
X43238Y41776D01*
X43281Y41771D01*
X43300Y41768D01*
X43319Y41766D01*
X43336Y41765D01*
X43350D01*
X43362Y41764D01*
X43410D01*
X43440Y41766D01*
X43467Y41769D01*
X43491Y41772D01*
X43513Y41776D01*
X43534Y41780D01*
X43553Y41785D01*
X43568Y41790D01*
X43582Y41796D01*
X43595Y41800D01*
X43605Y41804D01*
X43613Y41809D01*
X43619Y41813D01*
X43625Y41814D01*
X43626Y41817D01*
X43627D01*
X43641Y41828D01*
X43653Y41840D01*
X43663Y41851D01*
X43671Y41862D01*
X43685Y41886D01*
X43694Y41909D01*
X43699Y41928D01*
X43702Y41944D01*
X43704Y41950D01*
Y41954D01*
Y41957D01*
Y41958D01*
X43702Y41981D01*
X43696Y42000D01*
X43691Y42017D01*
X43682Y42033D01*
X43675Y42045D01*
X43668Y42055D01*
X43663Y42061D01*
X43661Y42062D01*
X43644Y42078D01*
X43626Y42091D01*
X43606Y42102D01*
X43587Y42110D01*
X43570Y42116D01*
X43556Y42120D01*
X43550Y42122D01*
X43546D01*
X43544Y42123D01*
X43543D01*
X43588Y42279D01*
X43610Y42274D01*
X43632Y42267D01*
X43651Y42260D01*
X43671Y42253D01*
X43688Y42244D01*
X43704Y42237D01*
X43716Y42229D01*
X43729Y42222D01*
X43740Y42215D01*
X43750Y42208D01*
X43759Y42202D01*
X43766Y42196D01*
X43770Y42192D01*
X43774Y42189D01*
X43777Y42188D01*
Y42186D01*
X43792Y42170D01*
X43806Y42151D01*
X43819Y42133D01*
X43830Y42115D01*
X43839Y42096D01*
X43846Y42078D01*
X43857Y42043D01*
X43861Y42027D01*
X43864Y42013D01*
X43866Y42000D01*
X43867Y41989D01*
X43868Y41979D01*
Y41972D01*
Y41968D01*
Y41967D01*
X43867Y41937D01*
X43863Y41909D01*
X43857Y41883D01*
X43850Y41858D01*
X43840Y41835D01*
X43830Y41814D01*
X43819Y41795D01*
X43809Y41778D01*
X43798Y41762D01*
X43787Y41748D01*
X43777Y41737D01*
X43767Y41727D01*
X43760Y41720D01*
X43754Y41714D01*
X43750Y41711D01*
X43749Y41710D01*
X43722Y41690D01*
X43692Y41673D01*
X43663Y41659D01*
X43632Y41647D01*
X43599Y41635D01*
X43568Y41627D01*
X43537Y41620D01*
X43506Y41614D01*
X43478Y41610D01*
X43453Y41606D01*
X43429Y41603D01*
X43407Y41601D01*
X43392D01*
X43379Y41600D01*
X43368D01*
X43326Y41601D01*
X43286Y41604D01*
X43248Y41610D01*
X43213Y41617D01*
X43181Y41625D01*
X43151Y41634D01*
X43123Y41644D01*
X43099Y41655D01*
X43076Y41665D01*
X43056Y41675D01*
X43040Y41683D01*
X43027Y41692D01*
X43016Y41699D01*
X43007Y41704D01*
X43003Y41707D01*
X43001Y41709D01*
X42980Y41727D01*
X42963Y41747D01*
X42948Y41766D01*
X42934Y41787D01*
X42923Y41809D01*
X42913Y41828D01*
X42906Y41848D01*
X42899Y41868D01*
X42894Y41886D01*
X42890Y41903D01*
X42889Y41919D01*
X42886Y41931D01*
Y41943D01*
X42884Y41950D01*
Y41955D01*
Y41957D01*
X42886Y41979D01*
X42887Y42000D01*
X42896Y42040D01*
X42907Y42075D01*
X42914Y42091D01*
X42921Y42105D01*
X42928Y42117D01*
X42935Y42129D01*
X42941Y42139D01*
X42947Y42146D01*
X42951Y42153D01*
X42955Y42157D01*
X42956Y42160D01*
X42958Y42161D01*
X42973Y42177D01*
X42989Y42191D01*
X43025Y42215D01*
X43065Y42236D01*
X43103Y42253D01*
X43121Y42260D01*
X43138Y42265D01*
X43154Y42270D01*
X43166Y42274D01*
X43178Y42277D01*
X43186Y42279D01*
X43192Y42281D01*
X43193D01*
X43252Y42127D01*
D02*
G37*
%LPC*%
G36*
X54377Y29585D02*
X54052D01*
Y29404D01*
X54377Y29585D01*
D02*
G37*
G36*
X36796Y40398D02*
X36789D01*
X36772Y40396D01*
X36758Y40395D01*
X36744Y40392D01*
X36734Y40389D01*
X36724Y40385D01*
X36719Y40382D01*
X36714Y40381D01*
X36713Y40379D01*
X36703Y40372D01*
X36695Y40364D01*
X36689Y40357D01*
X36683Y40348D01*
X36679Y40341D01*
X36676Y40337D01*
X36675Y40333D01*
Y40331D01*
X36673Y40324D01*
X36672Y40317D01*
X36671Y40298D01*
X36668Y40275D01*
Y40253D01*
X36666Y40230D01*
Y40220D01*
Y40212D01*
Y40205D01*
Y40199D01*
Y40196D01*
Y40195D01*
Y40079D01*
X36909D01*
Y40202D01*
Y40220D01*
Y40237D01*
X36907Y40253D01*
Y40267D01*
Y40278D01*
X36906Y40289D01*
Y40298D01*
X36905Y40306D01*
X36903Y40317D01*
X36902Y40324D01*
X36900Y40329D01*
Y40330D01*
X36896Y40341D01*
X36891Y40351D01*
X36883Y40360D01*
X36878Y40367D01*
X36872Y40372D01*
X36867Y40377D01*
X36864Y40378D01*
X36862Y40379D01*
X36851Y40385D01*
X36840Y40391D01*
X36816Y40395D01*
X36805Y40396D01*
X36796Y40398D01*
D02*
G37*
G36*
X36842Y31211D02*
X36835D01*
X36818Y31210D01*
X36804Y31208D01*
X36790Y31205D01*
X36780Y31202D01*
X36770Y31198D01*
X36764Y31195D01*
X36760Y31194D01*
X36758Y31193D01*
X36749Y31186D01*
X36740Y31177D01*
X36735Y31170D01*
X36729Y31162D01*
X36725Y31155D01*
X36722Y31150D01*
X36720Y31146D01*
Y31145D01*
X36719Y31138D01*
X36718Y31131D01*
X36716Y31111D01*
X36713Y31088D01*
Y31066D01*
X36712Y31043D01*
Y31033D01*
Y31025D01*
Y31018D01*
Y31012D01*
Y31009D01*
Y31008D01*
Y30892D01*
X36954D01*
Y31015D01*
Y31033D01*
Y31050D01*
X36953Y31066D01*
Y31080D01*
Y31091D01*
X36952Y31102D01*
Y31111D01*
X36950Y31119D01*
X36949Y31131D01*
X36947Y31138D01*
X36946Y31142D01*
Y31143D01*
X36942Y31155D01*
X36936Y31164D01*
X36929Y31173D01*
X36923Y31180D01*
X36918Y31186D01*
X36912Y31190D01*
X36909Y31191D01*
X36908Y31193D01*
X36897Y31198D01*
X36885Y31204D01*
X36861Y31208D01*
X36850Y31210D01*
X36842Y31211D01*
D02*
G37*
G36*
X54379Y29014D02*
X54372D01*
X54356Y29013D01*
X54341Y29011D01*
X54327Y29008D01*
X54317Y29006D01*
X54308Y29001D01*
X54302Y28998D01*
X54298Y28997D01*
X54296Y28996D01*
X54286Y28989D01*
X54278Y28980D01*
X54272Y28973D01*
X54267Y28965D01*
X54262Y28958D01*
X54260Y28953D01*
X54258Y28949D01*
Y28948D01*
X54257Y28941D01*
X54255Y28934D01*
X54254Y28914D01*
X54251Y28891D01*
Y28869D01*
X54250Y28846D01*
Y28836D01*
Y28828D01*
Y28821D01*
Y28815D01*
Y28812D01*
Y28811D01*
Y28695D01*
X54492D01*
Y28818D01*
Y28836D01*
Y28853D01*
X54491Y28869D01*
Y28883D01*
Y28894D01*
X54489Y28905D01*
Y28914D01*
X54488Y28922D01*
X54487Y28934D01*
X54485Y28941D01*
X54484Y28945D01*
Y28946D01*
X54480Y28958D01*
X54474Y28967D01*
X54467Y28976D01*
X54461Y28983D01*
X54456Y28989D01*
X54450Y28993D01*
X54447Y28994D01*
X54446Y28996D01*
X54434Y29001D01*
X54423Y29007D01*
X54399Y29011D01*
X54388Y29013D01*
X54379Y29014D01*
D02*
G37*
G36*
X49644Y29014D02*
X49637D01*
X49620Y29013D01*
X49606Y29011D01*
X49592Y29008D01*
X49582Y29006D01*
X49573Y29001D01*
X49567Y28998D01*
X49563Y28997D01*
X49561Y28996D01*
X49551Y28989D01*
X49543Y28980D01*
X49537Y28973D01*
X49532Y28965D01*
X49527Y28958D01*
X49525Y28953D01*
X49523Y28949D01*
Y28948D01*
X49522Y28941D01*
X49520Y28934D01*
X49519Y28914D01*
X49516Y28891D01*
Y28869D01*
X49515Y28846D01*
Y28836D01*
Y28828D01*
Y28821D01*
Y28815D01*
Y28812D01*
Y28811D01*
Y28695D01*
X49757D01*
Y28818D01*
Y28836D01*
Y28853D01*
X49756Y28869D01*
Y28883D01*
Y28894D01*
X49754Y28905D01*
Y28914D01*
X49753Y28922D01*
X49752Y28934D01*
X49750Y28941D01*
X49749Y28945D01*
Y28946D01*
X49745Y28958D01*
X49739Y28967D01*
X49732Y28976D01*
X49726Y28983D01*
X49721Y28989D01*
X49715Y28993D01*
X49712Y28994D01*
X49711Y28996D01*
X49699Y29001D01*
X49688Y29007D01*
X49664Y29011D01*
X49653Y29013D01*
X49644Y29014D01*
D02*
G37*
G36*
X51801Y39289D02*
X51671D01*
Y38658D01*
X51774D01*
X51802Y38659D01*
X51823Y38661D01*
X51841Y38662D01*
X51854Y38663D01*
X51863Y38665D01*
X51868Y38666D01*
X51870D01*
X51885Y38672D01*
X51899Y38677D01*
X51912Y38686D01*
X51923Y38693D01*
X51932Y38701D01*
X51939Y38707D01*
X51943Y38711D01*
X51944Y38713D01*
X51956Y38727D01*
X51964Y38742D01*
X51973Y38759D01*
X51978Y38775D01*
X51984Y38789D01*
X51987Y38800D01*
X51989Y38807D01*
Y38809D01*
Y38810D01*
X51995Y38834D01*
X51998Y38862D01*
X52001Y38889D01*
X52004Y38916D01*
Y38940D01*
X52005Y38950D01*
Y38959D01*
Y38966D01*
Y38972D01*
Y38975D01*
Y38976D01*
Y39013D01*
X52002Y39045D01*
X52001Y39074D01*
X51998Y39098D01*
X51995Y39116D01*
X51992Y39130D01*
X51991Y39138D01*
X51989Y39140D01*
Y39141D01*
X51984Y39162D01*
X51978Y39182D01*
X51971Y39198D01*
X51966Y39210D01*
X51961Y39220D01*
X51957Y39227D01*
X51954Y39231D01*
X51953Y39233D01*
X51936Y39251D01*
X51918Y39264D01*
X51909Y39270D01*
X51904Y39272D01*
X51899Y39274D01*
X51898Y39275D01*
X51884Y39279D01*
X51867Y39284D01*
X51849Y39286D01*
X51830Y39288D01*
X51813D01*
X51801Y39289D01*
D02*
G37*
G36*
X47244Y29014D02*
X47236D01*
X47220Y29013D01*
X47205Y29011D01*
X47191Y29008D01*
X47181Y29006D01*
X47172Y29001D01*
X47166Y28998D01*
X47162Y28997D01*
X47160Y28996D01*
X47150Y28989D01*
X47142Y28980D01*
X47136Y28973D01*
X47131Y28965D01*
X47127Y28958D01*
X47124Y28953D01*
X47122Y28949D01*
Y28948D01*
X47121Y28941D01*
X47119Y28934D01*
X47118Y28914D01*
X47115Y28891D01*
Y28869D01*
X47114Y28846D01*
Y28836D01*
Y28828D01*
Y28821D01*
Y28815D01*
Y28812D01*
Y28811D01*
Y28695D01*
X47356D01*
Y28818D01*
Y28836D01*
Y28853D01*
X47355Y28869D01*
Y28883D01*
Y28894D01*
X47353Y28905D01*
Y28914D01*
X47352Y28922D01*
X47351Y28934D01*
X47349Y28941D01*
X47348Y28945D01*
Y28946D01*
X47344Y28958D01*
X47338Y28967D01*
X47331Y28976D01*
X47325Y28983D01*
X47320Y28989D01*
X47314Y28993D01*
X47311Y28994D01*
X47310Y28996D01*
X47299Y29001D01*
X47287Y29007D01*
X47263Y29011D01*
X47252Y29013D01*
X47244Y29014D01*
D02*
G37*
G36*
X52109Y29014D02*
X52102D01*
X52085Y29013D01*
X52071Y29011D01*
X52057Y29008D01*
X52047Y29006D01*
X52038Y29001D01*
X52032Y28998D01*
X52028Y28997D01*
X52026Y28996D01*
X52016Y28989D01*
X52008Y28980D01*
X52002Y28973D01*
X51997Y28965D01*
X51992Y28958D01*
X51990Y28953D01*
X51988Y28949D01*
Y28948D01*
X51987Y28941D01*
X51985Y28934D01*
X51984Y28914D01*
X51981Y28891D01*
Y28869D01*
X51980Y28846D01*
Y28836D01*
Y28828D01*
Y28821D01*
Y28815D01*
Y28812D01*
Y28811D01*
Y28695D01*
X52222D01*
Y28818D01*
Y28836D01*
Y28853D01*
X52221Y28869D01*
Y28883D01*
Y28894D01*
X52219Y28905D01*
Y28914D01*
X52218Y28922D01*
X52217Y28934D01*
X52215Y28941D01*
X52214Y28945D01*
Y28946D01*
X52210Y28958D01*
X52204Y28967D01*
X52197Y28976D01*
X52191Y28983D01*
X52186Y28989D01*
X52180Y28993D01*
X52177Y28994D01*
X52176Y28996D01*
X52164Y29001D01*
X52153Y29007D01*
X52129Y29011D01*
X52118Y29013D01*
X52109Y29014D01*
D02*
G37*
G36*
X51013Y39289D02*
X50883D01*
Y38658D01*
X50986D01*
X51014Y38659D01*
X51035Y38661D01*
X51053Y38662D01*
X51066Y38663D01*
X51075Y38665D01*
X51080Y38666D01*
X51082D01*
X51097Y38672D01*
X51111Y38677D01*
X51124Y38686D01*
X51135Y38693D01*
X51144Y38701D01*
X51151Y38707D01*
X51155Y38711D01*
X51156Y38713D01*
X51168Y38727D01*
X51176Y38742D01*
X51185Y38759D01*
X51190Y38775D01*
X51196Y38789D01*
X51199Y38800D01*
X51201Y38807D01*
Y38809D01*
Y38810D01*
X51207Y38834D01*
X51210Y38862D01*
X51213Y38889D01*
X51216Y38916D01*
Y38940D01*
X51217Y38950D01*
Y38959D01*
Y38966D01*
Y38972D01*
Y38975D01*
Y38976D01*
Y39013D01*
X51214Y39045D01*
X51213Y39074D01*
X51210Y39098D01*
X51207Y39116D01*
X51204Y39130D01*
X51203Y39138D01*
X51201Y39140D01*
Y39141D01*
X51196Y39162D01*
X51190Y39182D01*
X51183Y39198D01*
X51178Y39210D01*
X51173Y39220D01*
X51169Y39227D01*
X51166Y39231D01*
X51165Y39233D01*
X51148Y39251D01*
X51130Y39264D01*
X51121Y39270D01*
X51115Y39272D01*
X51111Y39274D01*
X51110Y39275D01*
X51096Y39279D01*
X51079Y39284D01*
X51061Y39286D01*
X51042Y39288D01*
X51025D01*
X51013Y39289D01*
D02*
G37*
G36*
X54942Y45992D02*
X54784D01*
X54769Y45991D01*
X54743D01*
X54732Y45989D01*
X54724D01*
X54715Y45988D01*
X54704Y45987D01*
X54697Y45985D01*
X54693Y45984D01*
X54691D01*
X54680Y45980D01*
X54670Y45974D01*
X54662Y45967D01*
X54655Y45961D01*
X54649Y45956D01*
X54645Y45950D01*
X54643Y45947D01*
X54642Y45946D01*
X54636Y45934D01*
X54631Y45923D01*
X54626Y45899D01*
X54625Y45888D01*
X54624Y45879D01*
Y45874D01*
Y45872D01*
X54625Y45856D01*
X54626Y45841D01*
X54629Y45827D01*
X54632Y45817D01*
X54636Y45808D01*
X54639Y45802D01*
X54640Y45798D01*
X54642Y45796D01*
X54649Y45786D01*
X54657Y45778D01*
X54664Y45772D01*
X54673Y45767D01*
X54680Y45762D01*
X54684Y45760D01*
X54688Y45758D01*
X54690D01*
X54697Y45757D01*
X54704Y45755D01*
X54724Y45754D01*
X54746Y45751D01*
X54769D01*
X54791Y45750D01*
X54942D01*
Y45992D01*
D02*
G37*
G36*
X46884Y29668D02*
X46869D01*
X46838Y29667D01*
X46811Y29664D01*
X46788Y29660D01*
X46770Y29654D01*
X46756Y29648D01*
X46746Y29644D01*
X46740Y29641D01*
X46739Y29640D01*
X46726Y29629D01*
X46716Y29617D01*
X46711Y29606D01*
X46705Y29595D01*
X46702Y29585D01*
X46701Y29578D01*
Y29572D01*
Y29571D01*
X46702Y29555D01*
X46708Y29540D01*
X46715Y29527D01*
X46725Y29516D01*
X46733Y29506D01*
X46740Y29499D01*
X46746Y29495D01*
X46747Y29493D01*
X46767Y29482D01*
X46790Y29475D01*
X46812Y29469D01*
X46833Y29465D01*
X46853Y29462D01*
X46870Y29461D01*
X46884D01*
X46912Y29462D01*
X46938Y29465D01*
X46957Y29471D01*
X46974Y29476D01*
X46988Y29481D01*
X46998Y29486D01*
X47004Y29489D01*
X47005Y29490D01*
X47019Y29502D01*
X47029Y29514D01*
X47036Y29527D01*
X47041Y29538D01*
X47045Y29548D01*
X47046Y29557D01*
Y29562D01*
Y29564D01*
X47045Y29579D01*
X47039Y29593D01*
X47032Y29606D01*
X47025Y29617D01*
X47017Y29626D01*
X47010Y29631D01*
X47004Y29636D01*
X47002Y29637D01*
X46984Y29647D01*
X46964Y29655D01*
X46942Y29661D01*
X46919Y29664D01*
X46900Y29667D01*
X46884Y29668D01*
D02*
G37*
G36*
X61689Y38404D02*
X61682D01*
X61666Y38402D01*
X61652Y38396D01*
X61639Y38388D01*
X61628Y38380D01*
X61618Y38371D01*
X61611Y38363D01*
X61607Y38357D01*
X61606Y38356D01*
X61594Y38336D01*
X61586Y38315D01*
X61579Y38291D01*
X61575Y38270D01*
X61572Y38250D01*
X61570Y38233D01*
Y38227D01*
Y38223D01*
Y38220D01*
Y38219D01*
X61572Y38191D01*
X61575Y38165D01*
X61580Y38144D01*
X61586Y38127D01*
X61591Y38113D01*
X61597Y38103D01*
X61600Y38098D01*
X61601Y38096D01*
X61614Y38084D01*
X61625Y38074D01*
X61638Y38067D01*
X61649Y38062D01*
X61659Y38060D01*
X61668Y38057D01*
X61675D01*
X61690Y38058D01*
X61704Y38064D01*
X61717Y38071D01*
X61728Y38078D01*
X61737Y38086D01*
X61744Y38092D01*
X61748Y38098D01*
X61749Y38099D01*
X61759Y38117D01*
X61766Y38138D01*
X61772Y38160D01*
X61775Y38182D01*
X61778Y38202D01*
X61779Y38217D01*
Y38224D01*
Y38229D01*
Y38232D01*
Y38233D01*
X61778Y38265D01*
X61775Y38292D01*
X61770Y38315D01*
X61765Y38333D01*
X61761Y38347D01*
X61756Y38357D01*
X61754Y38363D01*
X61752Y38364D01*
X61741Y38377D01*
X61730Y38387D01*
X61717Y38394D01*
X61706Y38399D01*
X61697Y38402D01*
X61689Y38404D01*
D02*
G37*
G36*
X59193Y10181D02*
X59035D01*
X59020Y10179D01*
X58995D01*
X58983Y10178D01*
X58975D01*
X58966Y10176D01*
X58955Y10175D01*
X58948Y10173D01*
X58944Y10172D01*
X58942D01*
X58931Y10168D01*
X58921Y10162D01*
X58913Y10155D01*
X58906Y10149D01*
X58900Y10144D01*
X58896Y10138D01*
X58894Y10135D01*
X58893Y10134D01*
X58887Y10123D01*
X58882Y10111D01*
X58878Y10087D01*
X58876Y10076D01*
X58875Y10068D01*
Y10062D01*
Y10061D01*
X58876Y10044D01*
X58878Y10030D01*
X58880Y10016D01*
X58883Y10006D01*
X58887Y9996D01*
X58890Y9990D01*
X58892Y9986D01*
X58893Y9985D01*
X58900Y9975D01*
X58909Y9966D01*
X58916Y9961D01*
X58924Y9955D01*
X58931Y9951D01*
X58935Y9948D01*
X58940Y9946D01*
X58941D01*
X58948Y9945D01*
X58955Y9944D01*
X58975Y9942D01*
X58997Y9939D01*
X59020D01*
X59043Y9938D01*
X59193D01*
Y10181D01*
D02*
G37*
G36*
X43577Y43283D02*
X43252D01*
Y43103D01*
X43577Y43283D01*
D02*
G37*
G36*
X61658Y40754D02*
X61656D01*
X61641Y40751D01*
X61627Y40744D01*
X61615Y40735D01*
X61606Y40724D01*
X61597Y40713D01*
X61591Y40704D01*
X61589Y40697D01*
X61587Y40694D01*
X61583Y40682D01*
X61579Y40666D01*
X61575Y40648D01*
X61572Y40627D01*
X61569Y40605D01*
X61567Y40582D01*
X61563Y40535D01*
Y40512D01*
X61562Y40491D01*
Y40472D01*
X61560Y40455D01*
Y40441D01*
Y40429D01*
Y40422D01*
Y40419D01*
Y40380D01*
X61562Y40345D01*
X61563Y40314D01*
X61565Y40285D01*
X61566Y40260D01*
X61569Y40238D01*
X61572Y40218D01*
X61573Y40201D01*
X61576Y40187D01*
X61579Y40174D01*
X61582Y40164D01*
X61583Y40157D01*
X61584Y40152D01*
X61586Y40147D01*
X61587Y40146D01*
Y40145D01*
X61597Y40125D01*
X61608Y40111D01*
X61620Y40101D01*
X61631Y40094D01*
X61641Y40090D01*
X61649Y40088D01*
X61655Y40087D01*
X61656D01*
X61672Y40090D01*
X61686Y40095D01*
X61699Y40105D01*
X61708Y40116D01*
X61717Y40126D01*
X61723Y40136D01*
X61725Y40142D01*
X61727Y40145D01*
X61731Y40157D01*
X61735Y40173D01*
X61738Y40191D01*
X61741Y40212D01*
X61744Y40233D01*
X61747Y40257D01*
X61749Y40304D01*
Y40326D01*
X61751Y40348D01*
Y40367D01*
X61752Y40384D01*
Y40400D01*
Y40410D01*
Y40417D01*
Y40419D01*
Y40459D01*
X61751Y40494D01*
X61749Y40525D01*
X61748Y40553D01*
X61747Y40579D01*
X61744Y40601D01*
X61742Y40621D01*
X61739Y40638D01*
X61737Y40652D01*
X61735Y40665D01*
X61732Y40675D01*
X61731Y40682D01*
X61730Y40687D01*
X61728Y40691D01*
X61727Y40694D01*
X61717Y40714D01*
X61706Y40728D01*
X61693Y40739D01*
X61682Y40746D01*
X61672Y40751D01*
X61663Y40752D01*
X61658Y40754D01*
D02*
G37*
%LPD*%
D10*
X64250Y52500D02*
G03*
X64250Y52500I-2750J0D01*
G01*
Y3500D02*
G03*
X64250Y3500I-2750J0D01*
G01*
X6250D02*
G03*
X6250Y3500I-2750J0D01*
G01*
X44000Y34399D02*
X45800D01*
X44000Y31339D02*
X45800D01*
Y34399D01*
X44000Y31339D02*
Y34399D01*
X42340Y34700D02*
X45800D01*
X42340D02*
Y36700D01*
X45800Y34700D02*
Y36700D01*
X42340D02*
X45800D01*
X59800Y10800D02*
X59800Y8775D01*
X63425Y8775D02*
X63425Y10800D01*
X59800Y8775D02*
X63425Y8775D01*
X59800Y10800D02*
X63425Y10800D01*
X59041Y44600D02*
X59041Y46625D01*
X55516Y46625D02*
X55516Y44600D01*
X55516Y46625D02*
X59041Y46625D01*
X55516Y44600D02*
X59041Y44600D01*
X55548Y48925D02*
X59008Y48925D01*
X59008Y46925D01*
X55548Y48925D02*
X55548Y46925D01*
X59008Y46925D01*
X55770Y32803D02*
X59230Y32803D01*
X55770Y32803D02*
X55770Y34803D01*
X59230Y32803D02*
X59230Y34803D01*
X55770Y34803D02*
X59230Y34803D01*
X44340Y37870D02*
X44340Y41330D01*
X42340Y37870D02*
X44340Y37870D01*
X42340Y41330D02*
X44340Y41330D01*
X42340Y37870D02*
X42340Y41330D01*
X57670Y39450D02*
X61130Y39450D01*
X57670Y39450D02*
X57670Y41450D01*
X61130Y39450D02*
X61130Y41450D01*
X57670Y41450D02*
X61130Y41450D01*
X57680Y37100D02*
X61140Y37100D01*
X57680Y37100D02*
X57680Y39100D01*
X61140Y37100D02*
X61140Y39100D01*
X57680Y39100D02*
X61140Y39100D01*
X48465Y28212D02*
X50490Y28212D01*
X48465Y24587D02*
X50490Y24587D01*
X48465Y28212D02*
X48465Y24587D01*
X50490Y24587D02*
X50490Y28212D01*
X53175D02*
X55200Y28212D01*
X53175Y24587D02*
X55200Y24587D01*
X53175Y24587D02*
X53175Y28212D01*
X55200Y28212D02*
X55200Y24587D01*
X46125Y28212D02*
X48150Y28212D01*
X46125Y24587D02*
X48150Y24587D01*
X46125Y24587D02*
X46125Y28212D01*
X48150Y24587D02*
X48150Y28212D01*
X59570Y32803D02*
X63030Y32803D01*
X59570Y32803D02*
X59570Y34803D01*
X63030Y32803D02*
X63030Y34803D01*
X59570Y34803D02*
X63030Y34803D01*
X62234Y32563D02*
X62234Y28638D01*
X56459Y28638D02*
X62234Y28638D01*
X56460Y32563D02*
X62234Y32563D01*
X56459Y32563D02*
X56459Y28638D01*
X35600Y32320D02*
X37625Y32320D01*
X35600Y35845D02*
X37625Y35845D01*
X37625Y32320D01*
X35600Y32320D02*
X35600Y35845D01*
X35600Y36076D02*
X37625Y36076D01*
X35600Y39601D02*
X37625Y39601D01*
Y36076D02*
Y39601D01*
X35600Y36076D02*
Y39601D01*
X48775Y35800D02*
X54675Y35800D01*
X48775Y41700D02*
X54675D01*
X48775Y35800D02*
X48775Y41700D01*
X54675D02*
X54675Y35800D01*
X50805Y28212D02*
X52830Y28213D01*
X50805Y24587D02*
X52830Y24587D01*
X50805Y28212D02*
X50805Y24587D01*
X52830Y24587D02*
X52830Y28213D01*
D13*
X9000Y25200D02*
X12375D01*
X10725Y23500D02*
Y26875D01*
X10650Y29125D02*
Y32500D01*
X800Y25575D02*
X2650D01*
X1675Y24700D02*
Y26550D01*
X1725Y29625D02*
Y31475D01*
X48175Y1546D02*
X50025Y1546D01*
X51625Y1500D02*
X53475D01*
X52600Y625D02*
Y2475D01*
D32*
X53975Y40700D02*
G03*
X53975Y40700I-300J0D01*
G01*
D51*
X57951Y55253D02*
X57951Y49553D01*
X6791Y55253D02*
X6791Y49553D01*
X6791Y55253D02*
X57951Y55253D01*
X6791Y49553D02*
X57951Y49553D01*
D52*
X56050Y42375D02*
G03*
X56050Y42375I-125J0D01*
G01*
M02*
