M48
;Layer_Color=9474304
;FILE_FORMAT=4:3
METRIC,LZ
;TYPE=PLATED
T1F00S00C0.300
T2F00S00C0.500
T3F00S00C0.700
T4F00S00C0.800
T5F00S00C0.900
T6F00S00C1.100
T7F00S00C1.600
;TYPE=NON_PLATED
T8F00S00C3.000
%
T01
X0046332Y0006265
X00472Y0006236
X0048045Y0006231
Y0007164
X00472Y0007168
X0046332Y0007197
Y0008129
X00472Y00081
X0048045Y0008096
X0054806Y00045
Y0003693
X0054783Y00029
X0058017
X0057994Y0003693
Y00045
X005919Y00086
X006375Y00086
X0057266Y0019247
X0039315Y0018825
X00384Y0018842
X0038397Y0017838
X0039312Y0017821
X0037457Y0014854
Y0013922
Y001299
X0036545Y0013
X003565
X0036315Y0006907
X0030884Y0006735
X003355Y0003
X0028535Y0001143
X0022815Y0004625
X00242Y0016914
X002507Y0016904
X002594Y0016894
X00258Y00178
X00263Y0018986
X0027326Y0019321
X0028265Y00197
X0038403Y0019846
X0039318Y0019829
X0039322Y0020783
X0038407Y00208
X0038139Y00219
X0040383Y00228
X00432Y00334
X0038344Y00404
X0037512Y0040411
Y0041343
X0038344Y0041332
X0026995Y00363
X0025725
X0023955
X0019538Y0041775
X001873
X0017876Y0041775
X0013222Y0041646
Y0040838
X0045124Y0040445
X004623Y0039106
X0046291Y00326
X0046281Y00307
Y00242
X0056447Y0020053
X0058267Y0020046
X0059168
X0061465Y00216
X0061053Y00352
X0062145Y0035132
X0058345Y0035132
X0058565Y0039216
X0058555Y0041944
X0054365Y003995
Y003835
X0054883Y00456
X0055033Y0047925
X005255Y00444
X004831Y0044418
T02
X0019782Y0019308
X002138
X0021377Y0017847
X0021382Y0020769
X0021385Y002223
X0021387Y0023691
X002139Y0025152
X0021392Y0026613
X0021395Y0028074
X0021397Y0029535
X00214Y0030996
X0021403Y0032457
X0021405Y0033918
X0023Y0032457
X0022997Y0030996
X0022995Y0029535
X0022992Y0028074
X002299Y0026613
X0022987Y0025152
X0022985Y0023691
X0024582
X0024585Y0025152
X0024587Y0026613
X002459Y0028074
X0024592Y0029535
X0024595Y0030996
X0024597Y0032457
X0026195
X0026192Y0030996
X002619Y0029535
X0026187Y0028074
X0026185Y0026613
X0026182Y0025152
X002618Y0023691
X002778Y0025152
X0027782Y0026613
X0027785Y0028074
X0027787Y0029535
X002779Y0030996
X0027792Y0032457
X002939
X0029387Y0030996
X0029385Y0029535
X0029382Y0028074
X002938Y0026613
X003098Y0028074
X0030982Y0029535
X0030985Y0030996
X0030987Y0032457
X0032582Y0030996
X003258Y0029535
X0035214Y0032263
X00401Y0042978
Y0044089
Y00452
X00412Y0045189
Y0044078
Y0042967
X00423Y0042956
Y0044067
Y0045178
X0019803Y0030996
X00198Y0029535
X0019798Y0028074
X0019795Y0026613
X0019792Y0025152
X0019785Y0020769
X0049205Y0028857
X0049545Y00314
X0053885Y00314
X0056Y0028
X005925Y002783
X00629Y00306
T03
X00096Y00066
X00172Y00066
X0040257Y0006194
X0040257Y0008194
X0040257Y0004194
X0040257Y0002194
T04
X0008291Y0051213
X0010831Y0051213
X0010831Y0053753
X0013371
X0015911
X0018451
X0018451Y0051213
X0015911Y0051213
X0013371Y0051213
X0020991
X0023531Y0051213
Y0053753
X0020991Y0053753
X0026071Y0053753
Y0051213
X0028611
X0028611Y0053753
X0031151Y0053753
X0031151Y0051213
X0033691Y0051213
X0036231Y0051213
X0038771Y0051213
X0041311Y0051213
X0041311Y0053753
X0043851Y0053753
X0043851Y0051213
X0038771Y0053753
X0036231Y0053753
X0033691Y0053753
X0008291Y0053753
X0046391Y0053753
X0048931Y0053753
X0051471Y0053753
X0051471Y0051213
X0054011Y0051213
X0054011Y0053753
X0056551Y0053753
X0056551Y0051213
X0048931Y0051213
X0046391Y0051213
T05
X004942Y0009928
X005196Y0009928
X005196Y0012468
Y0015008
X005196Y0017548
X00545Y0017548
X00545Y0015008
X00545Y0012468
X00545Y0009928
X005946Y0012488
X0062Y0012488
X0062Y0015028
X005946Y0015028
X005946Y0017568
X0062Y0017568
X004942Y0017548
X004942Y0015008
X004942Y0012468
X006048Y0047925
X006298Y0047925
T06
X004905Y0003896
X005255Y0003896
X0007272Y001677
X0007272Y001927
X0007272Y002675
X0007272Y002925
X0007272Y003675
Y003925
T07
X00046Y00155
X00046Y00205
X00046Y00255
Y00305
X00046Y00355
X00046Y00405
T08
X00615Y00035
X00035
X00615Y00525
M30
