G04 Layer_Color=8388736*
%FSLAX43Y43*%
%MOMM*%
G71*
G01*
G75*
G04:AMPARAMS|DCode=57|XSize=3.2mm|YSize=5.7mm|CornerRadius=0.438mm|HoleSize=0mm|Usage=FLASHONLY|Rotation=0.000|XOffset=0mm|YOffset=0mm|HoleType=Round|Shape=RoundedRectangle|*
%AMROUNDEDRECTD57*
21,1,3.200,4.825,0,0,0.0*
21,1,2.325,5.700,0,0,0.0*
1,1,0.875,1.163,-2.413*
1,1,0.875,-1.163,-2.413*
1,1,0.875,-1.163,2.413*
1,1,0.875,1.163,2.413*
%
%ADD57ROUNDEDRECTD57*%
G04:AMPARAMS|DCode=58|XSize=1.84mm|YSize=2.27mm|CornerRadius=0.268mm|HoleSize=0mm|Usage=FLASHONLY|Rotation=270.000|XOffset=0mm|YOffset=0mm|HoleType=Round|Shape=RoundedRectangle|*
%AMROUNDEDRECTD58*
21,1,1.840,1.735,0,0,270.0*
21,1,1.305,2.270,0,0,270.0*
1,1,0.535,-0.868,-0.652*
1,1,0.535,-0.868,0.652*
1,1,0.535,0.868,0.652*
1,1,0.535,0.868,-0.652*
%
%ADD58ROUNDEDRECTD58*%
G04:AMPARAMS|DCode=59|XSize=1.84mm|YSize=2.27mm|CornerRadius=0.268mm|HoleSize=0mm|Usage=FLASHONLY|Rotation=180.000|XOffset=0mm|YOffset=0mm|HoleType=Round|Shape=RoundedRectangle|*
%AMROUNDEDRECTD59*
21,1,1.840,1.735,0,0,180.0*
21,1,1.305,2.270,0,0,180.0*
1,1,0.535,-0.652,0.868*
1,1,0.535,0.652,0.868*
1,1,0.535,0.652,-0.868*
1,1,0.535,-0.652,-0.868*
%
%ADD59ROUNDEDRECTD59*%
%ADD60R,16.750X6.450*%
G04:AMPARAMS|DCode=61|XSize=0.81mm|YSize=2.29mm|CornerRadius=0.139mm|HoleSize=0mm|Usage=FLASHONLY|Rotation=0.000|XOffset=0mm|YOffset=0mm|HoleType=Round|Shape=RoundedRectangle|*
%AMROUNDEDRECTD61*
21,1,0.810,2.013,0,0,0.0*
21,1,0.532,2.290,0,0,0.0*
1,1,0.278,0.266,-1.006*
1,1,0.278,-0.266,-1.006*
1,1,0.278,-0.266,1.006*
1,1,0.278,0.266,1.006*
%
%ADD61ROUNDEDRECTD61*%
G04:AMPARAMS|DCode=62|XSize=1.29mm|YSize=3.06mm|CornerRadius=0.199mm|HoleSize=0mm|Usage=FLASHONLY|Rotation=90.000|XOffset=0mm|YOffset=0mm|HoleType=Round|Shape=RoundedRectangle|*
%AMROUNDEDRECTD62*
21,1,1.290,2.663,0,0,90.0*
21,1,0.892,3.060,0,0,90.0*
1,1,0.398,1.331,0.446*
1,1,0.398,1.331,-0.446*
1,1,0.398,-1.331,-0.446*
1,1,0.398,-1.331,0.446*
%
%ADD62ROUNDEDRECTD62*%
G04:AMPARAMS|DCode=63|XSize=7.38mm|YSize=6.94mm|CornerRadius=0.905mm|HoleSize=0mm|Usage=FLASHONLY|Rotation=270.000|XOffset=0mm|YOffset=0mm|HoleType=Round|Shape=RoundedRectangle|*
%AMROUNDEDRECTD63*
21,1,7.380,5.130,0,0,270.0*
21,1,5.570,6.940,0,0,270.0*
1,1,1.810,-2.565,-2.785*
1,1,1.810,-2.565,2.785*
1,1,1.810,2.565,2.785*
1,1,1.810,2.565,-2.785*
%
%ADD63ROUNDEDRECTD63*%
G04:AMPARAMS|DCode=64|XSize=1.01mm|YSize=1.56mm|CornerRadius=0.164mm|HoleSize=0mm|Usage=FLASHONLY|Rotation=180.000|XOffset=0mm|YOffset=0mm|HoleType=Round|Shape=RoundedRectangle|*
%AMROUNDEDRECTD64*
21,1,1.010,1.232,0,0,180.0*
21,1,0.683,1.560,0,0,180.0*
1,1,0.328,-0.341,0.616*
1,1,0.328,0.341,0.616*
1,1,0.328,0.341,-0.616*
1,1,0.328,-0.341,-0.616*
%
%ADD64ROUNDEDRECTD64*%
G04:AMPARAMS|DCode=65|XSize=2.22mm|YSize=3.3mm|CornerRadius=0.315mm|HoleSize=0mm|Usage=FLASHONLY|Rotation=0.000|XOffset=0mm|YOffset=0mm|HoleType=Round|Shape=RoundedRectangle|*
%AMROUNDEDRECTD65*
21,1,2.220,2.670,0,0,0.0*
21,1,1.590,3.300,0,0,0.0*
1,1,0.630,0.795,-1.335*
1,1,0.630,-0.795,-1.335*
1,1,0.630,-0.795,1.335*
1,1,0.630,0.795,1.335*
%
%ADD65ROUNDEDRECTD65*%
G04:AMPARAMS|DCode=66|XSize=1.31mm|YSize=1.56mm|CornerRadius=0.201mm|HoleSize=0mm|Usage=FLASHONLY|Rotation=180.000|XOffset=0mm|YOffset=0mm|HoleType=Round|Shape=RoundedRectangle|*
%AMROUNDEDRECTD66*
21,1,1.310,1.157,0,0,180.0*
21,1,0.907,1.560,0,0,180.0*
1,1,0.403,-0.454,0.579*
1,1,0.403,0.454,0.579*
1,1,0.403,0.454,-0.579*
1,1,0.403,-0.454,-0.579*
%
%ADD66ROUNDEDRECTD66*%
G04:AMPARAMS|DCode=67|XSize=1.31mm|YSize=1.56mm|CornerRadius=0.201mm|HoleSize=0mm|Usage=FLASHONLY|Rotation=270.000|XOffset=0mm|YOffset=0mm|HoleType=Round|Shape=RoundedRectangle|*
%AMROUNDEDRECTD67*
21,1,1.310,1.157,0,0,270.0*
21,1,0.907,1.560,0,0,270.0*
1,1,0.403,-0.579,-0.454*
1,1,0.403,-0.579,0.454*
1,1,0.403,0.579,0.454*
1,1,0.403,0.579,-0.454*
%
%ADD67ROUNDEDRECTD67*%
G04:AMPARAMS|DCode=68|XSize=2.22mm|YSize=3.3mm|CornerRadius=0.315mm|HoleSize=0mm|Usage=FLASHONLY|Rotation=90.000|XOffset=0mm|YOffset=0mm|HoleType=Round|Shape=RoundedRectangle|*
%AMROUNDEDRECTD68*
21,1,2.220,2.670,0,0,90.0*
21,1,1.590,3.300,0,0,90.0*
1,1,0.630,1.335,0.795*
1,1,0.630,1.335,-0.795*
1,1,0.630,-1.335,-0.795*
1,1,0.630,-1.335,0.795*
%
%ADD68ROUNDEDRECTD68*%
G04:AMPARAMS|DCode=69|XSize=1.86mm|YSize=2.92mm|CornerRadius=0.27mm|HoleSize=0mm|Usage=FLASHONLY|Rotation=270.000|XOffset=0mm|YOffset=0mm|HoleType=Round|Shape=RoundedRectangle|*
%AMROUNDEDRECTD69*
21,1,1.860,2.380,0,0,270.0*
21,1,1.320,2.920,0,0,270.0*
1,1,0.540,-1.190,-0.660*
1,1,0.540,-1.190,0.660*
1,1,0.540,1.190,0.660*
1,1,0.540,1.190,-0.660*
%
%ADD69ROUNDEDRECTD69*%
G04:AMPARAMS|DCode=70|XSize=1.63mm|YSize=1.12mm|CornerRadius=0.177mm|HoleSize=0mm|Usage=FLASHONLY|Rotation=180.000|XOffset=0mm|YOffset=0mm|HoleType=Round|Shape=RoundedRectangle|*
%AMROUNDEDRECTD70*
21,1,1.630,0.765,0,0,180.0*
21,1,1.275,1.120,0,0,180.0*
1,1,0.355,-0.637,0.383*
1,1,0.355,0.637,0.383*
1,1,0.355,0.637,-0.383*
1,1,0.355,-0.637,-0.383*
%
%ADD70ROUNDEDRECTD70*%
G04:AMPARAMS|DCode=71|XSize=1.63mm|YSize=1.12mm|CornerRadius=0.177mm|HoleSize=0mm|Usage=FLASHONLY|Rotation=270.000|XOffset=0mm|YOffset=0mm|HoleType=Round|Shape=RoundedRectangle|*
%AMROUNDEDRECTD71*
21,1,1.630,0.765,0,0,270.0*
21,1,1.275,1.120,0,0,270.0*
1,1,0.355,-0.383,-0.637*
1,1,0.355,-0.383,0.637*
1,1,0.355,0.383,0.637*
1,1,0.355,0.383,-0.637*
%
%ADD71ROUNDEDRECTD71*%
G04:AMPARAMS|DCode=72|XSize=1.6mm|YSize=1.6mm|CornerRadius=0.237mm|HoleSize=0mm|Usage=FLASHONLY|Rotation=180.000|XOffset=0mm|YOffset=0mm|HoleType=Round|Shape=RoundedRectangle|*
%AMROUNDEDRECTD72*
21,1,1.600,1.125,0,0,180.0*
21,1,1.125,1.600,0,0,180.0*
1,1,0.475,-0.563,0.563*
1,1,0.475,0.563,0.563*
1,1,0.475,0.563,-0.563*
1,1,0.475,-0.563,-0.563*
%
%ADD72ROUNDEDRECTD72*%
G04:AMPARAMS|DCode=73|XSize=1.1mm|YSize=1.5mm|CornerRadius=0.175mm|HoleSize=0mm|Usage=FLASHONLY|Rotation=0.000|XOffset=0mm|YOffset=0mm|HoleType=Round|Shape=RoundedRectangle|*
%AMROUNDEDRECTD73*
21,1,1.100,1.150,0,0,0.0*
21,1,0.750,1.500,0,0,0.0*
1,1,0.350,0.375,-0.575*
1,1,0.350,-0.375,-0.575*
1,1,0.350,-0.375,0.575*
1,1,0.350,0.375,0.575*
%
%ADD73ROUNDEDRECTD73*%
%ADD74C,2.000*%
%ADD75C,1.300*%
%ADD76R,1.300X1.300*%
%ADD77C,1.500*%
%ADD78C,2.800*%
%ADD79R,2.300X2.300*%
%ADD80R,2.000X2.000*%
%ADD81C,2.103*%
%ADD82C,1.603*%
%ADD83R,1.500X1.500*%
%ADD84C,0.100*%
%ADD85C,1.800*%
%ADD86R,1.800X1.800*%
%ADD87R,1.800X1.800*%
%ADD88C,1.100*%
D57*
X51380Y40025D02*
D03*
X62480Y40025D02*
D03*
D58*
X26030Y15000D02*
D03*
X22270Y15000D02*
D03*
X31980Y40940D02*
D03*
X35740Y40940D02*
D03*
X35740Y37740D02*
D03*
X31980Y37740D02*
D03*
X22245Y40940D02*
D03*
X26005Y40940D02*
D03*
X31975Y15025D02*
D03*
X35735D02*
D03*
X35730Y18275D02*
D03*
X31970Y18275D02*
D03*
X43820Y35039D02*
D03*
X47580Y35039D02*
D03*
D59*
X10785Y42590D02*
D03*
Y38830D02*
D03*
Y14020D02*
D03*
Y17780D02*
D03*
D60*
X28900Y28000D02*
D03*
D61*
X34615Y34550D02*
D03*
X33345D02*
D03*
X32075D02*
D03*
X30805D02*
D03*
X29535D02*
D03*
X28265D02*
D03*
X26995D02*
D03*
X25725D02*
D03*
X24455D02*
D03*
X23185D02*
D03*
X34615Y21450D02*
D03*
X33345D02*
D03*
X32075D02*
D03*
X30805D02*
D03*
X29535D02*
D03*
X28265D02*
D03*
X26995D02*
D03*
X25725D02*
D03*
X24455D02*
D03*
X23185D02*
D03*
D62*
X51715Y24600D02*
D03*
X51715Y26300D02*
D03*
X51715Y31400D02*
D03*
Y29700D02*
D03*
X51715Y28000D02*
D03*
D63*
X41400Y28000D02*
D03*
D64*
X62575Y8600D02*
D03*
X60625D02*
D03*
D65*
X44425Y38720D02*
D03*
X44425Y46280D02*
D03*
X59250Y31080D02*
D03*
X59250Y23520D02*
D03*
D66*
X18709Y17300D02*
D03*
X17019Y17300D02*
D03*
X22730Y18300D02*
D03*
X24420Y18300D02*
D03*
D67*
X18600Y40256D02*
D03*
Y38566D02*
D03*
D68*
X18730Y32850D02*
D03*
X11170Y32850D02*
D03*
X18730Y23300D02*
D03*
X11170Y23300D02*
D03*
D69*
X15600Y41491D02*
D03*
Y38901D02*
D03*
D70*
X34939Y3002D02*
D03*
X34938Y987D02*
D03*
X34939Y6907D02*
D03*
X34938Y4892D02*
D03*
X30884Y2493D02*
D03*
Y4508D02*
D03*
X28535Y2418D02*
D03*
Y4432D02*
D03*
D71*
X60643Y20257D02*
D03*
X62657Y20257D02*
D03*
D72*
X56400Y3846D02*
D03*
X56400Y6146D02*
D03*
X56400Y1546D02*
D03*
D73*
X25040Y2425D02*
D03*
X24090Y4625D02*
D03*
X25990Y4625D02*
D03*
D74*
X7272Y26750D02*
D03*
X7272Y29250D02*
D03*
X7272Y16770D02*
D03*
X7272Y19270D02*
D03*
X7272Y36750D02*
D03*
Y39250D02*
D03*
X49420Y17548D02*
D03*
X49420Y15008D02*
D03*
X49420Y12468D02*
D03*
X49420Y9928D02*
D03*
X51960Y9928D02*
D03*
X51960Y12468D02*
D03*
Y15008D02*
D03*
X51960Y17548D02*
D03*
X54500Y15008D02*
D03*
X54500Y12468D02*
D03*
X62980Y47925D02*
D03*
X60480Y47925D02*
D03*
D75*
X40257Y4194D02*
D03*
X40257Y6194D02*
D03*
X40257Y8194D02*
D03*
D76*
X40257Y2194D02*
D03*
D77*
X9600Y6600D02*
D03*
X17200Y6600D02*
D03*
X18451Y53753D02*
D03*
X20991D02*
D03*
X36231Y53753D02*
D03*
X33691Y53753D02*
D03*
X26071Y53753D02*
D03*
X23531Y53753D02*
D03*
X31151Y53753D02*
D03*
X41311Y53753D02*
D03*
X38771Y53753D02*
D03*
X46391D02*
D03*
X8291Y53753D02*
D03*
X10831Y53753D02*
D03*
X13371D02*
D03*
X15911D02*
D03*
X46391Y51213D02*
D03*
X38771Y51213D02*
D03*
X41311Y51213D02*
D03*
X31151Y51213D02*
D03*
X23531Y51213D02*
D03*
X26071Y51213D02*
D03*
X33691D02*
D03*
X36231Y51213D02*
D03*
X20991Y51213D02*
D03*
X13371D02*
D03*
X10831Y51213D02*
D03*
X18451Y51213D02*
D03*
X51471Y51213D02*
D03*
X48931Y51213D02*
D03*
X56551Y51213D02*
D03*
X56551Y53753D02*
D03*
X48931D02*
D03*
X51471Y53753D02*
D03*
D78*
X4600Y35500D02*
D03*
X4600Y25500D02*
D03*
X4600Y20500D02*
D03*
X4600Y30500D02*
D03*
Y40500D02*
D03*
D79*
Y15500D02*
D03*
D80*
X54500Y9928D02*
D03*
D81*
X54500Y17548D02*
D03*
D82*
X28611Y53753D02*
D03*
X43851Y53753D02*
D03*
X43851Y51213D02*
D03*
X28611Y51213D02*
D03*
X15911Y51213D02*
D03*
X54011Y51213D02*
D03*
X54011Y53753D02*
D03*
D83*
X8291Y51213D02*
D03*
D84*
X61500Y52500D02*
D03*
Y3500D02*
D03*
X3500D02*
D03*
D85*
X49050Y3896D02*
D03*
X62000Y15028D02*
D03*
X62000Y17568D02*
D03*
X59460Y17568D02*
D03*
X59460Y15028D02*
D03*
X59460Y12488D02*
D03*
D86*
X52550Y3896D02*
D03*
D87*
X62000Y12488D02*
D03*
D88*
X32580Y29535D02*
D03*
X32582Y30996D02*
D03*
X30980Y28074D02*
D03*
X30982Y29535D02*
D03*
X30985Y30996D02*
D03*
X30987Y32457D02*
D03*
X29380Y26613D02*
D03*
X29382Y28074D02*
D03*
X29385Y29535D02*
D03*
X27780Y25152D02*
D03*
X27782Y26613D02*
D03*
X27785Y28074D02*
D03*
X26180Y23691D02*
D03*
X26182Y25152D02*
D03*
X26185Y26613D02*
D03*
X24582Y23691D02*
D03*
X24585Y25152D02*
D03*
X21377Y17847D02*
D03*
X21405Y33918D02*
D03*
X19785Y20769D02*
D03*
X19782Y19308D02*
D03*
X22985Y23691D02*
D03*
X26187Y28074D02*
D03*
X27787Y29535D02*
D03*
X29387Y30996D02*
D03*
X29390Y32457D02*
D03*
X19803Y30996D02*
D03*
X19800Y29535D02*
D03*
X19798Y28074D02*
D03*
X19795Y26613D02*
D03*
X19792Y25152D02*
D03*
X24587Y26613D02*
D03*
X24590Y28074D02*
D03*
X22987Y25152D02*
D03*
X27790Y30996D02*
D03*
X27792Y32457D02*
D03*
X26190Y29535D02*
D03*
X26192Y30996D02*
D03*
X26195Y32457D02*
D03*
X24592Y29535D02*
D03*
X24595Y30996D02*
D03*
X24597Y32457D02*
D03*
X23000D02*
D03*
X22997Y30996D02*
D03*
X22995Y29535D02*
D03*
X22992Y28074D02*
D03*
X22990Y26613D02*
D03*
X21380Y19308D02*
D03*
X21382Y20769D02*
D03*
X21385Y22230D02*
D03*
X21387Y23691D02*
D03*
X21390Y25152D02*
D03*
X21392Y26613D02*
D03*
X21395Y28074D02*
D03*
X21397Y29535D02*
D03*
X21400Y30996D02*
D03*
X21403Y32457D02*
D03*
M02*
